G04 #@! TF.GenerationSoftware,KiCad,Pcbnew,8.0.1*
G04 #@! TF.CreationDate,2024-04-14T23:13:04-04:00*
G04 #@! TF.ProjectId,Bird3Controller,42697264-3343-46f6-9e74-726f6c6c6572,rev?*
G04 #@! TF.SameCoordinates,Original*
G04 #@! TF.FileFunction,Soldermask,Bot*
G04 #@! TF.FilePolarity,Negative*
%FSLAX46Y46*%
G04 Gerber Fmt 4.6, Leading zero omitted, Abs format (unit mm)*
G04 Created by KiCad (PCBNEW 8.0.1) date 2024-04-14 23:13:04*
%MOMM*%
%LPD*%
G01*
G04 APERTURE LIST*
G04 Aperture macros list*
%AMRoundRect*
0 Rectangle with rounded corners*
0 $1 Rounding radius*
0 $2 $3 $4 $5 $6 $7 $8 $9 X,Y pos of 4 corners*
0 Add a 4 corners polygon primitive as box body*
4,1,4,$2,$3,$4,$5,$6,$7,$8,$9,$2,$3,0*
0 Add four circle primitives for the rounded corners*
1,1,$1+$1,$2,$3*
1,1,$1+$1,$4,$5*
1,1,$1+$1,$6,$7*
1,1,$1+$1,$8,$9*
0 Add four rect primitives between the rounded corners*
20,1,$1+$1,$2,$3,$4,$5,0*
20,1,$1+$1,$4,$5,$6,$7,0*
20,1,$1+$1,$6,$7,$8,$9,0*
20,1,$1+$1,$8,$9,$2,$3,0*%
G04 Aperture macros list end*
%ADD10R,1.000000X0.700000*%
%ADD11R,1.525000X0.650000*%
%ADD12R,2.400000X3.100000*%
%ADD13R,0.802000X1.505000*%
%ADD14R,3.502000X2.613000*%
%ADD15R,1.700000X1.700000*%
%ADD16O,1.700000X1.700000*%
%ADD17R,5.450000X1.920000*%
%ADD18RoundRect,0.243750X-0.456250X0.243750X-0.456250X-0.243750X0.456250X-0.243750X0.456250X0.243750X0*%
%ADD19RoundRect,0.250000X0.450000X-0.262500X0.450000X0.262500X-0.450000X0.262500X-0.450000X-0.262500X0*%
%ADD20RoundRect,0.250000X0.325000X1.100000X-0.325000X1.100000X-0.325000X-1.100000X0.325000X-1.100000X0*%
%ADD21C,1.500000*%
%ADD22RoundRect,0.250000X-0.450000X0.262500X-0.450000X-0.262500X0.450000X-0.262500X0.450000X0.262500X0*%
%ADD23C,1.050000*%
%ADD24R,1.000000X2.205000*%
%ADD25R,1.000000X2.750000*%
%ADD26R,0.950000X2.205000*%
%ADD27RoundRect,0.250000X0.475000X-0.250000X0.475000X0.250000X-0.475000X0.250000X-0.475000X-0.250000X0*%
%ADD28R,2.900000X5.400000*%
%ADD29RoundRect,0.250000X-0.475000X0.250000X-0.475000X-0.250000X0.475000X-0.250000X0.475000X0.250000X0*%
%ADD30RoundRect,0.250000X-0.250000X-0.475000X0.250000X-0.475000X0.250000X0.475000X-0.250000X0.475000X0*%
%ADD31R,2.600000X1.650000*%
%ADD32RoundRect,0.250000X0.250000X0.475000X-0.250000X0.475000X-0.250000X-0.475000X0.250000X-0.475000X0*%
%ADD33R,2.200000X1.200000*%
%ADD34R,3.050000X3.100000*%
%ADD35RoundRect,0.250000X0.262500X0.450000X-0.262500X0.450000X-0.262500X-0.450000X0.262500X-0.450000X0*%
%ADD36RoundRect,0.150000X0.825000X0.150000X-0.825000X0.150000X-0.825000X-0.150000X0.825000X-0.150000X0*%
%ADD37C,1.041400*%
%ADD38R,0.990600X2.200800*%
%ADD39R,0.997648X2.250000*%
%ADD40R,0.995300X2.201600*%
%ADD41R,1.000000X2.251598*%
%ADD42R,0.990600X2.743200*%
%ADD43R,0.995300X2.251600*%
%ADD44R,0.995302X2.201600*%
%ADD45R,0.995302X2.251600*%
%ADD46RoundRect,0.162500X0.162500X-0.447500X0.162500X0.447500X-0.162500X0.447500X-0.162500X-0.447500X0*%
%ADD47C,1.000000*%
%ADD48R,0.940000X1.010000*%
G04 APERTURE END LIST*
D10*
X193049000Y-102350000D03*
X193049000Y-103300000D03*
X193049000Y-104250000D03*
X190851000Y-104250000D03*
X190851000Y-103300000D03*
X190851000Y-102350000D03*
D11*
X165288000Y-139555000D03*
X165288000Y-138285000D03*
X165288000Y-137015000D03*
X165288000Y-135745000D03*
X170712000Y-135745000D03*
X170712000Y-137015000D03*
X170712000Y-138285000D03*
X170712000Y-139555000D03*
D12*
X168000000Y-137650000D03*
D13*
X176395000Y-132552500D03*
X177665000Y-132552500D03*
X178935000Y-132552500D03*
X180205000Y-132552500D03*
X180205000Y-137547500D03*
X178935000Y-137547500D03*
X177665000Y-137547500D03*
X176395000Y-137547500D03*
D14*
X178300000Y-135050000D03*
D15*
X195500000Y-70250000D03*
D16*
X195500000Y-72790000D03*
X195500000Y-75330000D03*
X195500000Y-77870000D03*
X195500000Y-80410000D03*
X195500000Y-82950000D03*
X195500000Y-85490000D03*
X195500000Y-88030000D03*
D17*
X165550000Y-115715000D03*
X165550000Y-122485000D03*
D18*
X182000000Y-132712500D03*
X182000000Y-134587500D03*
D19*
X168550000Y-133962500D03*
X168550000Y-132137500D03*
D10*
X194500000Y-56450000D03*
X200500000Y-56450000D03*
X194500000Y-52750000D03*
X200500000Y-52750000D03*
D20*
X166775000Y-129350000D03*
X163825000Y-129350000D03*
D21*
X184250000Y-146700000D03*
X181850000Y-146700000D03*
D22*
X168950000Y-104492500D03*
X168950000Y-106317500D03*
D19*
X182000000Y-130812500D03*
X182000000Y-128987500D03*
D23*
X173450000Y-111950000D03*
X191450000Y-111950000D03*
D24*
X172450000Y-109547500D03*
X172450000Y-114352500D03*
X174450000Y-109547500D03*
X174450000Y-114352500D03*
D25*
X176450000Y-109820000D03*
X176450000Y-114080000D03*
X178450000Y-109820000D03*
X178450000Y-114080000D03*
X180450000Y-109820000D03*
X180450000Y-114080000D03*
X182450000Y-109820000D03*
X182450000Y-114080000D03*
X184450000Y-109820000D03*
X184450000Y-114080000D03*
X186450000Y-109820000D03*
X186450000Y-114080000D03*
X188450000Y-109820000D03*
X188450000Y-114080000D03*
D24*
X190450000Y-109547500D03*
D26*
X190425000Y-114352500D03*
D24*
X192450000Y-109547500D03*
X192450000Y-114352500D03*
D27*
X188350000Y-100300000D03*
X188350000Y-98400000D03*
D21*
X161750000Y-127000000D03*
X161750000Y-124600000D03*
X183800000Y-98300000D03*
X181400000Y-98300000D03*
X196700000Y-129450000D03*
X196700000Y-127050000D03*
X192885131Y-129427239D03*
X192885131Y-127027239D03*
D28*
X185550000Y-138000000D03*
X195250000Y-138000000D03*
D29*
X172750000Y-137900000D03*
X172750000Y-139800000D03*
X163050000Y-137650000D03*
X163050000Y-139550000D03*
D30*
X177150000Y-147300000D03*
X179050000Y-147300000D03*
D31*
X196350000Y-101250000D03*
X200650000Y-101250000D03*
D22*
X196000000Y-44787500D03*
X196000000Y-46612500D03*
X168950000Y-100492500D03*
X168950000Y-102317500D03*
D27*
X193550000Y-100050000D03*
X193550000Y-98150000D03*
D31*
X196350000Y-105300000D03*
X200650000Y-105300000D03*
D29*
X165550000Y-104450000D03*
X165550000Y-106350000D03*
D32*
X180000000Y-130150000D03*
X178100000Y-130150000D03*
D10*
X194500000Y-65000000D03*
X200500000Y-65000000D03*
X194500000Y-61300000D03*
X200500000Y-61300000D03*
D22*
X170700000Y-132137500D03*
X170700000Y-133962500D03*
D33*
X185850000Y-104150000D03*
X185850000Y-101950000D03*
D27*
X193250000Y-46650000D03*
X193250000Y-44750000D03*
D34*
X168500000Y-144850000D03*
X174600000Y-144850000D03*
D35*
X178012500Y-139900000D03*
X176187500Y-139900000D03*
D36*
X177050000Y-100795000D03*
X177050000Y-102065000D03*
X177050000Y-103335000D03*
X177050000Y-104605000D03*
X172100000Y-104605000D03*
X172100000Y-103335000D03*
X172100000Y-102065000D03*
X172100000Y-100795000D03*
D37*
X172450000Y-121770000D03*
X192450000Y-121770000D03*
D38*
X171449999Y-119369600D03*
D39*
X171451176Y-124145000D03*
D40*
X173452350Y-119369200D03*
D41*
X173450000Y-124145799D03*
D42*
X175449999Y-119639999D03*
X175449999Y-123900001D03*
X177450000Y-119639999D03*
X177450000Y-123900001D03*
X179449998Y-119639999D03*
X179449998Y-123900001D03*
X181449999Y-119639999D03*
X181449999Y-123900001D03*
X183450001Y-119639999D03*
X183450001Y-123900001D03*
X185449999Y-119639999D03*
X185449999Y-123900001D03*
X187450000Y-119639999D03*
X187450000Y-123900001D03*
X189449999Y-119639999D03*
X189449999Y-123900001D03*
D40*
X191452350Y-119369200D03*
D43*
X191452350Y-124145800D03*
D44*
X193452349Y-119369200D03*
D45*
X193452349Y-124145800D03*
D46*
X167300000Y-111810000D03*
X165400000Y-111810000D03*
X166350000Y-109190000D03*
D47*
X190800000Y-63700000D03*
X190799999Y-62300000D03*
D27*
X186250000Y-100300000D03*
X186250000Y-98400000D03*
X172750000Y-136123828D03*
X172750000Y-134223828D03*
D20*
X166775000Y-132600000D03*
X163825000Y-132600000D03*
D48*
X165560000Y-113500000D03*
X167140000Y-113500000D03*
D30*
X177150000Y-145200000D03*
X179050000Y-145200000D03*
D29*
X188350000Y-101850000D03*
X188350000Y-103750000D03*
M02*
