G04 #@! TF.GenerationSoftware,KiCad,Pcbnew,8.0.1*
G04 #@! TF.CreationDate,2024-04-14T23:13:04-04:00*
G04 #@! TF.ProjectId,Bird3Controller,42697264-3343-46f6-9e74-726f6c6c6572,rev?*
G04 #@! TF.SameCoordinates,Original*
G04 #@! TF.FileFunction,Soldermask,Top*
G04 #@! TF.FilePolarity,Negative*
%FSLAX46Y46*%
G04 Gerber Fmt 4.6, Leading zero omitted, Abs format (unit mm)*
G04 Created by KiCad (PCBNEW 8.0.1) date 2024-04-14 23:13:04*
%MOMM*%
%LPD*%
G01*
G04 APERTURE LIST*
G04 Aperture macros list*
%AMRoundRect*
0 Rectangle with rounded corners*
0 $1 Rounding radius*
0 $2 $3 $4 $5 $6 $7 $8 $9 X,Y pos of 4 corners*
0 Add a 4 corners polygon primitive as box body*
4,1,4,$2,$3,$4,$5,$6,$7,$8,$9,$2,$3,0*
0 Add four circle primitives for the rounded corners*
1,1,$1+$1,$2,$3*
1,1,$1+$1,$4,$5*
1,1,$1+$1,$6,$7*
1,1,$1+$1,$8,$9*
0 Add four rect primitives between the rounded corners*
20,1,$1+$1,$2,$3,$4,$5,0*
20,1,$1+$1,$4,$5,$6,$7,0*
20,1,$1+$1,$6,$7,$8,$9,0*
20,1,$1+$1,$8,$9,$2,$3,0*%
G04 Aperture macros list end*
%ADD10C,1.500000*%
%ADD11R,2.000000X1.500000*%
%ADD12R,1.250000X0.600000*%
%ADD13R,1.525000X0.650000*%
%ADD14R,1.700000X1.700000*%
%ADD15O,1.700000X1.700000*%
%ADD16RoundRect,0.250000X0.325000X1.100000X-0.325000X1.100000X-0.325000X-1.100000X0.325000X-1.100000X0*%
%ADD17RoundRect,0.243750X0.456250X-0.243750X0.456250X0.243750X-0.456250X0.243750X-0.456250X-0.243750X0*%
%ADD18RoundRect,0.250000X0.250000X0.475000X-0.250000X0.475000X-0.250000X-0.475000X0.250000X-0.475000X0*%
%ADD19R,2.200000X1.200000*%
%ADD20R,1.500000X0.900000*%
%ADD21R,0.900000X1.500000*%
%ADD22R,0.900000X0.900000*%
%ADD23RoundRect,0.250000X-0.450000X0.262500X-0.450000X-0.262500X0.450000X-0.262500X0.450000X0.262500X0*%
%ADD24RoundRect,0.250000X0.450000X-0.262500X0.450000X0.262500X-0.450000X0.262500X-0.450000X-0.262500X0*%
%ADD25RoundRect,0.250000X0.475000X-0.250000X0.475000X0.250000X-0.475000X0.250000X-0.475000X-0.250000X0*%
%ADD26R,0.250000X0.800000*%
%ADD27R,0.400000X0.800000*%
%ADD28RoundRect,0.250000X-0.262500X-0.450000X0.262500X-0.450000X0.262500X0.450000X-0.262500X0.450000X0*%
%ADD29C,1.050000*%
%ADD30C,1.041400*%
G04 APERTURE END LIST*
D10*
X200650000Y-130850000D03*
X194379165Y-130850000D03*
X188108332Y-130850000D03*
X181837499Y-130850000D03*
X167200000Y-64250000D03*
X171300000Y-130850000D03*
X176568749Y-130850000D03*
X164000000Y-130850000D03*
D11*
X177900000Y-140000000D03*
X186100000Y-140000000D03*
D12*
X165366315Y-75120144D03*
X165366315Y-76070144D03*
X165366315Y-77020144D03*
X167866315Y-77020144D03*
X167866315Y-76070144D03*
X167866315Y-75120144D03*
D13*
X192288000Y-53095000D03*
X192288000Y-54365000D03*
X192288000Y-55635000D03*
X192288000Y-56905000D03*
X197712000Y-56905000D03*
X197712000Y-55635000D03*
X197712000Y-54365000D03*
X197712000Y-53095000D03*
D14*
X195500000Y-70250000D03*
D15*
X195500000Y-72790000D03*
X195500000Y-75330000D03*
X195500000Y-77870000D03*
X195500000Y-80410000D03*
X195500000Y-82950000D03*
X195500000Y-85490000D03*
X195500000Y-88030000D03*
D16*
X168325000Y-72400000D03*
X165375000Y-72400000D03*
D10*
X175600000Y-84600000D03*
X175600000Y-82200000D03*
D17*
X169566315Y-80607644D03*
X169566315Y-78732644D03*
D18*
X168000000Y-56500000D03*
X166100000Y-56500000D03*
D19*
X170566315Y-74520144D03*
X170566315Y-76720144D03*
D20*
X170500000Y-52940000D03*
X170500000Y-54210000D03*
X170500000Y-55480000D03*
X170500000Y-56750000D03*
X170500000Y-58020000D03*
X170500000Y-59290000D03*
X170500000Y-60560000D03*
X170500000Y-61830000D03*
X170500000Y-63100000D03*
X170500000Y-64370000D03*
X170500000Y-65640000D03*
X170500000Y-66910000D03*
X170500000Y-68180000D03*
X170500000Y-69450000D03*
D21*
X172265000Y-70700000D03*
X173535000Y-70700000D03*
X174805000Y-70700000D03*
X176075000Y-70700000D03*
X177345000Y-70700000D03*
X178615000Y-70700000D03*
X179885000Y-70700000D03*
X181155000Y-70700000D03*
X182425000Y-70700000D03*
X183695000Y-70700000D03*
X184965000Y-70700000D03*
X186235000Y-70700000D03*
D20*
X188000000Y-69450000D03*
X188000000Y-68180000D03*
X188000000Y-66910000D03*
X188000000Y-65640000D03*
X188000000Y-64370000D03*
X188000000Y-63100000D03*
X188000000Y-61830000D03*
X188000000Y-60560000D03*
X188000000Y-59290000D03*
X188000000Y-58020000D03*
X188000000Y-56750000D03*
X188000000Y-55480000D03*
X188000000Y-54210000D03*
X188000000Y-52940000D03*
D22*
X176350000Y-59260000D03*
X176350000Y-60660000D03*
X176350000Y-62060000D03*
X176350000Y-62060000D03*
X177750000Y-59260000D03*
X177750000Y-59260000D03*
X177750000Y-60660000D03*
X177750000Y-62060000D03*
X179150000Y-59260000D03*
X179150000Y-60660000D03*
X179150000Y-62060000D03*
D23*
X195650000Y-49637500D03*
X195650000Y-51462500D03*
D18*
X168000000Y-54250000D03*
X166100000Y-54250000D03*
D24*
X193700000Y-51462500D03*
X193700000Y-49637500D03*
D25*
X167016315Y-80570144D03*
X167016315Y-78670144D03*
D26*
X189250000Y-102000000D03*
X188750000Y-102000000D03*
X188250000Y-102000000D03*
X187750000Y-102000000D03*
X187250000Y-102000000D03*
X186750000Y-102000000D03*
X186250000Y-102000000D03*
X185750000Y-102000000D03*
X185250000Y-102000000D03*
X184750000Y-102000000D03*
X184250000Y-102000000D03*
X183750000Y-102000000D03*
X183250000Y-102000000D03*
X182750000Y-102000000D03*
X182250000Y-102000000D03*
X181750000Y-102000000D03*
X181250000Y-102000000D03*
X180750000Y-102000000D03*
X180250000Y-102000000D03*
X179750000Y-102000000D03*
X179250000Y-102000000D03*
X178750000Y-102000000D03*
X178250000Y-102000000D03*
X177750000Y-102000000D03*
X177250000Y-102000000D03*
X176750000Y-102000000D03*
X176250000Y-102000000D03*
X175750000Y-102000000D03*
X175250000Y-102000000D03*
X174750000Y-102000000D03*
D27*
X190250000Y-99500000D03*
X173750000Y-99500000D03*
D28*
X165387500Y-69600000D03*
X167212500Y-69600000D03*
D10*
X172950000Y-84650000D03*
X172950000Y-82250000D03*
D29*
X173450000Y-111950000D03*
X191450000Y-111950000D03*
D30*
X172450000Y-121770000D03*
X192450000Y-121770000D03*
M02*
