G04 #@! TF.GenerationSoftware,KiCad,Pcbnew,8.0.1*
G04 #@! TF.CreationDate,2024-04-14T23:13:03-04:00*
G04 #@! TF.ProjectId,Bird3Controller,42697264-3343-46f6-9e74-726f6c6c6572,rev?*
G04 #@! TF.SameCoordinates,Original*
G04 #@! TF.FileFunction,Copper,L1,Top*
G04 #@! TF.FilePolarity,Positive*
%FSLAX46Y46*%
G04 Gerber Fmt 4.6, Leading zero omitted, Abs format (unit mm)*
G04 Created by KiCad (PCBNEW 8.0.1) date 2024-04-14 23:13:03*
%MOMM*%
%LPD*%
G01*
G04 APERTURE LIST*
G04 Aperture macros list*
%AMRoundRect*
0 Rectangle with rounded corners*
0 $1 Rounding radius*
0 $2 $3 $4 $5 $6 $7 $8 $9 X,Y pos of 4 corners*
0 Add a 4 corners polygon primitive as box body*
4,1,4,$2,$3,$4,$5,$6,$7,$8,$9,$2,$3,0*
0 Add four circle primitives for the rounded corners*
1,1,$1+$1,$2,$3*
1,1,$1+$1,$4,$5*
1,1,$1+$1,$6,$7*
1,1,$1+$1,$8,$9*
0 Add four rect primitives between the rounded corners*
20,1,$1+$1,$2,$3,$4,$5,0*
20,1,$1+$1,$4,$5,$6,$7,0*
20,1,$1+$1,$6,$7,$8,$9,0*
20,1,$1+$1,$8,$9,$2,$3,0*%
G04 Aperture macros list end*
G04 #@! TA.AperFunction,EtchedComponent*
%ADD10C,1.500000*%
G04 #@! TD*
G04 #@! TA.AperFunction,SMDPad,CuDef*
%ADD11C,1.500000*%
G04 #@! TD*
G04 #@! TA.AperFunction,SMDPad,CuDef*
%ADD12R,2.000000X1.500000*%
G04 #@! TD*
G04 #@! TA.AperFunction,SMDPad,CuDef*
%ADD13R,1.250000X0.600000*%
G04 #@! TD*
G04 #@! TA.AperFunction,SMDPad,CuDef*
%ADD14R,1.525000X0.650000*%
G04 #@! TD*
G04 #@! TA.AperFunction,ComponentPad*
%ADD15R,1.700000X1.700000*%
G04 #@! TD*
G04 #@! TA.AperFunction,ComponentPad*
%ADD16O,1.700000X1.700000*%
G04 #@! TD*
G04 #@! TA.AperFunction,SMDPad,CuDef*
%ADD17RoundRect,0.250000X0.325000X1.100000X-0.325000X1.100000X-0.325000X-1.100000X0.325000X-1.100000X0*%
G04 #@! TD*
G04 #@! TA.AperFunction,SMDPad,CuDef*
%ADD18RoundRect,0.243750X0.456250X-0.243750X0.456250X0.243750X-0.456250X0.243750X-0.456250X-0.243750X0*%
G04 #@! TD*
G04 #@! TA.AperFunction,SMDPad,CuDef*
%ADD19RoundRect,0.250000X0.250000X0.475000X-0.250000X0.475000X-0.250000X-0.475000X0.250000X-0.475000X0*%
G04 #@! TD*
G04 #@! TA.AperFunction,SMDPad,CuDef*
%ADD20R,2.200000X1.200000*%
G04 #@! TD*
G04 #@! TA.AperFunction,SMDPad,CuDef*
%ADD21R,1.500000X0.900000*%
G04 #@! TD*
G04 #@! TA.AperFunction,SMDPad,CuDef*
%ADD22R,0.900000X1.500000*%
G04 #@! TD*
G04 #@! TA.AperFunction,SMDPad,CuDef*
%ADD23R,0.900000X0.900000*%
G04 #@! TD*
G04 #@! TA.AperFunction,SMDPad,CuDef*
%ADD24RoundRect,0.250000X-0.450000X0.262500X-0.450000X-0.262500X0.450000X-0.262500X0.450000X0.262500X0*%
G04 #@! TD*
G04 #@! TA.AperFunction,SMDPad,CuDef*
%ADD25RoundRect,0.250000X0.450000X-0.262500X0.450000X0.262500X-0.450000X0.262500X-0.450000X-0.262500X0*%
G04 #@! TD*
G04 #@! TA.AperFunction,SMDPad,CuDef*
%ADD26RoundRect,0.250000X0.475000X-0.250000X0.475000X0.250000X-0.475000X0.250000X-0.475000X-0.250000X0*%
G04 #@! TD*
G04 #@! TA.AperFunction,SMDPad,CuDef*
%ADD27R,0.250000X0.800000*%
G04 #@! TD*
G04 #@! TA.AperFunction,SMDPad,CuDef*
%ADD28R,0.400000X0.800000*%
G04 #@! TD*
G04 #@! TA.AperFunction,SMDPad,CuDef*
%ADD29RoundRect,0.250000X-0.262500X-0.450000X0.262500X-0.450000X0.262500X0.450000X-0.262500X0.450000X0*%
G04 #@! TD*
G04 #@! TA.AperFunction,ViaPad*
%ADD30C,0.800000*%
G04 #@! TD*
G04 #@! TA.AperFunction,Conductor*
%ADD31C,0.250000*%
G04 #@! TD*
G04 #@! TA.AperFunction,Conductor*
%ADD32C,1.000000*%
G04 #@! TD*
G04 #@! TA.AperFunction,Conductor*
%ADD33C,0.500000*%
G04 #@! TD*
G04 #@! TA.AperFunction,Conductor*
%ADD34C,0.200000*%
G04 #@! TD*
G04 #@! TA.AperFunction,Conductor*
%ADD35C,0.750000*%
G04 #@! TD*
G04 APERTURE END LIST*
D10*
X175600000Y-84600000D02*
X175600000Y-82200000D01*
X172950000Y-84650000D02*
X172950000Y-82250000D01*
D11*
X200650000Y-130850000D03*
X194379165Y-130850000D03*
X188108332Y-130850000D03*
X181837499Y-130850000D03*
X167200000Y-64250000D03*
X171300000Y-130850000D03*
X176568749Y-130850000D03*
X164000000Y-130850000D03*
D12*
X177900000Y-140000000D03*
X186100000Y-140000000D03*
D13*
X165366315Y-75120144D03*
X165366315Y-76070144D03*
X165366315Y-77020144D03*
X167866315Y-77020144D03*
X167866315Y-76070144D03*
X167866315Y-75120144D03*
D14*
X192288000Y-53095000D03*
X192288000Y-54365000D03*
X192288000Y-55635000D03*
X192288000Y-56905000D03*
X197712000Y-56905000D03*
X197712000Y-55635000D03*
X197712000Y-54365000D03*
X197712000Y-53095000D03*
D15*
X195500000Y-70250000D03*
D16*
X195500000Y-72790000D03*
X195500000Y-75330000D03*
X195500000Y-77870000D03*
X195500000Y-80410000D03*
X195500000Y-82950000D03*
X195500000Y-85490000D03*
X195500000Y-88030000D03*
D17*
X168325000Y-72400000D03*
X165375000Y-72400000D03*
D11*
X175600000Y-84600000D03*
X175600000Y-82200000D03*
D18*
X169566315Y-80607644D03*
X169566315Y-78732644D03*
D19*
X168000000Y-56500000D03*
X166100000Y-56500000D03*
D20*
X170566315Y-74520144D03*
X170566315Y-76720144D03*
D21*
X170500000Y-52940000D03*
X170500000Y-54210000D03*
X170500000Y-55480000D03*
X170500000Y-56750000D03*
X170500000Y-58020000D03*
X170500000Y-59290000D03*
X170500000Y-60560000D03*
X170500000Y-61830000D03*
X170500000Y-63100000D03*
X170500000Y-64370000D03*
X170500000Y-65640000D03*
X170500000Y-66910000D03*
X170500000Y-68180000D03*
X170500000Y-69450000D03*
D22*
X172265000Y-70700000D03*
X173535000Y-70700000D03*
X174805000Y-70700000D03*
X176075000Y-70700000D03*
X177345000Y-70700000D03*
X178615000Y-70700000D03*
X179885000Y-70700000D03*
X181155000Y-70700000D03*
X182425000Y-70700000D03*
X183695000Y-70700000D03*
X184965000Y-70700000D03*
X186235000Y-70700000D03*
D21*
X188000000Y-69450000D03*
X188000000Y-68180000D03*
X188000000Y-66910000D03*
X188000000Y-65640000D03*
X188000000Y-64370000D03*
X188000000Y-63100000D03*
X188000000Y-61830000D03*
X188000000Y-60560000D03*
X188000000Y-59290000D03*
X188000000Y-58020000D03*
X188000000Y-56750000D03*
X188000000Y-55480000D03*
X188000000Y-54210000D03*
X188000000Y-52940000D03*
D23*
X176350000Y-59260000D03*
X176350000Y-60660000D03*
X176350000Y-62060000D03*
X176350000Y-62060000D03*
X177750000Y-59260000D03*
X177750000Y-59260000D03*
X177750000Y-60660000D03*
X177750000Y-62060000D03*
X179150000Y-59260000D03*
X179150000Y-60660000D03*
X179150000Y-62060000D03*
D24*
X195650000Y-49637500D03*
X195650000Y-51462500D03*
D19*
X168000000Y-54250000D03*
X166100000Y-54250000D03*
D25*
X193700000Y-51462500D03*
X193700000Y-49637500D03*
D26*
X167016315Y-80570144D03*
X167016315Y-78670144D03*
D27*
X189250000Y-102000000D03*
X188750000Y-102000000D03*
X188250000Y-102000000D03*
X187750000Y-102000000D03*
X187250000Y-102000000D03*
X186750000Y-102000000D03*
X186250000Y-102000000D03*
X185750000Y-102000000D03*
X185250000Y-102000000D03*
X184750000Y-102000000D03*
X184250000Y-102000000D03*
X183750000Y-102000000D03*
X183250000Y-102000000D03*
X182750000Y-102000000D03*
X182250000Y-102000000D03*
X181750000Y-102000000D03*
X181250000Y-102000000D03*
X180750000Y-102000000D03*
X180250000Y-102000000D03*
X179750000Y-102000000D03*
X179250000Y-102000000D03*
X178750000Y-102000000D03*
X178250000Y-102000000D03*
X177750000Y-102000000D03*
X177250000Y-102000000D03*
X176750000Y-102000000D03*
X176250000Y-102000000D03*
X175750000Y-102000000D03*
X175250000Y-102000000D03*
X174750000Y-102000000D03*
D28*
X190250000Y-99500000D03*
X173750000Y-99500000D03*
D29*
X165387500Y-69600000D03*
X167212500Y-69600000D03*
D11*
X172950000Y-84650000D03*
X172950000Y-82250000D03*
D30*
X195250000Y-133650000D03*
X197000000Y-130850000D03*
X164000000Y-126650000D03*
X200650000Y-130850000D03*
X199200000Y-107150000D03*
X185200000Y-106800000D03*
X183550000Y-105650000D03*
X187000000Y-105650000D03*
X187300000Y-84483333D03*
X170050000Y-96050000D03*
X168900000Y-96050000D03*
X171250000Y-96050000D03*
X165500000Y-103100000D03*
X167250000Y-103100000D03*
X167250000Y-105550000D03*
X172712500Y-68750000D03*
X173900000Y-68850000D03*
X200650000Y-99350000D03*
X161900000Y-69275000D03*
X202000000Y-122243326D03*
X170050000Y-109600000D03*
X190050000Y-82583333D03*
X178250000Y-135600000D03*
X177050000Y-60650000D03*
X178950000Y-68850000D03*
X172150000Y-72750000D03*
X190050000Y-75400000D03*
X187800000Y-143750000D03*
X192100000Y-117100000D03*
X178700000Y-121800000D03*
X161900000Y-108912500D03*
X172200000Y-111950000D03*
X167628571Y-42850000D03*
X179150000Y-61350000D03*
X172150000Y-52150000D03*
X202000000Y-116800000D03*
X176350000Y-61400000D03*
X173357142Y-42850000D03*
X178450000Y-59250000D03*
X202000000Y-49900000D03*
X168600000Y-70050000D03*
X168500000Y-136750000D03*
X187300000Y-78250000D03*
X161900000Y-102306250D03*
X167500000Y-138550000D03*
X173900000Y-72750000D03*
X161900000Y-80343750D03*
X190750000Y-143750000D03*
X161900000Y-49456250D03*
X202000000Y-63053332D03*
X172200000Y-66900000D03*
X161900000Y-135337500D03*
X187300000Y-90716666D03*
X177100000Y-107350000D03*
X167628571Y-148550000D03*
X161900000Y-43550000D03*
X178250000Y-134600000D03*
X184814284Y-148550000D03*
X192650000Y-112000000D03*
X196450000Y-133650000D03*
X177050000Y-62100000D03*
X196271426Y-42850000D03*
X170450000Y-111950000D03*
X167500000Y-136750000D03*
X161900000Y-148550000D03*
X175650000Y-68850000D03*
X172500000Y-117350000D03*
X175250000Y-100450000D03*
X161900000Y-95700000D03*
X161900000Y-86950000D03*
X176350000Y-59950000D03*
X161900000Y-116750000D03*
X171550000Y-120950000D03*
X195600000Y-143750000D03*
X168650000Y-111950000D03*
X168500000Y-137650000D03*
X180900000Y-105650000D03*
X163550000Y-113350000D03*
X202000000Y-128819992D03*
X168600000Y-109550000D03*
X173500000Y-109600000D03*
X163550000Y-111700000D03*
X177050000Y-96050000D03*
X202000000Y-148550000D03*
X193550000Y-117100000D03*
X202000000Y-69629998D03*
X179000000Y-107350000D03*
X179085713Y-42850000D03*
X190050000Y-96950000D03*
X161900000Y-75881250D03*
X180950000Y-121800000D03*
X202000000Y-135396658D03*
X196271426Y-148550000D03*
X176300000Y-121800000D03*
X172150000Y-61950000D03*
X177050000Y-59250000D03*
X202000000Y-56476666D03*
X168600000Y-67650000D03*
X183800000Y-121800000D03*
X202000000Y-95450000D03*
X194750000Y-127300000D03*
X190542855Y-42850000D03*
X161900000Y-56062500D03*
X185900000Y-52150000D03*
X161900000Y-141943750D03*
X179085713Y-148550000D03*
X199200000Y-136950000D03*
X161900000Y-62668750D03*
X178450000Y-62100000D03*
X202000000Y-87700000D03*
X177000000Y-88134500D03*
X167500000Y-137650000D03*
X199200000Y-117083332D03*
X174380000Y-88178998D03*
X177350000Y-134600000D03*
X161900000Y-122125000D03*
X202000000Y-103300000D03*
X199200000Y-127016664D03*
X174350000Y-96050000D03*
X185900000Y-68800000D03*
X202000000Y-141973324D03*
X188450000Y-121800000D03*
X178950000Y-52150000D03*
X178450000Y-60650000D03*
X178050000Y-107350000D03*
X190542855Y-148550000D03*
X174400000Y-116300000D03*
X171350000Y-109600000D03*
X179150000Y-59950000D03*
X202000000Y-76206664D03*
X186450000Y-121800000D03*
X193550000Y-112000000D03*
X185900000Y-61950000D03*
X202000000Y-80200000D03*
X187300000Y-96950000D03*
X185900000Y-56950000D03*
X173850000Y-121800000D03*
X178070000Y-72350000D03*
X202000000Y-43450000D03*
X202000000Y-108550000D03*
X177750000Y-59950000D03*
X184850000Y-72750000D03*
X173700000Y-117000000D03*
X190050000Y-89766666D03*
X181000000Y-100550000D03*
X179150000Y-135600000D03*
X168500000Y-138550000D03*
X187400000Y-111950000D03*
X199200000Y-122049998D03*
X168900000Y-86100000D03*
X199300000Y-140250000D03*
X177800000Y-61350000D03*
X177350000Y-135600000D03*
X171850000Y-117900000D03*
X161900000Y-128731250D03*
X194750000Y-129350000D03*
X199200000Y-131983330D03*
X179150000Y-134600000D03*
X199200000Y-112116666D03*
X183800000Y-111950000D03*
X173357142Y-148550000D03*
X182300000Y-143750000D03*
X184814284Y-42850000D03*
X179800000Y-126000000D03*
X181200000Y-107700000D03*
X168000000Y-59700000D03*
X170000000Y-72750000D03*
X180000000Y-106500000D03*
X178450000Y-116350000D03*
X197700000Y-51700000D03*
X179700000Y-103100000D03*
X180600000Y-107100000D03*
X168000000Y-58900000D03*
X168000000Y-58100000D03*
X170000000Y-73500000D03*
X165700000Y-88100000D03*
X175350000Y-137550000D03*
X176075000Y-75925000D03*
X179450000Y-111950000D03*
X166715997Y-88100000D03*
X168407000Y-62300000D03*
X181450000Y-111950000D03*
X167728652Y-88087348D03*
X167682664Y-61544974D03*
X186500000Y-116927000D03*
X186500000Y-107600000D03*
X192958000Y-67950000D03*
X172150000Y-56750000D03*
X173150000Y-58000000D03*
X188450000Y-111900000D03*
X193800000Y-67200000D03*
X177355851Y-77394149D03*
X172300000Y-87167500D03*
X172150000Y-55500000D03*
X177794000Y-99100000D03*
X178519000Y-100203000D03*
X185050000Y-66475000D03*
X177150000Y-143650000D03*
X168550000Y-130950000D03*
X167925000Y-65600000D03*
D31*
X186923000Y-68348000D02*
X186923000Y-69450000D01*
X185050000Y-66475000D02*
X186923000Y-68348000D01*
X186923000Y-69450000D02*
X188000000Y-69450000D01*
X176568749Y-130831251D02*
X179800000Y-127600000D01*
X176568749Y-130850000D02*
X176568749Y-130831251D01*
X179800000Y-127600000D02*
X179800000Y-126000000D01*
X172000000Y-130150000D02*
X171300000Y-130850000D01*
X174000000Y-130150000D02*
X172000000Y-130150000D01*
X174000000Y-136200000D02*
X175350000Y-137550000D01*
X174000000Y-130150000D02*
X174000000Y-136200000D01*
X174500000Y-129650000D02*
X174000000Y-130150000D01*
X175350000Y-128800000D02*
X174500000Y-129650000D01*
X175350000Y-108486396D02*
X175350000Y-128800000D01*
X190908332Y-133650000D02*
X188108332Y-130850000D01*
X195250000Y-133650000D02*
X190908332Y-133650000D01*
X194379165Y-130850000D02*
X197000000Y-130850000D01*
X164000000Y-126650000D02*
X164000000Y-130850000D01*
X167200000Y-69587500D02*
X167212500Y-69600000D01*
X167200000Y-64370000D02*
X167200000Y-69587500D01*
X170500000Y-64370000D02*
X167200000Y-64370000D01*
D32*
X180750000Y-125050000D02*
X179800000Y-126000000D01*
X182550000Y-123250000D02*
X180750000Y-125050000D01*
D33*
X177750000Y-62060000D02*
X177750000Y-59260000D01*
X179150000Y-62060000D02*
X176350000Y-62060000D01*
X179150000Y-60660000D02*
X176350000Y-60660000D01*
X196800000Y-60263173D02*
X199950000Y-57113173D01*
X199950000Y-57113173D02*
X199950000Y-52150000D01*
X196800000Y-88030000D02*
X196800000Y-60263173D01*
X195500000Y-88030000D02*
X196800000Y-88030000D01*
X191445000Y-48675000D02*
X196475000Y-48675000D01*
X188000000Y-52120000D02*
X191445000Y-48675000D01*
X196475000Y-48675000D02*
X199950000Y-52150000D01*
X188000000Y-52940000D02*
X188000000Y-52120000D01*
X190150000Y-52940000D02*
X190150000Y-55635000D01*
X188000000Y-52940000D02*
X190150000Y-52940000D01*
X190150000Y-55635000D02*
X192288000Y-55635000D01*
X165387500Y-58662500D02*
X166100000Y-57950000D01*
X165387500Y-69600000D02*
X165387500Y-58662500D01*
X166100000Y-57950000D02*
X166100000Y-56500000D01*
X166110000Y-52940000D02*
X170500000Y-52940000D01*
X166100000Y-54250000D02*
X166100000Y-52950000D01*
X166100000Y-52950000D02*
X166110000Y-52940000D01*
X164491315Y-76070144D02*
X165366315Y-76070144D01*
X164291315Y-75870144D02*
X164491315Y-76070144D01*
X164291315Y-72400000D02*
X164291315Y-75870144D01*
X165375000Y-72400000D02*
X164291315Y-72400000D01*
D34*
X172712500Y-68750000D02*
X172142500Y-68180000D01*
X172142500Y-68180000D02*
X170500000Y-68180000D01*
X173300000Y-69450000D02*
X170500000Y-69450000D01*
X173900000Y-68850000D02*
X173300000Y-69450000D01*
D32*
X193950000Y-92650000D02*
X193950000Y-87040000D01*
X200650000Y-99350000D02*
X193950000Y-92650000D01*
X193950000Y-87040000D02*
X195500000Y-85490000D01*
D31*
X167212500Y-69600000D02*
X167212500Y-73273959D01*
X167212500Y-73273959D02*
X165366315Y-75120144D01*
X174750000Y-102000000D02*
X174750000Y-100950000D01*
D33*
X192288000Y-55635000D02*
X192288000Y-56905000D01*
X197712000Y-54365000D02*
X199935000Y-54365000D01*
X165387500Y-72387500D02*
X165375000Y-72400000D01*
X166491315Y-76070144D02*
X166791315Y-76370144D01*
X165387500Y-69600000D02*
X165387500Y-72387500D01*
X180052000Y-59260000D02*
X186372000Y-52940000D01*
X199950000Y-52150000D02*
X199950000Y-54350000D01*
X176350000Y-57588100D02*
X176350000Y-59260000D01*
D31*
X188250000Y-101300000D02*
X187950000Y-101000000D01*
D33*
X170500000Y-52940000D02*
X171702000Y-52940000D01*
D31*
X174750000Y-100950000D02*
X175250000Y-100450000D01*
D33*
X166100000Y-54250000D02*
X166100000Y-56500000D01*
X186372000Y-52940000D02*
X188000000Y-52940000D01*
X171702000Y-52940000D02*
X176350000Y-57588100D01*
X166791315Y-76370144D02*
X166791315Y-78445144D01*
D31*
X186750000Y-101300000D02*
X186750000Y-102000000D01*
X187050000Y-101000000D02*
X186750000Y-101300000D01*
D33*
X179150000Y-59260000D02*
X180052000Y-59260000D01*
D31*
X175750000Y-100950000D02*
X175250000Y-100450000D01*
D33*
X166791315Y-78445144D02*
X167016315Y-78670144D01*
D31*
X175750000Y-102000000D02*
X175750000Y-100950000D01*
D33*
X165366315Y-76070144D02*
X166491315Y-76070144D01*
D31*
X188250000Y-102000000D02*
X188250000Y-101300000D01*
X187950000Y-101000000D02*
X187050000Y-101000000D01*
D33*
X199935000Y-54365000D02*
X199950000Y-54350000D01*
D34*
X173100000Y-84800000D02*
X173100000Y-102065686D01*
X175234314Y-104200000D02*
X187800000Y-104200000D01*
X187800000Y-104200000D02*
X189250000Y-102750000D01*
X173100000Y-102065686D02*
X175234314Y-104200000D01*
X189250000Y-102750000D02*
X189250000Y-102000000D01*
X172950000Y-84650000D02*
X173100000Y-84800000D01*
X188750000Y-102684314D02*
X188750000Y-102000000D01*
X175600000Y-99110050D02*
X174300000Y-100410050D01*
X175600000Y-84600000D02*
X175600000Y-99110050D01*
X174300000Y-100410050D02*
X174300000Y-102700000D01*
X187634314Y-103800000D02*
X188750000Y-102684314D01*
X175400000Y-103800000D02*
X187634314Y-103800000D01*
X174300000Y-102700000D02*
X175400000Y-103800000D01*
D33*
X170566315Y-76720144D02*
X170566315Y-77732644D01*
X169916315Y-76070144D02*
X170566315Y-76720144D01*
X167866315Y-76070144D02*
X169916315Y-76070144D01*
X170566315Y-77732644D02*
X169566315Y-78732644D01*
X168000000Y-54250000D02*
X170460000Y-54250000D01*
D32*
X182550000Y-109050000D02*
X182550000Y-113550000D01*
D31*
X186950000Y-103050000D02*
X187250000Y-102750000D01*
D33*
X193700000Y-49637500D02*
X195650000Y-49637500D01*
D32*
X181200000Y-107700000D02*
X182550000Y-109050000D01*
D33*
X197700000Y-51700000D02*
X197700000Y-53083000D01*
X168000000Y-54250000D02*
X168000000Y-56500000D01*
D31*
X187500000Y-102000000D02*
X187250000Y-102000000D01*
D33*
X170460000Y-54250000D02*
X170500000Y-54210000D01*
X197700000Y-51700000D02*
X197700000Y-51687500D01*
X197700000Y-51687500D02*
X195650000Y-49637500D01*
D31*
X187250000Y-102000000D02*
X187250000Y-102750000D01*
X179750000Y-103050000D02*
X186950000Y-103050000D01*
D33*
X168325000Y-72400000D02*
X168325000Y-74661459D01*
D31*
X187750000Y-102250000D02*
X187500000Y-102500000D01*
X187500000Y-102500000D02*
X187250000Y-102750000D01*
D33*
X197700000Y-53083000D02*
X197712000Y-53095000D01*
X169966315Y-75120144D02*
X170566315Y-74520144D01*
D32*
X181200000Y-107700000D02*
X180000000Y-106500000D01*
D33*
X167866315Y-75120144D02*
X169966315Y-75120144D01*
X168325000Y-74661459D02*
X167866315Y-75120144D01*
X168325000Y-72400000D02*
X168446171Y-72400000D01*
D32*
X179750000Y-116350000D02*
X178450000Y-116350000D01*
D33*
X168000000Y-59700000D02*
X168000000Y-56500000D01*
D31*
X187750000Y-102000000D02*
X187750000Y-102250000D01*
D35*
X170000000Y-73953829D02*
X170566315Y-74520144D01*
D32*
X182550000Y-113550000D02*
X182550000Y-123250000D01*
D35*
X170000000Y-72750000D02*
X170000000Y-73953829D01*
D31*
X187500000Y-102000000D02*
X187500000Y-102500000D01*
D32*
X182550000Y-113550000D02*
X179750000Y-116350000D01*
D31*
X187750000Y-102000000D02*
X187500000Y-102000000D01*
X179700000Y-103100000D02*
X179750000Y-103050000D01*
X165700000Y-98836396D02*
X175350000Y-108486396D01*
X176075000Y-75925000D02*
X176075000Y-70700000D01*
X165700000Y-88100000D02*
X165700000Y-98836396D01*
X168407000Y-61576000D02*
X169423000Y-60560000D01*
X168407000Y-62300000D02*
X168407000Y-61576000D01*
X169423000Y-60560000D02*
X170500000Y-60560000D01*
X166700000Y-99200000D02*
X166700000Y-88115997D01*
X179450000Y-111950000D02*
X166700000Y-99200000D01*
X166700000Y-88115997D02*
X166715997Y-88100000D01*
X181450000Y-111950000D02*
X180725000Y-111225000D01*
X180725000Y-111225000D02*
X179361396Y-111225000D01*
X167728652Y-99592256D02*
X167728652Y-88087348D01*
X179361396Y-111225000D02*
X167728652Y-99592256D01*
X169937638Y-59290000D02*
X170500000Y-59290000D01*
X167682664Y-61544974D02*
X169937638Y-59290000D01*
X191450000Y-73066584D02*
X191450000Y-102650000D01*
X192683000Y-68225000D02*
X192683000Y-71833584D01*
X192683000Y-71833584D02*
X191450000Y-73066584D01*
X191450000Y-102650000D02*
X186500000Y-107600000D01*
X186500000Y-116927000D02*
X186500000Y-107600000D01*
X172150000Y-56750000D02*
X170500000Y-56750000D01*
X192958000Y-67950000D02*
X192683000Y-68225000D01*
X172800000Y-58020000D02*
X172780000Y-58020000D01*
X191900000Y-102836396D02*
X188418198Y-106318198D01*
X193683000Y-67317000D02*
X193683000Y-71469980D01*
X193683000Y-71469980D02*
X191900000Y-73252980D01*
X173150000Y-58000000D02*
X172800000Y-58020000D01*
X172760000Y-58020000D02*
X173150000Y-58000000D01*
X170500000Y-58020000D02*
X172760000Y-58020000D01*
X188450000Y-106350000D02*
X188450000Y-111900000D01*
X188418198Y-106318198D02*
X188450000Y-106350000D01*
X191900000Y-73252980D02*
X191900000Y-102836396D01*
X193800000Y-67200000D02*
X193683000Y-67317000D01*
X189000000Y-59290000D02*
X192233000Y-62523000D01*
X192233000Y-62523000D02*
X192233000Y-71647188D01*
X188000000Y-59290000D02*
X189000000Y-59290000D01*
X186250000Y-77630188D02*
X186250000Y-102000000D01*
X192233000Y-71647188D02*
X186250000Y-77630188D01*
X185750000Y-77493792D02*
X191783000Y-71460792D01*
X189000000Y-60560000D02*
X188000000Y-60560000D01*
X191783000Y-63343000D02*
X189000000Y-60560000D01*
X185750000Y-102000000D02*
X185750000Y-77493792D01*
X191783000Y-71460792D02*
X191783000Y-63343000D01*
X188000000Y-61830000D02*
X189000000Y-61830000D01*
X189000000Y-61830000D02*
X191333000Y-64163000D01*
X191333000Y-64163000D02*
X191333000Y-71274396D01*
X185250000Y-77357396D02*
X185250000Y-102000000D01*
X191333000Y-71274396D02*
X185250000Y-77357396D01*
X190883000Y-71088000D02*
X190883000Y-64983000D01*
X190883000Y-64983000D02*
X189000000Y-63100000D01*
X184750000Y-77221000D02*
X190883000Y-71088000D01*
X184750000Y-102000000D02*
X184750000Y-77221000D01*
X189000000Y-63100000D02*
X188000000Y-63100000D01*
X188000000Y-64370000D02*
X189120000Y-64370000D01*
X189120000Y-64370000D02*
X190433000Y-65683000D01*
X190433000Y-70826188D02*
X184250000Y-77009188D01*
X184250000Y-77009188D02*
X184250000Y-102000000D01*
X190433000Y-65683000D02*
X190433000Y-70826188D01*
X183750000Y-76872792D02*
X183750000Y-102000000D01*
X189077000Y-65640000D02*
X189981000Y-66543800D01*
X188000000Y-65640000D02*
X189077000Y-65640000D01*
X189981000Y-70641792D02*
X183750000Y-76872792D01*
X189981000Y-66543800D02*
X189981000Y-70641792D01*
X183250000Y-76736396D02*
X183250000Y-102000000D01*
X189529000Y-67361900D02*
X189529000Y-70457396D01*
X189529000Y-70457396D02*
X183250000Y-76736396D01*
X189077000Y-66910000D02*
X189529000Y-67361900D01*
X188000000Y-66910000D02*
X189077000Y-66910000D01*
X182750000Y-76600000D02*
X182750000Y-102000000D01*
X188000000Y-68180000D02*
X189077000Y-68180000D01*
X189077000Y-68180000D02*
X189077000Y-70273000D01*
X189077000Y-70273000D02*
X182750000Y-76600000D01*
X184965000Y-70700000D02*
X184965000Y-71280000D01*
X184965000Y-71280000D02*
X182250000Y-73995000D01*
X182250000Y-73995000D02*
X182250000Y-102000000D01*
X183695000Y-71345505D02*
X183695000Y-70700000D01*
X181750000Y-73290505D02*
X183695000Y-71345505D01*
X181750000Y-102000000D02*
X181750000Y-73290505D01*
X180250000Y-72681900D02*
X181155000Y-71776900D01*
X181155000Y-71776900D02*
X181155000Y-70700000D01*
X180250000Y-102000000D02*
X180250000Y-72681900D01*
X179750000Y-102000000D02*
X179750000Y-70835000D01*
X179750000Y-70835000D02*
X179885000Y-70700000D01*
X179250000Y-102000000D02*
X179250000Y-71915000D01*
X179250000Y-71915000D02*
X178615000Y-71280000D01*
X178615000Y-71280000D02*
X178615000Y-70700000D01*
X186100000Y-140000000D02*
X186600000Y-140000000D01*
X172300000Y-101866726D02*
X175058274Y-104625000D01*
X175058274Y-104625000D02*
X181100305Y-104625000D01*
X181100305Y-104625000D02*
X184700000Y-108224695D01*
X177355851Y-77394149D02*
X177345000Y-77383298D01*
X184700000Y-138600000D02*
X186100000Y-140000000D01*
X177345000Y-77383298D02*
X177345000Y-70700000D01*
X184700000Y-108224695D02*
X184700000Y-138600000D01*
X172300000Y-87167500D02*
X172300000Y-101866726D01*
X172130000Y-55480000D02*
X170500000Y-55480000D01*
X172150000Y-55500000D02*
X172130000Y-55480000D01*
X169425000Y-67405000D02*
X169425000Y-71125000D01*
X169920000Y-66910000D02*
X169425000Y-67405000D01*
X170500000Y-66910000D02*
X169920000Y-66910000D01*
X177794000Y-79494000D02*
X177794000Y-99100000D01*
X169425000Y-71125000D02*
X177794000Y-79494000D01*
X174804219Y-72268863D02*
X174804219Y-75867823D01*
X174805000Y-72268082D02*
X174804219Y-72268863D01*
X178519000Y-79582604D02*
X178519000Y-100203000D01*
X174804219Y-75867823D02*
X178519000Y-79582604D01*
X174805000Y-70700000D02*
X174805000Y-72268082D01*
X197712000Y-56905000D02*
X197062000Y-57555000D01*
X197712000Y-56905000D02*
X197274500Y-56905000D01*
X197062000Y-57555000D02*
X189405000Y-57555000D01*
X197274500Y-56905000D02*
X193700000Y-53330500D01*
X193700000Y-53330500D02*
X193700000Y-51462500D01*
X188600000Y-56750000D02*
X188000000Y-56750000D01*
X189405000Y-57555000D02*
X188600000Y-56750000D01*
X195650000Y-51462500D02*
X195650000Y-54585500D01*
X198799500Y-56255000D02*
X198799500Y-57450500D01*
X196699500Y-55635000D02*
X197712000Y-55635000D01*
X198799500Y-57450500D02*
X198230000Y-58020000D01*
X198179500Y-55635000D02*
X198799500Y-56255000D01*
X197712000Y-55635000D02*
X198179500Y-55635000D01*
X198230000Y-58020000D02*
X188000000Y-58020000D01*
X195650000Y-54585500D02*
X196699500Y-55635000D01*
D33*
X169528815Y-80570144D02*
X169566315Y-80607644D01*
X167016315Y-80570144D02*
X169528815Y-80570144D01*
X165366315Y-77020144D02*
X165366315Y-78920144D01*
X171307644Y-80607644D02*
X172950000Y-82250000D01*
X169566315Y-80607644D02*
X171307644Y-80607644D01*
X165366315Y-78920144D02*
X167016315Y-80570144D01*
D32*
X172200000Y-134600000D02*
X168550000Y-130950000D01*
X177150000Y-143650000D02*
X172200000Y-138700000D01*
X172200000Y-138700000D02*
X172200000Y-134600000D01*
D31*
X167925000Y-65600000D02*
X167965000Y-65640000D01*
X167965000Y-65640000D02*
X170500000Y-65640000D01*
D33*
X167866315Y-77020144D02*
X168416315Y-77570144D01*
X168815951Y-79670144D02*
X173070144Y-79670144D01*
X173070144Y-79670144D02*
X175600000Y-82200000D01*
X168416315Y-77570144D02*
X168416315Y-79270508D01*
X168416315Y-79270508D02*
X168815951Y-79670144D01*
G04 #@! TA.AperFunction,Conductor*
G36*
X174100614Y-81549849D02*
G01*
X174291557Y-81740793D01*
X174475331Y-81924567D01*
X174508816Y-81985890D01*
X174511121Y-82023690D01*
X174507847Y-82059021D01*
X174506850Y-82066974D01*
X174499500Y-82113388D01*
X174499500Y-82143382D01*
X174498971Y-82154823D01*
X174494785Y-82199998D01*
X174494785Y-82200000D01*
X174498971Y-82245175D01*
X174499500Y-82256616D01*
X174499500Y-84543382D01*
X174498971Y-84554823D01*
X174494785Y-84599998D01*
X174494785Y-84600000D01*
X174498971Y-84645175D01*
X174499500Y-84656616D01*
X174499500Y-84686611D01*
X174506850Y-84733024D01*
X174507847Y-84740976D01*
X174513602Y-84803081D01*
X174521362Y-84830353D01*
X174524568Y-84844885D01*
X174526598Y-84857702D01*
X174546364Y-84918537D01*
X174547699Y-84922918D01*
X174561926Y-84972918D01*
X174569418Y-84999250D01*
X174574446Y-85009348D01*
X174574457Y-85009369D01*
X174578006Y-85018052D01*
X174578264Y-85017946D01*
X174580126Y-85022443D01*
X174580127Y-85022445D01*
X174616915Y-85094646D01*
X174617281Y-85095373D01*
X174642271Y-85145559D01*
X174660328Y-85181823D01*
X174714999Y-85254218D01*
X174716364Y-85256061D01*
X174760582Y-85316924D01*
X174761722Y-85318064D01*
X174772994Y-85331017D01*
X174783236Y-85344579D01*
X174837727Y-85394254D01*
X174841847Y-85398189D01*
X174883072Y-85439414D01*
X174898164Y-85450379D01*
X174908810Y-85459055D01*
X174933959Y-85481981D01*
X174933962Y-85481984D01*
X174982169Y-85511831D01*
X174989776Y-85516938D01*
X175000600Y-85524803D01*
X175023213Y-85541233D01*
X175023218Y-85541236D01*
X175054988Y-85557423D01*
X175063948Y-85562467D01*
X175090780Y-85579080D01*
X175137413Y-85631106D01*
X175149500Y-85684505D01*
X175149500Y-98872084D01*
X175129815Y-98939123D01*
X175113181Y-98959765D01*
X174349154Y-99723792D01*
X174287831Y-99757277D01*
X174218139Y-99752293D01*
X174173792Y-99723792D01*
X174150000Y-99700000D01*
X173950000Y-99700000D01*
X173950000Y-100082043D01*
X173933387Y-100144043D01*
X173880201Y-100236162D01*
X173880200Y-100236167D01*
X173849500Y-100350741D01*
X173849500Y-101878720D01*
X173829815Y-101945759D01*
X173777011Y-101991514D01*
X173707853Y-102001458D01*
X173644297Y-101972433D01*
X173637819Y-101966401D01*
X173586819Y-101915401D01*
X173553334Y-101854078D01*
X173550500Y-101827720D01*
X173550500Y-98900000D01*
X173950000Y-98900000D01*
X173950000Y-99300000D01*
X174150000Y-99300000D01*
X174150000Y-99080301D01*
X174149999Y-99080297D01*
X174138397Y-99021966D01*
X174138396Y-99021965D01*
X174094191Y-98955808D01*
X174028034Y-98911603D01*
X174028033Y-98911602D01*
X173969702Y-98900000D01*
X173950000Y-98900000D01*
X173550500Y-98900000D01*
X173550500Y-85641629D01*
X173570185Y-85574590D01*
X173609229Y-85536198D01*
X173616041Y-85531981D01*
X173641189Y-85509053D01*
X173651830Y-85500382D01*
X173666928Y-85489414D01*
X173708171Y-85448169D01*
X173712269Y-85444256D01*
X173766764Y-85394579D01*
X173777005Y-85381017D01*
X173788286Y-85368055D01*
X173789414Y-85366928D01*
X173833687Y-85305989D01*
X173834962Y-85304267D01*
X173889673Y-85231821D01*
X173932689Y-85145429D01*
X173933113Y-85144588D01*
X173969873Y-85072445D01*
X173969876Y-85072433D01*
X173971740Y-85067936D01*
X173972000Y-85068043D01*
X173975545Y-85059363D01*
X173980582Y-85049250D01*
X174002316Y-84972858D01*
X174003634Y-84968537D01*
X174023402Y-84907701D01*
X174025431Y-84894881D01*
X174028640Y-84880342D01*
X174036397Y-84853083D01*
X174042152Y-84790966D01*
X174043150Y-84783013D01*
X174049809Y-84740976D01*
X174050500Y-84736611D01*
X174050500Y-84706616D01*
X174051029Y-84695175D01*
X174055215Y-84650000D01*
X174055215Y-84649998D01*
X174051029Y-84604823D01*
X174050500Y-84593382D01*
X174050500Y-82306616D01*
X174051029Y-82295175D01*
X174055215Y-82250000D01*
X174055215Y-82249998D01*
X174051029Y-82204823D01*
X174050500Y-82193382D01*
X174050500Y-82163389D01*
X174043150Y-82116984D01*
X174042152Y-82109027D01*
X174036397Y-82046917D01*
X174028638Y-82019652D01*
X174025432Y-82005119D01*
X174023402Y-81992299D01*
X174003634Y-81931463D01*
X174002299Y-81927079D01*
X173980583Y-81850753D01*
X173980581Y-81850748D01*
X173975545Y-81840635D01*
X173971995Y-81831941D01*
X173971734Y-81832050D01*
X173969869Y-81827546D01*
X173933162Y-81755506D01*
X173932645Y-81754480D01*
X173901934Y-81692802D01*
X173889674Y-81624017D01*
X173916548Y-81559522D01*
X173974025Y-81519795D01*
X174043855Y-81517449D01*
X174100614Y-81549849D01*
G37*
G04 #@! TD.AperFunction*
G04 #@! TA.AperFunction,Conductor*
G36*
X172222018Y-74594923D02*
G01*
X172228496Y-74600955D01*
X177282181Y-79654640D01*
X177315666Y-79715963D01*
X177318500Y-79742321D01*
X177318500Y-98462771D01*
X177298815Y-98529810D01*
X177282181Y-98550452D01*
X177203523Y-98629109D01*
X177203518Y-98629115D01*
X177113547Y-98772302D01*
X177113545Y-98772305D01*
X177057685Y-98931943D01*
X177038751Y-99099997D01*
X177038751Y-99100002D01*
X177057685Y-99268056D01*
X177113545Y-99427694D01*
X177113547Y-99427697D01*
X177203518Y-99570884D01*
X177203523Y-99570890D01*
X177323109Y-99690476D01*
X177323115Y-99690481D01*
X177466302Y-99780452D01*
X177466305Y-99780454D01*
X177466309Y-99780455D01*
X177466310Y-99780456D01*
X177625941Y-99836313D01*
X177625944Y-99836314D01*
X177689093Y-99843429D01*
X177753507Y-99870495D01*
X177793062Y-99928090D01*
X177795200Y-99997927D01*
X177792252Y-100007602D01*
X177782686Y-100034940D01*
X177763751Y-100202997D01*
X177763751Y-100203002D01*
X177782685Y-100371056D01*
X177838545Y-100530694D01*
X177838547Y-100530697D01*
X177928518Y-100673884D01*
X177928523Y-100673890D01*
X178048109Y-100793476D01*
X178048115Y-100793481D01*
X178191302Y-100883452D01*
X178191305Y-100883454D01*
X178191309Y-100883455D01*
X178191310Y-100883456D01*
X178263499Y-100908716D01*
X178350943Y-100939314D01*
X178518997Y-100958249D01*
X178519000Y-100958249D01*
X178519003Y-100958249D01*
X178636616Y-100944997D01*
X178705438Y-100957051D01*
X178756818Y-101004400D01*
X178774500Y-101068217D01*
X178774500Y-101125500D01*
X178754815Y-101192539D01*
X178702011Y-101238294D01*
X178650500Y-101249500D01*
X178591740Y-101249500D01*
X178523607Y-101259427D01*
X178523606Y-101259427D01*
X178517877Y-101260262D01*
X178482123Y-101260262D01*
X178476393Y-101259427D01*
X178408260Y-101249500D01*
X178091740Y-101249500D01*
X178023607Y-101259427D01*
X178023606Y-101259427D01*
X178017877Y-101260262D01*
X177982123Y-101260262D01*
X177976393Y-101259427D01*
X177908260Y-101249500D01*
X177591740Y-101249500D01*
X177523607Y-101259427D01*
X177523606Y-101259427D01*
X177517877Y-101260262D01*
X177482123Y-101260262D01*
X177476393Y-101259427D01*
X177408260Y-101249500D01*
X177091740Y-101249500D01*
X177023607Y-101259427D01*
X177023606Y-101259427D01*
X177017877Y-101260262D01*
X176982123Y-101260262D01*
X176976393Y-101259427D01*
X176908260Y-101249500D01*
X176591740Y-101249500D01*
X176523607Y-101259427D01*
X176523606Y-101259427D01*
X176517877Y-101260262D01*
X176482123Y-101260262D01*
X176476393Y-101259427D01*
X176408260Y-101249500D01*
X176091740Y-101249500D01*
X176091739Y-101249500D01*
X176023608Y-101259426D01*
X175918514Y-101310803D01*
X175837681Y-101391637D01*
X175776358Y-101425122D01*
X175706666Y-101420138D01*
X175662319Y-101391637D01*
X175581485Y-101310803D01*
X175476391Y-101259426D01*
X175408261Y-101249500D01*
X175408260Y-101249500D01*
X175091740Y-101249500D01*
X175091739Y-101249500D01*
X175023608Y-101259426D01*
X174928960Y-101305697D01*
X174860087Y-101317456D01*
X174795790Y-101290112D01*
X174756483Y-101232348D01*
X174750500Y-101194296D01*
X174750500Y-100648015D01*
X174770185Y-100580976D01*
X174786819Y-100560334D01*
X175349226Y-99997927D01*
X175960490Y-99386664D01*
X176019799Y-99283936D01*
X176024053Y-99268059D01*
X176024543Y-99266233D01*
X176028666Y-99250840D01*
X176050500Y-99169359D01*
X176050500Y-85684505D01*
X176070185Y-85617466D01*
X176109219Y-85579080D01*
X176136050Y-85562467D01*
X176144999Y-85557428D01*
X176176788Y-85541232D01*
X176189525Y-85531978D01*
X176210213Y-85516946D01*
X176217822Y-85511835D01*
X176266041Y-85481981D01*
X176291189Y-85459053D01*
X176301830Y-85450382D01*
X176316928Y-85439414D01*
X176358171Y-85398169D01*
X176362269Y-85394256D01*
X176416764Y-85344579D01*
X176427005Y-85331017D01*
X176438286Y-85318055D01*
X176439414Y-85316928D01*
X176483687Y-85255989D01*
X176484962Y-85254267D01*
X176539673Y-85181821D01*
X176582689Y-85095429D01*
X176583113Y-85094588D01*
X176619873Y-85022445D01*
X176619876Y-85022433D01*
X176621740Y-85017936D01*
X176622000Y-85018043D01*
X176625545Y-85009363D01*
X176630582Y-84999250D01*
X176652316Y-84922858D01*
X176653634Y-84918537D01*
X176673402Y-84857701D01*
X176675431Y-84844881D01*
X176678640Y-84830342D01*
X176686396Y-84803085D01*
X176686397Y-84803083D01*
X176692152Y-84740966D01*
X176693150Y-84733013D01*
X176699144Y-84695175D01*
X176700500Y-84686611D01*
X176700500Y-84656616D01*
X176701029Y-84645175D01*
X176705215Y-84600000D01*
X176705215Y-84599998D01*
X176701029Y-84554823D01*
X176700500Y-84543382D01*
X176700500Y-82256616D01*
X176701029Y-82245175D01*
X176705215Y-82200000D01*
X176705215Y-82199998D01*
X176701029Y-82154823D01*
X176700500Y-82143382D01*
X176700500Y-82113389D01*
X176693150Y-82066984D01*
X176692152Y-82059027D01*
X176686397Y-81996917D01*
X176678638Y-81969652D01*
X176675432Y-81955119D01*
X176673402Y-81942299D01*
X176653634Y-81881463D01*
X176652299Y-81877079D01*
X176630583Y-81800753D01*
X176630581Y-81800748D01*
X176625545Y-81790635D01*
X176621995Y-81781941D01*
X176621734Y-81782050D01*
X176619869Y-81777546D01*
X176583162Y-81705506D01*
X176582686Y-81704562D01*
X176539673Y-81618179D01*
X176488073Y-81549851D01*
X176485025Y-81545814D01*
X176483661Y-81543973D01*
X176451349Y-81499500D01*
X176439414Y-81483072D01*
X176438277Y-81481935D01*
X176427003Y-81468980D01*
X176416762Y-81455418D01*
X176362294Y-81405765D01*
X176358151Y-81401809D01*
X176316927Y-81360585D01*
X176301840Y-81349624D01*
X176291189Y-81340944D01*
X176266045Y-81318022D01*
X176266042Y-81318020D01*
X176266041Y-81318019D01*
X176217817Y-81288160D01*
X176210222Y-81283060D01*
X176176788Y-81258768D01*
X176176789Y-81258768D01*
X176176787Y-81258767D01*
X176145014Y-81242577D01*
X176136037Y-81237523D01*
X176097815Y-81213858D01*
X176092637Y-81210652D01*
X176092635Y-81210651D01*
X176092628Y-81210647D01*
X176055616Y-81196309D01*
X176044121Y-81191170D01*
X176022454Y-81180131D01*
X176022448Y-81180128D01*
X176022445Y-81180127D01*
X176022441Y-81180125D01*
X176022437Y-81180124D01*
X175972377Y-81163858D01*
X175965904Y-81161555D01*
X175902461Y-81136977D01*
X175902452Y-81136975D01*
X175880168Y-81132809D01*
X175864645Y-81128854D01*
X175857698Y-81126597D01*
X175788931Y-81115705D01*
X175785547Y-81115121D01*
X175701976Y-81099500D01*
X175498024Y-81099500D01*
X175498022Y-81099500D01*
X175436493Y-81111001D01*
X175366978Y-81103969D01*
X175326029Y-81076793D01*
X173557734Y-79308499D01*
X173557732Y-79308496D01*
X173438860Y-79189624D01*
X173438858Y-79189623D01*
X173338227Y-79131524D01*
X173301929Y-79110567D01*
X173149201Y-79069643D01*
X172991087Y-79069643D01*
X172983491Y-79069643D01*
X172983475Y-79069644D01*
X170740815Y-79069644D01*
X170673776Y-79049959D01*
X170628021Y-78997155D01*
X170616815Y-78945644D01*
X170616815Y-78582741D01*
X170636500Y-78515702D01*
X170653134Y-78495060D01*
X171046835Y-78101360D01*
X171125892Y-77964428D01*
X171166816Y-77811701D01*
X171166816Y-77794644D01*
X171186501Y-77727605D01*
X171239305Y-77681850D01*
X171290816Y-77670644D01*
X171699576Y-77670644D01*
X171722286Y-77667335D01*
X171767708Y-77660717D01*
X171872798Y-77609342D01*
X171955513Y-77526627D01*
X172006888Y-77421537D01*
X172016815Y-77353404D01*
X172016815Y-76086884D01*
X172006888Y-76018751D01*
X171955513Y-75913661D01*
X171955511Y-75913659D01*
X171955511Y-75913658D01*
X171872800Y-75830947D01*
X171767706Y-75779570D01*
X171699576Y-75769644D01*
X171699575Y-75769644D01*
X170516412Y-75769644D01*
X170449373Y-75749959D01*
X170428731Y-75733325D01*
X170403905Y-75708499D01*
X170403903Y-75708496D01*
X170403232Y-75707825D01*
X170402991Y-75707385D01*
X170388412Y-75689601D01*
X170388410Y-75689598D01*
X170391979Y-75687218D01*
X170369747Y-75646502D01*
X170374731Y-75576810D01*
X170403232Y-75532463D01*
X170428732Y-75506963D01*
X170490055Y-75473478D01*
X170516413Y-75470644D01*
X171699576Y-75470644D01*
X171722286Y-75467335D01*
X171767708Y-75460717D01*
X171872798Y-75409342D01*
X171955513Y-75326627D01*
X172006888Y-75221537D01*
X172016815Y-75153404D01*
X172016815Y-74688636D01*
X172036500Y-74621597D01*
X172089304Y-74575842D01*
X172158462Y-74565898D01*
X172222018Y-74594923D01*
G37*
G04 #@! TD.AperFunction*
G04 #@! TA.AperFunction,Conductor*
G36*
X181844457Y-71776322D02*
G01*
X181873607Y-71790573D01*
X181919029Y-71797191D01*
X181941739Y-71800500D01*
X181941740Y-71800500D01*
X182268184Y-71800500D01*
X182335223Y-71820185D01*
X182380978Y-71872989D01*
X182390922Y-71942147D01*
X182361897Y-72005703D01*
X182355865Y-72012181D01*
X181369506Y-72998539D01*
X181369504Y-72998542D01*
X181306905Y-73106968D01*
X181274500Y-73227905D01*
X181274500Y-101125500D01*
X181254815Y-101192539D01*
X181202011Y-101238294D01*
X181150500Y-101249500D01*
X181091740Y-101249500D01*
X181023607Y-101259427D01*
X181023606Y-101259427D01*
X181017877Y-101260262D01*
X180982123Y-101260262D01*
X180976393Y-101259427D01*
X180908260Y-101249500D01*
X180908255Y-101249500D01*
X180849500Y-101249500D01*
X180782461Y-101229815D01*
X180736706Y-101177011D01*
X180725500Y-101125500D01*
X180725500Y-72930221D01*
X180745185Y-72863182D01*
X180761819Y-72842540D01*
X181035897Y-72568462D01*
X181535495Y-72068864D01*
X181598095Y-71960436D01*
X181620216Y-71877880D01*
X181656580Y-71818222D01*
X181703386Y-71791502D01*
X181706389Y-71790573D01*
X181706393Y-71790573D01*
X181735540Y-71776323D01*
X181804411Y-71764564D01*
X181844457Y-71776322D01*
G37*
G04 #@! TD.AperFunction*
G04 #@! TA.AperFunction,Conductor*
G36*
X178034457Y-71776322D02*
G01*
X178063607Y-71790573D01*
X178109029Y-71797191D01*
X178131739Y-71800500D01*
X178131740Y-71800500D01*
X178411679Y-71800500D01*
X178478718Y-71820185D01*
X178499360Y-71836819D01*
X178738181Y-72075639D01*
X178771666Y-72136962D01*
X178774500Y-72163320D01*
X178774500Y-78866283D01*
X178754815Y-78933322D01*
X178702011Y-78979077D01*
X178632853Y-78989021D01*
X178569297Y-78959996D01*
X178562819Y-78953964D01*
X177793439Y-78184585D01*
X177759954Y-78123262D01*
X177764938Y-78053571D01*
X177806810Y-77997637D01*
X177815141Y-77991914D01*
X177826741Y-77984626D01*
X177946328Y-77865039D01*
X177946332Y-77865033D01*
X178036303Y-77721846D01*
X178036305Y-77721843D01*
X178036305Y-77721841D01*
X178036307Y-77721839D01*
X178092164Y-77562208D01*
X178092164Y-77562207D01*
X178092165Y-77562205D01*
X178111100Y-77394151D01*
X178111100Y-77394146D01*
X178092165Y-77226092D01*
X178036305Y-77066454D01*
X178036303Y-77066451D01*
X177946332Y-76923264D01*
X177946327Y-76923258D01*
X177856819Y-76833750D01*
X177823334Y-76772427D01*
X177820500Y-76746069D01*
X177820500Y-71905079D01*
X177840185Y-71838040D01*
X177890039Y-71793679D01*
X177896392Y-71790573D01*
X177896393Y-71790573D01*
X177925540Y-71776323D01*
X177994412Y-71764564D01*
X178034457Y-71776322D01*
G37*
G04 #@! TD.AperFunction*
G04 #@! TA.AperFunction,Conductor*
G36*
X185654457Y-71776322D02*
G01*
X185683607Y-71790573D01*
X185729029Y-71797191D01*
X185751739Y-71800500D01*
X186577679Y-71800500D01*
X186644718Y-71820185D01*
X186690473Y-71872989D01*
X186700417Y-71942147D01*
X186671392Y-72005703D01*
X186665360Y-72012181D01*
X182937181Y-75740360D01*
X182875858Y-75773845D01*
X182806166Y-75768861D01*
X182750233Y-75726989D01*
X182725816Y-75661525D01*
X182725500Y-75652679D01*
X182725500Y-74243321D01*
X182745185Y-74176282D01*
X182761819Y-74155640D01*
X185080640Y-71836819D01*
X185141963Y-71803334D01*
X185168321Y-71800500D01*
X185448261Y-71800500D01*
X185465293Y-71798018D01*
X185516393Y-71790573D01*
X185545540Y-71776323D01*
X185614411Y-71764564D01*
X185654457Y-71776322D01*
G37*
G04 #@! TD.AperFunction*
G04 #@! TA.AperFunction,Conductor*
G36*
X171391799Y-70254578D02*
G01*
X171444689Y-70300233D01*
X171464500Y-70367235D01*
X171464500Y-71483260D01*
X171474426Y-71551391D01*
X171525803Y-71656485D01*
X171608514Y-71739196D01*
X171608515Y-71739196D01*
X171608517Y-71739198D01*
X171713607Y-71790573D01*
X171734925Y-71793679D01*
X171781739Y-71800500D01*
X171781740Y-71800500D01*
X172748261Y-71800500D01*
X172765293Y-71798018D01*
X172816393Y-71790573D01*
X172845540Y-71776323D01*
X172914411Y-71764564D01*
X172954457Y-71776322D01*
X172983607Y-71790573D01*
X173029029Y-71797191D01*
X173051739Y-71800500D01*
X173051740Y-71800500D01*
X174018261Y-71800500D01*
X174035293Y-71798018D01*
X174086393Y-71790573D01*
X174115540Y-71776323D01*
X174184411Y-71764564D01*
X174224459Y-71776323D01*
X174253607Y-71790573D01*
X174259961Y-71793679D01*
X174311543Y-71840807D01*
X174329500Y-71905079D01*
X174329500Y-72192201D01*
X174328719Y-72204123D01*
X174328719Y-75056898D01*
X174309034Y-75123937D01*
X174256230Y-75169692D01*
X174187072Y-75179636D01*
X174123516Y-75150611D01*
X174117038Y-75144579D01*
X169936819Y-70964360D01*
X169903334Y-70903037D01*
X169900500Y-70876679D01*
X169900500Y-70374500D01*
X169920185Y-70307461D01*
X169972989Y-70261706D01*
X170024500Y-70250500D01*
X171283261Y-70250500D01*
X171322622Y-70244765D01*
X171391799Y-70254578D01*
G37*
G04 #@! TD.AperFunction*
G04 #@! TA.AperFunction,Conductor*
G36*
X169361960Y-66135185D02*
G01*
X169406323Y-66185042D01*
X169409426Y-66191391D01*
X169409427Y-66191393D01*
X169423675Y-66220538D01*
X169423677Y-66220542D01*
X169435434Y-66289415D01*
X169423676Y-66329458D01*
X169409429Y-66358601D01*
X169409425Y-66358611D01*
X169399500Y-66426739D01*
X169399500Y-66706678D01*
X169379815Y-66773717D01*
X169363181Y-66794359D01*
X169115603Y-67041935D01*
X169115594Y-67041947D01*
X169044503Y-67113037D01*
X168981905Y-67221463D01*
X168949500Y-67342400D01*
X168949500Y-70592353D01*
X168929815Y-70659392D01*
X168877011Y-70705147D01*
X168809315Y-70715292D01*
X168689362Y-70699500D01*
X167980275Y-70699500D01*
X167913236Y-70679815D01*
X167867481Y-70627011D01*
X167857537Y-70557853D01*
X167886562Y-70494297D01*
X167898718Y-70482845D01*
X167903277Y-70478286D01*
X167903277Y-70478285D01*
X167903282Y-70478282D01*
X167999536Y-70352841D01*
X168060044Y-70206762D01*
X168075500Y-70089361D01*
X168075499Y-69110640D01*
X168075499Y-69110639D01*
X168075499Y-69110636D01*
X168060046Y-68993246D01*
X168060044Y-68993239D01*
X168060044Y-68993238D01*
X167999536Y-68847159D01*
X167903282Y-68721718D01*
X167903280Y-68721717D01*
X167903280Y-68721716D01*
X167777841Y-68625464D01*
X167777840Y-68625463D01*
X167752046Y-68614779D01*
X167697643Y-68570937D01*
X167675579Y-68504642D01*
X167675500Y-68500218D01*
X167675500Y-66465893D01*
X167695185Y-66398854D01*
X167747989Y-66353099D01*
X167813384Y-66342673D01*
X167924997Y-66355249D01*
X167925000Y-66355249D01*
X167925003Y-66355249D01*
X168093056Y-66336314D01*
X168112638Y-66329462D01*
X168252690Y-66280456D01*
X168252692Y-66280454D01*
X168252694Y-66280454D01*
X168252697Y-66280452D01*
X168395884Y-66190481D01*
X168395885Y-66190480D01*
X168395890Y-66190477D01*
X168434548Y-66151819D01*
X168495871Y-66118334D01*
X168522229Y-66115500D01*
X169294921Y-66115500D01*
X169361960Y-66135185D01*
G37*
G04 #@! TD.AperFunction*
G04 #@! TA.AperFunction,Conductor*
G36*
X201504043Y-42200765D02*
G01*
X201726790Y-42215364D01*
X201742848Y-42217479D01*
X201928875Y-42254482D01*
X201957771Y-42260230D01*
X201973438Y-42264428D01*
X202126569Y-42316409D01*
X202180944Y-42334867D01*
X202195921Y-42341070D01*
X202386791Y-42435196D01*
X202392460Y-42437992D01*
X202406508Y-42446102D01*
X202588712Y-42567848D01*
X202601573Y-42577716D01*
X202706495Y-42669730D01*
X202766328Y-42722202D01*
X202777797Y-42733671D01*
X202888160Y-42859517D01*
X202922280Y-42898423D01*
X202932154Y-42911291D01*
X203053897Y-43093492D01*
X203062007Y-43107539D01*
X203158926Y-43304071D01*
X203165133Y-43319057D01*
X203235571Y-43526561D01*
X203239769Y-43542228D01*
X203282518Y-43757140D01*
X203284636Y-43773221D01*
X203299235Y-43995956D01*
X203299500Y-44004066D01*
X203299500Y-88375500D01*
X203279815Y-88442539D01*
X203227011Y-88488294D01*
X203175500Y-88499500D01*
X201960116Y-88499500D01*
X201886425Y-88530024D01*
X201830024Y-88586425D01*
X201799500Y-88660116D01*
X201799500Y-94739883D01*
X201830024Y-94813574D01*
X201886426Y-94869976D01*
X201960118Y-94900500D01*
X203175500Y-94900500D01*
X203242539Y-94920185D01*
X203288294Y-94972989D01*
X203299500Y-95024500D01*
X203299500Y-109375500D01*
X203279815Y-109442539D01*
X203227011Y-109488294D01*
X203175500Y-109499500D01*
X201960116Y-109499500D01*
X201886425Y-109530024D01*
X201830024Y-109586425D01*
X201799500Y-109660116D01*
X201799500Y-115739883D01*
X201816732Y-115781485D01*
X201830024Y-115813574D01*
X201886426Y-115869976D01*
X201960118Y-115900500D01*
X203175500Y-115900500D01*
X203242539Y-115920185D01*
X203288294Y-115972989D01*
X203299500Y-116024500D01*
X203299500Y-147995933D01*
X203299235Y-148004043D01*
X203284636Y-148226778D01*
X203282518Y-148242859D01*
X203239769Y-148457771D01*
X203235571Y-148473438D01*
X203165133Y-148680942D01*
X203158926Y-148695928D01*
X203062007Y-148892460D01*
X203053897Y-148906507D01*
X202932154Y-149088708D01*
X202922280Y-149101576D01*
X202777797Y-149266328D01*
X202766328Y-149277797D01*
X202601576Y-149422280D01*
X202588708Y-149432154D01*
X202406507Y-149553897D01*
X202392460Y-149562007D01*
X202195928Y-149658926D01*
X202180942Y-149665133D01*
X201973438Y-149735571D01*
X201957771Y-149739769D01*
X201742859Y-149782518D01*
X201726778Y-149784636D01*
X201504043Y-149799235D01*
X201495933Y-149799500D01*
X162504067Y-149799500D01*
X162495957Y-149799235D01*
X162273221Y-149784636D01*
X162257140Y-149782518D01*
X162042228Y-149739769D01*
X162026561Y-149735571D01*
X161819057Y-149665133D01*
X161804071Y-149658926D01*
X161607539Y-149562007D01*
X161593492Y-149553897D01*
X161411291Y-149432154D01*
X161398423Y-149422280D01*
X161233671Y-149277797D01*
X161222202Y-149266328D01*
X161169730Y-149206495D01*
X161077716Y-149101573D01*
X161067845Y-149088708D01*
X160946102Y-148906507D01*
X160937992Y-148892460D01*
X160935196Y-148886791D01*
X160841070Y-148695921D01*
X160834866Y-148680942D01*
X160764428Y-148473438D01*
X160760230Y-148457771D01*
X160748217Y-148397376D01*
X160717479Y-148242848D01*
X160715364Y-148226790D01*
X160700765Y-148004043D01*
X160700500Y-147995933D01*
X160700500Y-145200004D01*
X161794732Y-145200004D01*
X161813777Y-145454154D01*
X161813778Y-145454157D01*
X161870492Y-145702637D01*
X161963607Y-145939888D01*
X162091041Y-146160612D01*
X162249950Y-146359877D01*
X162436783Y-146533232D01*
X162647366Y-146676805D01*
X162647371Y-146676807D01*
X162647372Y-146676808D01*
X162647373Y-146676809D01*
X162769328Y-146735538D01*
X162876992Y-146787387D01*
X162876993Y-146787387D01*
X162876996Y-146787389D01*
X163120542Y-146862513D01*
X163372565Y-146900500D01*
X163627435Y-146900500D01*
X163879458Y-146862513D01*
X164123004Y-146787389D01*
X164352634Y-146676805D01*
X164563217Y-146533232D01*
X164750050Y-146359877D01*
X164908959Y-146160612D01*
X165036393Y-145939888D01*
X165129508Y-145702637D01*
X165186222Y-145454157D01*
X165205268Y-145200004D01*
X198794732Y-145200004D01*
X198813777Y-145454154D01*
X198813778Y-145454157D01*
X198870492Y-145702637D01*
X198963607Y-145939888D01*
X199091041Y-146160612D01*
X199249950Y-146359877D01*
X199436783Y-146533232D01*
X199647366Y-146676805D01*
X199647371Y-146676807D01*
X199647372Y-146676808D01*
X199647373Y-146676809D01*
X199769328Y-146735538D01*
X199876992Y-146787387D01*
X199876993Y-146787387D01*
X199876996Y-146787389D01*
X200120542Y-146862513D01*
X200372565Y-146900500D01*
X200627435Y-146900500D01*
X200879458Y-146862513D01*
X201123004Y-146787389D01*
X201352634Y-146676805D01*
X201563217Y-146533232D01*
X201750050Y-146359877D01*
X201908959Y-146160612D01*
X202036393Y-145939888D01*
X202129508Y-145702637D01*
X202186222Y-145454157D01*
X202205268Y-145200000D01*
X202186222Y-144945843D01*
X202129508Y-144697363D01*
X202036393Y-144460112D01*
X201908959Y-144239388D01*
X201750050Y-144040123D01*
X201563217Y-143866768D01*
X201352634Y-143723195D01*
X201352630Y-143723193D01*
X201352627Y-143723191D01*
X201352626Y-143723190D01*
X201123006Y-143612612D01*
X201123008Y-143612612D01*
X200879466Y-143537489D01*
X200879462Y-143537488D01*
X200879458Y-143537487D01*
X200758231Y-143519214D01*
X200627440Y-143499500D01*
X200627435Y-143499500D01*
X200372565Y-143499500D01*
X200372559Y-143499500D01*
X200215609Y-143523157D01*
X200120542Y-143537487D01*
X200120539Y-143537488D01*
X200120533Y-143537489D01*
X199876992Y-143612612D01*
X199647373Y-143723190D01*
X199647372Y-143723191D01*
X199436782Y-143866768D01*
X199249952Y-144040121D01*
X199249950Y-144040123D01*
X199091041Y-144239388D01*
X198963608Y-144460109D01*
X198870492Y-144697362D01*
X198870490Y-144697369D01*
X198813777Y-144945845D01*
X198794732Y-145199995D01*
X198794732Y-145200004D01*
X165205268Y-145200004D01*
X165205268Y-145200000D01*
X165186222Y-144945843D01*
X165129508Y-144697363D01*
X165036393Y-144460112D01*
X164908959Y-144239388D01*
X164750050Y-144040123D01*
X164563217Y-143866768D01*
X164352634Y-143723195D01*
X164352630Y-143723193D01*
X164352627Y-143723191D01*
X164352626Y-143723190D01*
X164123006Y-143612612D01*
X164123008Y-143612612D01*
X163879466Y-143537489D01*
X163879462Y-143537488D01*
X163879458Y-143537487D01*
X163758231Y-143519214D01*
X163627440Y-143499500D01*
X163627435Y-143499500D01*
X163372565Y-143499500D01*
X163372559Y-143499500D01*
X163215609Y-143523157D01*
X163120542Y-143537487D01*
X163120539Y-143537488D01*
X163120533Y-143537489D01*
X162876992Y-143612612D01*
X162647373Y-143723190D01*
X162647372Y-143723191D01*
X162436782Y-143866768D01*
X162249952Y-144040121D01*
X162249950Y-144040123D01*
X162091041Y-144239388D01*
X161963608Y-144460109D01*
X161870492Y-144697362D01*
X161870490Y-144697369D01*
X161813777Y-144945845D01*
X161794732Y-145199995D01*
X161794732Y-145200004D01*
X160700500Y-145200004D01*
X160700500Y-130850000D01*
X162894785Y-130850000D01*
X162913602Y-131053082D01*
X162969417Y-131249247D01*
X162969422Y-131249260D01*
X163060327Y-131431821D01*
X163183237Y-131594581D01*
X163333958Y-131731980D01*
X163333960Y-131731982D01*
X163421615Y-131786255D01*
X163507363Y-131839348D01*
X163697544Y-131913024D01*
X163898024Y-131950500D01*
X163898026Y-131950500D01*
X164101974Y-131950500D01*
X164101976Y-131950500D01*
X164302456Y-131913024D01*
X164492637Y-131839348D01*
X164666041Y-131731981D01*
X164816764Y-131594579D01*
X164939673Y-131431821D01*
X165030582Y-131249250D01*
X165086397Y-131053083D01*
X165105215Y-130850000D01*
X165086397Y-130646917D01*
X165030582Y-130450750D01*
X165009214Y-130407838D01*
X164982812Y-130354815D01*
X164939673Y-130268179D01*
X164865187Y-130169544D01*
X164816762Y-130105418D01*
X164666042Y-129968020D01*
X164666041Y-129968019D01*
X164534222Y-129886400D01*
X164487587Y-129834372D01*
X164475500Y-129780973D01*
X164475500Y-127287229D01*
X164495185Y-127220190D01*
X164511819Y-127199548D01*
X164590477Y-127120890D01*
X164680452Y-126977697D01*
X164680454Y-126977694D01*
X164680454Y-126977692D01*
X164680456Y-126977690D01*
X164736313Y-126818059D01*
X164736313Y-126818058D01*
X164736314Y-126818056D01*
X164755249Y-126650002D01*
X164755249Y-126649997D01*
X164736314Y-126481943D01*
X164680454Y-126322305D01*
X164680452Y-126322302D01*
X164590481Y-126179115D01*
X164590476Y-126179109D01*
X164470890Y-126059523D01*
X164470884Y-126059518D01*
X164327697Y-125969547D01*
X164327694Y-125969545D01*
X164168056Y-125913685D01*
X164000003Y-125894751D01*
X163999997Y-125894751D01*
X163831943Y-125913685D01*
X163672305Y-125969545D01*
X163672302Y-125969547D01*
X163529115Y-126059518D01*
X163529109Y-126059523D01*
X163409523Y-126179109D01*
X163409518Y-126179115D01*
X163319547Y-126322302D01*
X163319545Y-126322305D01*
X163263685Y-126481943D01*
X163244751Y-126649997D01*
X163244751Y-126650002D01*
X163263685Y-126818056D01*
X163319545Y-126977694D01*
X163319547Y-126977697D01*
X163409518Y-127120884D01*
X163409523Y-127120890D01*
X163488181Y-127199548D01*
X163521666Y-127260871D01*
X163524500Y-127287229D01*
X163524500Y-129780973D01*
X163504815Y-129848012D01*
X163465778Y-129886400D01*
X163333957Y-129968020D01*
X163183237Y-130105418D01*
X163060327Y-130268178D01*
X162969422Y-130450739D01*
X162969417Y-130450752D01*
X162913602Y-130646917D01*
X162894785Y-130849999D01*
X162894785Y-130850000D01*
X160700500Y-130850000D01*
X160700500Y-121845961D01*
X171678800Y-121845961D01*
X171708434Y-121994943D01*
X171708436Y-121994951D01*
X171766571Y-122135301D01*
X171766571Y-122135302D01*
X171850967Y-122261610D01*
X171850973Y-122261617D01*
X171958382Y-122369026D01*
X171958389Y-122369032D01*
X172084698Y-122453428D01*
X172084699Y-122453428D01*
X172084700Y-122453429D01*
X172225049Y-122511564D01*
X172374038Y-122541199D01*
X172374042Y-122541200D01*
X172374043Y-122541200D01*
X172525958Y-122541200D01*
X172525959Y-122541199D01*
X172674951Y-122511564D01*
X172815300Y-122453429D01*
X172815301Y-122453428D01*
X172815302Y-122453428D01*
X172878456Y-122411230D01*
X172941612Y-122369031D01*
X173049031Y-122261612D01*
X173133429Y-122135300D01*
X173191564Y-121994951D01*
X173221200Y-121845957D01*
X173221200Y-121694043D01*
X173191564Y-121545049D01*
X173133429Y-121404700D01*
X173133428Y-121404698D01*
X173133428Y-121404697D01*
X173049032Y-121278389D01*
X173049026Y-121278382D01*
X172941617Y-121170973D01*
X172941610Y-121170967D01*
X172815301Y-121086571D01*
X172674951Y-121028436D01*
X172674943Y-121028434D01*
X172525961Y-120998800D01*
X172525957Y-120998800D01*
X172374043Y-120998800D01*
X172374038Y-120998800D01*
X172225056Y-121028434D01*
X172225048Y-121028436D01*
X172084698Y-121086571D01*
X172084697Y-121086571D01*
X171958389Y-121170967D01*
X171958382Y-121170973D01*
X171850973Y-121278382D01*
X171850967Y-121278389D01*
X171766571Y-121404697D01*
X171766571Y-121404698D01*
X171708436Y-121545048D01*
X171708434Y-121545056D01*
X171678800Y-121694038D01*
X171678800Y-121845961D01*
X160700500Y-121845961D01*
X160700500Y-116024500D01*
X160720185Y-115957461D01*
X160772989Y-115911706D01*
X160824500Y-115900500D01*
X162039880Y-115900500D01*
X162039882Y-115900500D01*
X162113574Y-115869976D01*
X162169976Y-115813574D01*
X162200500Y-115739882D01*
X162200500Y-112026384D01*
X172674500Y-112026384D01*
X172704300Y-112176197D01*
X172704302Y-112176205D01*
X172762759Y-112317334D01*
X172762764Y-112317343D01*
X172847629Y-112444351D01*
X172847632Y-112444355D01*
X172955644Y-112552367D01*
X172955648Y-112552370D01*
X173082656Y-112637235D01*
X173082662Y-112637238D01*
X173082663Y-112637239D01*
X173223795Y-112695698D01*
X173373615Y-112725499D01*
X173373619Y-112725500D01*
X173373620Y-112725500D01*
X173526381Y-112725500D01*
X173526382Y-112725499D01*
X173676205Y-112695698D01*
X173817337Y-112637239D01*
X173944352Y-112552370D01*
X174052370Y-112444352D01*
X174137239Y-112317337D01*
X174195698Y-112176205D01*
X174225500Y-112026380D01*
X174225500Y-111873620D01*
X174195698Y-111723795D01*
X174137239Y-111582663D01*
X174137238Y-111582662D01*
X174137235Y-111582656D01*
X174052370Y-111455648D01*
X174052367Y-111455644D01*
X173944355Y-111347632D01*
X173944351Y-111347629D01*
X173817343Y-111262764D01*
X173817334Y-111262759D01*
X173676205Y-111204302D01*
X173676197Y-111204300D01*
X173526384Y-111174500D01*
X173526380Y-111174500D01*
X173373620Y-111174500D01*
X173373615Y-111174500D01*
X173223802Y-111204300D01*
X173223794Y-111204302D01*
X173082665Y-111262759D01*
X173082656Y-111262764D01*
X172955648Y-111347629D01*
X172955644Y-111347632D01*
X172847632Y-111455644D01*
X172847629Y-111455648D01*
X172762764Y-111582656D01*
X172762759Y-111582665D01*
X172704302Y-111723794D01*
X172704300Y-111723802D01*
X172674500Y-111873615D01*
X172674500Y-112026384D01*
X162200500Y-112026384D01*
X162200500Y-109660118D01*
X162169976Y-109586426D01*
X162113574Y-109530024D01*
X162039883Y-109499500D01*
X162039882Y-109499500D01*
X160824500Y-109499500D01*
X160757461Y-109479815D01*
X160711706Y-109427011D01*
X160700500Y-109375500D01*
X160700500Y-107100000D01*
X161794357Y-107100000D01*
X161814884Y-107321535D01*
X161814885Y-107321537D01*
X161875769Y-107535523D01*
X161875775Y-107535538D01*
X161974938Y-107734683D01*
X161974943Y-107734691D01*
X162109020Y-107912238D01*
X162273437Y-108062123D01*
X162273439Y-108062125D01*
X162462595Y-108179245D01*
X162462596Y-108179245D01*
X162462599Y-108179247D01*
X162670060Y-108259618D01*
X162888757Y-108300500D01*
X162888759Y-108300500D01*
X163111241Y-108300500D01*
X163111243Y-108300500D01*
X163329940Y-108259618D01*
X163537401Y-108179247D01*
X163726562Y-108062124D01*
X163890981Y-107912236D01*
X164025058Y-107734689D01*
X164124229Y-107535528D01*
X164185115Y-107321536D01*
X164205643Y-107100000D01*
X164185115Y-106878464D01*
X164124229Y-106664472D01*
X164124224Y-106664461D01*
X164025061Y-106465316D01*
X164025056Y-106465308D01*
X163890979Y-106287761D01*
X163726562Y-106137876D01*
X163726560Y-106137874D01*
X163537404Y-106020754D01*
X163537398Y-106020752D01*
X163329940Y-105940382D01*
X163111243Y-105899500D01*
X162888757Y-105899500D01*
X162670060Y-105940382D01*
X162538864Y-105991207D01*
X162462601Y-106020752D01*
X162462595Y-106020754D01*
X162273439Y-106137874D01*
X162273437Y-106137876D01*
X162109020Y-106287761D01*
X161974943Y-106465308D01*
X161974938Y-106465316D01*
X161875775Y-106664461D01*
X161875769Y-106664476D01*
X161814885Y-106878462D01*
X161814884Y-106878464D01*
X161794357Y-107099999D01*
X161794357Y-107100000D01*
X160700500Y-107100000D01*
X160700500Y-95024500D01*
X160720185Y-94957461D01*
X160772989Y-94911706D01*
X160824500Y-94900500D01*
X162039880Y-94900500D01*
X162039882Y-94900500D01*
X162113574Y-94869976D01*
X162169976Y-94813574D01*
X162200500Y-94739882D01*
X162200500Y-88660118D01*
X162169976Y-88586426D01*
X162113574Y-88530024D01*
X162113516Y-88530000D01*
X162039883Y-88499500D01*
X162039882Y-88499500D01*
X160824500Y-88499500D01*
X160757461Y-88479815D01*
X160711706Y-88427011D01*
X160700500Y-88375500D01*
X160700500Y-88100002D01*
X164944751Y-88100002D01*
X164963685Y-88268056D01*
X165019545Y-88427694D01*
X165019547Y-88427697D01*
X165109518Y-88570884D01*
X165109523Y-88570890D01*
X165188181Y-88649548D01*
X165221666Y-88710871D01*
X165224500Y-88737229D01*
X165224500Y-98773795D01*
X165224500Y-98898997D01*
X165239723Y-98955808D01*
X165256905Y-99019932D01*
X165319504Y-99128358D01*
X165319506Y-99128361D01*
X174838181Y-108647036D01*
X174871666Y-108708359D01*
X174874500Y-108734717D01*
X174874500Y-128551678D01*
X174854815Y-128618717D01*
X174838181Y-128639359D01*
X174190594Y-129286946D01*
X173839360Y-129638181D01*
X173778037Y-129671666D01*
X173751679Y-129674500D01*
X172062601Y-129674500D01*
X171937399Y-129674500D01*
X171856775Y-129696103D01*
X171816463Y-129706905D01*
X171700997Y-129773569D01*
X171699594Y-129771138D01*
X171647132Y-129791409D01*
X171608168Y-129787617D01*
X171608091Y-129788030D01*
X171603411Y-129787155D01*
X171602916Y-129787107D01*
X171602460Y-129786977D01*
X171602457Y-129786976D01*
X171602456Y-129786976D01*
X171401976Y-129749500D01*
X171198024Y-129749500D01*
X170997544Y-129786976D01*
X170997541Y-129786976D01*
X170997541Y-129786977D01*
X170807364Y-129860651D01*
X170807357Y-129860655D01*
X170633960Y-129968017D01*
X170633958Y-129968019D01*
X170483237Y-130105418D01*
X170360327Y-130268178D01*
X170269422Y-130450739D01*
X170269417Y-130450752D01*
X170213602Y-130646917D01*
X170194785Y-130849999D01*
X170194785Y-130850000D01*
X170213602Y-131053082D01*
X170213603Y-131053085D01*
X170225202Y-131093850D01*
X170224615Y-131163717D01*
X170186349Y-131222176D01*
X170122551Y-131250666D01*
X170053479Y-131240142D01*
X170018255Y-131215465D01*
X169092165Y-130289375D01*
X169092161Y-130289372D01*
X168952866Y-130196297D01*
X168952863Y-130196296D01*
X168798082Y-130132184D01*
X168798073Y-130132181D01*
X168633771Y-130099500D01*
X168633767Y-130099500D01*
X168466233Y-130099500D01*
X168466228Y-130099500D01*
X168301926Y-130132181D01*
X168301917Y-130132184D01*
X168147136Y-130196296D01*
X168147133Y-130196297D01*
X168007838Y-130289372D01*
X168007834Y-130289375D01*
X167889375Y-130407834D01*
X167889372Y-130407838D01*
X167796297Y-130547133D01*
X167796296Y-130547136D01*
X167732184Y-130701917D01*
X167732181Y-130701926D01*
X167699500Y-130866228D01*
X167699500Y-131033771D01*
X167732181Y-131198073D01*
X167732184Y-131198082D01*
X167796296Y-131352863D01*
X167796297Y-131352866D01*
X167889372Y-131492161D01*
X167889375Y-131492165D01*
X171313181Y-134915970D01*
X171346666Y-134977293D01*
X171349500Y-135003651D01*
X171349500Y-138783771D01*
X171377606Y-138925071D01*
X171377607Y-138925074D01*
X171382184Y-138948081D01*
X171382185Y-138948085D01*
X171446296Y-139102863D01*
X171446297Y-139102866D01*
X171539372Y-139242161D01*
X171539375Y-139242165D01*
X176607830Y-144310619D01*
X176607831Y-144310620D01*
X176607834Y-144310622D01*
X176607838Y-144310626D01*
X176747137Y-144403704D01*
X176747140Y-144403705D01*
X176747143Y-144403707D01*
X176840006Y-144442171D01*
X176901919Y-144467816D01*
X177066228Y-144500498D01*
X177066232Y-144500499D01*
X177066233Y-144500499D01*
X177233768Y-144500499D01*
X177233769Y-144500498D01*
X177398081Y-144467816D01*
X177552863Y-144403704D01*
X177692162Y-144310626D01*
X177692168Y-144310620D01*
X177692169Y-144310620D01*
X177810620Y-144192169D01*
X177810620Y-144192168D01*
X177810626Y-144192162D01*
X177903704Y-144052863D01*
X177967816Y-143898081D01*
X178000499Y-143733767D01*
X178000499Y-143566233D01*
X177967816Y-143401919D01*
X177942171Y-143340006D01*
X177903707Y-143247143D01*
X177903705Y-143247140D01*
X177903704Y-143247137D01*
X177810626Y-143107838D01*
X177810622Y-143107834D01*
X177810620Y-143107831D01*
X175002789Y-140300000D01*
X176700000Y-140300000D01*
X176700000Y-140769702D01*
X176711602Y-140828033D01*
X176711603Y-140828034D01*
X176755808Y-140894191D01*
X176821965Y-140938396D01*
X176821966Y-140938397D01*
X176880297Y-140949999D01*
X176880301Y-140950000D01*
X177600000Y-140950000D01*
X177600000Y-140300000D01*
X178200000Y-140300000D01*
X178200000Y-140950000D01*
X178919699Y-140950000D01*
X178919702Y-140949999D01*
X178978033Y-140938397D01*
X178978034Y-140938396D01*
X179044191Y-140894191D01*
X179088396Y-140828034D01*
X179088397Y-140828033D01*
X179099999Y-140769702D01*
X179100000Y-140769699D01*
X179100000Y-140300000D01*
X178200000Y-140300000D01*
X177600000Y-140300000D01*
X176700000Y-140300000D01*
X175002789Y-140300000D01*
X174402789Y-139700000D01*
X176700000Y-139700000D01*
X177600000Y-139700000D01*
X177600000Y-139050000D01*
X178200000Y-139050000D01*
X178200000Y-139700000D01*
X179100000Y-139700000D01*
X179100000Y-139230301D01*
X179099999Y-139230297D01*
X179088397Y-139171966D01*
X179088396Y-139171965D01*
X179044191Y-139105808D01*
X178978034Y-139061603D01*
X178978033Y-139061602D01*
X178919702Y-139050000D01*
X178200000Y-139050000D01*
X177600000Y-139050000D01*
X176880297Y-139050000D01*
X176821966Y-139061602D01*
X176821965Y-139061603D01*
X176755808Y-139105808D01*
X176711603Y-139171965D01*
X176711602Y-139171966D01*
X176700000Y-139230297D01*
X176700000Y-139700000D01*
X174402789Y-139700000D01*
X173086819Y-138384030D01*
X173053334Y-138322707D01*
X173050500Y-138296349D01*
X173050500Y-134516232D01*
X173050499Y-134516228D01*
X173028424Y-134405249D01*
X173017816Y-134351918D01*
X172957064Y-134205250D01*
X172953704Y-134197138D01*
X172918990Y-134145185D01*
X172860630Y-134057842D01*
X172860624Y-134057834D01*
X170934190Y-132131400D01*
X170900705Y-132070077D01*
X170905689Y-132000385D01*
X170947561Y-131944452D01*
X171013025Y-131920035D01*
X171044650Y-131921829D01*
X171198024Y-131950500D01*
X171198026Y-131950500D01*
X171401974Y-131950500D01*
X171401976Y-131950500D01*
X171602456Y-131913024D01*
X171792637Y-131839348D01*
X171966041Y-131731981D01*
X172116764Y-131594579D01*
X172239673Y-131431821D01*
X172330582Y-131249250D01*
X172386397Y-131053083D01*
X172405215Y-130850000D01*
X172396963Y-130760941D01*
X172410378Y-130692371D01*
X172458735Y-130641939D01*
X172520434Y-130625500D01*
X173400500Y-130625500D01*
X173467539Y-130645185D01*
X173513294Y-130697989D01*
X173524500Y-130749500D01*
X173524500Y-136137399D01*
X173524500Y-136262601D01*
X173556905Y-136383536D01*
X173619504Y-136491962D01*
X173619506Y-136491965D01*
X174560909Y-137433368D01*
X174594394Y-137494691D01*
X174596448Y-137534929D01*
X174594752Y-137549997D01*
X174594751Y-137550002D01*
X174613685Y-137718056D01*
X174669545Y-137877694D01*
X174669547Y-137877697D01*
X174759518Y-138020884D01*
X174759523Y-138020890D01*
X174879109Y-138140476D01*
X174879115Y-138140481D01*
X175022302Y-138230452D01*
X175022305Y-138230454D01*
X175022309Y-138230455D01*
X175022310Y-138230456D01*
X175094913Y-138255860D01*
X175181943Y-138286314D01*
X175349997Y-138305249D01*
X175350000Y-138305249D01*
X175350003Y-138305249D01*
X175518056Y-138286314D01*
X175550601Y-138274926D01*
X175677690Y-138230456D01*
X175677692Y-138230454D01*
X175677694Y-138230454D01*
X175677697Y-138230452D01*
X175820884Y-138140481D01*
X175820885Y-138140480D01*
X175820890Y-138140477D01*
X175940477Y-138020890D01*
X175940481Y-138020884D01*
X176030452Y-137877697D01*
X176030454Y-137877694D01*
X176030454Y-137877692D01*
X176030456Y-137877690D01*
X176086313Y-137718059D01*
X176086313Y-137718058D01*
X176086314Y-137718056D01*
X176105249Y-137550002D01*
X176105249Y-137549997D01*
X176086314Y-137381943D01*
X176030454Y-137222305D01*
X176030452Y-137222302D01*
X175940481Y-137079115D01*
X175940476Y-137079109D01*
X175820890Y-136959523D01*
X175820884Y-136959518D01*
X175677697Y-136869547D01*
X175677694Y-136869545D01*
X175518056Y-136813685D01*
X175350003Y-136794751D01*
X175350001Y-136794751D01*
X175350000Y-136794751D01*
X175334929Y-136796448D01*
X175266108Y-136784392D01*
X175233368Y-136760909D01*
X174511819Y-136039360D01*
X174478334Y-135978037D01*
X174475500Y-135951679D01*
X174475500Y-130398321D01*
X174495185Y-130331282D01*
X174511819Y-130310640D01*
X174690278Y-130132181D01*
X174880495Y-129941964D01*
X174880495Y-129941963D01*
X175631754Y-129190702D01*
X175631759Y-129190699D01*
X175641962Y-129180495D01*
X175641964Y-129180495D01*
X175730495Y-129091964D01*
X175793095Y-128983536D01*
X175825501Y-128862601D01*
X175825501Y-128737399D01*
X175825501Y-128729804D01*
X175825500Y-128729786D01*
X175825500Y-109297321D01*
X175845185Y-109230282D01*
X175897989Y-109184527D01*
X175967147Y-109174583D01*
X176030703Y-109203608D01*
X176037181Y-109209640D01*
X178660909Y-111833368D01*
X178694394Y-111894691D01*
X178696448Y-111934929D01*
X178694752Y-111949997D01*
X178694751Y-111950002D01*
X178713685Y-112118056D01*
X178769545Y-112277694D01*
X178769547Y-112277697D01*
X178859518Y-112420884D01*
X178859523Y-112420890D01*
X178979109Y-112540476D01*
X178979115Y-112540481D01*
X179122302Y-112630452D01*
X179122305Y-112630454D01*
X179122309Y-112630455D01*
X179122310Y-112630456D01*
X179141695Y-112637239D01*
X179281943Y-112686314D01*
X179449997Y-112705249D01*
X179450000Y-112705249D01*
X179450003Y-112705249D01*
X179618056Y-112686314D01*
X179618059Y-112686313D01*
X179777690Y-112630456D01*
X179777692Y-112630454D01*
X179777694Y-112630454D01*
X179777697Y-112630452D01*
X179920884Y-112540481D01*
X179920885Y-112540480D01*
X179920890Y-112540477D01*
X180040477Y-112420890D01*
X180040481Y-112420884D01*
X180130452Y-112277697D01*
X180130454Y-112277694D01*
X180130454Y-112277692D01*
X180130456Y-112277690D01*
X180186313Y-112118059D01*
X180186313Y-112118058D01*
X180186314Y-112118056D01*
X180205249Y-111950002D01*
X180205249Y-111949997D01*
X180192673Y-111838384D01*
X180204727Y-111769562D01*
X180252076Y-111718182D01*
X180315893Y-111700500D01*
X180476679Y-111700500D01*
X180543718Y-111720185D01*
X180564360Y-111736819D01*
X180660909Y-111833368D01*
X180694394Y-111894691D01*
X180696448Y-111934929D01*
X180694752Y-111949997D01*
X180694751Y-111950002D01*
X180713685Y-112118056D01*
X180769545Y-112277694D01*
X180769547Y-112277697D01*
X180859518Y-112420884D01*
X180859523Y-112420890D01*
X180979109Y-112540476D01*
X180979115Y-112540481D01*
X181122302Y-112630452D01*
X181122305Y-112630454D01*
X181122309Y-112630455D01*
X181122310Y-112630456D01*
X181141695Y-112637239D01*
X181281943Y-112686314D01*
X181449997Y-112705249D01*
X181450000Y-112705249D01*
X181450003Y-112705249D01*
X181561616Y-112692673D01*
X181630438Y-112704727D01*
X181681818Y-112752076D01*
X181699500Y-112815893D01*
X181699500Y-113146349D01*
X181679815Y-113213388D01*
X181663181Y-113234030D01*
X179434030Y-115463181D01*
X179372707Y-115496666D01*
X179346349Y-115499500D01*
X178366228Y-115499500D01*
X178201925Y-115532182D01*
X178201917Y-115532184D01*
X178047139Y-115596295D01*
X177907837Y-115689373D01*
X177789373Y-115807837D01*
X177696295Y-115947139D01*
X177632184Y-116101917D01*
X177632182Y-116101925D01*
X177599500Y-116266228D01*
X177599500Y-116433771D01*
X177632182Y-116598074D01*
X177632184Y-116598082D01*
X177696295Y-116752860D01*
X177789373Y-116892162D01*
X177907837Y-117010626D01*
X178000494Y-117072537D01*
X178047137Y-117103703D01*
X178047138Y-117103703D01*
X178047139Y-117103704D01*
X178082201Y-117118227D01*
X178201918Y-117167816D01*
X178366228Y-117200499D01*
X178366232Y-117200500D01*
X178366233Y-117200500D01*
X179833768Y-117200500D01*
X179833769Y-117200499D01*
X179888538Y-117189605D01*
X179998074Y-117167818D01*
X179998078Y-117167816D01*
X179998082Y-117167816D01*
X180043415Y-117149037D01*
X180152863Y-117103704D01*
X180292162Y-117010627D01*
X181487819Y-115814970D01*
X181549142Y-115781485D01*
X181618834Y-115786469D01*
X181674767Y-115828341D01*
X181699184Y-115893805D01*
X181699500Y-115902651D01*
X181699500Y-122846348D01*
X181679815Y-122913387D01*
X181663181Y-122934029D01*
X179139375Y-125457834D01*
X179139372Y-125457838D01*
X179046297Y-125597133D01*
X179046296Y-125597136D01*
X178982184Y-125751917D01*
X178982181Y-125751926D01*
X178949500Y-125916228D01*
X178949500Y-126083771D01*
X178982181Y-126248073D01*
X178982184Y-126248082D01*
X179046296Y-126402863D01*
X179046297Y-126402866D01*
X179139372Y-126542161D01*
X179139375Y-126542165D01*
X179257834Y-126660624D01*
X179257837Y-126660626D01*
X179257838Y-126660627D01*
X179269388Y-126668344D01*
X179314194Y-126721954D01*
X179324500Y-126771448D01*
X179324500Y-127351678D01*
X179304815Y-127418717D01*
X179288181Y-127439359D01*
X176975858Y-129751681D01*
X176914535Y-129785166D01*
X176865393Y-129785889D01*
X176682392Y-129751681D01*
X176670725Y-129749500D01*
X176466773Y-129749500D01*
X176266293Y-129786976D01*
X176266290Y-129786976D01*
X176266290Y-129786977D01*
X176076113Y-129860651D01*
X176076106Y-129860655D01*
X175902709Y-129968017D01*
X175902707Y-129968019D01*
X175751986Y-130105418D01*
X175629076Y-130268178D01*
X175538171Y-130450739D01*
X175538166Y-130450752D01*
X175482351Y-130646917D01*
X175463534Y-130849999D01*
X175463534Y-130850000D01*
X175482351Y-131053082D01*
X175538166Y-131249247D01*
X175538171Y-131249260D01*
X175629076Y-131431821D01*
X175751986Y-131594581D01*
X175902707Y-131731980D01*
X175902709Y-131731982D01*
X175990364Y-131786255D01*
X176076112Y-131839348D01*
X176266293Y-131913024D01*
X176466773Y-131950500D01*
X176466775Y-131950500D01*
X176670723Y-131950500D01*
X176670725Y-131950500D01*
X176871205Y-131913024D01*
X177061386Y-131839348D01*
X177234790Y-131731981D01*
X177270134Y-131699761D01*
X181412001Y-131699761D01*
X181472184Y-131731930D01*
X181651268Y-131786255D01*
X181837499Y-131804596D01*
X182023729Y-131786255D01*
X182202810Y-131731931D01*
X182262996Y-131699760D01*
X181837500Y-131274264D01*
X181837499Y-131274264D01*
X181412001Y-131699760D01*
X181412001Y-131699761D01*
X177270134Y-131699761D01*
X177385513Y-131594579D01*
X177508422Y-131431821D01*
X177599331Y-131249250D01*
X177655146Y-131053083D01*
X177673964Y-130850000D01*
X180882902Y-130850000D01*
X180901243Y-131036230D01*
X180955567Y-131215309D01*
X180987737Y-131275496D01*
X180987738Y-131275497D01*
X181413235Y-130850000D01*
X182261763Y-130850000D01*
X182687260Y-131275497D01*
X182719430Y-131215311D01*
X182773754Y-131036230D01*
X182792095Y-130850000D01*
X182773754Y-130663769D01*
X182719429Y-130484685D01*
X182687260Y-130424502D01*
X182687259Y-130424502D01*
X182261763Y-130849999D01*
X182261763Y-130850000D01*
X181413235Y-130850000D01*
X181413235Y-130849999D01*
X180987737Y-130424501D01*
X180955564Y-130484697D01*
X180901244Y-130663764D01*
X180882902Y-130850000D01*
X177673964Y-130850000D01*
X177655146Y-130646917D01*
X177624229Y-130538257D01*
X177624815Y-130468392D01*
X177655812Y-130416645D01*
X178072219Y-130000238D01*
X181412000Y-130000238D01*
X181837499Y-130425736D01*
X181837500Y-130425736D01*
X182262996Y-130000239D01*
X182262995Y-130000238D01*
X182202808Y-129968068D01*
X182023729Y-129913744D01*
X181837499Y-129895403D01*
X181651263Y-129913745D01*
X181472196Y-129968065D01*
X181412000Y-130000238D01*
X178072219Y-130000238D01*
X180180495Y-127891964D01*
X180243095Y-127783536D01*
X180275500Y-127662601D01*
X180275500Y-127537399D01*
X180275500Y-126771448D01*
X180295185Y-126704409D01*
X180330610Y-126668345D01*
X180342162Y-126660627D01*
X181410627Y-125592162D01*
X181410627Y-125592161D01*
X183210626Y-123792162D01*
X183303703Y-123652863D01*
X183367816Y-123498082D01*
X183400500Y-123333767D01*
X183400500Y-113466233D01*
X183400500Y-108966233D01*
X183367816Y-108801918D01*
X183303703Y-108647137D01*
X183210626Y-108507838D01*
X183092162Y-108389374D01*
X182764911Y-108062123D01*
X181737843Y-107035053D01*
X181737820Y-107035032D01*
X180542165Y-105839375D01*
X180542161Y-105839372D01*
X180402866Y-105746297D01*
X180402863Y-105746296D01*
X180248082Y-105682184D01*
X180248073Y-105682181D01*
X180083771Y-105649500D01*
X180083767Y-105649500D01*
X179916233Y-105649500D01*
X179916228Y-105649500D01*
X179751926Y-105682181D01*
X179751917Y-105682184D01*
X179597136Y-105746296D01*
X179597133Y-105746297D01*
X179457838Y-105839372D01*
X179457834Y-105839375D01*
X179339375Y-105957834D01*
X179339372Y-105957838D01*
X179246297Y-106097133D01*
X179246296Y-106097136D01*
X179182184Y-106251917D01*
X179182181Y-106251926D01*
X179149500Y-106416228D01*
X179149500Y-106583771D01*
X179182181Y-106748073D01*
X179182184Y-106748082D01*
X179246296Y-106902863D01*
X179246297Y-106902866D01*
X179339372Y-107042161D01*
X179339375Y-107042165D01*
X180535032Y-108237820D01*
X180535053Y-108237843D01*
X181663181Y-109365969D01*
X181696666Y-109427292D01*
X181699500Y-109453650D01*
X181699500Y-111084106D01*
X181679815Y-111151145D01*
X181627011Y-111196900D01*
X181561617Y-111207326D01*
X181450004Y-111194751D01*
X181450003Y-111194751D01*
X181450001Y-111194751D01*
X181450000Y-111194751D01*
X181434929Y-111196448D01*
X181366108Y-111184392D01*
X181333368Y-111160909D01*
X181016965Y-110844506D01*
X181016964Y-110844505D01*
X180908536Y-110781905D01*
X180908537Y-110781905D01*
X180868224Y-110771103D01*
X180787601Y-110749500D01*
X180787599Y-110749500D01*
X179609717Y-110749500D01*
X179542678Y-110729815D01*
X179522036Y-110713181D01*
X168240471Y-99431616D01*
X168206986Y-99370293D01*
X168204152Y-99343935D01*
X168204152Y-88724577D01*
X168223837Y-88657538D01*
X168240471Y-88636896D01*
X168261201Y-88616166D01*
X168319129Y-88558238D01*
X168336872Y-88530000D01*
X168409104Y-88415045D01*
X168409106Y-88415042D01*
X168409106Y-88415040D01*
X168409108Y-88415038D01*
X168464965Y-88255407D01*
X168464965Y-88255406D01*
X168464966Y-88255404D01*
X168483901Y-88087350D01*
X168483901Y-88087345D01*
X168464966Y-87919291D01*
X168409106Y-87759653D01*
X168409104Y-87759650D01*
X168319133Y-87616463D01*
X168319128Y-87616457D01*
X168199542Y-87496871D01*
X168199536Y-87496866D01*
X168056349Y-87406895D01*
X168056346Y-87406893D01*
X167896708Y-87351033D01*
X167728655Y-87332099D01*
X167728649Y-87332099D01*
X167560595Y-87351033D01*
X167400959Y-87406893D01*
X167278228Y-87484010D01*
X167210991Y-87503010D01*
X167146284Y-87484010D01*
X167043689Y-87419545D01*
X167043688Y-87419544D01*
X167043687Y-87419544D01*
X167005367Y-87406135D01*
X166884053Y-87363685D01*
X166716000Y-87344751D01*
X166715994Y-87344751D01*
X166547940Y-87363685D01*
X166388304Y-87419545D01*
X166273970Y-87491386D01*
X166206733Y-87510386D01*
X166142026Y-87491386D01*
X166027692Y-87419545D01*
X166027691Y-87419544D01*
X166027690Y-87419544D01*
X165989370Y-87406135D01*
X165868056Y-87363685D01*
X165700003Y-87344751D01*
X165699997Y-87344751D01*
X165531943Y-87363685D01*
X165372305Y-87419545D01*
X165372302Y-87419547D01*
X165229115Y-87509518D01*
X165229109Y-87509523D01*
X165109523Y-87629109D01*
X165109518Y-87629115D01*
X165019547Y-87772302D01*
X165019545Y-87772305D01*
X164963685Y-87931943D01*
X164944751Y-88099997D01*
X164944751Y-88100002D01*
X160700500Y-88100002D01*
X160700500Y-83200004D01*
X161694732Y-83200004D01*
X161713777Y-83454154D01*
X161743571Y-83584691D01*
X161770492Y-83702637D01*
X161863607Y-83939888D01*
X161991041Y-84160612D01*
X162149950Y-84359877D01*
X162336783Y-84533232D01*
X162547366Y-84676805D01*
X162547371Y-84676807D01*
X162547372Y-84676808D01*
X162547373Y-84676809D01*
X162609269Y-84706616D01*
X162776992Y-84787387D01*
X162776993Y-84787387D01*
X162776996Y-84787389D01*
X163020542Y-84862513D01*
X163272565Y-84900500D01*
X163527435Y-84900500D01*
X163779458Y-84862513D01*
X164023004Y-84787389D01*
X164252634Y-84676805D01*
X164463217Y-84533232D01*
X164650050Y-84359877D01*
X164808959Y-84160612D01*
X164936393Y-83939888D01*
X165029508Y-83702637D01*
X165086222Y-83454157D01*
X165105268Y-83200000D01*
X165086222Y-82945843D01*
X165029508Y-82697363D01*
X164936393Y-82460112D01*
X164808959Y-82239388D01*
X164650050Y-82040123D01*
X164463217Y-81866768D01*
X164252634Y-81723195D01*
X164252630Y-81723193D01*
X164252627Y-81723191D01*
X164252626Y-81723190D01*
X164023006Y-81612612D01*
X164023008Y-81612612D01*
X163779466Y-81537489D01*
X163779462Y-81537488D01*
X163779458Y-81537487D01*
X163646517Y-81517449D01*
X163527440Y-81499500D01*
X163527435Y-81499500D01*
X163272565Y-81499500D01*
X163272559Y-81499500D01*
X163115609Y-81523157D01*
X163020542Y-81537487D01*
X163020539Y-81537488D01*
X163020533Y-81537489D01*
X162776992Y-81612612D01*
X162547373Y-81723190D01*
X162547372Y-81723191D01*
X162336782Y-81866768D01*
X162149952Y-82040121D01*
X162149950Y-82040123D01*
X161991041Y-82239388D01*
X161863608Y-82460109D01*
X161770492Y-82697362D01*
X161770490Y-82697369D01*
X161713777Y-82945845D01*
X161694732Y-83199995D01*
X161694732Y-83200004D01*
X160700500Y-83200004D01*
X160700500Y-77353404D01*
X164390815Y-77353404D01*
X164400741Y-77421535D01*
X164452118Y-77526629D01*
X164534829Y-77609340D01*
X164534830Y-77609340D01*
X164534832Y-77609342D01*
X164639922Y-77660717D01*
X164659692Y-77663597D01*
X164723191Y-77692738D01*
X164760857Y-77751586D01*
X164765815Y-77786301D01*
X164765815Y-78833474D01*
X164765814Y-78833492D01*
X164765814Y-78999198D01*
X164765813Y-78999198D01*
X164806739Y-79151933D01*
X164806740Y-79151934D01*
X164828501Y-79189624D01*
X164828502Y-79189626D01*
X164885790Y-79288853D01*
X164885796Y-79288861D01*
X165004664Y-79407729D01*
X165004670Y-79407734D01*
X165904496Y-80307560D01*
X165937981Y-80368883D01*
X165940815Y-80395241D01*
X165940815Y-80859507D01*
X165956268Y-80976897D01*
X165956271Y-80976906D01*
X166013763Y-81115705D01*
X166016779Y-81122985D01*
X166113033Y-81248426D01*
X166238474Y-81344680D01*
X166384553Y-81405188D01*
X166501954Y-81420644D01*
X167530675Y-81420643D01*
X167530678Y-81420643D01*
X167648068Y-81405190D01*
X167648072Y-81405188D01*
X167648077Y-81405188D01*
X167794156Y-81344680D01*
X167919597Y-81248426D01*
X167942056Y-81219155D01*
X167998483Y-81177955D01*
X168040431Y-81170644D01*
X168544848Y-81170644D01*
X168611887Y-81190329D01*
X168643223Y-81219157D01*
X168673618Y-81258768D01*
X168686241Y-81275218D01*
X168810376Y-81370471D01*
X168810377Y-81370471D01*
X168810378Y-81370472D01*
X168814369Y-81372125D01*
X168954935Y-81430349D01*
X169071113Y-81445644D01*
X169071120Y-81445644D01*
X170061510Y-81445644D01*
X170061517Y-81445644D01*
X170177695Y-81430349D01*
X170322254Y-81370471D01*
X170446389Y-81275218D01*
X170460632Y-81256655D01*
X170517061Y-81215454D01*
X170559007Y-81208144D01*
X171007547Y-81208144D01*
X171074586Y-81227829D01*
X171095228Y-81244463D01*
X171825331Y-81974566D01*
X171858816Y-82035889D01*
X171861121Y-82073688D01*
X171857847Y-82109020D01*
X171856850Y-82116974D01*
X171849500Y-82163388D01*
X171849500Y-82193382D01*
X171848971Y-82204823D01*
X171844785Y-82249998D01*
X171844785Y-82250000D01*
X171848971Y-82295175D01*
X171849500Y-82306616D01*
X171849500Y-84593382D01*
X171848971Y-84604823D01*
X171844785Y-84649998D01*
X171844785Y-84650000D01*
X171848971Y-84695175D01*
X171849500Y-84706616D01*
X171849500Y-84736611D01*
X171856850Y-84783024D01*
X171857847Y-84790976D01*
X171863602Y-84853081D01*
X171871362Y-84880353D01*
X171874568Y-84894885D01*
X171876598Y-84907702D01*
X171896364Y-84968537D01*
X171897699Y-84972918D01*
X171905192Y-84999251D01*
X171919418Y-85049250D01*
X171924446Y-85059348D01*
X171924457Y-85059369D01*
X171928006Y-85068052D01*
X171928264Y-85067946D01*
X171930126Y-85072443D01*
X171930127Y-85072445D01*
X171966915Y-85144646D01*
X171967281Y-85145373D01*
X172010327Y-85231821D01*
X172010328Y-85231823D01*
X172064999Y-85304218D01*
X172066364Y-85306061D01*
X172110582Y-85366924D01*
X172111722Y-85368064D01*
X172122994Y-85381017D01*
X172133236Y-85394579D01*
X172187727Y-85444254D01*
X172191847Y-85448189D01*
X172233072Y-85489414D01*
X172248164Y-85500379D01*
X172258810Y-85509055D01*
X172283959Y-85531981D01*
X172283962Y-85531984D01*
X172332169Y-85561831D01*
X172339776Y-85566938D01*
X172373212Y-85591232D01*
X172404989Y-85607423D01*
X172413958Y-85612473D01*
X172457363Y-85639348D01*
X172457367Y-85639349D01*
X172457370Y-85639351D01*
X172494380Y-85653688D01*
X172505876Y-85658827D01*
X172527555Y-85669873D01*
X172563817Y-85681655D01*
X172621493Y-85721092D01*
X172648692Y-85785450D01*
X172649500Y-85799586D01*
X172649500Y-86319913D01*
X172629815Y-86386952D01*
X172577011Y-86432707D01*
X172507853Y-86442651D01*
X172484549Y-86436956D01*
X172468057Y-86431186D01*
X172468059Y-86431186D01*
X172300003Y-86412251D01*
X172299997Y-86412251D01*
X172131943Y-86431185D01*
X171972305Y-86487045D01*
X171972302Y-86487047D01*
X171829115Y-86577018D01*
X171829109Y-86577023D01*
X171709523Y-86696609D01*
X171709518Y-86696615D01*
X171619547Y-86839802D01*
X171619545Y-86839805D01*
X171563685Y-86999443D01*
X171544751Y-87167497D01*
X171544751Y-87167502D01*
X171563685Y-87335556D01*
X171619545Y-87495194D01*
X171619547Y-87495197D01*
X171709518Y-87638384D01*
X171709523Y-87638390D01*
X171788181Y-87717048D01*
X171821666Y-87778371D01*
X171824500Y-87804729D01*
X171824500Y-101804125D01*
X171824500Y-101929327D01*
X171856905Y-102050262D01*
X171919505Y-102158690D01*
X174677778Y-104916963D01*
X174677779Y-104916964D01*
X174766310Y-105005495D01*
X174874738Y-105068095D01*
X174995673Y-105100500D01*
X180851984Y-105100500D01*
X180919023Y-105120185D01*
X180939665Y-105136819D01*
X184188181Y-108385335D01*
X184221666Y-108446658D01*
X184224500Y-108473016D01*
X184224500Y-138537399D01*
X184224500Y-138662601D01*
X184252582Y-138767401D01*
X184256905Y-138783536D01*
X184319504Y-138891962D01*
X184319506Y-138891965D01*
X184713181Y-139285640D01*
X184746666Y-139346963D01*
X184749500Y-139373321D01*
X184749500Y-140783260D01*
X184759426Y-140851391D01*
X184810803Y-140956485D01*
X184893514Y-141039196D01*
X184893515Y-141039196D01*
X184893517Y-141039198D01*
X184998607Y-141090573D01*
X185032673Y-141095536D01*
X185066739Y-141100500D01*
X185066740Y-141100500D01*
X187133261Y-141100500D01*
X187155971Y-141097191D01*
X187201393Y-141090573D01*
X187306483Y-141039198D01*
X187389198Y-140956483D01*
X187440573Y-140851393D01*
X187450500Y-140783260D01*
X187450500Y-139216740D01*
X187440573Y-139148607D01*
X187389198Y-139043517D01*
X187389196Y-139043515D01*
X187389196Y-139043514D01*
X187306485Y-138960803D01*
X187201391Y-138909426D01*
X187133261Y-138899500D01*
X187133260Y-138899500D01*
X185723321Y-138899500D01*
X185656282Y-138879815D01*
X185635640Y-138863181D01*
X185372459Y-138600000D01*
X198194785Y-138600000D01*
X198213602Y-138803082D01*
X198269417Y-138999247D01*
X198269422Y-138999260D01*
X198360327Y-139181821D01*
X198483237Y-139344581D01*
X198633958Y-139481980D01*
X198633960Y-139481982D01*
X198733141Y-139543392D01*
X198807363Y-139589348D01*
X198997544Y-139663024D01*
X199198024Y-139700500D01*
X199198026Y-139700500D01*
X199401974Y-139700500D01*
X199401976Y-139700500D01*
X199602456Y-139663024D01*
X199792637Y-139589348D01*
X199966041Y-139481981D01*
X200116764Y-139344579D01*
X200239673Y-139181821D01*
X200330582Y-138999250D01*
X200386397Y-138803083D01*
X200405215Y-138600000D01*
X200386397Y-138396917D01*
X200330582Y-138200750D01*
X200239673Y-138018179D01*
X200116764Y-137855421D01*
X200116762Y-137855418D01*
X199966041Y-137718019D01*
X199966039Y-137718017D01*
X199792642Y-137610655D01*
X199792635Y-137610651D01*
X199636067Y-137549997D01*
X199602456Y-137536976D01*
X199401976Y-137499500D01*
X199198024Y-137499500D01*
X198997544Y-137536976D01*
X198997541Y-137536976D01*
X198997541Y-137536977D01*
X198807364Y-137610651D01*
X198807357Y-137610655D01*
X198633960Y-137718017D01*
X198633958Y-137718019D01*
X198483237Y-137855418D01*
X198360327Y-138018178D01*
X198269422Y-138200739D01*
X198269417Y-138200752D01*
X198213602Y-138396917D01*
X198194785Y-138599999D01*
X198194785Y-138600000D01*
X185372459Y-138600000D01*
X185211819Y-138439360D01*
X185178334Y-138378037D01*
X185175500Y-138351679D01*
X185175500Y-130850000D01*
X187003117Y-130850000D01*
X187021934Y-131053082D01*
X187077749Y-131249247D01*
X187077754Y-131249260D01*
X187168659Y-131431821D01*
X187291569Y-131594581D01*
X187442290Y-131731980D01*
X187442292Y-131731982D01*
X187529947Y-131786255D01*
X187615695Y-131839348D01*
X187805876Y-131913024D01*
X188006356Y-131950500D01*
X188006358Y-131950500D01*
X188210306Y-131950500D01*
X188210308Y-131950500D01*
X188410788Y-131913024D01*
X188410791Y-131913022D01*
X188416423Y-131911970D01*
X188416712Y-131913516D01*
X188479138Y-131914029D01*
X188530907Y-131945034D01*
X190527837Y-133941964D01*
X190616368Y-134030495D01*
X190724796Y-134093095D01*
X190845731Y-134125500D01*
X194612771Y-134125500D01*
X194679810Y-134145185D01*
X194700452Y-134161819D01*
X194779109Y-134240476D01*
X194779115Y-134240481D01*
X194922302Y-134330452D01*
X194922305Y-134330454D01*
X194922309Y-134330455D01*
X194922310Y-134330456D01*
X194983642Y-134351917D01*
X195081943Y-134386314D01*
X195249997Y-134405249D01*
X195250000Y-134405249D01*
X195250003Y-134405249D01*
X195418056Y-134386314D01*
X195418059Y-134386313D01*
X195577690Y-134330456D01*
X195577692Y-134330454D01*
X195577694Y-134330454D01*
X195577697Y-134330452D01*
X195720884Y-134240481D01*
X195720885Y-134240480D01*
X195720890Y-134240477D01*
X195840477Y-134120890D01*
X195857942Y-134093095D01*
X195930452Y-133977697D01*
X195930454Y-133977694D01*
X195930454Y-133977692D01*
X195930456Y-133977690D01*
X195986313Y-133818059D01*
X195986313Y-133818058D01*
X195986314Y-133818056D01*
X196005249Y-133650002D01*
X196005249Y-133649997D01*
X195986314Y-133481943D01*
X195930454Y-133322305D01*
X195930452Y-133322302D01*
X195840481Y-133179115D01*
X195840476Y-133179109D01*
X195720890Y-133059523D01*
X195720884Y-133059518D01*
X195577697Y-132969547D01*
X195577694Y-132969545D01*
X195418056Y-132913685D01*
X195250003Y-132894751D01*
X195249997Y-132894751D01*
X195081943Y-132913685D01*
X194922305Y-132969545D01*
X194922302Y-132969547D01*
X194779115Y-133059518D01*
X194779109Y-133059523D01*
X194700452Y-133138181D01*
X194639129Y-133171666D01*
X194612771Y-133174500D01*
X191156653Y-133174500D01*
X191089614Y-133154815D01*
X191068972Y-133138181D01*
X189199550Y-131268759D01*
X189166065Y-131207436D01*
X189167964Y-131147145D01*
X189194729Y-131053083D01*
X189213547Y-130850000D01*
X193273950Y-130850000D01*
X193292767Y-131053082D01*
X193348582Y-131249247D01*
X193348587Y-131249260D01*
X193439492Y-131431821D01*
X193562402Y-131594581D01*
X193713123Y-131731980D01*
X193713125Y-131731982D01*
X193800780Y-131786255D01*
X193886528Y-131839348D01*
X194076709Y-131913024D01*
X194277189Y-131950500D01*
X194277191Y-131950500D01*
X194481139Y-131950500D01*
X194481141Y-131950500D01*
X194681621Y-131913024D01*
X194871802Y-131839348D01*
X195045206Y-131731981D01*
X195195929Y-131594579D01*
X195318838Y-131431821D01*
X195337557Y-131394228D01*
X195385060Y-131342991D01*
X195448557Y-131325500D01*
X196362771Y-131325500D01*
X196429810Y-131345185D01*
X196450452Y-131361819D01*
X196529109Y-131440476D01*
X196529115Y-131440481D01*
X196672302Y-131530452D01*
X196672305Y-131530454D01*
X196672309Y-131530455D01*
X196672310Y-131530456D01*
X196744913Y-131555860D01*
X196831943Y-131586314D01*
X196999997Y-131605249D01*
X197000000Y-131605249D01*
X197000003Y-131605249D01*
X197168056Y-131586314D01*
X197168059Y-131586313D01*
X197327690Y-131530456D01*
X197327692Y-131530454D01*
X197327694Y-131530454D01*
X197327697Y-131530452D01*
X197470884Y-131440481D01*
X197470885Y-131440480D01*
X197470890Y-131440477D01*
X197590477Y-131320890D01*
X197590481Y-131320884D01*
X197680452Y-131177697D01*
X197680454Y-131177694D01*
X197680454Y-131177692D01*
X197680456Y-131177690D01*
X197736313Y-131018059D01*
X197736313Y-131018058D01*
X197736314Y-131018056D01*
X197755249Y-130850002D01*
X197755249Y-130850000D01*
X199544785Y-130850000D01*
X199563602Y-131053082D01*
X199619417Y-131249247D01*
X199619422Y-131249260D01*
X199710327Y-131431821D01*
X199833237Y-131594581D01*
X199983958Y-131731980D01*
X199983960Y-131731982D01*
X200071615Y-131786255D01*
X200157363Y-131839348D01*
X200347544Y-131913024D01*
X200548024Y-131950500D01*
X200548026Y-131950500D01*
X200751974Y-131950500D01*
X200751976Y-131950500D01*
X200952456Y-131913024D01*
X201142637Y-131839348D01*
X201316041Y-131731981D01*
X201466764Y-131594579D01*
X201589673Y-131431821D01*
X201680582Y-131249250D01*
X201736397Y-131053083D01*
X201755215Y-130850000D01*
X201736397Y-130646917D01*
X201680582Y-130450750D01*
X201659214Y-130407838D01*
X201632812Y-130354815D01*
X201589673Y-130268179D01*
X201515187Y-130169544D01*
X201466762Y-130105418D01*
X201316041Y-129968019D01*
X201316039Y-129968017D01*
X201142642Y-129860655D01*
X201142635Y-129860651D01*
X201047546Y-129823814D01*
X200952456Y-129786976D01*
X200751976Y-129749500D01*
X200548024Y-129749500D01*
X200347544Y-129786976D01*
X200347541Y-129786976D01*
X200347541Y-129786977D01*
X200157364Y-129860651D01*
X200157357Y-129860655D01*
X199983960Y-129968017D01*
X199983958Y-129968019D01*
X199833237Y-130105418D01*
X199710327Y-130268178D01*
X199619422Y-130450739D01*
X199619417Y-130450752D01*
X199563602Y-130646917D01*
X199544785Y-130849999D01*
X199544785Y-130850000D01*
X197755249Y-130850000D01*
X197755249Y-130849997D01*
X197736314Y-130681943D01*
X197680454Y-130522305D01*
X197680452Y-130522302D01*
X197590481Y-130379115D01*
X197590476Y-130379109D01*
X197470890Y-130259523D01*
X197470884Y-130259518D01*
X197327697Y-130169547D01*
X197327694Y-130169545D01*
X197168056Y-130113685D01*
X197000003Y-130094751D01*
X196999997Y-130094751D01*
X196831943Y-130113685D01*
X196672305Y-130169545D01*
X196672302Y-130169547D01*
X196529115Y-130259518D01*
X196529109Y-130259523D01*
X196450452Y-130338181D01*
X196389129Y-130371666D01*
X196362771Y-130374500D01*
X195448557Y-130374500D01*
X195381518Y-130354815D01*
X195337557Y-130305772D01*
X195329391Y-130289372D01*
X195318838Y-130268179D01*
X195244352Y-130169544D01*
X195195927Y-130105418D01*
X195045206Y-129968019D01*
X195045204Y-129968017D01*
X194871807Y-129860655D01*
X194871800Y-129860651D01*
X194776711Y-129823814D01*
X194681621Y-129786976D01*
X194481141Y-129749500D01*
X194277189Y-129749500D01*
X194076709Y-129786976D01*
X194076706Y-129786976D01*
X194076706Y-129786977D01*
X193886529Y-129860651D01*
X193886522Y-129860655D01*
X193713125Y-129968017D01*
X193713123Y-129968019D01*
X193562402Y-130105418D01*
X193439492Y-130268178D01*
X193348587Y-130450739D01*
X193348582Y-130450752D01*
X193292767Y-130646917D01*
X193273950Y-130849999D01*
X193273950Y-130850000D01*
X189213547Y-130850000D01*
X189194729Y-130646917D01*
X189138914Y-130450750D01*
X189117546Y-130407838D01*
X189091144Y-130354815D01*
X189048005Y-130268179D01*
X188973519Y-130169544D01*
X188925094Y-130105418D01*
X188774373Y-129968019D01*
X188774371Y-129968017D01*
X188600974Y-129860655D01*
X188600967Y-129860651D01*
X188505878Y-129823814D01*
X188410788Y-129786976D01*
X188210308Y-129749500D01*
X188006356Y-129749500D01*
X187805876Y-129786976D01*
X187805873Y-129786976D01*
X187805873Y-129786977D01*
X187615696Y-129860651D01*
X187615689Y-129860655D01*
X187442292Y-129968017D01*
X187442290Y-129968019D01*
X187291569Y-130105418D01*
X187168659Y-130268178D01*
X187077754Y-130450739D01*
X187077749Y-130450752D01*
X187021934Y-130646917D01*
X187003117Y-130849999D01*
X187003117Y-130850000D01*
X185175500Y-130850000D01*
X185175500Y-121845961D01*
X191678800Y-121845961D01*
X191708434Y-121994943D01*
X191708436Y-121994951D01*
X191766571Y-122135301D01*
X191766571Y-122135302D01*
X191850967Y-122261610D01*
X191850973Y-122261617D01*
X191958382Y-122369026D01*
X191958389Y-122369032D01*
X192084698Y-122453428D01*
X192084699Y-122453428D01*
X192084700Y-122453429D01*
X192225049Y-122511564D01*
X192374038Y-122541199D01*
X192374042Y-122541200D01*
X192374043Y-122541200D01*
X192525958Y-122541200D01*
X192525959Y-122541199D01*
X192674951Y-122511564D01*
X192815300Y-122453429D01*
X192815301Y-122453428D01*
X192815302Y-122453428D01*
X192878456Y-122411230D01*
X192941612Y-122369031D01*
X193049031Y-122261612D01*
X193133429Y-122135300D01*
X193191564Y-121994951D01*
X193221200Y-121845957D01*
X193221200Y-121694043D01*
X193191564Y-121545049D01*
X193133429Y-121404700D01*
X193133428Y-121404698D01*
X193133428Y-121404697D01*
X193049032Y-121278389D01*
X193049026Y-121278382D01*
X192941617Y-121170973D01*
X192941610Y-121170967D01*
X192815301Y-121086571D01*
X192674951Y-121028436D01*
X192674943Y-121028434D01*
X192525961Y-120998800D01*
X192525957Y-120998800D01*
X192374043Y-120998800D01*
X192374038Y-120998800D01*
X192225056Y-121028434D01*
X192225048Y-121028436D01*
X192084698Y-121086571D01*
X192084697Y-121086571D01*
X191958389Y-121170967D01*
X191958382Y-121170973D01*
X191850973Y-121278382D01*
X191850967Y-121278389D01*
X191766571Y-121404697D01*
X191766571Y-121404698D01*
X191708436Y-121545048D01*
X191708434Y-121545056D01*
X191678800Y-121694038D01*
X191678800Y-121845961D01*
X185175500Y-121845961D01*
X185175500Y-108162095D01*
X185172138Y-108149548D01*
X185143095Y-108041159D01*
X185080495Y-107932731D01*
X184991964Y-107844200D01*
X182009945Y-104862181D01*
X181976460Y-104800858D01*
X181981444Y-104731166D01*
X182023316Y-104675233D01*
X182088780Y-104650816D01*
X182097626Y-104650500D01*
X187859308Y-104650500D01*
X187859309Y-104650500D01*
X187949673Y-104626286D01*
X187973887Y-104619799D01*
X188076614Y-104560489D01*
X189610490Y-103026614D01*
X189669799Y-102923887D01*
X189676468Y-102898997D01*
X189678304Y-102892147D01*
X189680660Y-102883350D01*
X189700500Y-102809309D01*
X189700500Y-102560912D01*
X189713100Y-102506450D01*
X189715573Y-102501393D01*
X189725500Y-102433260D01*
X189725500Y-101566740D01*
X189715573Y-101498607D01*
X189664198Y-101393517D01*
X189664196Y-101393515D01*
X189664196Y-101393514D01*
X189581485Y-101310803D01*
X189476391Y-101259426D01*
X189408261Y-101249500D01*
X189408260Y-101249500D01*
X189091740Y-101249500D01*
X189023607Y-101259427D01*
X189023606Y-101259427D01*
X189017877Y-101260262D01*
X188982123Y-101260262D01*
X188976393Y-101259427D01*
X188908260Y-101249500D01*
X188591740Y-101249500D01*
X188591739Y-101249500D01*
X188523608Y-101259426D01*
X188418514Y-101310803D01*
X188337681Y-101391637D01*
X188276358Y-101425122D01*
X188206666Y-101420138D01*
X188162319Y-101391637D01*
X188081485Y-101310803D01*
X187976391Y-101259426D01*
X187908261Y-101249500D01*
X187908260Y-101249500D01*
X187591740Y-101249500D01*
X187523607Y-101259427D01*
X187523606Y-101259427D01*
X187517877Y-101260262D01*
X187482123Y-101260262D01*
X187476393Y-101259427D01*
X187408260Y-101249500D01*
X187091740Y-101249500D01*
X187091739Y-101249500D01*
X187023608Y-101259426D01*
X186909286Y-101315315D01*
X186908275Y-101313248D01*
X186855545Y-101331569D01*
X186787625Y-101315175D01*
X186739351Y-101264665D01*
X186725500Y-101207716D01*
X186725500Y-99700000D01*
X189850000Y-99700000D01*
X189850000Y-99919702D01*
X189861602Y-99978033D01*
X189861603Y-99978034D01*
X189905808Y-100044191D01*
X189971965Y-100088396D01*
X189971966Y-100088397D01*
X190030297Y-100099999D01*
X190030301Y-100100000D01*
X190050000Y-100100000D01*
X190050000Y-99700000D01*
X190450000Y-99700000D01*
X190450000Y-100100000D01*
X190469699Y-100100000D01*
X190469702Y-100099999D01*
X190528033Y-100088397D01*
X190528034Y-100088396D01*
X190594191Y-100044191D01*
X190638396Y-99978034D01*
X190638397Y-99978033D01*
X190649999Y-99919702D01*
X190650000Y-99919699D01*
X190650000Y-99700000D01*
X190450000Y-99700000D01*
X190050000Y-99700000D01*
X189850000Y-99700000D01*
X186725500Y-99700000D01*
X186725500Y-99300000D01*
X189850000Y-99300000D01*
X190050000Y-99300000D01*
X190050000Y-98900000D01*
X190450000Y-98900000D01*
X190450000Y-99300000D01*
X190650000Y-99300000D01*
X190650000Y-99080301D01*
X190649999Y-99080297D01*
X190638397Y-99021966D01*
X190638396Y-99021965D01*
X190594191Y-98955808D01*
X190528034Y-98911603D01*
X190528033Y-98911602D01*
X190469702Y-98900000D01*
X190450000Y-98900000D01*
X190050000Y-98900000D01*
X190030297Y-98900000D01*
X189971966Y-98911602D01*
X189971965Y-98911603D01*
X189905808Y-98955808D01*
X189861603Y-99021965D01*
X189861602Y-99021966D01*
X189850000Y-99080297D01*
X189850000Y-99300000D01*
X186725500Y-99300000D01*
X186725500Y-77878509D01*
X186745185Y-77811470D01*
X186761819Y-77790828D01*
X190762819Y-73789828D01*
X190824142Y-73756343D01*
X190893834Y-73761327D01*
X190949767Y-73803199D01*
X190974184Y-73868663D01*
X190974500Y-73877509D01*
X190974500Y-102401678D01*
X190954815Y-102468717D01*
X190938181Y-102489359D01*
X186616630Y-106810909D01*
X186555307Y-106844394D01*
X186515067Y-106846448D01*
X186500004Y-106844751D01*
X186499997Y-106844751D01*
X186331943Y-106863685D01*
X186172305Y-106919545D01*
X186172302Y-106919547D01*
X186029115Y-107009518D01*
X186029109Y-107009523D01*
X185909523Y-107129109D01*
X185909518Y-107129115D01*
X185819547Y-107272302D01*
X185819545Y-107272305D01*
X185763685Y-107431943D01*
X185744751Y-107599997D01*
X185744751Y-107600002D01*
X185763685Y-107768056D01*
X185819545Y-107927694D01*
X185819547Y-107927697D01*
X185909518Y-108070884D01*
X185909523Y-108070890D01*
X185988181Y-108149548D01*
X186021666Y-108210871D01*
X186024500Y-108237229D01*
X186024500Y-116289771D01*
X186004815Y-116356810D01*
X185988181Y-116377452D01*
X185909523Y-116456109D01*
X185909518Y-116456115D01*
X185819547Y-116599302D01*
X185819545Y-116599305D01*
X185763685Y-116758943D01*
X185744751Y-116926997D01*
X185744751Y-116927002D01*
X185763685Y-117095056D01*
X185819545Y-117254694D01*
X185819547Y-117254697D01*
X185909518Y-117397884D01*
X185909523Y-117397890D01*
X186029109Y-117517476D01*
X186029115Y-117517481D01*
X186172302Y-117607452D01*
X186172305Y-117607454D01*
X186172309Y-117607455D01*
X186172310Y-117607456D01*
X186244913Y-117632860D01*
X186331943Y-117663314D01*
X186499997Y-117682249D01*
X186500000Y-117682249D01*
X186500003Y-117682249D01*
X186668056Y-117663314D01*
X186668059Y-117663313D01*
X186827690Y-117607456D01*
X186827692Y-117607454D01*
X186827694Y-117607454D01*
X186827697Y-117607452D01*
X186970884Y-117517481D01*
X186970885Y-117517480D01*
X186970890Y-117517477D01*
X187090477Y-117397890D01*
X187180452Y-117254697D01*
X187180454Y-117254694D01*
X187180454Y-117254692D01*
X187180456Y-117254690D01*
X187236313Y-117095059D01*
X187236313Y-117095058D01*
X187236314Y-117095056D01*
X187255249Y-116927002D01*
X187255249Y-116926997D01*
X187236314Y-116758943D01*
X187180454Y-116599305D01*
X187180452Y-116599302D01*
X187090481Y-116456115D01*
X187090476Y-116456109D01*
X187011819Y-116377452D01*
X186978334Y-116316129D01*
X186975500Y-116289771D01*
X186975500Y-108237229D01*
X186995185Y-108170190D01*
X187011819Y-108149548D01*
X187090477Y-108070890D01*
X187090481Y-108070884D01*
X187180452Y-107927697D01*
X187180454Y-107927694D01*
X187180454Y-107927692D01*
X187180456Y-107927690D01*
X187236313Y-107768059D01*
X187236313Y-107768058D01*
X187236314Y-107768056D01*
X187255249Y-107600002D01*
X187255249Y-107600001D01*
X187255078Y-107598480D01*
X187253551Y-107584933D01*
X187265604Y-107516112D01*
X187289087Y-107483370D01*
X187762820Y-107009638D01*
X187824142Y-106976154D01*
X187893834Y-106981138D01*
X187949767Y-107023010D01*
X187974184Y-107088474D01*
X187974500Y-107097320D01*
X187974500Y-111262771D01*
X187954815Y-111329810D01*
X187938181Y-111350452D01*
X187859523Y-111429109D01*
X187859518Y-111429115D01*
X187769547Y-111572302D01*
X187769545Y-111572305D01*
X187713685Y-111731943D01*
X187694751Y-111899997D01*
X187694751Y-111900002D01*
X187713685Y-112068056D01*
X187769545Y-112227694D01*
X187769547Y-112227697D01*
X187859518Y-112370884D01*
X187859523Y-112370890D01*
X187979109Y-112490476D01*
X187979115Y-112490481D01*
X188122302Y-112580452D01*
X188122305Y-112580454D01*
X188122309Y-112580455D01*
X188122310Y-112580456D01*
X188194913Y-112605860D01*
X188281943Y-112636314D01*
X188449997Y-112655249D01*
X188450000Y-112655249D01*
X188450003Y-112655249D01*
X188618056Y-112636314D01*
X188634809Y-112630452D01*
X188777690Y-112580456D01*
X188777692Y-112580454D01*
X188777694Y-112580454D01*
X188777697Y-112580452D01*
X188920884Y-112490481D01*
X188920885Y-112490480D01*
X188920890Y-112490477D01*
X189040477Y-112370890D01*
X189074129Y-112317334D01*
X189130452Y-112227697D01*
X189130454Y-112227694D01*
X189130454Y-112227692D01*
X189130456Y-112227690D01*
X189186313Y-112068059D01*
X189186313Y-112068058D01*
X189186314Y-112068056D01*
X189191009Y-112026384D01*
X190674500Y-112026384D01*
X190704300Y-112176197D01*
X190704302Y-112176205D01*
X190762759Y-112317334D01*
X190762764Y-112317343D01*
X190847629Y-112444351D01*
X190847632Y-112444355D01*
X190955644Y-112552367D01*
X190955648Y-112552370D01*
X191082656Y-112637235D01*
X191082662Y-112637238D01*
X191082663Y-112637239D01*
X191223795Y-112695698D01*
X191373615Y-112725499D01*
X191373619Y-112725500D01*
X191373620Y-112725500D01*
X191526381Y-112725500D01*
X191526382Y-112725499D01*
X191676205Y-112695698D01*
X191817337Y-112637239D01*
X191944352Y-112552370D01*
X192052370Y-112444352D01*
X192137239Y-112317337D01*
X192195698Y-112176205D01*
X192225500Y-112026380D01*
X192225500Y-111873620D01*
X192195698Y-111723795D01*
X192137239Y-111582663D01*
X192137238Y-111582662D01*
X192137235Y-111582656D01*
X192052370Y-111455648D01*
X192052367Y-111455644D01*
X191944355Y-111347632D01*
X191944351Y-111347629D01*
X191817343Y-111262764D01*
X191817334Y-111262759D01*
X191676205Y-111204302D01*
X191676197Y-111204300D01*
X191526384Y-111174500D01*
X191526380Y-111174500D01*
X191373620Y-111174500D01*
X191373615Y-111174500D01*
X191223802Y-111204300D01*
X191223794Y-111204302D01*
X191082665Y-111262759D01*
X191082656Y-111262764D01*
X190955648Y-111347629D01*
X190955644Y-111347632D01*
X190847632Y-111455644D01*
X190847629Y-111455648D01*
X190762764Y-111582656D01*
X190762759Y-111582665D01*
X190704302Y-111723794D01*
X190704300Y-111723802D01*
X190674500Y-111873615D01*
X190674500Y-112026384D01*
X189191009Y-112026384D01*
X189205249Y-111900002D01*
X189205249Y-111899997D01*
X189186314Y-111731943D01*
X189134079Y-111582665D01*
X189130456Y-111572310D01*
X189130455Y-111572309D01*
X189130454Y-111572305D01*
X189130452Y-111572302D01*
X189040481Y-111429115D01*
X189040476Y-111429109D01*
X188961819Y-111350452D01*
X188928334Y-111289129D01*
X188925500Y-111262771D01*
X188925500Y-106534715D01*
X188945185Y-106467676D01*
X188961814Y-106447039D01*
X192181754Y-103227098D01*
X192181759Y-103227095D01*
X192191962Y-103216891D01*
X192191964Y-103216891D01*
X192280495Y-103128360D01*
X192343095Y-103019932D01*
X192368831Y-102923889D01*
X192375501Y-102898998D01*
X192375501Y-102766200D01*
X192375500Y-102766182D01*
X192375500Y-73501301D01*
X192395185Y-73434262D01*
X192411819Y-73413620D01*
X193126459Y-72698980D01*
X194063495Y-71761944D01*
X194126095Y-71653516D01*
X194158500Y-71532581D01*
X194158500Y-71407379D01*
X194158500Y-71403544D01*
X194178185Y-71336505D01*
X194230989Y-71290750D01*
X194300147Y-71280806D01*
X194363703Y-71309831D01*
X194370181Y-71315863D01*
X194443514Y-71389196D01*
X194443515Y-71389196D01*
X194443517Y-71389198D01*
X194548607Y-71440573D01*
X194582673Y-71445536D01*
X194616739Y-71450500D01*
X194971047Y-71450500D01*
X195038086Y-71470185D01*
X195083841Y-71522989D01*
X195093785Y-71592147D01*
X195064760Y-71655703D01*
X195015841Y-71690127D01*
X194962601Y-71710751D01*
X194962595Y-71710754D01*
X194773439Y-71827874D01*
X194773437Y-71827876D01*
X194609020Y-71977761D01*
X194474943Y-72155308D01*
X194474938Y-72155316D01*
X194375775Y-72354461D01*
X194375769Y-72354476D01*
X194314885Y-72568462D01*
X194314884Y-72568464D01*
X194294357Y-72789999D01*
X194294357Y-72790000D01*
X194314884Y-73011535D01*
X194314885Y-73011537D01*
X194375769Y-73225523D01*
X194375775Y-73225538D01*
X194474938Y-73424683D01*
X194474943Y-73424691D01*
X194609020Y-73602238D01*
X194773437Y-73752123D01*
X194773439Y-73752125D01*
X194962595Y-73869245D01*
X194962596Y-73869245D01*
X194962599Y-73869247D01*
X195156524Y-73944374D01*
X195211924Y-73986946D01*
X195235515Y-74052713D01*
X195219804Y-74120793D01*
X195169780Y-74169572D01*
X195156533Y-74175622D01*
X195008488Y-74232975D01*
X194962601Y-74250752D01*
X194962595Y-74250754D01*
X194773439Y-74367874D01*
X194773437Y-74367876D01*
X194609020Y-74517761D01*
X194474943Y-74695308D01*
X194474938Y-74695316D01*
X194375775Y-74894461D01*
X194375769Y-74894476D01*
X194314885Y-75108462D01*
X194314884Y-75108464D01*
X194294357Y-75329999D01*
X194294357Y-75330000D01*
X194314884Y-75551535D01*
X194314885Y-75551537D01*
X194375769Y-75765523D01*
X194375775Y-75765538D01*
X194474938Y-75964683D01*
X194474943Y-75964691D01*
X194609020Y-76142238D01*
X194773437Y-76292123D01*
X194773439Y-76292125D01*
X194962595Y-76409245D01*
X194962596Y-76409245D01*
X194962599Y-76409247D01*
X195156524Y-76484374D01*
X195211924Y-76526946D01*
X195235515Y-76592713D01*
X195219804Y-76660793D01*
X195169780Y-76709572D01*
X195156533Y-76715622D01*
X195021922Y-76767771D01*
X194962601Y-76790752D01*
X194962595Y-76790754D01*
X194773439Y-76907874D01*
X194773437Y-76907876D01*
X194609020Y-77057761D01*
X194474943Y-77235308D01*
X194474938Y-77235316D01*
X194375775Y-77434461D01*
X194375769Y-77434476D01*
X194314885Y-77648462D01*
X194314884Y-77648464D01*
X194294357Y-77869999D01*
X194294357Y-77870000D01*
X194314884Y-78091535D01*
X194314885Y-78091537D01*
X194375769Y-78305523D01*
X194375775Y-78305538D01*
X194474938Y-78504683D01*
X194474943Y-78504691D01*
X194609020Y-78682238D01*
X194773437Y-78832123D01*
X194773439Y-78832125D01*
X194962595Y-78949245D01*
X194962596Y-78949245D01*
X194962599Y-78949247D01*
X195156524Y-79024374D01*
X195211924Y-79066946D01*
X195235515Y-79132713D01*
X195219804Y-79200793D01*
X195169780Y-79249572D01*
X195156533Y-79255622D01*
X195020051Y-79308496D01*
X194962601Y-79330752D01*
X194962595Y-79330754D01*
X194773439Y-79447874D01*
X194773437Y-79447876D01*
X194609020Y-79597761D01*
X194474943Y-79775308D01*
X194474938Y-79775316D01*
X194375775Y-79974461D01*
X194375769Y-79974476D01*
X194314885Y-80188462D01*
X194314884Y-80188464D01*
X194294357Y-80409999D01*
X194294357Y-80410000D01*
X194314884Y-80631535D01*
X194314885Y-80631537D01*
X194375769Y-80845523D01*
X194375775Y-80845538D01*
X194474938Y-81044683D01*
X194474943Y-81044691D01*
X194609020Y-81222238D01*
X194773437Y-81372123D01*
X194773439Y-81372125D01*
X194962595Y-81489245D01*
X194962596Y-81489245D01*
X194962599Y-81489247D01*
X195156524Y-81564374D01*
X195211924Y-81606946D01*
X195235515Y-81672713D01*
X195219804Y-81740793D01*
X195169780Y-81789572D01*
X195156533Y-81795622D01*
X195014238Y-81850748D01*
X194962601Y-81870752D01*
X194962595Y-81870754D01*
X194773439Y-81987874D01*
X194773437Y-81987876D01*
X194609020Y-82137761D01*
X194474943Y-82315308D01*
X194474938Y-82315316D01*
X194375775Y-82514461D01*
X194375769Y-82514476D01*
X194314885Y-82728462D01*
X194314884Y-82728464D01*
X194294357Y-82949999D01*
X194294357Y-82950000D01*
X194314884Y-83171535D01*
X194314885Y-83171537D01*
X194375769Y-83385523D01*
X194375775Y-83385538D01*
X194474938Y-83584683D01*
X194474943Y-83584691D01*
X194609020Y-83762238D01*
X194773437Y-83912123D01*
X194773439Y-83912125D01*
X194962595Y-84029245D01*
X194962596Y-84029245D01*
X194962599Y-84029247D01*
X195156524Y-84104374D01*
X195211924Y-84146946D01*
X195235515Y-84212713D01*
X195219804Y-84280793D01*
X195169780Y-84329572D01*
X195156533Y-84335622D01*
X195008488Y-84392975D01*
X194962601Y-84410752D01*
X194962595Y-84410754D01*
X194773439Y-84527874D01*
X194773437Y-84527876D01*
X194609020Y-84677761D01*
X194474943Y-84855308D01*
X194474938Y-84855316D01*
X194375775Y-85054461D01*
X194375769Y-85054476D01*
X194314885Y-85268462D01*
X194314885Y-85268463D01*
X194298196Y-85448564D01*
X194272410Y-85513501D01*
X194262406Y-85524803D01*
X193289375Y-86497834D01*
X193289372Y-86497838D01*
X193196297Y-86637133D01*
X193196296Y-86637136D01*
X193171662Y-86696609D01*
X193171662Y-86696610D01*
X193132184Y-86791917D01*
X193132182Y-86791925D01*
X193099500Y-86956228D01*
X193099500Y-92733771D01*
X193132181Y-92898073D01*
X193132184Y-92898082D01*
X193196296Y-93052863D01*
X193196297Y-93052866D01*
X193289372Y-93192161D01*
X193289375Y-93192165D01*
X200107834Y-100010624D01*
X200107838Y-100010627D01*
X200247133Y-100103702D01*
X200247135Y-100103702D01*
X200247137Y-100103704D01*
X200401919Y-100167816D01*
X200401921Y-100167816D01*
X200401926Y-100167818D01*
X200566228Y-100200499D01*
X200566232Y-100200500D01*
X200566233Y-100200500D01*
X200733768Y-100200500D01*
X200733769Y-100200499D01*
X200788538Y-100189605D01*
X200898073Y-100167818D01*
X200898076Y-100167816D01*
X200898081Y-100167816D01*
X201052863Y-100103704D01*
X201192162Y-100010627D01*
X201310627Y-99892162D01*
X201403704Y-99752863D01*
X201467816Y-99598081D01*
X201500500Y-99433767D01*
X201500500Y-99266233D01*
X201481231Y-99169359D01*
X201467818Y-99101926D01*
X201467815Y-99101917D01*
X201459024Y-99080693D01*
X201403704Y-98947137D01*
X201403702Y-98947135D01*
X201403702Y-98947133D01*
X201310627Y-98807838D01*
X201310624Y-98807834D01*
X200697815Y-98195025D01*
X200664330Y-98133702D01*
X200669314Y-98064010D01*
X200711186Y-98008077D01*
X200776650Y-97983660D01*
X200808278Y-97985455D01*
X200888757Y-98000500D01*
X200888758Y-98000500D01*
X201111241Y-98000500D01*
X201111243Y-98000500D01*
X201329940Y-97959618D01*
X201537401Y-97879247D01*
X201726562Y-97762124D01*
X201890981Y-97612236D01*
X202025058Y-97434689D01*
X202124229Y-97235528D01*
X202185115Y-97021536D01*
X202205643Y-96800000D01*
X202185115Y-96578464D01*
X202124229Y-96364472D01*
X202124224Y-96364461D01*
X202025061Y-96165316D01*
X202025056Y-96165308D01*
X201890979Y-95987761D01*
X201726562Y-95837876D01*
X201726560Y-95837874D01*
X201537404Y-95720754D01*
X201537398Y-95720752D01*
X201329940Y-95640382D01*
X201111243Y-95599500D01*
X200888757Y-95599500D01*
X200670060Y-95640382D01*
X200538864Y-95691207D01*
X200462601Y-95720752D01*
X200462595Y-95720754D01*
X200273439Y-95837874D01*
X200273437Y-95837876D01*
X200109020Y-95987761D01*
X199974943Y-96165308D01*
X199974938Y-96165316D01*
X199875775Y-96364461D01*
X199875769Y-96364476D01*
X199814885Y-96578462D01*
X199814884Y-96578464D01*
X199794357Y-96799999D01*
X199794357Y-96800001D01*
X199812871Y-96999807D01*
X199799456Y-97068377D01*
X199751099Y-97118809D01*
X199683153Y-97135091D01*
X199617190Y-97112053D01*
X199601719Y-97098929D01*
X194836819Y-92334029D01*
X194803334Y-92272706D01*
X194800500Y-92246348D01*
X194800500Y-89053574D01*
X194820185Y-88986535D01*
X194872989Y-88940780D01*
X194942147Y-88930836D01*
X194982953Y-88944216D01*
X195096237Y-89004767D01*
X195096241Y-89004769D01*
X195200000Y-89036243D01*
X195200000Y-88434144D01*
X195307007Y-88495925D01*
X195434174Y-88530000D01*
X195565826Y-88530000D01*
X195692993Y-88495925D01*
X195800000Y-88434144D01*
X195800000Y-89036242D01*
X195903758Y-89004769D01*
X195903762Y-89004767D01*
X196086166Y-88907271D01*
X196086173Y-88907267D01*
X196246055Y-88776055D01*
X196377267Y-88616173D01*
X196377271Y-88616166D01*
X196474765Y-88433768D01*
X196506243Y-88330000D01*
X195904144Y-88330000D01*
X195965925Y-88222993D01*
X196000000Y-88095826D01*
X196000000Y-87964174D01*
X195965925Y-87837007D01*
X195904144Y-87730000D01*
X196506243Y-87730000D01*
X196506243Y-87729999D01*
X196474765Y-87626231D01*
X196377271Y-87443833D01*
X196377267Y-87443826D01*
X196246055Y-87283944D01*
X196086173Y-87152732D01*
X196086166Y-87152728D01*
X195903768Y-87055234D01*
X195800000Y-87023756D01*
X195800000Y-87625855D01*
X195692993Y-87564075D01*
X195565826Y-87530000D01*
X195434174Y-87530000D01*
X195307007Y-87564075D01*
X195200000Y-87625855D01*
X195200000Y-87044150D01*
X195219685Y-86977111D01*
X195236314Y-86956474D01*
X195465970Y-86726819D01*
X195527293Y-86693334D01*
X195553651Y-86690500D01*
X195611241Y-86690500D01*
X195611243Y-86690500D01*
X195829940Y-86649618D01*
X196037401Y-86569247D01*
X196226562Y-86452124D01*
X196390981Y-86302236D01*
X196525058Y-86124689D01*
X196624229Y-85925528D01*
X196685115Y-85711536D01*
X196705643Y-85490000D01*
X196705588Y-85489411D01*
X196685115Y-85268464D01*
X196685114Y-85268462D01*
X196681061Y-85254218D01*
X196624229Y-85054472D01*
X196624224Y-85054461D01*
X196525061Y-84855316D01*
X196525056Y-84855308D01*
X196390979Y-84677761D01*
X196226562Y-84527876D01*
X196226560Y-84527874D01*
X196037404Y-84410754D01*
X196037395Y-84410750D01*
X195943956Y-84374552D01*
X195843475Y-84335625D01*
X195788075Y-84293054D01*
X195764484Y-84227288D01*
X195780195Y-84159207D01*
X195830219Y-84110428D01*
X195843466Y-84104377D01*
X196037401Y-84029247D01*
X196226562Y-83912124D01*
X196390981Y-83762236D01*
X196525058Y-83584689D01*
X196624229Y-83385528D01*
X196677015Y-83200004D01*
X198794732Y-83200004D01*
X198813777Y-83454154D01*
X198843571Y-83584691D01*
X198870492Y-83702637D01*
X198963607Y-83939888D01*
X199091041Y-84160612D01*
X199249950Y-84359877D01*
X199436783Y-84533232D01*
X199647366Y-84676805D01*
X199647371Y-84676807D01*
X199647372Y-84676808D01*
X199647373Y-84676809D01*
X199709269Y-84706616D01*
X199876992Y-84787387D01*
X199876993Y-84787387D01*
X199876996Y-84787389D01*
X200120542Y-84862513D01*
X200372565Y-84900500D01*
X200627435Y-84900500D01*
X200879458Y-84862513D01*
X201123004Y-84787389D01*
X201352634Y-84676805D01*
X201563217Y-84533232D01*
X201750050Y-84359877D01*
X201908959Y-84160612D01*
X202036393Y-83939888D01*
X202129508Y-83702637D01*
X202186222Y-83454157D01*
X202205268Y-83200000D01*
X202186222Y-82945843D01*
X202129508Y-82697363D01*
X202036393Y-82460112D01*
X201908959Y-82239388D01*
X201750050Y-82040123D01*
X201563217Y-81866768D01*
X201352634Y-81723195D01*
X201352630Y-81723193D01*
X201352627Y-81723191D01*
X201352626Y-81723190D01*
X201123006Y-81612612D01*
X201123008Y-81612612D01*
X200879466Y-81537489D01*
X200879462Y-81537488D01*
X200879458Y-81537487D01*
X200746517Y-81517449D01*
X200627440Y-81499500D01*
X200627435Y-81499500D01*
X200372565Y-81499500D01*
X200372559Y-81499500D01*
X200215609Y-81523157D01*
X200120542Y-81537487D01*
X200120539Y-81537488D01*
X200120533Y-81537489D01*
X199876992Y-81612612D01*
X199647373Y-81723190D01*
X199647372Y-81723191D01*
X199436782Y-81866768D01*
X199249952Y-82040121D01*
X199249950Y-82040123D01*
X199091041Y-82239388D01*
X198963608Y-82460109D01*
X198870492Y-82697362D01*
X198870490Y-82697369D01*
X198813777Y-82945845D01*
X198794732Y-83199995D01*
X198794732Y-83200004D01*
X196677015Y-83200004D01*
X196685115Y-83171536D01*
X196705643Y-82950000D01*
X196685115Y-82728464D01*
X196624229Y-82514472D01*
X196597161Y-82460112D01*
X196525061Y-82315316D01*
X196525056Y-82315308D01*
X196390979Y-82137761D01*
X196226562Y-81987876D01*
X196226560Y-81987874D01*
X196037404Y-81870754D01*
X196037395Y-81870750D01*
X195925871Y-81827546D01*
X195843475Y-81795625D01*
X195788075Y-81753054D01*
X195764484Y-81687288D01*
X195780195Y-81619207D01*
X195830219Y-81570428D01*
X195843466Y-81564377D01*
X196037401Y-81489247D01*
X196226562Y-81372124D01*
X196390981Y-81222236D01*
X196525058Y-81044689D01*
X196624229Y-80845528D01*
X196685115Y-80631536D01*
X196705643Y-80410000D01*
X196685115Y-80188464D01*
X196624229Y-79974472D01*
X196535165Y-79795608D01*
X196525061Y-79775316D01*
X196525056Y-79775308D01*
X196390979Y-79597761D01*
X196226562Y-79447876D01*
X196226560Y-79447874D01*
X196037404Y-79330754D01*
X196037395Y-79330750D01*
X195943956Y-79294552D01*
X195843475Y-79255625D01*
X195788075Y-79213054D01*
X195764484Y-79147288D01*
X195780195Y-79079207D01*
X195830219Y-79030428D01*
X195843466Y-79024377D01*
X196037401Y-78949247D01*
X196226562Y-78832124D01*
X196390981Y-78682236D01*
X196525058Y-78504689D01*
X196624229Y-78305528D01*
X196685115Y-78091536D01*
X196705643Y-77870000D01*
X196700219Y-77811470D01*
X196685115Y-77648464D01*
X196685114Y-77648462D01*
X196673983Y-77609342D01*
X196624229Y-77434472D01*
X196624224Y-77434461D01*
X196525061Y-77235316D01*
X196525056Y-77235308D01*
X196390979Y-77057761D01*
X196226562Y-76907876D01*
X196226560Y-76907874D01*
X196037404Y-76790754D01*
X196037395Y-76790750D01*
X195943956Y-76754552D01*
X195843475Y-76715625D01*
X195788075Y-76673054D01*
X195764484Y-76607288D01*
X195780195Y-76539207D01*
X195830219Y-76490428D01*
X195843466Y-76484377D01*
X196037401Y-76409247D01*
X196226562Y-76292124D01*
X196390981Y-76142236D01*
X196525058Y-75964689D01*
X196624229Y-75765528D01*
X196685115Y-75551536D01*
X196705643Y-75330000D01*
X196705330Y-75326627D01*
X196685115Y-75108464D01*
X196685114Y-75108462D01*
X196624230Y-74894476D01*
X196624229Y-74894472D01*
X196624224Y-74894461D01*
X196525061Y-74695316D01*
X196525056Y-74695308D01*
X196390979Y-74517761D01*
X196226562Y-74367876D01*
X196226560Y-74367874D01*
X196037404Y-74250754D01*
X196037395Y-74250750D01*
X195943956Y-74214552D01*
X195843475Y-74175625D01*
X195788075Y-74133054D01*
X195764484Y-74067288D01*
X195780195Y-73999207D01*
X195830219Y-73950428D01*
X195843466Y-73944377D01*
X196037401Y-73869247D01*
X196226562Y-73752124D01*
X196390981Y-73602236D01*
X196525058Y-73424689D01*
X196624229Y-73225528D01*
X196685115Y-73011536D01*
X196705643Y-72790000D01*
X196685115Y-72568464D01*
X196624229Y-72354472D01*
X196624224Y-72354461D01*
X196525061Y-72155316D01*
X196525056Y-72155308D01*
X196390979Y-71977761D01*
X196226562Y-71827876D01*
X196226560Y-71827874D01*
X196037404Y-71710754D01*
X196037398Y-71710751D01*
X195984159Y-71690127D01*
X195928758Y-71647554D01*
X195905167Y-71581787D01*
X195920878Y-71513707D01*
X195970902Y-71464928D01*
X196028953Y-71450500D01*
X196383261Y-71450500D01*
X196405971Y-71447191D01*
X196451393Y-71440573D01*
X196556483Y-71389198D01*
X196639198Y-71306483D01*
X196690573Y-71201393D01*
X196700500Y-71133260D01*
X196700500Y-69366740D01*
X196690573Y-69298607D01*
X196639198Y-69193517D01*
X196639196Y-69193515D01*
X196639196Y-69193514D01*
X196556485Y-69110803D01*
X196451391Y-69059426D01*
X196383261Y-69049500D01*
X196383260Y-69049500D01*
X194616740Y-69049500D01*
X194616739Y-69049500D01*
X194548608Y-69059426D01*
X194443514Y-69110803D01*
X194370181Y-69184137D01*
X194308858Y-69217622D01*
X194239166Y-69212638D01*
X194183233Y-69170766D01*
X194158816Y-69105302D01*
X194158500Y-69096456D01*
X194158500Y-67929628D01*
X194178185Y-67862589D01*
X194216529Y-67824634D01*
X194270887Y-67790479D01*
X194270887Y-67790478D01*
X194270890Y-67790477D01*
X194390477Y-67670890D01*
X194411380Y-67637623D01*
X194480452Y-67527697D01*
X194480454Y-67527694D01*
X194480454Y-67527692D01*
X194480456Y-67527690D01*
X194536313Y-67368059D01*
X194536313Y-67368058D01*
X194536314Y-67368056D01*
X194555249Y-67200002D01*
X194555249Y-67199997D01*
X194536314Y-67031943D01*
X194480454Y-66872305D01*
X194480452Y-66872302D01*
X194390481Y-66729115D01*
X194390476Y-66729109D01*
X194270890Y-66609523D01*
X194270884Y-66609518D01*
X194127697Y-66519547D01*
X194127694Y-66519545D01*
X193968056Y-66463685D01*
X193800003Y-66444751D01*
X193799997Y-66444751D01*
X193631943Y-66463685D01*
X193472305Y-66519545D01*
X193472302Y-66519547D01*
X193329115Y-66609518D01*
X193329109Y-66609523D01*
X193209523Y-66729109D01*
X193209518Y-66729115D01*
X193119547Y-66872302D01*
X193119545Y-66872305D01*
X193063685Y-67031943D01*
X193057536Y-67086519D01*
X193030468Y-67150933D01*
X192972873Y-67190487D01*
X192948200Y-67195854D01*
X192846384Y-67207326D01*
X192777562Y-67195272D01*
X192726182Y-67147923D01*
X192708500Y-67084106D01*
X192708500Y-62460400D01*
X192705871Y-62450589D01*
X192676095Y-62339464D01*
X192613495Y-62231036D01*
X192524964Y-62142505D01*
X189291964Y-58909505D01*
X189183536Y-58846905D01*
X189183531Y-58846903D01*
X189182052Y-58846507D01*
X189180945Y-58845832D01*
X189176029Y-58843796D01*
X189176346Y-58843029D01*
X189122393Y-58810139D01*
X189091868Y-58747290D01*
X189091455Y-58744666D01*
X189090573Y-58738607D01*
X189076323Y-58709458D01*
X189064564Y-58640589D01*
X189076325Y-58600537D01*
X189093681Y-58565037D01*
X189140810Y-58513456D01*
X189205080Y-58495500D01*
X198292599Y-58495500D01*
X198292601Y-58495500D01*
X198413536Y-58463095D01*
X198521964Y-58400495D01*
X199081254Y-57841202D01*
X199081259Y-57841199D01*
X199091462Y-57830995D01*
X199091464Y-57830995D01*
X199179995Y-57742464D01*
X199242595Y-57634036D01*
X199255229Y-57586886D01*
X199275001Y-57513101D01*
X199275001Y-57387899D01*
X199275001Y-57380304D01*
X199275000Y-57380286D01*
X199275000Y-56192400D01*
X199275000Y-56192399D01*
X199242595Y-56071464D01*
X199179995Y-55963036D01*
X199091464Y-55874505D01*
X198861319Y-55644360D01*
X198827834Y-55583037D01*
X198825000Y-55556679D01*
X198825000Y-55276739D01*
X198815073Y-55208608D01*
X198815073Y-55208607D01*
X198763698Y-55103517D01*
X198763696Y-55103515D01*
X198763696Y-55103514D01*
X198680983Y-55020801D01*
X198667509Y-55014214D01*
X198615928Y-54967085D01*
X198598015Y-54899551D01*
X198618870Y-54833924D01*
X198662896Y-54768034D01*
X198662897Y-54768033D01*
X198674499Y-54709702D01*
X198674500Y-54709699D01*
X198674500Y-54665000D01*
X196749500Y-54665000D01*
X196749500Y-54713179D01*
X196729815Y-54780218D01*
X196677011Y-54825973D01*
X196607853Y-54835917D01*
X196544297Y-54806892D01*
X196537819Y-54800860D01*
X196161819Y-54424860D01*
X196128334Y-54363537D01*
X196125500Y-54337179D01*
X196125500Y-52436070D01*
X196145185Y-52369031D01*
X196197989Y-52323276D01*
X196233317Y-52313131D01*
X196251627Y-52310719D01*
X196256762Y-52310044D01*
X196402841Y-52249536D01*
X196528282Y-52153282D01*
X196624536Y-52027841D01*
X196685044Y-51881762D01*
X196694102Y-51812953D01*
X196722368Y-51749058D01*
X196780692Y-51710586D01*
X196850557Y-51709754D01*
X196904722Y-51741458D01*
X196924416Y-51761152D01*
X196957901Y-51822475D01*
X196959955Y-51834947D01*
X196963685Y-51868054D01*
X197019544Y-52027691D01*
X197080493Y-52124689D01*
X197099500Y-52190662D01*
X197099500Y-52295500D01*
X197079815Y-52362539D01*
X197027011Y-52408294D01*
X196975500Y-52419500D01*
X196916239Y-52419500D01*
X196848108Y-52429426D01*
X196743014Y-52480803D01*
X196660303Y-52563514D01*
X196608926Y-52668608D01*
X196599000Y-52736739D01*
X196599000Y-53453260D01*
X196608926Y-53521391D01*
X196660303Y-53626485D01*
X196743015Y-53709197D01*
X196756488Y-53715784D01*
X196808070Y-53762912D01*
X196825984Y-53830446D01*
X196805130Y-53896074D01*
X196761103Y-53961966D01*
X196761102Y-53961966D01*
X196749500Y-54020297D01*
X196749500Y-54065000D01*
X198674500Y-54065000D01*
X198674500Y-54020301D01*
X198674499Y-54020297D01*
X198662897Y-53961966D01*
X198662896Y-53961965D01*
X198618870Y-53896075D01*
X198597992Y-53829397D01*
X198616477Y-53762017D01*
X198667513Y-53715783D01*
X198680983Y-53709198D01*
X198763698Y-53626483D01*
X198815073Y-53521393D01*
X198825000Y-53453260D01*
X198825000Y-52736740D01*
X198815073Y-52668607D01*
X198763698Y-52563517D01*
X198763696Y-52563515D01*
X198763696Y-52563514D01*
X198680985Y-52480803D01*
X198659494Y-52470297D01*
X198575893Y-52429427D01*
X198575891Y-52429426D01*
X198507761Y-52419500D01*
X198507760Y-52419500D01*
X198424500Y-52419500D01*
X198357461Y-52399815D01*
X198311706Y-52347011D01*
X198300500Y-52295500D01*
X198300500Y-52190662D01*
X198319507Y-52124689D01*
X198326072Y-52114241D01*
X198380456Y-52027690D01*
X198436313Y-51868059D01*
X198455249Y-51700000D01*
X198455249Y-51699997D01*
X198436314Y-51531943D01*
X198380454Y-51372305D01*
X198380452Y-51372302D01*
X198290481Y-51229115D01*
X198290476Y-51229109D01*
X198170890Y-51109523D01*
X198170884Y-51109518D01*
X198027697Y-51019547D01*
X198027692Y-51019544D01*
X197868059Y-50963687D01*
X197868051Y-50963685D01*
X197863113Y-50963129D01*
X197798701Y-50936056D01*
X197789327Y-50927591D01*
X196736818Y-49875082D01*
X196703333Y-49813759D01*
X196700499Y-49787401D01*
X196700499Y-49335636D01*
X196685046Y-49218246D01*
X196685044Y-49218239D01*
X196685044Y-49218238D01*
X196624536Y-49072159D01*
X196528282Y-48946718D01*
X196402841Y-48850464D01*
X196256762Y-48789956D01*
X196256760Y-48789955D01*
X196139370Y-48774501D01*
X196139367Y-48774500D01*
X196139361Y-48774500D01*
X196139354Y-48774500D01*
X195160636Y-48774500D01*
X195043246Y-48789953D01*
X195043237Y-48789956D01*
X194897160Y-48850463D01*
X194771713Y-48946722D01*
X194765971Y-48952465D01*
X194764526Y-48951020D01*
X194716940Y-48985763D01*
X194647194Y-48989913D01*
X194586276Y-48955697D01*
X194579881Y-48948317D01*
X194578286Y-48946722D01*
X194578283Y-48946720D01*
X194578282Y-48946718D01*
X194452841Y-48850464D01*
X194306762Y-48789956D01*
X194306760Y-48789955D01*
X194189370Y-48774501D01*
X194189367Y-48774500D01*
X194189361Y-48774500D01*
X194189354Y-48774500D01*
X193210636Y-48774500D01*
X193093246Y-48789953D01*
X193093237Y-48789956D01*
X192947160Y-48850463D01*
X192821718Y-48946718D01*
X192725463Y-49072160D01*
X192664956Y-49218237D01*
X192664955Y-49218239D01*
X192649500Y-49335638D01*
X192649500Y-49939363D01*
X192664953Y-50056753D01*
X192664956Y-50056762D01*
X192725464Y-50202841D01*
X192821718Y-50328282D01*
X192947159Y-50424536D01*
X192970488Y-50434199D01*
X192973481Y-50435439D01*
X193027884Y-50479280D01*
X193049949Y-50545575D01*
X193032670Y-50613274D01*
X192981532Y-50660884D01*
X192973481Y-50664561D01*
X192947160Y-50675463D01*
X192821718Y-50771718D01*
X192725463Y-50897160D01*
X192664956Y-51043237D01*
X192664955Y-51043239D01*
X192649500Y-51160638D01*
X192649500Y-51764363D01*
X192664953Y-51881753D01*
X192664956Y-51881762D01*
X192724999Y-52026720D01*
X192725464Y-52027841D01*
X192821718Y-52153282D01*
X192878856Y-52197125D01*
X192920057Y-52253552D01*
X192924212Y-52323298D01*
X192889999Y-52384219D01*
X192828282Y-52416971D01*
X192803368Y-52419500D01*
X191492239Y-52419500D01*
X191424108Y-52429426D01*
X191319014Y-52480803D01*
X191236303Y-52563514D01*
X191184926Y-52668608D01*
X191175000Y-52736739D01*
X191175000Y-53453260D01*
X191184926Y-53521391D01*
X191236303Y-53626485D01*
X191252137Y-53642319D01*
X191285622Y-53703642D01*
X191280638Y-53773334D01*
X191252137Y-53817681D01*
X191236303Y-53833514D01*
X191184926Y-53938608D01*
X191175000Y-54006739D01*
X191175000Y-54723260D01*
X191184926Y-54791391D01*
X191236303Y-54896485D01*
X191319015Y-54979197D01*
X191332488Y-54985784D01*
X191384070Y-55032912D01*
X191401984Y-55100446D01*
X191381130Y-55166074D01*
X191337103Y-55231966D01*
X191337102Y-55231966D01*
X191325500Y-55290297D01*
X191325500Y-55335000D01*
X193250500Y-55335000D01*
X193250500Y-55290301D01*
X193250499Y-55290297D01*
X193238897Y-55231966D01*
X193238896Y-55231965D01*
X193194870Y-55166075D01*
X193173992Y-55099397D01*
X193192477Y-55032017D01*
X193243513Y-54985783D01*
X193256983Y-54979198D01*
X193339698Y-54896483D01*
X193391073Y-54791393D01*
X193401000Y-54723260D01*
X193401000Y-54006740D01*
X193401000Y-54006739D01*
X193401000Y-54003321D01*
X193420685Y-53936282D01*
X193473489Y-53890527D01*
X193542647Y-53880583D01*
X193606203Y-53909608D01*
X193612681Y-53915640D01*
X196562681Y-56865640D01*
X196596166Y-56926963D01*
X196599000Y-56953321D01*
X196599000Y-56955500D01*
X196579315Y-57022539D01*
X196526511Y-57068294D01*
X196475000Y-57079500D01*
X189653321Y-57079500D01*
X189586282Y-57059815D01*
X189565640Y-57043181D01*
X189136819Y-56614360D01*
X189103334Y-56553037D01*
X189100500Y-56526679D01*
X189100500Y-56266739D01*
X189096820Y-56241485D01*
X189090573Y-56198607D01*
X189076323Y-56169458D01*
X189064564Y-56100589D01*
X189076322Y-56060542D01*
X189090573Y-56031393D01*
X189100500Y-55963260D01*
X189100500Y-55935000D01*
X191325500Y-55935000D01*
X191325500Y-55979702D01*
X191337102Y-56038033D01*
X191337103Y-56038034D01*
X191381308Y-56104191D01*
X191447465Y-56148396D01*
X191458750Y-56153071D01*
X191458324Y-56154099D01*
X191509307Y-56180769D01*
X191543881Y-56241485D01*
X191540140Y-56311254D01*
X191499273Y-56367926D01*
X191458576Y-56386511D01*
X191458750Y-56386929D01*
X191447465Y-56391603D01*
X191381308Y-56435808D01*
X191337103Y-56501965D01*
X191337102Y-56501966D01*
X191325500Y-56560297D01*
X191325500Y-56605000D01*
X193250500Y-56605000D01*
X193250500Y-56560301D01*
X193250499Y-56560297D01*
X193238897Y-56501966D01*
X193238896Y-56501965D01*
X193194691Y-56435808D01*
X193128534Y-56391603D01*
X193117250Y-56386929D01*
X193117675Y-56385900D01*
X193066693Y-56359233D01*
X193032119Y-56298517D01*
X193035858Y-56228748D01*
X193076724Y-56172075D01*
X193117423Y-56153488D01*
X193117250Y-56153071D01*
X193128534Y-56148396D01*
X193194691Y-56104191D01*
X193238896Y-56038034D01*
X193238897Y-56038033D01*
X193250499Y-55979702D01*
X193250500Y-55979699D01*
X193250500Y-55935000D01*
X191325500Y-55935000D01*
X189100500Y-55935000D01*
X189100500Y-54996740D01*
X189090573Y-54928607D01*
X189076323Y-54899458D01*
X189064564Y-54830589D01*
X189076322Y-54790542D01*
X189090573Y-54761393D01*
X189100500Y-54693260D01*
X189100500Y-53726740D01*
X189090573Y-53658607D01*
X189039198Y-53553517D01*
X189039196Y-53553515D01*
X189039196Y-53553514D01*
X188986319Y-53500637D01*
X188952834Y-53439314D01*
X188950000Y-53412956D01*
X188950000Y-53240000D01*
X187050000Y-53240000D01*
X187050000Y-53412956D01*
X187030315Y-53479995D01*
X187013681Y-53500637D01*
X186960803Y-53553514D01*
X186909426Y-53658608D01*
X186902865Y-53703642D01*
X186899500Y-53726740D01*
X186899500Y-54693260D01*
X186909427Y-54761393D01*
X186909428Y-54761395D01*
X186909429Y-54761398D01*
X186923676Y-54790542D01*
X186935434Y-54859415D01*
X186923676Y-54899458D01*
X186909429Y-54928601D01*
X186909425Y-54928611D01*
X186899500Y-54996739D01*
X186899500Y-55963260D01*
X186909425Y-56031388D01*
X186909429Y-56031398D01*
X186923676Y-56060542D01*
X186935434Y-56129415D01*
X186923676Y-56169458D01*
X186909429Y-56198601D01*
X186909425Y-56198611D01*
X186899500Y-56266739D01*
X186899500Y-57233260D01*
X186909425Y-57301388D01*
X186909429Y-57301398D01*
X186923676Y-57330542D01*
X186935434Y-57399415D01*
X186923676Y-57439458D01*
X186909429Y-57468601D01*
X186909425Y-57468611D01*
X186899500Y-57536739D01*
X186899500Y-58503260D01*
X186909425Y-58571388D01*
X186909429Y-58571398D01*
X186923676Y-58600542D01*
X186935434Y-58669415D01*
X186923676Y-58709458D01*
X186909429Y-58738601D01*
X186909425Y-58738611D01*
X186899500Y-58806739D01*
X186899500Y-59773260D01*
X186909425Y-59841388D01*
X186909429Y-59841398D01*
X186923676Y-59870542D01*
X186935434Y-59939415D01*
X186923676Y-59979458D01*
X186909429Y-60008601D01*
X186909425Y-60008611D01*
X186899500Y-60076739D01*
X186899500Y-61043260D01*
X186909425Y-61111388D01*
X186909429Y-61111398D01*
X186923676Y-61140542D01*
X186935434Y-61209415D01*
X186923676Y-61249458D01*
X186909429Y-61278601D01*
X186909425Y-61278611D01*
X186899500Y-61346739D01*
X186899500Y-62313260D01*
X186909425Y-62381388D01*
X186909429Y-62381398D01*
X186923676Y-62410542D01*
X186935434Y-62479415D01*
X186923676Y-62519458D01*
X186909429Y-62548601D01*
X186909425Y-62548611D01*
X186899500Y-62616739D01*
X186899500Y-63583260D01*
X186909425Y-63651388D01*
X186909429Y-63651398D01*
X186923676Y-63680542D01*
X186935434Y-63749415D01*
X186923676Y-63789458D01*
X186909429Y-63818601D01*
X186909425Y-63818611D01*
X186899500Y-63886739D01*
X186899500Y-64853260D01*
X186909425Y-64921388D01*
X186909429Y-64921398D01*
X186923676Y-64950542D01*
X186935434Y-65019415D01*
X186923676Y-65059458D01*
X186909429Y-65088601D01*
X186909425Y-65088611D01*
X186899500Y-65156739D01*
X186899500Y-66123260D01*
X186909425Y-66191388D01*
X186909429Y-66191398D01*
X186923676Y-66220542D01*
X186935434Y-66289415D01*
X186923676Y-66329458D01*
X186909429Y-66358601D01*
X186909425Y-66358611D01*
X186899500Y-66426739D01*
X186899500Y-67352679D01*
X186879815Y-67419718D01*
X186827011Y-67465473D01*
X186757853Y-67475417D01*
X186694297Y-67446392D01*
X186687819Y-67440360D01*
X185839090Y-66591631D01*
X185805605Y-66530308D01*
X185803551Y-66490067D01*
X185805249Y-66475000D01*
X185792135Y-66358609D01*
X185786314Y-66306943D01*
X185730454Y-66147305D01*
X185730452Y-66147302D01*
X185640481Y-66004115D01*
X185640476Y-66004109D01*
X185520890Y-65884523D01*
X185520884Y-65884518D01*
X185377697Y-65794547D01*
X185377694Y-65794545D01*
X185218056Y-65738685D01*
X185050003Y-65719751D01*
X185049997Y-65719751D01*
X184881943Y-65738685D01*
X184722305Y-65794545D01*
X184722302Y-65794547D01*
X184579115Y-65884518D01*
X184579109Y-65884523D01*
X184459523Y-66004109D01*
X184459518Y-66004115D01*
X184369547Y-66147302D01*
X184369545Y-66147305D01*
X184313685Y-66306943D01*
X184294751Y-66474997D01*
X184294751Y-66475002D01*
X184313685Y-66643056D01*
X184369545Y-66802694D01*
X184369547Y-66802697D01*
X184459518Y-66945884D01*
X184459523Y-66945890D01*
X184579109Y-67065476D01*
X184579115Y-67065481D01*
X184722302Y-67155452D01*
X184722305Y-67155454D01*
X184722309Y-67155455D01*
X184722310Y-67155456D01*
X184794913Y-67180860D01*
X184881943Y-67211314D01*
X184972023Y-67221463D01*
X185050000Y-67230249D01*
X185065064Y-67228551D01*
X185133884Y-67240604D01*
X185166631Y-67264090D01*
X186411181Y-68508640D01*
X186444666Y-68569963D01*
X186447500Y-68596321D01*
X186447500Y-69475500D01*
X186427815Y-69542539D01*
X186375011Y-69588294D01*
X186323500Y-69599500D01*
X185751739Y-69599500D01*
X185683611Y-69609425D01*
X185683601Y-69609429D01*
X185654458Y-69623676D01*
X185585585Y-69635434D01*
X185545542Y-69623676D01*
X185516398Y-69609429D01*
X185516388Y-69609425D01*
X185448261Y-69599500D01*
X185448260Y-69599500D01*
X184481740Y-69599500D01*
X184481739Y-69599500D01*
X184413611Y-69609425D01*
X184413601Y-69609429D01*
X184384458Y-69623676D01*
X184315585Y-69635434D01*
X184275542Y-69623676D01*
X184246398Y-69609429D01*
X184246388Y-69609425D01*
X184178261Y-69599500D01*
X184178260Y-69599500D01*
X183211740Y-69599500D01*
X183211739Y-69599500D01*
X183143611Y-69609425D01*
X183143601Y-69609429D01*
X183114458Y-69623676D01*
X183045585Y-69635434D01*
X183005542Y-69623676D01*
X182976398Y-69609429D01*
X182976388Y-69609425D01*
X182908261Y-69599500D01*
X182908260Y-69599500D01*
X181941740Y-69599500D01*
X181941739Y-69599500D01*
X181873611Y-69609425D01*
X181873601Y-69609429D01*
X181844458Y-69623676D01*
X181775585Y-69635434D01*
X181735542Y-69623676D01*
X181706398Y-69609429D01*
X181706388Y-69609425D01*
X181638261Y-69599500D01*
X181638260Y-69599500D01*
X180671740Y-69599500D01*
X180671739Y-69599500D01*
X180603611Y-69609425D01*
X180603601Y-69609429D01*
X180574458Y-69623676D01*
X180505585Y-69635434D01*
X180465542Y-69623676D01*
X180436398Y-69609429D01*
X180436388Y-69609425D01*
X180368261Y-69599500D01*
X180368260Y-69599500D01*
X179401740Y-69599500D01*
X179401739Y-69599500D01*
X179333611Y-69609425D01*
X179333601Y-69609429D01*
X179304458Y-69623676D01*
X179235585Y-69635434D01*
X179195542Y-69623676D01*
X179166398Y-69609429D01*
X179166388Y-69609425D01*
X179098261Y-69599500D01*
X179098260Y-69599500D01*
X178131740Y-69599500D01*
X178131739Y-69599500D01*
X178063611Y-69609425D01*
X178063601Y-69609429D01*
X178034458Y-69623676D01*
X177965585Y-69635434D01*
X177925542Y-69623676D01*
X177896398Y-69609429D01*
X177896388Y-69609425D01*
X177828261Y-69599500D01*
X177828260Y-69599500D01*
X176861740Y-69599500D01*
X176861739Y-69599500D01*
X176793611Y-69609425D01*
X176793601Y-69609429D01*
X176764458Y-69623676D01*
X176695585Y-69635434D01*
X176655542Y-69623676D01*
X176626398Y-69609429D01*
X176626388Y-69609425D01*
X176558261Y-69599500D01*
X176558260Y-69599500D01*
X175591740Y-69599500D01*
X175591739Y-69599500D01*
X175523611Y-69609425D01*
X175523601Y-69609429D01*
X175494458Y-69623676D01*
X175425585Y-69635434D01*
X175385542Y-69623676D01*
X175356398Y-69609429D01*
X175356388Y-69609425D01*
X175288261Y-69599500D01*
X175288260Y-69599500D01*
X174511229Y-69599500D01*
X174444190Y-69579815D01*
X174398435Y-69527011D01*
X174388491Y-69457853D01*
X174417516Y-69394297D01*
X174423548Y-69387819D01*
X174444628Y-69366739D01*
X174490477Y-69320890D01*
X174504478Y-69298608D01*
X174580452Y-69177697D01*
X174580454Y-69177694D01*
X174580454Y-69177692D01*
X174580456Y-69177690D01*
X174636313Y-69018059D01*
X174636313Y-69018058D01*
X174636314Y-69018056D01*
X174655249Y-68850002D01*
X174655249Y-68849997D01*
X174636314Y-68681943D01*
X174580454Y-68522305D01*
X174580452Y-68522302D01*
X174490481Y-68379115D01*
X174490476Y-68379109D01*
X174370890Y-68259523D01*
X174370884Y-68259518D01*
X174227697Y-68169547D01*
X174227694Y-68169545D01*
X174068056Y-68113685D01*
X173900003Y-68094751D01*
X173899997Y-68094751D01*
X173731943Y-68113685D01*
X173572307Y-68169545D01*
X173423349Y-68263142D01*
X173356112Y-68282142D01*
X173289277Y-68261774D01*
X173269696Y-68245829D01*
X173183390Y-68159523D01*
X173183384Y-68159518D01*
X173040197Y-68069547D01*
X173040194Y-68069545D01*
X172880556Y-68013685D01*
X172712503Y-67994751D01*
X172712496Y-67994751D01*
X172665656Y-68000028D01*
X172596834Y-67987973D01*
X172564095Y-67964491D01*
X172419114Y-67819511D01*
X172368826Y-67790477D01*
X172316388Y-67760201D01*
X172304280Y-67756957D01*
X172292173Y-67753713D01*
X172292170Y-67753712D01*
X172253978Y-67743478D01*
X172201809Y-67729500D01*
X172201808Y-67729500D01*
X171712515Y-67729500D01*
X171645476Y-67709815D01*
X171599721Y-67657011D01*
X171594009Y-67637623D01*
X171593416Y-67637807D01*
X171590574Y-67628610D01*
X171590573Y-67628607D01*
X171576323Y-67599459D01*
X171564564Y-67530589D01*
X171576322Y-67490542D01*
X171590573Y-67461393D01*
X171600500Y-67393260D01*
X171600500Y-66426740D01*
X171590573Y-66358607D01*
X171576323Y-66329458D01*
X171564564Y-66260589D01*
X171576322Y-66220542D01*
X171590573Y-66191393D01*
X171600500Y-66123260D01*
X171600500Y-65156740D01*
X171590573Y-65088607D01*
X171576323Y-65059458D01*
X171564564Y-64990589D01*
X171576322Y-64950542D01*
X171590573Y-64921393D01*
X171600500Y-64853260D01*
X171600500Y-63886740D01*
X171590573Y-63818607D01*
X171576323Y-63789458D01*
X171564564Y-63720589D01*
X171576322Y-63680542D01*
X171590573Y-63651393D01*
X171600500Y-63583260D01*
X171600500Y-62616740D01*
X171590573Y-62548607D01*
X171576323Y-62519458D01*
X171564564Y-62450589D01*
X171576322Y-62410542D01*
X171590573Y-62381393D01*
X171593690Y-62360000D01*
X175700000Y-62360000D01*
X175700000Y-62529702D01*
X175711602Y-62588033D01*
X175711603Y-62588034D01*
X175755808Y-62654191D01*
X175821965Y-62698396D01*
X175821966Y-62698397D01*
X175880297Y-62709999D01*
X175880301Y-62710000D01*
X176050000Y-62710000D01*
X176050000Y-62360000D01*
X175700000Y-62360000D01*
X171593690Y-62360000D01*
X171600500Y-62313260D01*
X171600500Y-61760000D01*
X175700000Y-61760000D01*
X176050000Y-61760000D01*
X176050000Y-61434000D01*
X176069685Y-61366961D01*
X176122489Y-61321206D01*
X176174000Y-61310000D01*
X176526000Y-61310000D01*
X176593039Y-61329685D01*
X176638794Y-61382489D01*
X176650000Y-61434000D01*
X176650000Y-62710000D01*
X176819699Y-62710000D01*
X176819702Y-62709999D01*
X176878033Y-62698397D01*
X176878034Y-62698396D01*
X176944191Y-62654192D01*
X176946896Y-62650144D01*
X177000507Y-62605337D01*
X177069832Y-62596628D01*
X177132860Y-62626781D01*
X177153104Y-62650144D01*
X177155808Y-62654192D01*
X177221965Y-62698396D01*
X177221966Y-62698397D01*
X177280297Y-62709999D01*
X177280301Y-62710000D01*
X177450000Y-62710000D01*
X177450000Y-61884000D01*
X177469685Y-61816961D01*
X177522489Y-61771206D01*
X177574000Y-61760000D01*
X177926000Y-61760000D01*
X177993039Y-61779685D01*
X178038794Y-61832489D01*
X178050000Y-61884000D01*
X178050000Y-62710000D01*
X178219699Y-62710000D01*
X178219702Y-62709999D01*
X178278033Y-62698397D01*
X178278034Y-62698396D01*
X178344191Y-62654192D01*
X178346896Y-62650144D01*
X178400507Y-62605337D01*
X178469832Y-62596628D01*
X178532860Y-62626781D01*
X178553104Y-62650144D01*
X178555808Y-62654192D01*
X178621965Y-62698396D01*
X178621966Y-62698397D01*
X178680297Y-62709999D01*
X178680301Y-62710000D01*
X178850000Y-62710000D01*
X178850000Y-62360000D01*
X179450000Y-62360000D01*
X179450000Y-62710000D01*
X179619699Y-62710000D01*
X179619702Y-62709999D01*
X179678033Y-62698397D01*
X179678034Y-62698396D01*
X179744191Y-62654191D01*
X179788396Y-62588034D01*
X179788397Y-62588033D01*
X179799999Y-62529702D01*
X179800000Y-62529699D01*
X179800000Y-62360000D01*
X179450000Y-62360000D01*
X178850000Y-62360000D01*
X178850000Y-61884000D01*
X178869685Y-61816961D01*
X178922489Y-61771206D01*
X178974000Y-61760000D01*
X179800000Y-61760000D01*
X179800000Y-61590301D01*
X179799999Y-61590297D01*
X179788397Y-61531966D01*
X179788396Y-61531965D01*
X179744192Y-61465808D01*
X179740144Y-61463104D01*
X179695337Y-61409493D01*
X179686628Y-61340168D01*
X179716781Y-61277140D01*
X179740144Y-61256896D01*
X179744192Y-61254191D01*
X179788396Y-61188034D01*
X179788397Y-61188033D01*
X179799999Y-61129702D01*
X179800000Y-61129699D01*
X179800000Y-60960000D01*
X178974000Y-60960000D01*
X178906961Y-60940315D01*
X178861206Y-60887511D01*
X178850000Y-60836000D01*
X178850000Y-60484000D01*
X178869685Y-60416961D01*
X178922489Y-60371206D01*
X178974000Y-60360000D01*
X179800000Y-60360000D01*
X179800000Y-60190301D01*
X179799999Y-60190297D01*
X179788397Y-60131966D01*
X179788396Y-60131965D01*
X179744192Y-60065808D01*
X179740144Y-60063104D01*
X179695337Y-60009493D01*
X179686628Y-59940168D01*
X179716781Y-59877140D01*
X179740144Y-59856896D01*
X179744192Y-59854191D01*
X179788396Y-59788034D01*
X179788397Y-59788033D01*
X179799999Y-59729702D01*
X179800000Y-59729699D01*
X179800000Y-59560000D01*
X178974000Y-59560000D01*
X178906961Y-59540315D01*
X178861206Y-59487511D01*
X178850000Y-59436000D01*
X178850000Y-58610000D01*
X179450000Y-58610000D01*
X179450000Y-58960000D01*
X179800000Y-58960000D01*
X179800000Y-58790301D01*
X179799999Y-58790297D01*
X179788397Y-58731966D01*
X179788396Y-58731965D01*
X179744191Y-58665808D01*
X179678034Y-58621603D01*
X179678033Y-58621602D01*
X179619702Y-58610000D01*
X179450000Y-58610000D01*
X178850000Y-58610000D01*
X178680297Y-58610000D01*
X178621966Y-58621602D01*
X178621965Y-58621603D01*
X178555809Y-58665807D01*
X178553102Y-58669859D01*
X178499489Y-58714663D01*
X178430164Y-58723370D01*
X178367137Y-58693215D01*
X178346898Y-58669859D01*
X178344190Y-58665807D01*
X178278034Y-58621603D01*
X178278033Y-58621602D01*
X178219702Y-58610000D01*
X178050000Y-58610000D01*
X178050000Y-59436000D01*
X178030315Y-59503039D01*
X177977511Y-59548794D01*
X177926000Y-59560000D01*
X177124000Y-59560000D01*
X177056961Y-59540315D01*
X177011206Y-59487511D01*
X177000000Y-59436000D01*
X177000000Y-59084000D01*
X177019685Y-59016961D01*
X177072489Y-58971206D01*
X177124000Y-58960000D01*
X177450000Y-58960000D01*
X177450000Y-58610000D01*
X177280297Y-58610000D01*
X177221966Y-58621602D01*
X177221965Y-58621603D01*
X177155809Y-58665807D01*
X177153102Y-58669859D01*
X177099489Y-58714663D01*
X177030164Y-58723370D01*
X176967137Y-58693215D01*
X176946898Y-58669859D01*
X176944190Y-58665807D01*
X176878034Y-58621603D01*
X176878033Y-58621602D01*
X176819702Y-58610000D01*
X176650000Y-58610000D01*
X176650000Y-59436000D01*
X176630315Y-59503039D01*
X176577511Y-59548794D01*
X176526000Y-59560000D01*
X175700000Y-59560000D01*
X175700000Y-59729702D01*
X175711602Y-59788033D01*
X175711603Y-59788034D01*
X175755807Y-59854190D01*
X175759859Y-59856898D01*
X175804663Y-59910511D01*
X175813370Y-59979836D01*
X175783215Y-60042863D01*
X175759859Y-60063102D01*
X175755807Y-60065809D01*
X175711603Y-60131965D01*
X175711602Y-60131966D01*
X175700000Y-60190297D01*
X175700000Y-60360000D01*
X176526000Y-60360000D01*
X176593039Y-60379685D01*
X176638794Y-60432489D01*
X176650000Y-60484000D01*
X176650000Y-60836000D01*
X176630315Y-60903039D01*
X176577511Y-60948794D01*
X176526000Y-60960000D01*
X175700000Y-60960000D01*
X175700000Y-61129702D01*
X175711602Y-61188033D01*
X175711603Y-61188034D01*
X175755807Y-61254190D01*
X175759859Y-61256898D01*
X175804663Y-61310511D01*
X175813370Y-61379836D01*
X175783215Y-61442863D01*
X175759859Y-61463102D01*
X175755807Y-61465809D01*
X175711603Y-61531965D01*
X175711602Y-61531966D01*
X175700000Y-61590297D01*
X175700000Y-61760000D01*
X171600500Y-61760000D01*
X171600500Y-61346740D01*
X171599542Y-61340168D01*
X171595147Y-61310000D01*
X171590573Y-61278607D01*
X171576323Y-61249458D01*
X171564564Y-61180589D01*
X171576322Y-61140542D01*
X171590573Y-61111393D01*
X171600500Y-61043260D01*
X171600500Y-60076740D01*
X171590573Y-60008607D01*
X171576323Y-59979458D01*
X171564564Y-59910589D01*
X171576322Y-59870542D01*
X171590573Y-59841393D01*
X171600500Y-59773260D01*
X171600500Y-58960000D01*
X175700000Y-58960000D01*
X176050000Y-58960000D01*
X176050000Y-58610000D01*
X175880297Y-58610000D01*
X175821966Y-58621602D01*
X175821965Y-58621603D01*
X175755808Y-58665808D01*
X175711603Y-58731965D01*
X175711602Y-58731966D01*
X175700000Y-58790297D01*
X175700000Y-58960000D01*
X171600500Y-58960000D01*
X171600500Y-58806740D01*
X171590573Y-58738607D01*
X171576323Y-58709458D01*
X171564564Y-58640589D01*
X171576325Y-58600537D01*
X171593681Y-58565037D01*
X171640810Y-58513456D01*
X171705080Y-58495500D01*
X172532771Y-58495500D01*
X172599810Y-58515185D01*
X172620452Y-58531819D01*
X172679109Y-58590476D01*
X172679115Y-58590481D01*
X172822302Y-58680452D01*
X172822305Y-58680454D01*
X172822309Y-58680455D01*
X172822310Y-58680456D01*
X172894913Y-58705860D01*
X172981943Y-58736314D01*
X173149997Y-58755249D01*
X173150000Y-58755249D01*
X173150003Y-58755249D01*
X173318056Y-58736314D01*
X173330548Y-58731943D01*
X173477690Y-58680456D01*
X173477692Y-58680454D01*
X173477694Y-58680454D01*
X173477697Y-58680452D01*
X173620884Y-58590481D01*
X173620885Y-58590480D01*
X173620890Y-58590477D01*
X173740477Y-58470890D01*
X173767622Y-58427690D01*
X173830452Y-58327697D01*
X173830454Y-58327694D01*
X173830454Y-58327692D01*
X173830456Y-58327690D01*
X173886313Y-58168059D01*
X173886313Y-58168058D01*
X173886314Y-58168056D01*
X173905249Y-58000002D01*
X173905249Y-57999997D01*
X173886314Y-57831943D01*
X173830454Y-57672305D01*
X173830452Y-57672302D01*
X173740481Y-57529115D01*
X173740476Y-57529109D01*
X173620890Y-57409523D01*
X173620884Y-57409518D01*
X173477697Y-57319547D01*
X173477694Y-57319545D01*
X173318056Y-57263685D01*
X173150003Y-57244751D01*
X173149997Y-57244751D01*
X172981940Y-57263686D01*
X172981935Y-57263687D01*
X172972436Y-57267011D01*
X172902657Y-57270570D01*
X172842031Y-57235838D01*
X172809807Y-57173843D01*
X172816215Y-57104268D01*
X172826497Y-57083990D01*
X172829319Y-57079500D01*
X172830456Y-57077690D01*
X172886313Y-56918059D01*
X172886313Y-56918058D01*
X172886314Y-56918056D01*
X172905249Y-56750002D01*
X172905249Y-56749997D01*
X172886314Y-56581943D01*
X172830454Y-56422305D01*
X172830452Y-56422302D01*
X172740481Y-56279115D01*
X172740476Y-56279109D01*
X172674048Y-56212681D01*
X172640563Y-56151358D01*
X172645547Y-56081666D01*
X172674048Y-56037319D01*
X172705682Y-56005685D01*
X172740477Y-55970890D01*
X172740538Y-55970793D01*
X172830452Y-55827697D01*
X172830454Y-55827694D01*
X172830454Y-55827692D01*
X172830456Y-55827690D01*
X172886313Y-55668059D01*
X172886313Y-55668058D01*
X172886314Y-55668056D01*
X172905249Y-55500002D01*
X172905249Y-55499997D01*
X172886314Y-55331943D01*
X172842621Y-55207076D01*
X172830456Y-55172310D01*
X172830455Y-55172309D01*
X172830454Y-55172305D01*
X172830452Y-55172302D01*
X172740481Y-55029115D01*
X172740476Y-55029109D01*
X172620890Y-54909523D01*
X172620884Y-54909518D01*
X172477697Y-54819547D01*
X172477694Y-54819545D01*
X172318056Y-54763685D01*
X172150003Y-54744751D01*
X172149997Y-54744751D01*
X171981943Y-54763685D01*
X171822305Y-54819545D01*
X171822304Y-54819546D01*
X171785288Y-54842805D01*
X171718051Y-54861805D01*
X171651216Y-54841437D01*
X171606003Y-54788168D01*
X171596613Y-54719934D01*
X171600500Y-54693260D01*
X171600500Y-53726740D01*
X171590573Y-53658607D01*
X171539198Y-53553517D01*
X171539196Y-53553515D01*
X171539196Y-53553514D01*
X171486319Y-53500637D01*
X171452834Y-53439314D01*
X171450000Y-53412956D01*
X171450000Y-53240000D01*
X169550000Y-53240000D01*
X169550000Y-53412956D01*
X169530315Y-53479995D01*
X169513681Y-53500637D01*
X169460802Y-53553515D01*
X169460800Y-53553517D01*
X169447874Y-53579960D01*
X169400746Y-53631543D01*
X169336474Y-53649500D01*
X168930847Y-53649500D01*
X168863808Y-53629815D01*
X168818053Y-53577011D01*
X168816286Y-53572953D01*
X168811896Y-53562354D01*
X168774536Y-53472159D01*
X168678282Y-53346718D01*
X168552841Y-53250464D01*
X168406762Y-53189956D01*
X168406760Y-53189955D01*
X168289361Y-53174500D01*
X167710636Y-53174500D01*
X167593246Y-53189953D01*
X167593237Y-53189956D01*
X167447160Y-53250463D01*
X167321718Y-53346718D01*
X167225463Y-53472160D01*
X167164956Y-53618237D01*
X167164955Y-53618239D01*
X167149501Y-53735629D01*
X167149500Y-53735645D01*
X167149500Y-54764363D01*
X167164953Y-54881753D01*
X167164956Y-54881762D01*
X167219819Y-55014214D01*
X167225464Y-55027841D01*
X167321718Y-55153282D01*
X167350987Y-55175740D01*
X167392189Y-55232165D01*
X167399500Y-55274115D01*
X167399500Y-55475883D01*
X167379815Y-55542922D01*
X167350987Y-55574258D01*
X167321721Y-55596714D01*
X167225463Y-55722160D01*
X167164956Y-55868237D01*
X167164955Y-55868239D01*
X167149501Y-55985629D01*
X167149501Y-55985636D01*
X167149500Y-55985645D01*
X167149500Y-57014363D01*
X167164953Y-57131753D01*
X167164956Y-57131762D01*
X167188103Y-57187645D01*
X167225464Y-57277841D01*
X167321718Y-57403282D01*
X167350987Y-57425740D01*
X167392189Y-57482165D01*
X167399500Y-57524115D01*
X167399500Y-57609336D01*
X167380494Y-57675308D01*
X167319545Y-57772307D01*
X167263685Y-57931943D01*
X167244751Y-58099997D01*
X167244751Y-58100002D01*
X167263685Y-58268056D01*
X167284554Y-58327694D01*
X167319544Y-58427690D01*
X167319545Y-58427691D01*
X167323529Y-58434033D01*
X167342525Y-58501270D01*
X167323529Y-58565967D01*
X167323523Y-58565977D01*
X167319544Y-58572310D01*
X167313187Y-58590477D01*
X167263685Y-58731943D01*
X167244751Y-58899997D01*
X167244751Y-58900002D01*
X167263685Y-59068056D01*
X167294346Y-59155679D01*
X167319544Y-59227690D01*
X167319545Y-59227691D01*
X167323529Y-59234033D01*
X167342525Y-59301270D01*
X167323529Y-59365967D01*
X167323523Y-59365977D01*
X167319544Y-59372310D01*
X167309067Y-59402250D01*
X167263685Y-59531943D01*
X167244751Y-59699997D01*
X167244751Y-59700002D01*
X167263685Y-59868056D01*
X167319545Y-60027694D01*
X167319547Y-60027697D01*
X167409518Y-60170884D01*
X167409523Y-60170890D01*
X167529109Y-60290476D01*
X167529115Y-60290481D01*
X167672302Y-60380452D01*
X167672305Y-60380454D01*
X167672309Y-60380455D01*
X167672310Y-60380456D01*
X167831941Y-60436313D01*
X167832457Y-60436371D01*
X167833941Y-60436539D01*
X167835145Y-60437045D01*
X167838729Y-60437863D01*
X167838585Y-60438490D01*
X167898354Y-60463606D01*
X167937909Y-60521201D01*
X167940046Y-60591038D01*
X167907737Y-60647440D01*
X167799294Y-60755883D01*
X167737971Y-60789368D01*
X167697731Y-60791422D01*
X167682668Y-60789725D01*
X167682661Y-60789725D01*
X167514607Y-60808659D01*
X167354969Y-60864519D01*
X167354966Y-60864521D01*
X167211779Y-60954492D01*
X167211773Y-60954497D01*
X167092187Y-61074083D01*
X167092182Y-61074089D01*
X167002211Y-61217276D01*
X167002209Y-61217279D01*
X166946349Y-61376917D01*
X166927415Y-61544971D01*
X166927415Y-61544976D01*
X166946349Y-61713030D01*
X167002209Y-61872668D01*
X167002211Y-61872671D01*
X167092182Y-62015858D01*
X167092187Y-62015864D01*
X167211773Y-62135450D01*
X167211779Y-62135455D01*
X167354966Y-62225426D01*
X167354972Y-62225429D01*
X167354974Y-62225430D01*
X167491354Y-62273151D01*
X167514608Y-62281288D01*
X167553112Y-62285626D01*
X167617526Y-62312692D01*
X167657082Y-62370286D01*
X167662450Y-62394962D01*
X167670685Y-62468055D01*
X167726545Y-62627694D01*
X167726547Y-62627697D01*
X167816518Y-62770884D01*
X167816523Y-62770890D01*
X167936109Y-62890476D01*
X167936115Y-62890481D01*
X168079302Y-62980452D01*
X168079305Y-62980454D01*
X168079309Y-62980455D01*
X168079310Y-62980456D01*
X168151913Y-63005860D01*
X168238943Y-63036314D01*
X168406997Y-63055249D01*
X168407000Y-63055249D01*
X168407003Y-63055249D01*
X168575056Y-63036314D01*
X168575059Y-63036313D01*
X168734690Y-62980456D01*
X168734692Y-62980454D01*
X168734694Y-62980454D01*
X168734697Y-62980452D01*
X168877884Y-62890481D01*
X168877885Y-62890480D01*
X168877890Y-62890477D01*
X168997477Y-62770890D01*
X169043028Y-62698397D01*
X169087452Y-62627697D01*
X169087454Y-62627694D01*
X169087454Y-62627692D01*
X169087456Y-62627690D01*
X169143313Y-62468059D01*
X169143313Y-62468057D01*
X169143314Y-62468055D01*
X169154330Y-62370286D01*
X169157370Y-62343299D01*
X169184436Y-62278886D01*
X169185721Y-62278003D01*
X169156523Y-62232570D01*
X169152280Y-62211519D01*
X169143314Y-62131943D01*
X169087454Y-61972305D01*
X169087452Y-61972302D01*
X168997481Y-61829115D01*
X168993136Y-61823667D01*
X168994758Y-61822372D01*
X168966108Y-61769903D01*
X168971092Y-61700211D01*
X168999589Y-61655869D01*
X169187820Y-61467638D01*
X169249142Y-61434154D01*
X169318834Y-61439138D01*
X169374767Y-61481010D01*
X169399184Y-61546474D01*
X169399500Y-61555320D01*
X169399500Y-62197635D01*
X169379815Y-62264674D01*
X169370744Y-62272533D01*
X169371774Y-62273151D01*
X169402730Y-62335788D01*
X169403294Y-62339304D01*
X169409426Y-62381388D01*
X169409429Y-62381398D01*
X169423676Y-62410542D01*
X169435434Y-62479415D01*
X169423676Y-62519458D01*
X169409429Y-62548601D01*
X169409425Y-62548611D01*
X169399500Y-62616739D01*
X169399500Y-63583260D01*
X169409425Y-63651388D01*
X169409429Y-63651398D01*
X169423676Y-63680542D01*
X169435434Y-63749415D01*
X169423677Y-63789456D01*
X169409427Y-63818607D01*
X169409426Y-63818608D01*
X169406323Y-63824958D01*
X169359196Y-63876541D01*
X169294921Y-63894500D01*
X168329145Y-63894500D01*
X168262106Y-63874815D01*
X168218145Y-63825772D01*
X168145827Y-63680538D01*
X168139673Y-63668179D01*
X168016764Y-63505421D01*
X168016762Y-63505418D01*
X167866041Y-63368019D01*
X167866039Y-63368017D01*
X167692642Y-63260655D01*
X167692635Y-63260651D01*
X167597546Y-63223814D01*
X167502456Y-63186976D01*
X167301976Y-63149500D01*
X167098024Y-63149500D01*
X166897544Y-63186976D01*
X166897541Y-63186976D01*
X166897541Y-63186977D01*
X166707364Y-63260651D01*
X166707357Y-63260655D01*
X166533960Y-63368017D01*
X166533958Y-63368019D01*
X166383237Y-63505418D01*
X166260327Y-63668178D01*
X166169422Y-63850739D01*
X166169417Y-63850752D01*
X166113602Y-64046917D01*
X166094785Y-64249999D01*
X166094785Y-64250000D01*
X166113602Y-64453082D01*
X166169417Y-64649247D01*
X166169422Y-64649260D01*
X166260327Y-64831821D01*
X166383237Y-64994581D01*
X166533958Y-65131980D01*
X166533960Y-65131982D01*
X166665777Y-65213599D01*
X166712413Y-65265627D01*
X166724500Y-65319026D01*
X166724500Y-68510573D01*
X166704815Y-68577612D01*
X166652011Y-68623367D01*
X166647962Y-68625130D01*
X166647167Y-68625459D01*
X166647158Y-68625464D01*
X166521719Y-68721716D01*
X166425463Y-68847160D01*
X166364956Y-68993237D01*
X166364955Y-68993239D01*
X166349501Y-69110629D01*
X166349501Y-69110636D01*
X166349500Y-69110645D01*
X166349500Y-70089363D01*
X166364953Y-70206753D01*
X166364956Y-70206762D01*
X166388103Y-70262645D01*
X166425464Y-70352841D01*
X166521718Y-70478282D01*
X166647159Y-70574536D01*
X166660452Y-70580042D01*
X166714855Y-70623881D01*
X166736921Y-70690175D01*
X166737000Y-70694603D01*
X166737000Y-73025637D01*
X166717315Y-73092676D01*
X166700681Y-73113318D01*
X166361681Y-73452318D01*
X166300358Y-73485803D01*
X166230666Y-73480819D01*
X166174733Y-73438947D01*
X166150316Y-73373483D01*
X166150000Y-73364637D01*
X166150000Y-72700000D01*
X165675000Y-72700000D01*
X165675000Y-73949999D01*
X165681819Y-73956818D01*
X165715304Y-74018141D01*
X165710320Y-74087833D01*
X165681819Y-74132180D01*
X165380675Y-74433325D01*
X165319352Y-74466810D01*
X165292994Y-74469644D01*
X164708054Y-74469644D01*
X164639923Y-74479570D01*
X164534829Y-74530947D01*
X164452118Y-74613658D01*
X164400741Y-74718752D01*
X164390815Y-74786883D01*
X164390815Y-75453404D01*
X164400741Y-75521535D01*
X164415408Y-75551537D01*
X164452117Y-75626627D01*
X164504997Y-75679507D01*
X164538481Y-75740828D01*
X164541315Y-75767187D01*
X164541315Y-75770144D01*
X164696673Y-75770144D01*
X164705641Y-75770469D01*
X164708054Y-75770644D01*
X164708055Y-75770644D01*
X166024576Y-75770644D01*
X166026989Y-75770469D01*
X166035957Y-75770144D01*
X166191315Y-75770144D01*
X166191315Y-75767187D01*
X166211000Y-75700148D01*
X166227629Y-75679510D01*
X166280513Y-75626627D01*
X166331888Y-75521537D01*
X166341815Y-75453404D01*
X166341815Y-74868464D01*
X166361500Y-74801425D01*
X166378129Y-74780787D01*
X167323649Y-73835267D01*
X167384970Y-73801784D01*
X167454661Y-73806768D01*
X167509703Y-73847462D01*
X167571718Y-73928282D01*
X167675986Y-74008289D01*
X167717189Y-74064717D01*
X167724500Y-74106665D01*
X167724500Y-74345644D01*
X167704815Y-74412683D01*
X167652011Y-74458438D01*
X167600500Y-74469644D01*
X167208054Y-74469644D01*
X167139923Y-74479570D01*
X167034829Y-74530947D01*
X166952118Y-74613658D01*
X166900741Y-74718752D01*
X166890815Y-74786883D01*
X166890815Y-75453404D01*
X166900741Y-75521536D01*
X166900742Y-75521540D01*
X166910102Y-75540686D01*
X166921860Y-75609559D01*
X166910102Y-75649602D01*
X166900742Y-75668747D01*
X166900741Y-75668751D01*
X166890815Y-75736883D01*
X166890815Y-76403404D01*
X166900741Y-76471536D01*
X166900742Y-76471540D01*
X166910102Y-76490686D01*
X166921860Y-76559559D01*
X166910102Y-76599602D01*
X166900742Y-76618747D01*
X166900741Y-76618751D01*
X166890815Y-76686883D01*
X166890815Y-77353404D01*
X166900741Y-77421535D01*
X166952118Y-77526629D01*
X167034829Y-77609340D01*
X167034830Y-77609340D01*
X167034832Y-77609342D01*
X167139922Y-77660717D01*
X167159682Y-77663596D01*
X167208054Y-77670644D01*
X167208055Y-77670644D01*
X167616218Y-77670644D01*
X167683257Y-77690329D01*
X167703899Y-77706963D01*
X167779496Y-77782560D01*
X167812981Y-77843883D01*
X167815815Y-77870241D01*
X167815815Y-77882175D01*
X167796130Y-77949214D01*
X167743326Y-77994969D01*
X167674168Y-78004913D01*
X167650862Y-77999217D01*
X167575922Y-77972995D01*
X167575915Y-77972994D01*
X167545522Y-77970144D01*
X167316315Y-77970144D01*
X167316315Y-79370143D01*
X167545511Y-79370143D01*
X167575922Y-79367291D01*
X167575924Y-79367291D01*
X167673452Y-79333165D01*
X167743231Y-79329603D01*
X167803858Y-79364331D01*
X167834180Y-79418109D01*
X167842157Y-79447876D01*
X167856738Y-79502293D01*
X167866962Y-79520002D01*
X167866964Y-79520004D01*
X167916335Y-79605519D01*
X167932806Y-79673419D01*
X167909954Y-79739446D01*
X167855032Y-79782636D01*
X167785479Y-79789277D01*
X167761494Y-79782079D01*
X167745147Y-79775308D01*
X167648077Y-79735100D01*
X167648075Y-79735099D01*
X167530685Y-79719645D01*
X167530682Y-79719644D01*
X167530676Y-79719644D01*
X167530669Y-79719644D01*
X167066412Y-79719644D01*
X166999373Y-79699959D01*
X166978731Y-79683325D01*
X166752634Y-79457228D01*
X166719149Y-79395905D01*
X166716315Y-79369547D01*
X166716315Y-77970144D01*
X166487119Y-77970144D01*
X166456708Y-77972995D01*
X166328669Y-78017797D01*
X166219522Y-78098351D01*
X166190585Y-78137561D01*
X166134937Y-78179812D01*
X166065281Y-78185270D01*
X166003732Y-78152202D01*
X165969831Y-78091108D01*
X165966815Y-78063927D01*
X165966815Y-77786301D01*
X165986500Y-77719262D01*
X166039304Y-77673507D01*
X166072933Y-77663598D01*
X166092708Y-77660717D01*
X166197798Y-77609342D01*
X166280513Y-77526627D01*
X166331888Y-77421537D01*
X166341815Y-77353404D01*
X166341815Y-76686884D01*
X166331888Y-76618751D01*
X166280513Y-76513661D01*
X166280511Y-76513659D01*
X166280511Y-76513658D01*
X166227634Y-76460781D01*
X166194149Y-76399458D01*
X166191315Y-76373100D01*
X166191315Y-76370144D01*
X166035957Y-76370144D01*
X166026989Y-76369819D01*
X166024576Y-76369644D01*
X166024575Y-76369644D01*
X164708055Y-76369644D01*
X164708054Y-76369644D01*
X164705641Y-76369819D01*
X164696673Y-76370144D01*
X164541315Y-76370144D01*
X164541315Y-76373100D01*
X164521630Y-76440139D01*
X164504996Y-76460781D01*
X164452118Y-76513658D01*
X164400741Y-76618752D01*
X164390815Y-76686883D01*
X164390815Y-77353404D01*
X160700500Y-77353404D01*
X160700500Y-72700000D01*
X164600001Y-72700000D01*
X164600001Y-73554196D01*
X164602851Y-73584606D01*
X164647653Y-73712645D01*
X164728207Y-73821792D01*
X164837354Y-73902346D01*
X164965397Y-73947149D01*
X164995778Y-73949998D01*
X164995806Y-73949999D01*
X165074999Y-73949998D01*
X165075000Y-73949998D01*
X165075000Y-72700000D01*
X164600001Y-72700000D01*
X160700500Y-72700000D01*
X160700500Y-72100000D01*
X164600000Y-72100000D01*
X165075000Y-72100000D01*
X165075000Y-70850000D01*
X165675000Y-70850000D01*
X165675000Y-72100000D01*
X166149999Y-72100000D01*
X166149999Y-71245803D01*
X166147148Y-71215393D01*
X166102346Y-71087354D01*
X166021792Y-70978207D01*
X165912645Y-70897653D01*
X165784602Y-70852850D01*
X165754207Y-70850000D01*
X165675000Y-70850000D01*
X165075000Y-70850000D01*
X165074999Y-70849999D01*
X164995804Y-70850000D01*
X164965393Y-70852851D01*
X164837354Y-70897653D01*
X164728207Y-70978207D01*
X164647653Y-71087354D01*
X164602850Y-71215395D01*
X164602850Y-71215399D01*
X164600000Y-71245793D01*
X164600000Y-72100000D01*
X160700500Y-72100000D01*
X160700500Y-69900000D01*
X164675001Y-69900000D01*
X164675001Y-70104196D01*
X164677851Y-70134606D01*
X164722653Y-70262645D01*
X164803207Y-70371792D01*
X164912354Y-70452346D01*
X165040397Y-70497149D01*
X165070779Y-70499998D01*
X165070804Y-70499999D01*
X165087500Y-70499998D01*
X165087500Y-69900000D01*
X165687500Y-69900000D01*
X165687500Y-70499999D01*
X165704196Y-70499999D01*
X165734606Y-70497148D01*
X165862645Y-70452346D01*
X165971792Y-70371792D01*
X166052346Y-70262645D01*
X166097149Y-70134604D01*
X166097149Y-70134600D01*
X166100000Y-70104206D01*
X166100000Y-69900000D01*
X165687500Y-69900000D01*
X165087500Y-69900000D01*
X164675001Y-69900000D01*
X160700500Y-69900000D01*
X160700500Y-69300000D01*
X164675000Y-69300000D01*
X165087500Y-69300000D01*
X165087500Y-68700000D01*
X165687500Y-68700000D01*
X165687500Y-69300000D01*
X166099999Y-69300000D01*
X166099999Y-69095803D01*
X166097148Y-69065393D01*
X166052346Y-68937354D01*
X165971792Y-68828207D01*
X165862645Y-68747653D01*
X165734602Y-68702850D01*
X165704207Y-68700000D01*
X165687500Y-68700000D01*
X165087500Y-68700000D01*
X165087500Y-68699999D01*
X165070804Y-68700000D01*
X165040393Y-68702851D01*
X164912354Y-68747653D01*
X164803207Y-68828207D01*
X164722653Y-68937354D01*
X164677850Y-69065395D01*
X164677850Y-69065399D01*
X164675000Y-69095793D01*
X164675000Y-69300000D01*
X160700500Y-69300000D01*
X160700500Y-56800000D01*
X165400001Y-56800000D01*
X165400001Y-57029196D01*
X165402851Y-57059606D01*
X165447653Y-57187645D01*
X165528207Y-57296792D01*
X165637354Y-57377346D01*
X165765397Y-57422149D01*
X165795793Y-57424999D01*
X165799999Y-57424999D01*
X165800000Y-57424998D01*
X165800000Y-56800000D01*
X166400000Y-56800000D01*
X166400000Y-57424999D01*
X166404196Y-57424999D01*
X166434606Y-57422148D01*
X166562645Y-57377346D01*
X166671792Y-57296792D01*
X166752346Y-57187645D01*
X166797149Y-57059604D01*
X166797149Y-57059600D01*
X166800000Y-57029206D01*
X166800000Y-56800000D01*
X166400000Y-56800000D01*
X165800000Y-56800000D01*
X165400001Y-56800000D01*
X160700500Y-56800000D01*
X160700500Y-56200000D01*
X165400000Y-56200000D01*
X165800000Y-56200000D01*
X165800000Y-55575000D01*
X166400000Y-55575000D01*
X166400000Y-56200000D01*
X166799999Y-56200000D01*
X166799999Y-55970803D01*
X166797148Y-55940393D01*
X166752346Y-55812354D01*
X166671792Y-55703207D01*
X166562645Y-55622653D01*
X166434602Y-55577850D01*
X166404207Y-55575000D01*
X166400000Y-55575000D01*
X165800000Y-55575000D01*
X165795796Y-55575001D01*
X165795774Y-55575002D01*
X165765399Y-55577850D01*
X165765394Y-55577851D01*
X165637354Y-55622653D01*
X165528207Y-55703207D01*
X165447653Y-55812354D01*
X165402850Y-55940395D01*
X165402850Y-55940399D01*
X165400000Y-55970793D01*
X165400000Y-56200000D01*
X160700500Y-56200000D01*
X160700500Y-54550000D01*
X165400001Y-54550000D01*
X165400001Y-54779196D01*
X165402851Y-54809606D01*
X165447653Y-54937645D01*
X165528207Y-55046792D01*
X165637354Y-55127346D01*
X165765397Y-55172149D01*
X165795793Y-55174999D01*
X165799999Y-55174999D01*
X165800000Y-55174998D01*
X165800000Y-54550000D01*
X166400000Y-54550000D01*
X166400000Y-55174999D01*
X166404196Y-55174999D01*
X166434606Y-55172148D01*
X166562645Y-55127346D01*
X166671792Y-55046792D01*
X166752346Y-54937645D01*
X166797149Y-54809604D01*
X166797149Y-54809600D01*
X166800000Y-54779206D01*
X166800000Y-54550000D01*
X166400000Y-54550000D01*
X165800000Y-54550000D01*
X165400001Y-54550000D01*
X160700500Y-54550000D01*
X160700500Y-53950000D01*
X165400000Y-53950000D01*
X165800000Y-53950000D01*
X165800000Y-53325000D01*
X166400000Y-53325000D01*
X166400000Y-53950000D01*
X166799999Y-53950000D01*
X166799999Y-53720803D01*
X166797148Y-53690393D01*
X166752346Y-53562354D01*
X166671792Y-53453207D01*
X166562645Y-53372653D01*
X166434602Y-53327850D01*
X166404207Y-53325000D01*
X166400000Y-53325000D01*
X165800000Y-53325000D01*
X165795796Y-53325001D01*
X165795774Y-53325002D01*
X165765399Y-53327850D01*
X165765394Y-53327851D01*
X165637354Y-53372653D01*
X165528207Y-53453207D01*
X165447653Y-53562354D01*
X165402850Y-53690395D01*
X165402850Y-53690399D01*
X165400000Y-53720793D01*
X165400000Y-53950000D01*
X160700500Y-53950000D01*
X160700500Y-51700000D01*
X162394785Y-51700000D01*
X162413602Y-51903082D01*
X162469417Y-52099247D01*
X162469422Y-52099260D01*
X162560327Y-52281821D01*
X162683237Y-52444581D01*
X162833958Y-52581980D01*
X162833960Y-52581982D01*
X162927663Y-52640000D01*
X163007363Y-52689348D01*
X163197544Y-52763024D01*
X163398024Y-52800500D01*
X163398026Y-52800500D01*
X163601974Y-52800500D01*
X163601976Y-52800500D01*
X163802456Y-52763024D01*
X163992637Y-52689348D01*
X164072337Y-52640000D01*
X169550000Y-52640000D01*
X170200000Y-52640000D01*
X170200000Y-52290000D01*
X170800000Y-52290000D01*
X170800000Y-52640000D01*
X171450000Y-52640000D01*
X187050000Y-52640000D01*
X187700000Y-52640000D01*
X187700000Y-52290000D01*
X188300000Y-52290000D01*
X188300000Y-52640000D01*
X188950000Y-52640000D01*
X188950000Y-52470301D01*
X188949999Y-52470297D01*
X188938397Y-52411966D01*
X188938396Y-52411965D01*
X188894191Y-52345808D01*
X188828034Y-52301603D01*
X188828033Y-52301602D01*
X188769702Y-52290000D01*
X188300000Y-52290000D01*
X187700000Y-52290000D01*
X187230297Y-52290000D01*
X187171966Y-52301602D01*
X187171965Y-52301603D01*
X187105808Y-52345808D01*
X187061603Y-52411965D01*
X187061602Y-52411966D01*
X187050000Y-52470297D01*
X187050000Y-52640000D01*
X171450000Y-52640000D01*
X171450000Y-52470301D01*
X171449999Y-52470297D01*
X171438397Y-52411966D01*
X171438396Y-52411965D01*
X171394191Y-52345808D01*
X171328034Y-52301603D01*
X171328033Y-52301602D01*
X171269702Y-52290000D01*
X170800000Y-52290000D01*
X170200000Y-52290000D01*
X169730297Y-52290000D01*
X169671966Y-52301602D01*
X169671965Y-52301603D01*
X169605808Y-52345808D01*
X169561603Y-52411965D01*
X169561602Y-52411966D01*
X169550000Y-52470297D01*
X169550000Y-52640000D01*
X164072337Y-52640000D01*
X164166041Y-52581981D01*
X164316764Y-52444579D01*
X164439673Y-52281821D01*
X164530582Y-52099250D01*
X164586397Y-51903083D01*
X164605215Y-51700000D01*
X164586397Y-51496917D01*
X164530582Y-51300750D01*
X164439673Y-51118179D01*
X164316764Y-50955421D01*
X164316762Y-50955418D01*
X164166041Y-50818019D01*
X164166039Y-50818017D01*
X163992642Y-50710655D01*
X163992635Y-50710651D01*
X163897546Y-50673814D01*
X163802456Y-50636976D01*
X163601976Y-50599500D01*
X163398024Y-50599500D01*
X163197544Y-50636976D01*
X163197541Y-50636976D01*
X163197541Y-50636977D01*
X163007364Y-50710651D01*
X163007357Y-50710655D01*
X162833960Y-50818017D01*
X162833958Y-50818019D01*
X162683237Y-50955418D01*
X162560327Y-51118178D01*
X162469422Y-51300739D01*
X162469417Y-51300752D01*
X162413602Y-51496917D01*
X162394785Y-51699999D01*
X162394785Y-51700000D01*
X160700500Y-51700000D01*
X160700500Y-46700004D01*
X161794732Y-46700004D01*
X161813777Y-46954154D01*
X161813778Y-46954157D01*
X161870492Y-47202637D01*
X161963607Y-47439888D01*
X162091041Y-47660612D01*
X162249950Y-47859877D01*
X162436783Y-48033232D01*
X162647366Y-48176805D01*
X162647371Y-48176807D01*
X162647372Y-48176808D01*
X162647373Y-48176809D01*
X162769328Y-48235538D01*
X162876992Y-48287387D01*
X162876993Y-48287387D01*
X162876996Y-48287389D01*
X163120542Y-48362513D01*
X163372565Y-48400500D01*
X163627435Y-48400500D01*
X163879458Y-48362513D01*
X164123004Y-48287389D01*
X164352634Y-48176805D01*
X164563217Y-48033232D01*
X164750050Y-47859877D01*
X164908959Y-47660612D01*
X165036393Y-47439888D01*
X165129508Y-47202637D01*
X165186222Y-46954157D01*
X165205268Y-46700000D01*
X165186222Y-46445843D01*
X165129508Y-46197363D01*
X165036393Y-45960112D01*
X164908959Y-45739388D01*
X164750050Y-45540123D01*
X164652920Y-45450000D01*
X170250000Y-45450000D01*
X170250000Y-51400000D01*
X188250000Y-51400000D01*
X188250000Y-46700004D01*
X198794732Y-46700004D01*
X198813777Y-46954154D01*
X198813778Y-46954157D01*
X198870492Y-47202637D01*
X198963607Y-47439888D01*
X199091041Y-47660612D01*
X199249950Y-47859877D01*
X199436783Y-48033232D01*
X199647366Y-48176805D01*
X199647371Y-48176807D01*
X199647372Y-48176808D01*
X199647373Y-48176809D01*
X199769328Y-48235538D01*
X199876992Y-48287387D01*
X199876993Y-48287387D01*
X199876996Y-48287389D01*
X200120542Y-48362513D01*
X200372565Y-48400500D01*
X200627435Y-48400500D01*
X200879458Y-48362513D01*
X201123004Y-48287389D01*
X201352634Y-48176805D01*
X201563217Y-48033232D01*
X201750050Y-47859877D01*
X201908959Y-47660612D01*
X202036393Y-47439888D01*
X202129508Y-47202637D01*
X202186222Y-46954157D01*
X202205268Y-46700000D01*
X202186222Y-46445843D01*
X202129508Y-46197363D01*
X202036393Y-45960112D01*
X201908959Y-45739388D01*
X201750050Y-45540123D01*
X201563217Y-45366768D01*
X201352634Y-45223195D01*
X201352630Y-45223193D01*
X201352627Y-45223191D01*
X201352626Y-45223190D01*
X201123006Y-45112612D01*
X201123008Y-45112612D01*
X200879466Y-45037489D01*
X200879462Y-45037488D01*
X200879458Y-45037487D01*
X200758231Y-45019214D01*
X200627440Y-44999500D01*
X200627435Y-44999500D01*
X200372565Y-44999500D01*
X200372559Y-44999500D01*
X200215609Y-45023157D01*
X200120542Y-45037487D01*
X200120539Y-45037488D01*
X200120533Y-45037489D01*
X199876992Y-45112612D01*
X199647373Y-45223190D01*
X199647372Y-45223191D01*
X199436782Y-45366768D01*
X199249952Y-45540121D01*
X199249950Y-45540123D01*
X199091041Y-45739388D01*
X198963608Y-45960109D01*
X198870492Y-46197362D01*
X198870490Y-46197369D01*
X198813777Y-46445845D01*
X198794732Y-46699995D01*
X198794732Y-46700004D01*
X188250000Y-46700004D01*
X188250000Y-45450000D01*
X170250000Y-45450000D01*
X164652920Y-45450000D01*
X164563217Y-45366768D01*
X164352634Y-45223195D01*
X164352630Y-45223193D01*
X164352627Y-45223191D01*
X164352626Y-45223190D01*
X164123006Y-45112612D01*
X164123008Y-45112612D01*
X163879466Y-45037489D01*
X163879462Y-45037488D01*
X163879458Y-45037487D01*
X163758231Y-45019214D01*
X163627440Y-44999500D01*
X163627435Y-44999500D01*
X163372565Y-44999500D01*
X163372559Y-44999500D01*
X163215609Y-45023157D01*
X163120542Y-45037487D01*
X163120539Y-45037488D01*
X163120533Y-45037489D01*
X162876992Y-45112612D01*
X162647373Y-45223190D01*
X162647372Y-45223191D01*
X162436782Y-45366768D01*
X162249952Y-45540121D01*
X162249950Y-45540123D01*
X162091041Y-45739388D01*
X161963608Y-45960109D01*
X161870492Y-46197362D01*
X161870490Y-46197369D01*
X161813777Y-46445845D01*
X161794732Y-46699995D01*
X161794732Y-46700004D01*
X160700500Y-46700004D01*
X160700500Y-44004066D01*
X160700765Y-43995956D01*
X160709224Y-43866894D01*
X160715364Y-43773207D01*
X160717479Y-43757153D01*
X160760230Y-43542226D01*
X160764428Y-43526561D01*
X160826349Y-43344148D01*
X160834868Y-43319049D01*
X160841067Y-43304083D01*
X160937995Y-43107533D01*
X160946098Y-43093498D01*
X161067853Y-42911279D01*
X161077710Y-42898433D01*
X161222207Y-42733665D01*
X161233665Y-42722207D01*
X161398433Y-42577710D01*
X161411279Y-42567853D01*
X161593498Y-42446098D01*
X161607533Y-42437995D01*
X161804083Y-42341067D01*
X161819049Y-42334868D01*
X162025945Y-42264637D01*
X162026561Y-42264428D01*
X162042228Y-42260230D01*
X162257153Y-42217479D01*
X162273209Y-42215364D01*
X162478058Y-42201938D01*
X162495958Y-42200765D01*
X162504067Y-42200500D01*
X162539882Y-42200500D01*
X201460118Y-42200500D01*
X201495933Y-42200500D01*
X201504043Y-42200765D01*
G37*
G04 #@! TD.AperFunction*
M02*
