M48
; DRILL file {KiCad 8.0.1} date 2024-04-14T23:13:35-0400
; FORMAT={-:-/ absolute / metric / decimal}
; #@! TF.CreationDate,2024-04-14T23:13:35-04:00
; #@! TF.GenerationSoftware,Kicad,Pcbnew,8.0.1
; #@! TF.FileFunction,Plated,1,2,PTH
FMAT,2
METRIC
; #@! TA.AperFunction,Plated,PTH,ViaDrill
T1C0.400
; #@! TA.AperFunction,Plated,PTH,ComponentDrill
T2C1.000
%
G90
G05
T1
X161.9Y-43.55
X161.9Y-49.456
X161.9Y-56.062
X161.9Y-62.669
X161.9Y-69.275
X161.9Y-75.881
X161.9Y-80.344
X161.9Y-86.95
X161.9Y-95.7
X161.9Y-102.306
X161.9Y-108.912
X161.9Y-116.75
X161.9Y-122.125
X161.9Y-128.731
X161.9Y-135.338
X161.9Y-141.944
X161.9Y-148.55
X163.55Y-111.7
X163.55Y-113.35
X164.0Y-126.65
X165.5Y-103.1
X165.7Y-88.1
X166.716Y-88.1
X167.25Y-103.1
X167.25Y-105.55
X167.5Y-136.75
X167.5Y-137.65
X167.5Y-138.55
X167.629Y-42.85
X167.629Y-148.55
X167.683Y-61.545
X167.729Y-88.087
X167.925Y-65.6
X168.0Y-58.1
X168.0Y-58.9
X168.0Y-59.7
X168.407Y-62.3
X168.5Y-136.75
X168.5Y-137.65
X168.5Y-138.55
X168.55Y-130.95
X168.6Y-67.65
X168.6Y-70.05
X168.6Y-109.55
X168.65Y-111.95
X168.9Y-86.1
X168.9Y-96.05
X170.0Y-72.75
X170.0Y-73.5
X170.05Y-96.05
X170.05Y-109.6
X170.45Y-111.95
X171.25Y-96.05
X171.35Y-109.6
X171.55Y-120.95
X171.85Y-117.9
X172.15Y-52.15
X172.15Y-55.5
X172.15Y-56.75
X172.15Y-61.95
X172.15Y-72.75
X172.2Y-66.9
X172.2Y-111.95
X172.3Y-87.167
X172.5Y-117.35
X172.713Y-68.75
X173.15Y-58.0
X173.357Y-42.85
X173.357Y-148.55
X173.5Y-109.6
X173.7Y-117.0
X173.85Y-121.8
X173.9Y-68.85
X173.9Y-72.75
X174.35Y-96.05
X174.38Y-88.179
X174.4Y-116.3
X175.25Y-100.45
X175.35Y-137.55
X175.65Y-68.85
X176.075Y-75.925
X176.3Y-121.8
X176.35Y-59.95
X176.35Y-61.4
X177.0Y-88.135
X177.05Y-59.25
X177.05Y-60.65
X177.05Y-62.1
X177.05Y-96.05
X177.1Y-107.35
X177.15Y-143.65
X177.35Y-134.6
X177.35Y-135.6
X177.356Y-77.394
X177.75Y-59.95
X177.794Y-99.1
X177.8Y-61.35
X178.05Y-107.35
X178.07Y-72.35
X178.25Y-134.6
X178.25Y-135.6
X178.45Y-59.25
X178.45Y-60.65
X178.45Y-62.1
X178.45Y-116.35
X178.519Y-100.203
X178.7Y-121.8
X178.95Y-52.15
X178.95Y-68.85
X179.0Y-107.35
X179.086Y-42.85
X179.086Y-148.55
X179.15Y-59.95
X179.15Y-61.35
X179.15Y-134.6
X179.15Y-135.6
X179.45Y-111.95
X179.7Y-103.1
X179.8Y-126.0
X180.0Y-106.5
X180.6Y-107.1
X180.9Y-105.65
X180.95Y-121.8
X181.0Y-100.55
X181.2Y-107.7
X181.45Y-111.95
X182.3Y-143.75
X183.55Y-105.65
X183.8Y-111.95
X183.8Y-121.8
X184.814Y-42.85
X184.814Y-148.55
X184.85Y-72.75
X185.05Y-66.475
X185.2Y-106.8
X185.9Y-52.15
X185.9Y-56.95
X185.9Y-61.95
X185.9Y-68.8
X186.45Y-121.8
X186.5Y-107.6
X186.5Y-116.927
X187.0Y-105.65
X187.3Y-78.25
X187.3Y-84.483
X187.3Y-90.717
X187.3Y-96.95
X187.4Y-111.95
X187.8Y-143.75
X188.45Y-111.9
X188.45Y-121.8
X190.05Y-75.4
X190.05Y-82.583
X190.05Y-89.767
X190.05Y-96.95
X190.543Y-42.85
X190.543Y-148.55
X190.75Y-143.75
X192.1Y-117.1
X192.65Y-112.0
X192.958Y-67.95
X193.55Y-112.0
X193.55Y-117.1
X193.8Y-67.2
X194.75Y-127.3
X194.75Y-129.35
X195.25Y-133.65
X195.6Y-143.75
X196.271Y-42.85
X196.271Y-148.55
X196.45Y-133.65
X197.0Y-130.85
X197.7Y-51.7
X199.2Y-107.15
X199.2Y-112.117
X199.2Y-117.083
X199.2Y-122.05
X199.2Y-127.017
X199.2Y-131.983
X199.2Y-136.95
X199.3Y-140.25
X200.65Y-99.35
X200.65Y-130.85
X202.0Y-43.45
X202.0Y-49.9
X202.0Y-56.477
X202.0Y-63.053
X202.0Y-69.63
X202.0Y-76.207
X202.0Y-80.2
X202.0Y-87.7
X202.0Y-95.45
X202.0Y-103.3
X202.0Y-108.55
X202.0Y-116.8
X202.0Y-122.243
X202.0Y-128.82
X202.0Y-135.397
X202.0Y-141.973
X202.0Y-148.55
T2
X195.5Y-70.25
X195.5Y-72.79
X195.5Y-75.33
X195.5Y-77.87
X195.5Y-80.41
X195.5Y-82.95
X195.5Y-85.49
X195.5Y-88.03
M30
