G04 #@! TF.GenerationSoftware,KiCad,Pcbnew,7.0.10*
G04 #@! TF.CreationDate,2024-02-24T15:32:32-05:00*
G04 #@! TF.ProjectId,Bird3Controller,42697264-3343-46f6-9e74-726f6c6c6572,rev?*
G04 #@! TF.SameCoordinates,Original*
G04 #@! TF.FileFunction,Legend,Bot*
G04 #@! TF.FilePolarity,Positive*
%FSLAX46Y46*%
G04 Gerber Fmt 4.6, Leading zero omitted, Abs format (unit mm)*
G04 Created by KiCad (PCBNEW 7.0.10) date 2024-02-24 15:32:32*
%MOMM*%
%LPD*%
G01*
G04 APERTURE LIST*
G04 Aperture macros list*
%AMRoundRect*
0 Rectangle with rounded corners*
0 $1 Rounding radius*
0 $2 $3 $4 $5 $6 $7 $8 $9 X,Y pos of 4 corners*
0 Add a 4 corners polygon primitive as box body*
4,1,4,$2,$3,$4,$5,$6,$7,$8,$9,$2,$3,0*
0 Add four circle primitives for the rounded corners*
1,1,$1+$1,$2,$3*
1,1,$1+$1,$4,$5*
1,1,$1+$1,$6,$7*
1,1,$1+$1,$8,$9*
0 Add four rect primitives between the rounded corners*
20,1,$1+$1,$2,$3,$4,$5,0*
20,1,$1+$1,$4,$5,$6,$7,0*
20,1,$1+$1,$6,$7,$8,$9,0*
20,1,$1+$1,$8,$9,$2,$3,0*%
G04 Aperture macros list end*
%ADD10C,0.254000*%
%ADD11C,0.150000*%
%ADD12C,0.100000*%
%ADD13C,0.200000*%
%ADD14C,0.120000*%
%ADD15C,0.152400*%
%ADD16C,0.508000*%
%ADD17C,0.010000*%
%ADD18R,1.000000X0.700000*%
%ADD19R,0.650000X1.525000*%
%ADD20R,3.100000X2.400000*%
%ADD21R,5.400000X2.900000*%
%ADD22RoundRect,0.250000X0.350000X0.450000X-0.350000X0.450000X-0.350000X-0.450000X0.350000X-0.450000X0*%
%ADD23RoundRect,0.250000X-0.450000X0.350000X-0.450000X-0.350000X0.450000X-0.350000X0.450000X0.350000X0*%
%ADD24RoundRect,0.250000X0.450000X-0.325000X0.450000X0.325000X-0.450000X0.325000X-0.450000X-0.325000X0*%
%ADD25RoundRect,0.250000X0.475000X-0.337500X0.475000X0.337500X-0.475000X0.337500X-0.475000X-0.337500X0*%
%ADD26RoundRect,0.250000X-0.475000X0.337500X-0.475000X-0.337500X0.475000X-0.337500X0.475000X0.337500X0*%
%ADD27RoundRect,0.250000X-0.337500X-0.475000X0.337500X-0.475000X0.337500X0.475000X-0.337500X0.475000X0*%
%ADD28RoundRect,0.250000X0.337500X0.475000X-0.337500X0.475000X-0.337500X-0.475000X0.337500X-0.475000X0*%
%ADD29RoundRect,0.150000X0.825000X0.150000X-0.825000X0.150000X-0.825000X-0.150000X0.825000X-0.150000X0*%
%ADD30R,0.700000X1.000000*%
%ADD31R,0.700000X0.600000*%
%ADD32C,0.800000*%
%ADD33O,2.152400X1.152400*%
%ADD34C,1.041400*%
%ADD35R,0.990600X2.743200*%
G04 APERTURE END LIST*
D10*
X168243333Y-68863842D02*
X168061904Y-68924318D01*
X168061904Y-68924318D02*
X167759523Y-68924318D01*
X167759523Y-68924318D02*
X167638571Y-68863842D01*
X167638571Y-68863842D02*
X167578095Y-68803365D01*
X167578095Y-68803365D02*
X167517618Y-68682413D01*
X167517618Y-68682413D02*
X167517618Y-68561461D01*
X167517618Y-68561461D02*
X167578095Y-68440508D01*
X167578095Y-68440508D02*
X167638571Y-68380032D01*
X167638571Y-68380032D02*
X167759523Y-68319556D01*
X167759523Y-68319556D02*
X168001428Y-68259080D01*
X168001428Y-68259080D02*
X168122380Y-68198603D01*
X168122380Y-68198603D02*
X168182857Y-68138127D01*
X168182857Y-68138127D02*
X168243333Y-68017175D01*
X168243333Y-68017175D02*
X168243333Y-67896222D01*
X168243333Y-67896222D02*
X168182857Y-67775270D01*
X168182857Y-67775270D02*
X168122380Y-67714794D01*
X168122380Y-67714794D02*
X168001428Y-67654318D01*
X168001428Y-67654318D02*
X167699047Y-67654318D01*
X167699047Y-67654318D02*
X167517618Y-67714794D01*
X167094285Y-67654318D02*
X166791904Y-68924318D01*
X166791904Y-68924318D02*
X166549999Y-68017175D01*
X166549999Y-68017175D02*
X166308094Y-68924318D01*
X166308094Y-68924318D02*
X166005714Y-67654318D01*
X164856665Y-68924318D02*
X165582380Y-68924318D01*
X165219523Y-68924318D02*
X165219523Y-67654318D01*
X165219523Y-67654318D02*
X165340475Y-67835746D01*
X165340475Y-67835746D02*
X165461427Y-67956699D01*
X165461427Y-67956699D02*
X165582380Y-68017175D01*
X169404318Y-138382380D02*
X170432413Y-138382380D01*
X170432413Y-138382380D02*
X170553365Y-138442857D01*
X170553365Y-138442857D02*
X170613842Y-138503333D01*
X170613842Y-138503333D02*
X170674318Y-138624285D01*
X170674318Y-138624285D02*
X170674318Y-138866190D01*
X170674318Y-138866190D02*
X170613842Y-138987142D01*
X170613842Y-138987142D02*
X170553365Y-139047619D01*
X170553365Y-139047619D02*
X170432413Y-139108095D01*
X170432413Y-139108095D02*
X169404318Y-139108095D01*
X169827651Y-140257142D02*
X170674318Y-140257142D01*
X169343842Y-139954761D02*
X170250984Y-139652380D01*
X170250984Y-139652380D02*
X170250984Y-140438571D01*
X184774318Y-139088333D02*
X184774318Y-138483571D01*
X184774318Y-138483571D02*
X183504318Y-138483571D01*
X183504318Y-139390714D02*
X183504318Y-140176905D01*
X183504318Y-140176905D02*
X183988127Y-139753571D01*
X183988127Y-139753571D02*
X183988127Y-139935000D01*
X183988127Y-139935000D02*
X184048603Y-140055952D01*
X184048603Y-140055952D02*
X184109080Y-140116428D01*
X184109080Y-140116428D02*
X184230032Y-140176905D01*
X184230032Y-140176905D02*
X184532413Y-140176905D01*
X184532413Y-140176905D02*
X184653365Y-140116428D01*
X184653365Y-140116428D02*
X184713842Y-140055952D01*
X184713842Y-140055952D02*
X184774318Y-139935000D01*
X184774318Y-139935000D02*
X184774318Y-139572143D01*
X184774318Y-139572143D02*
X184713842Y-139451190D01*
X184713842Y-139451190D02*
X184653365Y-139390714D01*
D11*
X167342857Y-137504819D02*
X167676190Y-137028628D01*
X167914285Y-137504819D02*
X167914285Y-136504819D01*
X167914285Y-136504819D02*
X167533333Y-136504819D01*
X167533333Y-136504819D02*
X167438095Y-136552438D01*
X167438095Y-136552438D02*
X167390476Y-136600057D01*
X167390476Y-136600057D02*
X167342857Y-136695295D01*
X167342857Y-136695295D02*
X167342857Y-136838152D01*
X167342857Y-136838152D02*
X167390476Y-136933390D01*
X167390476Y-136933390D02*
X167438095Y-136981009D01*
X167438095Y-136981009D02*
X167533333Y-137028628D01*
X167533333Y-137028628D02*
X167914285Y-137028628D01*
X166390476Y-137504819D02*
X166961904Y-137504819D01*
X166676190Y-137504819D02*
X166676190Y-136504819D01*
X166676190Y-136504819D02*
X166771428Y-136647676D01*
X166771428Y-136647676D02*
X166866666Y-136742914D01*
X166866666Y-136742914D02*
X166961904Y-136790533D01*
X166057142Y-136504819D02*
X165438095Y-136504819D01*
X165438095Y-136504819D02*
X165771428Y-136885771D01*
X165771428Y-136885771D02*
X165628571Y-136885771D01*
X165628571Y-136885771D02*
X165533333Y-136933390D01*
X165533333Y-136933390D02*
X165485714Y-136981009D01*
X165485714Y-136981009D02*
X165438095Y-137076247D01*
X165438095Y-137076247D02*
X165438095Y-137314342D01*
X165438095Y-137314342D02*
X165485714Y-137409580D01*
X165485714Y-137409580D02*
X165533333Y-137457200D01*
X165533333Y-137457200D02*
X165628571Y-137504819D01*
X165628571Y-137504819D02*
X165914285Y-137504819D01*
X165914285Y-137504819D02*
X166009523Y-137457200D01*
X166009523Y-137457200D02*
X166057142Y-137409580D01*
X167442857Y-134204819D02*
X167776190Y-133728628D01*
X168014285Y-134204819D02*
X168014285Y-133204819D01*
X168014285Y-133204819D02*
X167633333Y-133204819D01*
X167633333Y-133204819D02*
X167538095Y-133252438D01*
X167538095Y-133252438D02*
X167490476Y-133300057D01*
X167490476Y-133300057D02*
X167442857Y-133395295D01*
X167442857Y-133395295D02*
X167442857Y-133538152D01*
X167442857Y-133538152D02*
X167490476Y-133633390D01*
X167490476Y-133633390D02*
X167538095Y-133681009D01*
X167538095Y-133681009D02*
X167633333Y-133728628D01*
X167633333Y-133728628D02*
X168014285Y-133728628D01*
X166490476Y-134204819D02*
X167061904Y-134204819D01*
X166776190Y-134204819D02*
X166776190Y-133204819D01*
X166776190Y-133204819D02*
X166871428Y-133347676D01*
X166871428Y-133347676D02*
X166966666Y-133442914D01*
X166966666Y-133442914D02*
X167061904Y-133490533D01*
X166109523Y-133300057D02*
X166061904Y-133252438D01*
X166061904Y-133252438D02*
X165966666Y-133204819D01*
X165966666Y-133204819D02*
X165728571Y-133204819D01*
X165728571Y-133204819D02*
X165633333Y-133252438D01*
X165633333Y-133252438D02*
X165585714Y-133300057D01*
X165585714Y-133300057D02*
X165538095Y-133395295D01*
X165538095Y-133395295D02*
X165538095Y-133490533D01*
X165538095Y-133490533D02*
X165585714Y-133633390D01*
X165585714Y-133633390D02*
X166157142Y-134204819D01*
X166157142Y-134204819D02*
X165538095Y-134204819D01*
X167342857Y-140904819D02*
X167676190Y-140428628D01*
X167914285Y-140904819D02*
X167914285Y-139904819D01*
X167914285Y-139904819D02*
X167533333Y-139904819D01*
X167533333Y-139904819D02*
X167438095Y-139952438D01*
X167438095Y-139952438D02*
X167390476Y-140000057D01*
X167390476Y-140000057D02*
X167342857Y-140095295D01*
X167342857Y-140095295D02*
X167342857Y-140238152D01*
X167342857Y-140238152D02*
X167390476Y-140333390D01*
X167390476Y-140333390D02*
X167438095Y-140381009D01*
X167438095Y-140381009D02*
X167533333Y-140428628D01*
X167533333Y-140428628D02*
X167914285Y-140428628D01*
X166390476Y-140904819D02*
X166961904Y-140904819D01*
X166676190Y-140904819D02*
X166676190Y-139904819D01*
X166676190Y-139904819D02*
X166771428Y-140047676D01*
X166771428Y-140047676D02*
X166866666Y-140142914D01*
X166866666Y-140142914D02*
X166961904Y-140190533D01*
X165438095Y-140904819D02*
X166009523Y-140904819D01*
X165723809Y-140904819D02*
X165723809Y-139904819D01*
X165723809Y-139904819D02*
X165819047Y-140047676D01*
X165819047Y-140047676D02*
X165914285Y-140142914D01*
X165914285Y-140142914D02*
X166009523Y-140190533D01*
X170704819Y-110133333D02*
X170228628Y-109800000D01*
X170704819Y-109561905D02*
X169704819Y-109561905D01*
X169704819Y-109561905D02*
X169704819Y-109942857D01*
X169704819Y-109942857D02*
X169752438Y-110038095D01*
X169752438Y-110038095D02*
X169800057Y-110085714D01*
X169800057Y-110085714D02*
X169895295Y-110133333D01*
X169895295Y-110133333D02*
X170038152Y-110133333D01*
X170038152Y-110133333D02*
X170133390Y-110085714D01*
X170133390Y-110085714D02*
X170181009Y-110038095D01*
X170181009Y-110038095D02*
X170228628Y-109942857D01*
X170228628Y-109942857D02*
X170228628Y-109561905D01*
X169704819Y-110990476D02*
X169704819Y-110800000D01*
X169704819Y-110800000D02*
X169752438Y-110704762D01*
X169752438Y-110704762D02*
X169800057Y-110657143D01*
X169800057Y-110657143D02*
X169942914Y-110561905D01*
X169942914Y-110561905D02*
X170133390Y-110514286D01*
X170133390Y-110514286D02*
X170514342Y-110514286D01*
X170514342Y-110514286D02*
X170609580Y-110561905D01*
X170609580Y-110561905D02*
X170657200Y-110609524D01*
X170657200Y-110609524D02*
X170704819Y-110704762D01*
X170704819Y-110704762D02*
X170704819Y-110895238D01*
X170704819Y-110895238D02*
X170657200Y-110990476D01*
X170657200Y-110990476D02*
X170609580Y-111038095D01*
X170609580Y-111038095D02*
X170514342Y-111085714D01*
X170514342Y-111085714D02*
X170276247Y-111085714D01*
X170276247Y-111085714D02*
X170181009Y-111038095D01*
X170181009Y-111038095D02*
X170133390Y-110990476D01*
X170133390Y-110990476D02*
X170085771Y-110895238D01*
X170085771Y-110895238D02*
X170085771Y-110704762D01*
X170085771Y-110704762D02*
X170133390Y-110609524D01*
X170133390Y-110609524D02*
X170181009Y-110561905D01*
X170181009Y-110561905D02*
X170276247Y-110514286D01*
X170704819Y-106133333D02*
X170228628Y-105800000D01*
X170704819Y-105561905D02*
X169704819Y-105561905D01*
X169704819Y-105561905D02*
X169704819Y-105942857D01*
X169704819Y-105942857D02*
X169752438Y-106038095D01*
X169752438Y-106038095D02*
X169800057Y-106085714D01*
X169800057Y-106085714D02*
X169895295Y-106133333D01*
X169895295Y-106133333D02*
X170038152Y-106133333D01*
X170038152Y-106133333D02*
X170133390Y-106085714D01*
X170133390Y-106085714D02*
X170181009Y-106038095D01*
X170181009Y-106038095D02*
X170228628Y-105942857D01*
X170228628Y-105942857D02*
X170228628Y-105561905D01*
X169704819Y-107038095D02*
X169704819Y-106561905D01*
X169704819Y-106561905D02*
X170181009Y-106514286D01*
X170181009Y-106514286D02*
X170133390Y-106561905D01*
X170133390Y-106561905D02*
X170085771Y-106657143D01*
X170085771Y-106657143D02*
X170085771Y-106895238D01*
X170085771Y-106895238D02*
X170133390Y-106990476D01*
X170133390Y-106990476D02*
X170181009Y-107038095D01*
X170181009Y-107038095D02*
X170276247Y-107085714D01*
X170276247Y-107085714D02*
X170514342Y-107085714D01*
X170514342Y-107085714D02*
X170609580Y-107038095D01*
X170609580Y-107038095D02*
X170657200Y-106990476D01*
X170657200Y-106990476D02*
X170704819Y-106895238D01*
X170704819Y-106895238D02*
X170704819Y-106657143D01*
X170704819Y-106657143D02*
X170657200Y-106561905D01*
X170657200Y-106561905D02*
X170609580Y-106514286D01*
X165466666Y-92204819D02*
X165799999Y-91728628D01*
X166038094Y-92204819D02*
X166038094Y-91204819D01*
X166038094Y-91204819D02*
X165657142Y-91204819D01*
X165657142Y-91204819D02*
X165561904Y-91252438D01*
X165561904Y-91252438D02*
X165514285Y-91300057D01*
X165514285Y-91300057D02*
X165466666Y-91395295D01*
X165466666Y-91395295D02*
X165466666Y-91538152D01*
X165466666Y-91538152D02*
X165514285Y-91633390D01*
X165514285Y-91633390D02*
X165561904Y-91681009D01*
X165561904Y-91681009D02*
X165657142Y-91728628D01*
X165657142Y-91728628D02*
X166038094Y-91728628D01*
X164609523Y-91538152D02*
X164609523Y-92204819D01*
X164847618Y-91157200D02*
X165085713Y-91871485D01*
X165085713Y-91871485D02*
X164466666Y-91871485D01*
X184966666Y-89604819D02*
X185299999Y-89128628D01*
X185538094Y-89604819D02*
X185538094Y-88604819D01*
X185538094Y-88604819D02*
X185157142Y-88604819D01*
X185157142Y-88604819D02*
X185061904Y-88652438D01*
X185061904Y-88652438D02*
X185014285Y-88700057D01*
X185014285Y-88700057D02*
X184966666Y-88795295D01*
X184966666Y-88795295D02*
X184966666Y-88938152D01*
X184966666Y-88938152D02*
X185014285Y-89033390D01*
X185014285Y-89033390D02*
X185061904Y-89081009D01*
X185061904Y-89081009D02*
X185157142Y-89128628D01*
X185157142Y-89128628D02*
X185538094Y-89128628D01*
X184633332Y-88604819D02*
X184014285Y-88604819D01*
X184014285Y-88604819D02*
X184347618Y-88985771D01*
X184347618Y-88985771D02*
X184204761Y-88985771D01*
X184204761Y-88985771D02*
X184109523Y-89033390D01*
X184109523Y-89033390D02*
X184061904Y-89081009D01*
X184061904Y-89081009D02*
X184014285Y-89176247D01*
X184014285Y-89176247D02*
X184014285Y-89414342D01*
X184014285Y-89414342D02*
X184061904Y-89509580D01*
X184061904Y-89509580D02*
X184109523Y-89557200D01*
X184109523Y-89557200D02*
X184204761Y-89604819D01*
X184204761Y-89604819D02*
X184490475Y-89604819D01*
X184490475Y-89604819D02*
X184585713Y-89557200D01*
X184585713Y-89557200D02*
X184633332Y-89509580D01*
X184966666Y-92704819D02*
X185299999Y-92228628D01*
X185538094Y-92704819D02*
X185538094Y-91704819D01*
X185538094Y-91704819D02*
X185157142Y-91704819D01*
X185157142Y-91704819D02*
X185061904Y-91752438D01*
X185061904Y-91752438D02*
X185014285Y-91800057D01*
X185014285Y-91800057D02*
X184966666Y-91895295D01*
X184966666Y-91895295D02*
X184966666Y-92038152D01*
X184966666Y-92038152D02*
X185014285Y-92133390D01*
X185014285Y-92133390D02*
X185061904Y-92181009D01*
X185061904Y-92181009D02*
X185157142Y-92228628D01*
X185157142Y-92228628D02*
X185538094Y-92228628D01*
X184585713Y-91800057D02*
X184538094Y-91752438D01*
X184538094Y-91752438D02*
X184442856Y-91704819D01*
X184442856Y-91704819D02*
X184204761Y-91704819D01*
X184204761Y-91704819D02*
X184109523Y-91752438D01*
X184109523Y-91752438D02*
X184061904Y-91800057D01*
X184061904Y-91800057D02*
X184014285Y-91895295D01*
X184014285Y-91895295D02*
X184014285Y-91990533D01*
X184014285Y-91990533D02*
X184061904Y-92133390D01*
X184061904Y-92133390D02*
X184633332Y-92704819D01*
X184633332Y-92704819D02*
X184014285Y-92704819D01*
X169966666Y-51854819D02*
X170299999Y-51378628D01*
X170538094Y-51854819D02*
X170538094Y-50854819D01*
X170538094Y-50854819D02*
X170157142Y-50854819D01*
X170157142Y-50854819D02*
X170061904Y-50902438D01*
X170061904Y-50902438D02*
X170014285Y-50950057D01*
X170014285Y-50950057D02*
X169966666Y-51045295D01*
X169966666Y-51045295D02*
X169966666Y-51188152D01*
X169966666Y-51188152D02*
X170014285Y-51283390D01*
X170014285Y-51283390D02*
X170061904Y-51331009D01*
X170061904Y-51331009D02*
X170157142Y-51378628D01*
X170157142Y-51378628D02*
X170538094Y-51378628D01*
X169014285Y-51854819D02*
X169585713Y-51854819D01*
X169299999Y-51854819D02*
X169299999Y-50854819D01*
X169299999Y-50854819D02*
X169395237Y-50997676D01*
X169395237Y-50997676D02*
X169490475Y-51092914D01*
X169490475Y-51092914D02*
X169585713Y-51140533D01*
X170254819Y-97386905D02*
X169254819Y-97386905D01*
X169254819Y-97386905D02*
X169254819Y-97625000D01*
X169254819Y-97625000D02*
X169302438Y-97767857D01*
X169302438Y-97767857D02*
X169397676Y-97863095D01*
X169397676Y-97863095D02*
X169492914Y-97910714D01*
X169492914Y-97910714D02*
X169683390Y-97958333D01*
X169683390Y-97958333D02*
X169826247Y-97958333D01*
X169826247Y-97958333D02*
X170016723Y-97910714D01*
X170016723Y-97910714D02*
X170111961Y-97863095D01*
X170111961Y-97863095D02*
X170207200Y-97767857D01*
X170207200Y-97767857D02*
X170254819Y-97625000D01*
X170254819Y-97625000D02*
X170254819Y-97386905D01*
X169254819Y-98815476D02*
X169254819Y-98625000D01*
X169254819Y-98625000D02*
X169302438Y-98529762D01*
X169302438Y-98529762D02*
X169350057Y-98482143D01*
X169350057Y-98482143D02*
X169492914Y-98386905D01*
X169492914Y-98386905D02*
X169683390Y-98339286D01*
X169683390Y-98339286D02*
X170064342Y-98339286D01*
X170064342Y-98339286D02*
X170159580Y-98386905D01*
X170159580Y-98386905D02*
X170207200Y-98434524D01*
X170207200Y-98434524D02*
X170254819Y-98529762D01*
X170254819Y-98529762D02*
X170254819Y-98720238D01*
X170254819Y-98720238D02*
X170207200Y-98815476D01*
X170207200Y-98815476D02*
X170159580Y-98863095D01*
X170159580Y-98863095D02*
X170064342Y-98910714D01*
X170064342Y-98910714D02*
X169826247Y-98910714D01*
X169826247Y-98910714D02*
X169731009Y-98863095D01*
X169731009Y-98863095D02*
X169683390Y-98815476D01*
X169683390Y-98815476D02*
X169635771Y-98720238D01*
X169635771Y-98720238D02*
X169635771Y-98529762D01*
X169635771Y-98529762D02*
X169683390Y-98434524D01*
X169683390Y-98434524D02*
X169731009Y-98386905D01*
X169731009Y-98386905D02*
X169826247Y-98339286D01*
X173604819Y-123561905D02*
X172604819Y-123561905D01*
X172604819Y-123561905D02*
X172604819Y-123800000D01*
X172604819Y-123800000D02*
X172652438Y-123942857D01*
X172652438Y-123942857D02*
X172747676Y-124038095D01*
X172747676Y-124038095D02*
X172842914Y-124085714D01*
X172842914Y-124085714D02*
X173033390Y-124133333D01*
X173033390Y-124133333D02*
X173176247Y-124133333D01*
X173176247Y-124133333D02*
X173366723Y-124085714D01*
X173366723Y-124085714D02*
X173461961Y-124038095D01*
X173461961Y-124038095D02*
X173557200Y-123942857D01*
X173557200Y-123942857D02*
X173604819Y-123800000D01*
X173604819Y-123800000D02*
X173604819Y-123561905D01*
X172604819Y-125038095D02*
X172604819Y-124561905D01*
X172604819Y-124561905D02*
X173081009Y-124514286D01*
X173081009Y-124514286D02*
X173033390Y-124561905D01*
X173033390Y-124561905D02*
X172985771Y-124657143D01*
X172985771Y-124657143D02*
X172985771Y-124895238D01*
X172985771Y-124895238D02*
X173033390Y-124990476D01*
X173033390Y-124990476D02*
X173081009Y-125038095D01*
X173081009Y-125038095D02*
X173176247Y-125085714D01*
X173176247Y-125085714D02*
X173414342Y-125085714D01*
X173414342Y-125085714D02*
X173509580Y-125038095D01*
X173509580Y-125038095D02*
X173557200Y-124990476D01*
X173557200Y-124990476D02*
X173604819Y-124895238D01*
X173604819Y-124895238D02*
X173604819Y-124657143D01*
X173604819Y-124657143D02*
X173557200Y-124561905D01*
X173557200Y-124561905D02*
X173509580Y-124514286D01*
X192842857Y-123059580D02*
X192890476Y-123107200D01*
X192890476Y-123107200D02*
X193033333Y-123154819D01*
X193033333Y-123154819D02*
X193128571Y-123154819D01*
X193128571Y-123154819D02*
X193271428Y-123107200D01*
X193271428Y-123107200D02*
X193366666Y-123011961D01*
X193366666Y-123011961D02*
X193414285Y-122916723D01*
X193414285Y-122916723D02*
X193461904Y-122726247D01*
X193461904Y-122726247D02*
X193461904Y-122583390D01*
X193461904Y-122583390D02*
X193414285Y-122392914D01*
X193414285Y-122392914D02*
X193366666Y-122297676D01*
X193366666Y-122297676D02*
X193271428Y-122202438D01*
X193271428Y-122202438D02*
X193128571Y-122154819D01*
X193128571Y-122154819D02*
X193033333Y-122154819D01*
X193033333Y-122154819D02*
X192890476Y-122202438D01*
X192890476Y-122202438D02*
X192842857Y-122250057D01*
X192461904Y-122250057D02*
X192414285Y-122202438D01*
X192414285Y-122202438D02*
X192319047Y-122154819D01*
X192319047Y-122154819D02*
X192080952Y-122154819D01*
X192080952Y-122154819D02*
X191985714Y-122202438D01*
X191985714Y-122202438D02*
X191938095Y-122250057D01*
X191938095Y-122250057D02*
X191890476Y-122345295D01*
X191890476Y-122345295D02*
X191890476Y-122440533D01*
X191890476Y-122440533D02*
X191938095Y-122583390D01*
X191938095Y-122583390D02*
X192509523Y-123154819D01*
X192509523Y-123154819D02*
X191890476Y-123154819D01*
X191033333Y-122154819D02*
X191223809Y-122154819D01*
X191223809Y-122154819D02*
X191319047Y-122202438D01*
X191319047Y-122202438D02*
X191366666Y-122250057D01*
X191366666Y-122250057D02*
X191461904Y-122392914D01*
X191461904Y-122392914D02*
X191509523Y-122583390D01*
X191509523Y-122583390D02*
X191509523Y-122964342D01*
X191509523Y-122964342D02*
X191461904Y-123059580D01*
X191461904Y-123059580D02*
X191414285Y-123107200D01*
X191414285Y-123107200D02*
X191319047Y-123154819D01*
X191319047Y-123154819D02*
X191128571Y-123154819D01*
X191128571Y-123154819D02*
X191033333Y-123107200D01*
X191033333Y-123107200D02*
X190985714Y-123059580D01*
X190985714Y-123059580D02*
X190938095Y-122964342D01*
X190938095Y-122964342D02*
X190938095Y-122726247D01*
X190938095Y-122726247D02*
X190985714Y-122631009D01*
X190985714Y-122631009D02*
X191033333Y-122583390D01*
X191033333Y-122583390D02*
X191128571Y-122535771D01*
X191128571Y-122535771D02*
X191319047Y-122535771D01*
X191319047Y-122535771D02*
X191414285Y-122583390D01*
X191414285Y-122583390D02*
X191461904Y-122631009D01*
X191461904Y-122631009D02*
X191509523Y-122726247D01*
X195942857Y-123059580D02*
X195990476Y-123107200D01*
X195990476Y-123107200D02*
X196133333Y-123154819D01*
X196133333Y-123154819D02*
X196228571Y-123154819D01*
X196228571Y-123154819D02*
X196371428Y-123107200D01*
X196371428Y-123107200D02*
X196466666Y-123011961D01*
X196466666Y-123011961D02*
X196514285Y-122916723D01*
X196514285Y-122916723D02*
X196561904Y-122726247D01*
X196561904Y-122726247D02*
X196561904Y-122583390D01*
X196561904Y-122583390D02*
X196514285Y-122392914D01*
X196514285Y-122392914D02*
X196466666Y-122297676D01*
X196466666Y-122297676D02*
X196371428Y-122202438D01*
X196371428Y-122202438D02*
X196228571Y-122154819D01*
X196228571Y-122154819D02*
X196133333Y-122154819D01*
X196133333Y-122154819D02*
X195990476Y-122202438D01*
X195990476Y-122202438D02*
X195942857Y-122250057D01*
X195561904Y-122250057D02*
X195514285Y-122202438D01*
X195514285Y-122202438D02*
X195419047Y-122154819D01*
X195419047Y-122154819D02*
X195180952Y-122154819D01*
X195180952Y-122154819D02*
X195085714Y-122202438D01*
X195085714Y-122202438D02*
X195038095Y-122250057D01*
X195038095Y-122250057D02*
X194990476Y-122345295D01*
X194990476Y-122345295D02*
X194990476Y-122440533D01*
X194990476Y-122440533D02*
X195038095Y-122583390D01*
X195038095Y-122583390D02*
X195609523Y-123154819D01*
X195609523Y-123154819D02*
X194990476Y-123154819D01*
X194371428Y-122154819D02*
X194276190Y-122154819D01*
X194276190Y-122154819D02*
X194180952Y-122202438D01*
X194180952Y-122202438D02*
X194133333Y-122250057D01*
X194133333Y-122250057D02*
X194085714Y-122345295D01*
X194085714Y-122345295D02*
X194038095Y-122535771D01*
X194038095Y-122535771D02*
X194038095Y-122773866D01*
X194038095Y-122773866D02*
X194085714Y-122964342D01*
X194085714Y-122964342D02*
X194133333Y-123059580D01*
X194133333Y-123059580D02*
X194180952Y-123107200D01*
X194180952Y-123107200D02*
X194276190Y-123154819D01*
X194276190Y-123154819D02*
X194371428Y-123154819D01*
X194371428Y-123154819D02*
X194466666Y-123107200D01*
X194466666Y-123107200D02*
X194514285Y-123059580D01*
X194514285Y-123059580D02*
X194561904Y-122964342D01*
X194561904Y-122964342D02*
X194609523Y-122773866D01*
X194609523Y-122773866D02*
X194609523Y-122535771D01*
X194609523Y-122535771D02*
X194561904Y-122345295D01*
X194561904Y-122345295D02*
X194514285Y-122250057D01*
X194514285Y-122250057D02*
X194466666Y-122202438D01*
X194466666Y-122202438D02*
X194371428Y-122154819D01*
X175642857Y-131959580D02*
X175690476Y-132007200D01*
X175690476Y-132007200D02*
X175833333Y-132054819D01*
X175833333Y-132054819D02*
X175928571Y-132054819D01*
X175928571Y-132054819D02*
X176071428Y-132007200D01*
X176071428Y-132007200D02*
X176166666Y-131911961D01*
X176166666Y-131911961D02*
X176214285Y-131816723D01*
X176214285Y-131816723D02*
X176261904Y-131626247D01*
X176261904Y-131626247D02*
X176261904Y-131483390D01*
X176261904Y-131483390D02*
X176214285Y-131292914D01*
X176214285Y-131292914D02*
X176166666Y-131197676D01*
X176166666Y-131197676D02*
X176071428Y-131102438D01*
X176071428Y-131102438D02*
X175928571Y-131054819D01*
X175928571Y-131054819D02*
X175833333Y-131054819D01*
X175833333Y-131054819D02*
X175690476Y-131102438D01*
X175690476Y-131102438D02*
X175642857Y-131150057D01*
X174690476Y-132054819D02*
X175261904Y-132054819D01*
X174976190Y-132054819D02*
X174976190Y-131054819D01*
X174976190Y-131054819D02*
X175071428Y-131197676D01*
X175071428Y-131197676D02*
X175166666Y-131292914D01*
X175166666Y-131292914D02*
X175261904Y-131340533D01*
X174214285Y-132054819D02*
X174023809Y-132054819D01*
X174023809Y-132054819D02*
X173928571Y-132007200D01*
X173928571Y-132007200D02*
X173880952Y-131959580D01*
X173880952Y-131959580D02*
X173785714Y-131816723D01*
X173785714Y-131816723D02*
X173738095Y-131626247D01*
X173738095Y-131626247D02*
X173738095Y-131245295D01*
X173738095Y-131245295D02*
X173785714Y-131150057D01*
X173785714Y-131150057D02*
X173833333Y-131102438D01*
X173833333Y-131102438D02*
X173928571Y-131054819D01*
X173928571Y-131054819D02*
X174119047Y-131054819D01*
X174119047Y-131054819D02*
X174214285Y-131102438D01*
X174214285Y-131102438D02*
X174261904Y-131150057D01*
X174261904Y-131150057D02*
X174309523Y-131245295D01*
X174309523Y-131245295D02*
X174309523Y-131483390D01*
X174309523Y-131483390D02*
X174261904Y-131578628D01*
X174261904Y-131578628D02*
X174214285Y-131626247D01*
X174214285Y-131626247D02*
X174119047Y-131673866D01*
X174119047Y-131673866D02*
X173928571Y-131673866D01*
X173928571Y-131673866D02*
X173833333Y-131626247D01*
X173833333Y-131626247D02*
X173785714Y-131578628D01*
X173785714Y-131578628D02*
X173738095Y-131483390D01*
X198942857Y-123059580D02*
X198990476Y-123107200D01*
X198990476Y-123107200D02*
X199133333Y-123154819D01*
X199133333Y-123154819D02*
X199228571Y-123154819D01*
X199228571Y-123154819D02*
X199371428Y-123107200D01*
X199371428Y-123107200D02*
X199466666Y-123011961D01*
X199466666Y-123011961D02*
X199514285Y-122916723D01*
X199514285Y-122916723D02*
X199561904Y-122726247D01*
X199561904Y-122726247D02*
X199561904Y-122583390D01*
X199561904Y-122583390D02*
X199514285Y-122392914D01*
X199514285Y-122392914D02*
X199466666Y-122297676D01*
X199466666Y-122297676D02*
X199371428Y-122202438D01*
X199371428Y-122202438D02*
X199228571Y-122154819D01*
X199228571Y-122154819D02*
X199133333Y-122154819D01*
X199133333Y-122154819D02*
X198990476Y-122202438D01*
X198990476Y-122202438D02*
X198942857Y-122250057D01*
X197990476Y-123154819D02*
X198561904Y-123154819D01*
X198276190Y-123154819D02*
X198276190Y-122154819D01*
X198276190Y-122154819D02*
X198371428Y-122297676D01*
X198371428Y-122297676D02*
X198466666Y-122392914D01*
X198466666Y-122392914D02*
X198561904Y-122440533D01*
X197419047Y-122583390D02*
X197514285Y-122535771D01*
X197514285Y-122535771D02*
X197561904Y-122488152D01*
X197561904Y-122488152D02*
X197609523Y-122392914D01*
X197609523Y-122392914D02*
X197609523Y-122345295D01*
X197609523Y-122345295D02*
X197561904Y-122250057D01*
X197561904Y-122250057D02*
X197514285Y-122202438D01*
X197514285Y-122202438D02*
X197419047Y-122154819D01*
X197419047Y-122154819D02*
X197228571Y-122154819D01*
X197228571Y-122154819D02*
X197133333Y-122202438D01*
X197133333Y-122202438D02*
X197085714Y-122250057D01*
X197085714Y-122250057D02*
X197038095Y-122345295D01*
X197038095Y-122345295D02*
X197038095Y-122392914D01*
X197038095Y-122392914D02*
X197085714Y-122488152D01*
X197085714Y-122488152D02*
X197133333Y-122535771D01*
X197133333Y-122535771D02*
X197228571Y-122583390D01*
X197228571Y-122583390D02*
X197419047Y-122583390D01*
X197419047Y-122583390D02*
X197514285Y-122631009D01*
X197514285Y-122631009D02*
X197561904Y-122678628D01*
X197561904Y-122678628D02*
X197609523Y-122773866D01*
X197609523Y-122773866D02*
X197609523Y-122964342D01*
X197609523Y-122964342D02*
X197561904Y-123059580D01*
X197561904Y-123059580D02*
X197514285Y-123107200D01*
X197514285Y-123107200D02*
X197419047Y-123154819D01*
X197419047Y-123154819D02*
X197228571Y-123154819D01*
X197228571Y-123154819D02*
X197133333Y-123107200D01*
X197133333Y-123107200D02*
X197085714Y-123059580D01*
X197085714Y-123059580D02*
X197038095Y-122964342D01*
X197038095Y-122964342D02*
X197038095Y-122773866D01*
X197038095Y-122773866D02*
X197085714Y-122678628D01*
X197085714Y-122678628D02*
X197133333Y-122631009D01*
X197133333Y-122631009D02*
X197228571Y-122583390D01*
X171342857Y-131979580D02*
X171390476Y-132027200D01*
X171390476Y-132027200D02*
X171533333Y-132074819D01*
X171533333Y-132074819D02*
X171628571Y-132074819D01*
X171628571Y-132074819D02*
X171771428Y-132027200D01*
X171771428Y-132027200D02*
X171866666Y-131931961D01*
X171866666Y-131931961D02*
X171914285Y-131836723D01*
X171914285Y-131836723D02*
X171961904Y-131646247D01*
X171961904Y-131646247D02*
X171961904Y-131503390D01*
X171961904Y-131503390D02*
X171914285Y-131312914D01*
X171914285Y-131312914D02*
X171866666Y-131217676D01*
X171866666Y-131217676D02*
X171771428Y-131122438D01*
X171771428Y-131122438D02*
X171628571Y-131074819D01*
X171628571Y-131074819D02*
X171533333Y-131074819D01*
X171533333Y-131074819D02*
X171390476Y-131122438D01*
X171390476Y-131122438D02*
X171342857Y-131170057D01*
X170390476Y-132074819D02*
X170961904Y-132074819D01*
X170676190Y-132074819D02*
X170676190Y-131074819D01*
X170676190Y-131074819D02*
X170771428Y-131217676D01*
X170771428Y-131217676D02*
X170866666Y-131312914D01*
X170866666Y-131312914D02*
X170961904Y-131360533D01*
X170057142Y-131074819D02*
X169390476Y-131074819D01*
X169390476Y-131074819D02*
X169819047Y-132074819D01*
X169642857Y-148859580D02*
X169690476Y-148907200D01*
X169690476Y-148907200D02*
X169833333Y-148954819D01*
X169833333Y-148954819D02*
X169928571Y-148954819D01*
X169928571Y-148954819D02*
X170071428Y-148907200D01*
X170071428Y-148907200D02*
X170166666Y-148811961D01*
X170166666Y-148811961D02*
X170214285Y-148716723D01*
X170214285Y-148716723D02*
X170261904Y-148526247D01*
X170261904Y-148526247D02*
X170261904Y-148383390D01*
X170261904Y-148383390D02*
X170214285Y-148192914D01*
X170214285Y-148192914D02*
X170166666Y-148097676D01*
X170166666Y-148097676D02*
X170071428Y-148002438D01*
X170071428Y-148002438D02*
X169928571Y-147954819D01*
X169928571Y-147954819D02*
X169833333Y-147954819D01*
X169833333Y-147954819D02*
X169690476Y-148002438D01*
X169690476Y-148002438D02*
X169642857Y-148050057D01*
X168690476Y-148954819D02*
X169261904Y-148954819D01*
X168976190Y-148954819D02*
X168976190Y-147954819D01*
X168976190Y-147954819D02*
X169071428Y-148097676D01*
X169071428Y-148097676D02*
X169166666Y-148192914D01*
X169166666Y-148192914D02*
X169261904Y-148240533D01*
X167833333Y-147954819D02*
X168023809Y-147954819D01*
X168023809Y-147954819D02*
X168119047Y-148002438D01*
X168119047Y-148002438D02*
X168166666Y-148050057D01*
X168166666Y-148050057D02*
X168261904Y-148192914D01*
X168261904Y-148192914D02*
X168309523Y-148383390D01*
X168309523Y-148383390D02*
X168309523Y-148764342D01*
X168309523Y-148764342D02*
X168261904Y-148859580D01*
X168261904Y-148859580D02*
X168214285Y-148907200D01*
X168214285Y-148907200D02*
X168119047Y-148954819D01*
X168119047Y-148954819D02*
X167928571Y-148954819D01*
X167928571Y-148954819D02*
X167833333Y-148907200D01*
X167833333Y-148907200D02*
X167785714Y-148859580D01*
X167785714Y-148859580D02*
X167738095Y-148764342D01*
X167738095Y-148764342D02*
X167738095Y-148526247D01*
X167738095Y-148526247D02*
X167785714Y-148431009D01*
X167785714Y-148431009D02*
X167833333Y-148383390D01*
X167833333Y-148383390D02*
X167928571Y-148335771D01*
X167928571Y-148335771D02*
X168119047Y-148335771D01*
X168119047Y-148335771D02*
X168214285Y-148383390D01*
X168214285Y-148383390D02*
X168261904Y-148431009D01*
X168261904Y-148431009D02*
X168309523Y-148526247D01*
X176042857Y-148859580D02*
X176090476Y-148907200D01*
X176090476Y-148907200D02*
X176233333Y-148954819D01*
X176233333Y-148954819D02*
X176328571Y-148954819D01*
X176328571Y-148954819D02*
X176471428Y-148907200D01*
X176471428Y-148907200D02*
X176566666Y-148811961D01*
X176566666Y-148811961D02*
X176614285Y-148716723D01*
X176614285Y-148716723D02*
X176661904Y-148526247D01*
X176661904Y-148526247D02*
X176661904Y-148383390D01*
X176661904Y-148383390D02*
X176614285Y-148192914D01*
X176614285Y-148192914D02*
X176566666Y-148097676D01*
X176566666Y-148097676D02*
X176471428Y-148002438D01*
X176471428Y-148002438D02*
X176328571Y-147954819D01*
X176328571Y-147954819D02*
X176233333Y-147954819D01*
X176233333Y-147954819D02*
X176090476Y-148002438D01*
X176090476Y-148002438D02*
X176042857Y-148050057D01*
X175090476Y-148954819D02*
X175661904Y-148954819D01*
X175376190Y-148954819D02*
X175376190Y-147954819D01*
X175376190Y-147954819D02*
X175471428Y-148097676D01*
X175471428Y-148097676D02*
X175566666Y-148192914D01*
X175566666Y-148192914D02*
X175661904Y-148240533D01*
X174185714Y-147954819D02*
X174661904Y-147954819D01*
X174661904Y-147954819D02*
X174709523Y-148431009D01*
X174709523Y-148431009D02*
X174661904Y-148383390D01*
X174661904Y-148383390D02*
X174566666Y-148335771D01*
X174566666Y-148335771D02*
X174328571Y-148335771D01*
X174328571Y-148335771D02*
X174233333Y-148383390D01*
X174233333Y-148383390D02*
X174185714Y-148431009D01*
X174185714Y-148431009D02*
X174138095Y-148526247D01*
X174138095Y-148526247D02*
X174138095Y-148764342D01*
X174138095Y-148764342D02*
X174185714Y-148859580D01*
X174185714Y-148859580D02*
X174233333Y-148907200D01*
X174233333Y-148907200D02*
X174328571Y-148954819D01*
X174328571Y-148954819D02*
X174566666Y-148954819D01*
X174566666Y-148954819D02*
X174661904Y-148907200D01*
X174661904Y-148907200D02*
X174709523Y-148859580D01*
X172742857Y-148859580D02*
X172790476Y-148907200D01*
X172790476Y-148907200D02*
X172933333Y-148954819D01*
X172933333Y-148954819D02*
X173028571Y-148954819D01*
X173028571Y-148954819D02*
X173171428Y-148907200D01*
X173171428Y-148907200D02*
X173266666Y-148811961D01*
X173266666Y-148811961D02*
X173314285Y-148716723D01*
X173314285Y-148716723D02*
X173361904Y-148526247D01*
X173361904Y-148526247D02*
X173361904Y-148383390D01*
X173361904Y-148383390D02*
X173314285Y-148192914D01*
X173314285Y-148192914D02*
X173266666Y-148097676D01*
X173266666Y-148097676D02*
X173171428Y-148002438D01*
X173171428Y-148002438D02*
X173028571Y-147954819D01*
X173028571Y-147954819D02*
X172933333Y-147954819D01*
X172933333Y-147954819D02*
X172790476Y-148002438D01*
X172790476Y-148002438D02*
X172742857Y-148050057D01*
X171790476Y-148954819D02*
X172361904Y-148954819D01*
X172076190Y-148954819D02*
X172076190Y-147954819D01*
X172076190Y-147954819D02*
X172171428Y-148097676D01*
X172171428Y-148097676D02*
X172266666Y-148192914D01*
X172266666Y-148192914D02*
X172361904Y-148240533D01*
X170933333Y-148288152D02*
X170933333Y-148954819D01*
X171171428Y-147907200D02*
X171409523Y-148621485D01*
X171409523Y-148621485D02*
X170790476Y-148621485D01*
X167179580Y-110095833D02*
X167227200Y-110048214D01*
X167227200Y-110048214D02*
X167274819Y-109905357D01*
X167274819Y-109905357D02*
X167274819Y-109810119D01*
X167274819Y-109810119D02*
X167227200Y-109667262D01*
X167227200Y-109667262D02*
X167131961Y-109572024D01*
X167131961Y-109572024D02*
X167036723Y-109524405D01*
X167036723Y-109524405D02*
X166846247Y-109476786D01*
X166846247Y-109476786D02*
X166703390Y-109476786D01*
X166703390Y-109476786D02*
X166512914Y-109524405D01*
X166512914Y-109524405D02*
X166417676Y-109572024D01*
X166417676Y-109572024D02*
X166322438Y-109667262D01*
X166322438Y-109667262D02*
X166274819Y-109810119D01*
X166274819Y-109810119D02*
X166274819Y-109905357D01*
X166274819Y-109905357D02*
X166322438Y-110048214D01*
X166322438Y-110048214D02*
X166370057Y-110095833D01*
X166274819Y-110429167D02*
X166274819Y-111095833D01*
X166274819Y-111095833D02*
X167274819Y-110667262D01*
X166666666Y-88379580D02*
X166714285Y-88427200D01*
X166714285Y-88427200D02*
X166857142Y-88474819D01*
X166857142Y-88474819D02*
X166952380Y-88474819D01*
X166952380Y-88474819D02*
X167095237Y-88427200D01*
X167095237Y-88427200D02*
X167190475Y-88331961D01*
X167190475Y-88331961D02*
X167238094Y-88236723D01*
X167238094Y-88236723D02*
X167285713Y-88046247D01*
X167285713Y-88046247D02*
X167285713Y-87903390D01*
X167285713Y-87903390D02*
X167238094Y-87712914D01*
X167238094Y-87712914D02*
X167190475Y-87617676D01*
X167190475Y-87617676D02*
X167095237Y-87522438D01*
X167095237Y-87522438D02*
X166952380Y-87474819D01*
X166952380Y-87474819D02*
X166857142Y-87474819D01*
X166857142Y-87474819D02*
X166714285Y-87522438D01*
X166714285Y-87522438D02*
X166666666Y-87570057D01*
X165809523Y-87808152D02*
X165809523Y-88474819D01*
X166047618Y-87427200D02*
X166285713Y-88141485D01*
X166285713Y-88141485D02*
X165666666Y-88141485D01*
X170066666Y-54359580D02*
X170114285Y-54407200D01*
X170114285Y-54407200D02*
X170257142Y-54454819D01*
X170257142Y-54454819D02*
X170352380Y-54454819D01*
X170352380Y-54454819D02*
X170495237Y-54407200D01*
X170495237Y-54407200D02*
X170590475Y-54311961D01*
X170590475Y-54311961D02*
X170638094Y-54216723D01*
X170638094Y-54216723D02*
X170685713Y-54026247D01*
X170685713Y-54026247D02*
X170685713Y-53883390D01*
X170685713Y-53883390D02*
X170638094Y-53692914D01*
X170638094Y-53692914D02*
X170590475Y-53597676D01*
X170590475Y-53597676D02*
X170495237Y-53502438D01*
X170495237Y-53502438D02*
X170352380Y-53454819D01*
X170352380Y-53454819D02*
X170257142Y-53454819D01*
X170257142Y-53454819D02*
X170114285Y-53502438D01*
X170114285Y-53502438D02*
X170066666Y-53550057D01*
X169733332Y-53454819D02*
X169114285Y-53454819D01*
X169114285Y-53454819D02*
X169447618Y-53835771D01*
X169447618Y-53835771D02*
X169304761Y-53835771D01*
X169304761Y-53835771D02*
X169209523Y-53883390D01*
X169209523Y-53883390D02*
X169161904Y-53931009D01*
X169161904Y-53931009D02*
X169114285Y-54026247D01*
X169114285Y-54026247D02*
X169114285Y-54264342D01*
X169114285Y-54264342D02*
X169161904Y-54359580D01*
X169161904Y-54359580D02*
X169209523Y-54407200D01*
X169209523Y-54407200D02*
X169304761Y-54454819D01*
X169304761Y-54454819D02*
X169590475Y-54454819D01*
X169590475Y-54454819D02*
X169685713Y-54407200D01*
X169685713Y-54407200D02*
X169733332Y-54359580D01*
X189442857Y-123254819D02*
X189776190Y-122778628D01*
X190014285Y-123254819D02*
X190014285Y-122254819D01*
X190014285Y-122254819D02*
X189633333Y-122254819D01*
X189633333Y-122254819D02*
X189538095Y-122302438D01*
X189538095Y-122302438D02*
X189490476Y-122350057D01*
X189490476Y-122350057D02*
X189442857Y-122445295D01*
X189442857Y-122445295D02*
X189442857Y-122588152D01*
X189442857Y-122588152D02*
X189490476Y-122683390D01*
X189490476Y-122683390D02*
X189538095Y-122731009D01*
X189538095Y-122731009D02*
X189633333Y-122778628D01*
X189633333Y-122778628D02*
X190014285Y-122778628D01*
X188490476Y-123254819D02*
X189061904Y-123254819D01*
X188776190Y-123254819D02*
X188776190Y-122254819D01*
X188776190Y-122254819D02*
X188871428Y-122397676D01*
X188871428Y-122397676D02*
X188966666Y-122492914D01*
X188966666Y-122492914D02*
X189061904Y-122540533D01*
X187633333Y-122588152D02*
X187633333Y-123254819D01*
X187871428Y-122207200D02*
X188109523Y-122921485D01*
X188109523Y-122921485D02*
X187490476Y-122921485D01*
D10*
X168243333Y-60313842D02*
X168061904Y-60374318D01*
X168061904Y-60374318D02*
X167759523Y-60374318D01*
X167759523Y-60374318D02*
X167638571Y-60313842D01*
X167638571Y-60313842D02*
X167578095Y-60253365D01*
X167578095Y-60253365D02*
X167517618Y-60132413D01*
X167517618Y-60132413D02*
X167517618Y-60011461D01*
X167517618Y-60011461D02*
X167578095Y-59890508D01*
X167578095Y-59890508D02*
X167638571Y-59830032D01*
X167638571Y-59830032D02*
X167759523Y-59769556D01*
X167759523Y-59769556D02*
X168001428Y-59709080D01*
X168001428Y-59709080D02*
X168122380Y-59648603D01*
X168122380Y-59648603D02*
X168182857Y-59588127D01*
X168182857Y-59588127D02*
X168243333Y-59467175D01*
X168243333Y-59467175D02*
X168243333Y-59346222D01*
X168243333Y-59346222D02*
X168182857Y-59225270D01*
X168182857Y-59225270D02*
X168122380Y-59164794D01*
X168122380Y-59164794D02*
X168001428Y-59104318D01*
X168001428Y-59104318D02*
X167699047Y-59104318D01*
X167699047Y-59104318D02*
X167517618Y-59164794D01*
X167094285Y-59104318D02*
X166791904Y-60374318D01*
X166791904Y-60374318D02*
X166549999Y-59467175D01*
X166549999Y-59467175D02*
X166308094Y-60374318D01*
X166308094Y-60374318D02*
X166005714Y-59104318D01*
X165582380Y-59225270D02*
X165521904Y-59164794D01*
X165521904Y-59164794D02*
X165400951Y-59104318D01*
X165400951Y-59104318D02*
X165098570Y-59104318D01*
X165098570Y-59104318D02*
X164977618Y-59164794D01*
X164977618Y-59164794D02*
X164917142Y-59225270D01*
X164917142Y-59225270D02*
X164856665Y-59346222D01*
X164856665Y-59346222D02*
X164856665Y-59467175D01*
X164856665Y-59467175D02*
X164917142Y-59648603D01*
X164917142Y-59648603D02*
X165642856Y-60374318D01*
X165642856Y-60374318D02*
X164856665Y-60374318D01*
D11*
X178286904Y-103649819D02*
X178286904Y-104459342D01*
X178286904Y-104459342D02*
X178239285Y-104554580D01*
X178239285Y-104554580D02*
X178191666Y-104602200D01*
X178191666Y-104602200D02*
X178096428Y-104649819D01*
X178096428Y-104649819D02*
X177905952Y-104649819D01*
X177905952Y-104649819D02*
X177810714Y-104602200D01*
X177810714Y-104602200D02*
X177763095Y-104554580D01*
X177763095Y-104554580D02*
X177715476Y-104459342D01*
X177715476Y-104459342D02*
X177715476Y-103649819D01*
X177334523Y-103649819D02*
X176715476Y-103649819D01*
X176715476Y-103649819D02*
X177048809Y-104030771D01*
X177048809Y-104030771D02*
X176905952Y-104030771D01*
X176905952Y-104030771D02*
X176810714Y-104078390D01*
X176810714Y-104078390D02*
X176763095Y-104126009D01*
X176763095Y-104126009D02*
X176715476Y-104221247D01*
X176715476Y-104221247D02*
X176715476Y-104459342D01*
X176715476Y-104459342D02*
X176763095Y-104554580D01*
X176763095Y-104554580D02*
X176810714Y-104602200D01*
X176810714Y-104602200D02*
X176905952Y-104649819D01*
X176905952Y-104649819D02*
X177191666Y-104649819D01*
X177191666Y-104649819D02*
X177286904Y-104602200D01*
X177286904Y-104602200D02*
X177334523Y-104554580D01*
X169518094Y-91574819D02*
X169518094Y-90574819D01*
X169518094Y-90574819D02*
X169279999Y-90574819D01*
X169279999Y-90574819D02*
X169137142Y-90622438D01*
X169137142Y-90622438D02*
X169041904Y-90717676D01*
X169041904Y-90717676D02*
X168994285Y-90812914D01*
X168994285Y-90812914D02*
X168946666Y-91003390D01*
X168946666Y-91003390D02*
X168946666Y-91146247D01*
X168946666Y-91146247D02*
X168994285Y-91336723D01*
X168994285Y-91336723D02*
X169041904Y-91431961D01*
X169041904Y-91431961D02*
X169137142Y-91527200D01*
X169137142Y-91527200D02*
X169279999Y-91574819D01*
X169279999Y-91574819D02*
X169518094Y-91574819D01*
X168613332Y-90574819D02*
X167946666Y-90574819D01*
X167946666Y-90574819D02*
X168375237Y-91574819D01*
X171737819Y-92807666D02*
X172452104Y-92807666D01*
X172452104Y-92807666D02*
X172594961Y-92760047D01*
X172594961Y-92760047D02*
X172690200Y-92664809D01*
X172690200Y-92664809D02*
X172737819Y-92521952D01*
X172737819Y-92521952D02*
X172737819Y-92426714D01*
X171737819Y-93188619D02*
X171737819Y-93807666D01*
X171737819Y-93807666D02*
X172118771Y-93474333D01*
X172118771Y-93474333D02*
X172118771Y-93617190D01*
X172118771Y-93617190D02*
X172166390Y-93712428D01*
X172166390Y-93712428D02*
X172214009Y-93760047D01*
X172214009Y-93760047D02*
X172309247Y-93807666D01*
X172309247Y-93807666D02*
X172547342Y-93807666D01*
X172547342Y-93807666D02*
X172642580Y-93760047D01*
X172642580Y-93760047D02*
X172690200Y-93712428D01*
X172690200Y-93712428D02*
X172737819Y-93617190D01*
X172737819Y-93617190D02*
X172737819Y-93331476D01*
X172737819Y-93331476D02*
X172690200Y-93236238D01*
X172690200Y-93236238D02*
X172642580Y-93188619D01*
X182166666Y-118415180D02*
X182166666Y-117700895D01*
X182166666Y-117700895D02*
X182119047Y-117558038D01*
X182119047Y-117558038D02*
X182023809Y-117462800D01*
X182023809Y-117462800D02*
X181880952Y-117415180D01*
X181880952Y-117415180D02*
X181785714Y-117415180D01*
X183166666Y-117415180D02*
X182595238Y-117415180D01*
X182880952Y-117415180D02*
X182880952Y-118415180D01*
X182880952Y-118415180D02*
X182785714Y-118272323D01*
X182785714Y-118272323D02*
X182690476Y-118177085D01*
X182690476Y-118177085D02*
X182595238Y-118129466D01*
D12*
X164200000Y-67050000D02*
X164200000Y-69650000D01*
X169400000Y-67050000D02*
X169400000Y-69650000D01*
X164200000Y-65950000D02*
X164200000Y-65750000D01*
X164200000Y-65750000D02*
X169400000Y-65750000D01*
X169400000Y-65750000D02*
X169400000Y-65950000D01*
X164200000Y-70750000D02*
X164200000Y-70950000D01*
X164200000Y-70950000D02*
X169400000Y-70950000D01*
X169400000Y-70950000D02*
X169400000Y-70750000D01*
D13*
X162800000Y-70250000D02*
X162800000Y-70250000D01*
X163000000Y-70250000D02*
X163000000Y-70250000D01*
X163000000Y-70250000D02*
G75*
G03*
X162800000Y-70250000I-100000J0D01*
G01*
X162800000Y-70250000D02*
G75*
G03*
X163000000Y-70250000I100000J0D01*
G01*
X176085000Y-142825000D02*
X176085000Y-141300000D01*
X187400000Y-133050000D02*
X190400000Y-133050000D01*
X190400000Y-133050000D02*
X190450000Y-145550000D01*
X190450000Y-145550000D02*
X187400000Y-145550000D01*
X180800000Y-145550000D02*
X177950000Y-145550000D01*
X177950000Y-145550000D02*
X177950000Y-133100000D01*
X177950000Y-133100000D02*
X177950000Y-133050000D01*
X177950000Y-133050000D02*
X181000000Y-133050000D01*
D12*
X184200000Y-146200000D02*
X184200000Y-146200000D01*
X184200000Y-146100000D02*
X184200000Y-146100000D01*
X184200000Y-146100000D02*
G75*
G03*
X184200000Y-146200000I0J-50000D01*
G01*
X184200000Y-146200000D02*
G75*
G03*
X184200000Y-146100000I0J50000D01*
G01*
D14*
X166927064Y-137965000D02*
X166472936Y-137965000D01*
X166927064Y-139435000D02*
X166472936Y-139435000D01*
X167027064Y-134665000D02*
X166572936Y-134665000D01*
X167027064Y-136135000D02*
X166572936Y-136135000D01*
X166927064Y-141365000D02*
X166472936Y-141365000D01*
X166927064Y-142835000D02*
X166472936Y-142835000D01*
X171165000Y-110072936D02*
X171165000Y-110527064D01*
X172635000Y-110072936D02*
X172635000Y-110527064D01*
X171165000Y-106072936D02*
X171165000Y-106527064D01*
X172635000Y-106072936D02*
X172635000Y-106527064D01*
X165527064Y-92665000D02*
X165072936Y-92665000D01*
X165527064Y-94135000D02*
X165072936Y-94135000D01*
X185027064Y-90065000D02*
X184572936Y-90065000D01*
X185027064Y-91535000D02*
X184572936Y-91535000D01*
X185027064Y-93165000D02*
X184572936Y-93165000D01*
X185027064Y-94635000D02*
X184572936Y-94635000D01*
X167127064Y-50665000D02*
X166672936Y-50665000D01*
X167127064Y-52135000D02*
X166672936Y-52135000D01*
X172660000Y-99985000D02*
X170740000Y-99985000D01*
X172660000Y-97125000D02*
X172660000Y-99985000D01*
X170740000Y-99985000D02*
X170740000Y-97125000D01*
X172460000Y-126160000D02*
X170540000Y-126160000D01*
X172460000Y-123300000D02*
X172460000Y-126160000D01*
X170540000Y-126160000D02*
X170540000Y-123300000D01*
X193072500Y-125661252D02*
X193072500Y-125138748D01*
X191602500Y-125661252D02*
X191602500Y-125138748D01*
X194665000Y-125176248D02*
X194665000Y-125698752D01*
X196135000Y-125176248D02*
X196135000Y-125698752D01*
X174738748Y-134035000D02*
X175261252Y-134035000D01*
X174738748Y-132565000D02*
X175261252Y-132565000D01*
X196965000Y-125176248D02*
X196965000Y-125698752D01*
X198435000Y-125176248D02*
X198435000Y-125698752D01*
X170961252Y-132565000D02*
X170438748Y-132565000D01*
X170961252Y-134035000D02*
X170438748Y-134035000D01*
X168265000Y-145501248D02*
X168265000Y-146023752D01*
X169735000Y-145501248D02*
X169735000Y-146023752D01*
X174665000Y-145501248D02*
X174665000Y-146023752D01*
X176135000Y-145501248D02*
X176135000Y-146023752D01*
X171365000Y-145501248D02*
X171365000Y-146023752D01*
X172835000Y-145501248D02*
X172835000Y-146023752D01*
X167765000Y-110001248D02*
X167765000Y-110523752D01*
X169235000Y-110001248D02*
X169235000Y-110523752D01*
X166761252Y-88965000D02*
X166238748Y-88965000D01*
X166761252Y-90435000D02*
X166238748Y-90435000D01*
X167161252Y-53265000D02*
X166638748Y-53265000D01*
X167161252Y-54735000D02*
X166638748Y-54735000D01*
X189065000Y-125172936D02*
X189065000Y-125627064D01*
X190535000Y-125172936D02*
X190535000Y-125627064D01*
D12*
X164200000Y-58500000D02*
X164200000Y-61100000D01*
X169400000Y-58500000D02*
X169400000Y-61100000D01*
X164200000Y-57400000D02*
X164200000Y-57200000D01*
X164200000Y-57200000D02*
X169400000Y-57200000D01*
X169400000Y-57200000D02*
X169400000Y-57400000D01*
X164200000Y-62200000D02*
X164200000Y-62400000D01*
X164200000Y-62400000D02*
X169400000Y-62400000D01*
X169400000Y-62400000D02*
X169400000Y-62200000D01*
D13*
X162800000Y-61700000D02*
X162800000Y-61700000D01*
X163000000Y-61700000D02*
X163000000Y-61700000D01*
X163000000Y-61700000D02*
G75*
G03*
X162800000Y-61700000I-100000J0D01*
G01*
X162800000Y-61700000D02*
G75*
G03*
X163000000Y-61700000I100000J0D01*
G01*
D14*
X177525000Y-105035000D02*
X175575000Y-105035000D01*
X177525000Y-110155000D02*
X175575000Y-110155000D01*
X177525000Y-105035000D02*
X180975000Y-105035000D01*
X177525000Y-110155000D02*
X179475000Y-110155000D01*
X169450000Y-95060000D02*
X168150000Y-95060000D01*
X168150000Y-91940000D02*
X170150000Y-91940000D01*
D11*
X177780000Y-88105000D02*
X175930000Y-88105000D01*
X181205000Y-88105000D02*
X180430000Y-88105000D01*
X175930000Y-97875000D02*
X177780000Y-97875000D01*
X180430000Y-97875000D02*
X181205000Y-97875000D01*
D15*
X169050700Y-121146600D02*
X169050700Y-114593400D01*
X169050700Y-114593400D02*
X170671959Y-114593400D01*
X170671959Y-121146600D02*
X169050700Y-121146600D01*
X172328039Y-114593400D02*
X172671960Y-114593400D01*
X172671960Y-121146600D02*
X172328039Y-121146600D01*
X174328040Y-114593400D02*
X174671959Y-114593400D01*
X174671959Y-121146600D02*
X174328040Y-121146600D01*
X176328039Y-114593400D02*
X176671960Y-114593400D01*
X176671960Y-121146600D02*
X176328039Y-121146600D01*
X178328040Y-114593400D02*
X178671958Y-114593400D01*
X178671958Y-121146600D02*
X178328040Y-121146600D01*
X180328038Y-114593400D02*
X180671959Y-114593400D01*
X180671959Y-121146600D02*
X180328038Y-121146600D01*
X182328039Y-114593400D02*
X182671961Y-114593400D01*
X182671961Y-121146600D02*
X182328039Y-121146600D01*
X184328041Y-114593400D02*
X184671959Y-114593400D01*
X184671959Y-121146600D02*
X184328041Y-121146600D01*
X186328039Y-114593400D02*
X186671960Y-114593400D01*
X186671960Y-121146600D02*
X186328039Y-121146600D01*
X188328040Y-114593400D02*
X188671959Y-114593400D01*
X188671959Y-121146600D02*
X188328040Y-121146600D01*
X190328039Y-114593400D02*
X190671960Y-114593400D01*
X190671960Y-121146600D02*
X190328039Y-121146600D01*
X192328040Y-114593400D02*
X192671958Y-114593400D01*
X192671958Y-121146600D02*
X192328040Y-121146600D01*
X194328038Y-114593400D02*
X195949300Y-114593400D01*
X195949300Y-121146600D02*
X194328038Y-121146600D01*
X195949300Y-114593400D02*
X195949300Y-121146600D01*
D16*
X168796700Y-115740000D02*
G75*
G03*
X168034700Y-115740000I-381000J0D01*
G01*
X168034700Y-115740000D02*
G75*
G03*
X168796700Y-115740000I381000J0D01*
G01*
%LPC*%
D17*
X174758500Y-90948500D02*
X173331500Y-90948500D01*
X173331500Y-90231500D01*
X174758500Y-90231500D01*
X174758500Y-90948500D01*
G36*
X174758500Y-90948500D02*
G01*
X173331500Y-90948500D01*
X173331500Y-90231500D01*
X174758500Y-90231500D01*
X174758500Y-90948500D01*
G37*
X174758500Y-91452500D02*
X173331500Y-91452500D01*
X173331500Y-91027500D01*
X174758500Y-91027500D01*
X174758500Y-91452500D01*
G36*
X174758500Y-91452500D02*
G01*
X173331500Y-91452500D01*
X173331500Y-91027500D01*
X174758500Y-91027500D01*
X174758500Y-91452500D01*
G37*
X174758500Y-91952500D02*
X173331500Y-91952500D01*
X173331500Y-91527500D01*
X174758500Y-91527500D01*
X174758500Y-91952500D01*
G36*
X174758500Y-91952500D02*
G01*
X173331500Y-91952500D01*
X173331500Y-91527500D01*
X174758500Y-91527500D01*
X174758500Y-91952500D01*
G37*
X174758500Y-92452500D02*
X173331500Y-92452500D01*
X173331500Y-92027500D01*
X174758500Y-92027500D01*
X174758500Y-92452500D01*
G36*
X174758500Y-92452500D02*
G01*
X173331500Y-92452500D01*
X173331500Y-92027500D01*
X174758500Y-92027500D01*
X174758500Y-92452500D01*
G37*
X174758500Y-92952500D02*
X173331500Y-92952500D01*
X173331500Y-92527500D01*
X174758500Y-92527500D01*
X174758500Y-92952500D01*
G36*
X174758500Y-92952500D02*
G01*
X173331500Y-92952500D01*
X173331500Y-92527500D01*
X174758500Y-92527500D01*
X174758500Y-92952500D01*
G37*
X174758500Y-93452500D02*
X173331500Y-93452500D01*
X173331500Y-93027500D01*
X174758500Y-93027500D01*
X174758500Y-93452500D01*
G36*
X174758500Y-93452500D02*
G01*
X173331500Y-93452500D01*
X173331500Y-93027500D01*
X174758500Y-93027500D01*
X174758500Y-93452500D01*
G37*
X174758500Y-93952500D02*
X173331500Y-93952500D01*
X173331500Y-93527500D01*
X174758500Y-93527500D01*
X174758500Y-93952500D01*
G36*
X174758500Y-93952500D02*
G01*
X173331500Y-93952500D01*
X173331500Y-93527500D01*
X174758500Y-93527500D01*
X174758500Y-93952500D01*
G37*
X174758500Y-94452500D02*
X173331500Y-94452500D01*
X173331500Y-94027500D01*
X174758500Y-94027500D01*
X174758500Y-94452500D01*
G36*
X174758500Y-94452500D02*
G01*
X173331500Y-94452500D01*
X173331500Y-94027500D01*
X174758500Y-94027500D01*
X174758500Y-94452500D01*
G37*
X174758500Y-94952500D02*
X173331500Y-94952500D01*
X173331500Y-94527500D01*
X174758500Y-94527500D01*
X174758500Y-94952500D01*
G36*
X174758500Y-94952500D02*
G01*
X173331500Y-94952500D01*
X173331500Y-94527500D01*
X174758500Y-94527500D01*
X174758500Y-94952500D01*
G37*
X174758500Y-95748500D02*
X173331500Y-95748500D01*
X173331500Y-95031500D01*
X174758500Y-95031500D01*
X174758500Y-95748500D01*
G36*
X174758500Y-95748500D02*
G01*
X173331500Y-95748500D01*
X173331500Y-95031500D01*
X174758500Y-95031500D01*
X174758500Y-95748500D01*
G37*
X175189000Y-89226000D02*
X175213000Y-89228000D01*
X175237000Y-89231000D01*
X175261000Y-89235000D01*
X175284000Y-89241000D01*
X175307000Y-89248000D01*
X175330000Y-89256000D01*
X175352000Y-89265000D01*
X175374000Y-89275000D01*
X175395000Y-89287000D01*
X175416000Y-89299000D01*
X175435000Y-89313000D01*
X175454000Y-89328000D01*
X175473000Y-89343000D01*
X175490000Y-89360000D01*
X175507000Y-89377000D01*
X175522000Y-89396000D01*
X175537000Y-89415000D01*
X175551000Y-89434000D01*
X175563000Y-89455000D01*
X175575000Y-89476000D01*
X175585000Y-89498000D01*
X175594000Y-89520000D01*
X175602000Y-89543000D01*
X175609000Y-89566000D01*
X175615000Y-89589000D01*
X175619000Y-89613000D01*
X175622000Y-89637000D01*
X175624000Y-89661000D01*
X175625000Y-89685000D01*
X175625000Y-89715000D01*
X175624000Y-89736000D01*
X175621000Y-89758000D01*
X175618000Y-89781000D01*
X175613000Y-89803000D01*
X175607000Y-89825000D01*
X175600000Y-89847000D01*
X175592000Y-89869000D01*
X175583000Y-89890000D01*
X175573000Y-89910000D01*
X175561000Y-89930000D01*
X175549000Y-89949000D01*
X175536000Y-89968000D01*
X175522000Y-89986000D01*
X175507000Y-90003000D01*
X175492000Y-90020000D01*
X175475000Y-90036000D01*
X175458000Y-90051000D01*
X175440000Y-90065000D01*
X175421000Y-90078000D01*
X175402000Y-90090000D01*
X175382000Y-90101000D01*
X175361000Y-90111000D01*
X175340000Y-90120000D01*
X175319000Y-90128000D01*
X175297000Y-90135000D01*
X175275000Y-90141000D01*
X175253000Y-90146000D01*
X175230000Y-90150000D01*
X175207000Y-90152000D01*
X175185000Y-90153000D01*
X173332000Y-90153000D01*
X173331500Y-89431500D01*
X173332000Y-89432000D01*
X174775000Y-89432000D01*
X174782000Y-89421000D01*
X174791000Y-89409000D01*
X174800000Y-89397000D01*
X174809000Y-89386000D01*
X174819000Y-89374000D01*
X174830000Y-89364000D01*
X174840000Y-89353000D01*
X174851000Y-89343000D01*
X174862000Y-89333000D01*
X174874000Y-89324000D01*
X174886000Y-89315000D01*
X174898000Y-89306000D01*
X174910000Y-89298000D01*
X174923000Y-89290000D01*
X174936000Y-89282000D01*
X174949000Y-89275000D01*
X174962000Y-89269000D01*
X174976000Y-89263000D01*
X174990000Y-89257000D01*
X175004000Y-89252000D01*
X175018000Y-89247000D01*
X175032000Y-89243000D01*
X175046000Y-89239000D01*
X175061000Y-89235000D01*
X175076000Y-89232000D01*
X175090000Y-89230000D01*
X175105000Y-89228000D01*
X175120000Y-89226000D01*
X175135000Y-89226000D01*
X175150000Y-89225000D01*
X175165000Y-89225000D01*
X175189000Y-89226000D01*
G36*
X175189000Y-89226000D02*
G01*
X175213000Y-89228000D01*
X175237000Y-89231000D01*
X175261000Y-89235000D01*
X175284000Y-89241000D01*
X175307000Y-89248000D01*
X175330000Y-89256000D01*
X175352000Y-89265000D01*
X175374000Y-89275000D01*
X175395000Y-89287000D01*
X175416000Y-89299000D01*
X175435000Y-89313000D01*
X175454000Y-89328000D01*
X175473000Y-89343000D01*
X175490000Y-89360000D01*
X175507000Y-89377000D01*
X175522000Y-89396000D01*
X175537000Y-89415000D01*
X175551000Y-89434000D01*
X175563000Y-89455000D01*
X175575000Y-89476000D01*
X175585000Y-89498000D01*
X175594000Y-89520000D01*
X175602000Y-89543000D01*
X175609000Y-89566000D01*
X175615000Y-89589000D01*
X175619000Y-89613000D01*
X175622000Y-89637000D01*
X175624000Y-89661000D01*
X175625000Y-89685000D01*
X175625000Y-89715000D01*
X175624000Y-89736000D01*
X175621000Y-89758000D01*
X175618000Y-89781000D01*
X175613000Y-89803000D01*
X175607000Y-89825000D01*
X175600000Y-89847000D01*
X175592000Y-89869000D01*
X175583000Y-89890000D01*
X175573000Y-89910000D01*
X175561000Y-89930000D01*
X175549000Y-89949000D01*
X175536000Y-89968000D01*
X175522000Y-89986000D01*
X175507000Y-90003000D01*
X175492000Y-90020000D01*
X175475000Y-90036000D01*
X175458000Y-90051000D01*
X175440000Y-90065000D01*
X175421000Y-90078000D01*
X175402000Y-90090000D01*
X175382000Y-90101000D01*
X175361000Y-90111000D01*
X175340000Y-90120000D01*
X175319000Y-90128000D01*
X175297000Y-90135000D01*
X175275000Y-90141000D01*
X175253000Y-90146000D01*
X175230000Y-90150000D01*
X175207000Y-90152000D01*
X175185000Y-90153000D01*
X173332000Y-90153000D01*
X173331500Y-89431500D01*
X173332000Y-89432000D01*
X174775000Y-89432000D01*
X174782000Y-89421000D01*
X174791000Y-89409000D01*
X174800000Y-89397000D01*
X174809000Y-89386000D01*
X174819000Y-89374000D01*
X174830000Y-89364000D01*
X174840000Y-89353000D01*
X174851000Y-89343000D01*
X174862000Y-89333000D01*
X174874000Y-89324000D01*
X174886000Y-89315000D01*
X174898000Y-89306000D01*
X174910000Y-89298000D01*
X174923000Y-89290000D01*
X174936000Y-89282000D01*
X174949000Y-89275000D01*
X174962000Y-89269000D01*
X174976000Y-89263000D01*
X174990000Y-89257000D01*
X175004000Y-89252000D01*
X175018000Y-89247000D01*
X175032000Y-89243000D01*
X175046000Y-89239000D01*
X175061000Y-89235000D01*
X175076000Y-89232000D01*
X175090000Y-89230000D01*
X175105000Y-89228000D01*
X175120000Y-89226000D01*
X175135000Y-89226000D01*
X175150000Y-89225000D01*
X175165000Y-89225000D01*
X175189000Y-89226000D01*
G37*
X175207000Y-95828000D02*
X175230000Y-95830000D01*
X175253000Y-95834000D01*
X175275000Y-95839000D01*
X175297000Y-95845000D01*
X175319000Y-95852000D01*
X175340000Y-95860000D01*
X175361000Y-95869000D01*
X175382000Y-95879000D01*
X175402000Y-95890000D01*
X175421000Y-95902000D01*
X175440000Y-95915000D01*
X175458000Y-95929000D01*
X175475000Y-95944000D01*
X175492000Y-95960000D01*
X175507000Y-95977000D01*
X175522000Y-95994000D01*
X175536000Y-96012000D01*
X175549000Y-96031000D01*
X175561000Y-96050000D01*
X175573000Y-96070000D01*
X175583000Y-96090000D01*
X175592000Y-96111000D01*
X175600000Y-96133000D01*
X175607000Y-96155000D01*
X175613000Y-96177000D01*
X175618000Y-96199000D01*
X175621000Y-96222000D01*
X175624000Y-96244000D01*
X175625000Y-96265000D01*
X175625000Y-96295000D01*
X175624000Y-96319000D01*
X175622000Y-96343000D01*
X175619000Y-96367000D01*
X175615000Y-96391000D01*
X175609000Y-96414000D01*
X175602000Y-96437000D01*
X175594000Y-96460000D01*
X175585000Y-96482000D01*
X175575000Y-96504000D01*
X175563000Y-96525000D01*
X175551000Y-96546000D01*
X175537000Y-96565000D01*
X175522000Y-96584000D01*
X175507000Y-96603000D01*
X175490000Y-96620000D01*
X175473000Y-96637000D01*
X175454000Y-96652000D01*
X175435000Y-96667000D01*
X175416000Y-96681000D01*
X175395000Y-96693000D01*
X175374000Y-96705000D01*
X175352000Y-96715000D01*
X175330000Y-96724000D01*
X175307000Y-96732000D01*
X175284000Y-96739000D01*
X175261000Y-96745000D01*
X175237000Y-96749000D01*
X175213000Y-96752000D01*
X175189000Y-96754000D01*
X175165000Y-96755000D01*
X175150000Y-96755000D01*
X175135000Y-96754000D01*
X175120000Y-96754000D01*
X175105000Y-96752000D01*
X175090000Y-96750000D01*
X175076000Y-96748000D01*
X175061000Y-96745000D01*
X175046000Y-96741000D01*
X175032000Y-96737000D01*
X175018000Y-96733000D01*
X175004000Y-96728000D01*
X174990000Y-96723000D01*
X174976000Y-96717000D01*
X174962000Y-96711000D01*
X174949000Y-96705000D01*
X174936000Y-96698000D01*
X174923000Y-96690000D01*
X174910000Y-96682000D01*
X174898000Y-96674000D01*
X174886000Y-96665000D01*
X174874000Y-96656000D01*
X174862000Y-96647000D01*
X174851000Y-96637000D01*
X174840000Y-96627000D01*
X174830000Y-96616000D01*
X174819000Y-96606000D01*
X174809000Y-96594000D01*
X174800000Y-96583000D01*
X174791000Y-96571000D01*
X174782000Y-96559000D01*
X174775000Y-96548000D01*
X173332000Y-96548000D01*
X173331500Y-96548500D01*
X173332000Y-95827000D01*
X175185000Y-95827000D01*
X175207000Y-95828000D01*
G36*
X175207000Y-95828000D02*
G01*
X175230000Y-95830000D01*
X175253000Y-95834000D01*
X175275000Y-95839000D01*
X175297000Y-95845000D01*
X175319000Y-95852000D01*
X175340000Y-95860000D01*
X175361000Y-95869000D01*
X175382000Y-95879000D01*
X175402000Y-95890000D01*
X175421000Y-95902000D01*
X175440000Y-95915000D01*
X175458000Y-95929000D01*
X175475000Y-95944000D01*
X175492000Y-95960000D01*
X175507000Y-95977000D01*
X175522000Y-95994000D01*
X175536000Y-96012000D01*
X175549000Y-96031000D01*
X175561000Y-96050000D01*
X175573000Y-96070000D01*
X175583000Y-96090000D01*
X175592000Y-96111000D01*
X175600000Y-96133000D01*
X175607000Y-96155000D01*
X175613000Y-96177000D01*
X175618000Y-96199000D01*
X175621000Y-96222000D01*
X175624000Y-96244000D01*
X175625000Y-96265000D01*
X175625000Y-96295000D01*
X175624000Y-96319000D01*
X175622000Y-96343000D01*
X175619000Y-96367000D01*
X175615000Y-96391000D01*
X175609000Y-96414000D01*
X175602000Y-96437000D01*
X175594000Y-96460000D01*
X175585000Y-96482000D01*
X175575000Y-96504000D01*
X175563000Y-96525000D01*
X175551000Y-96546000D01*
X175537000Y-96565000D01*
X175522000Y-96584000D01*
X175507000Y-96603000D01*
X175490000Y-96620000D01*
X175473000Y-96637000D01*
X175454000Y-96652000D01*
X175435000Y-96667000D01*
X175416000Y-96681000D01*
X175395000Y-96693000D01*
X175374000Y-96705000D01*
X175352000Y-96715000D01*
X175330000Y-96724000D01*
X175307000Y-96732000D01*
X175284000Y-96739000D01*
X175261000Y-96745000D01*
X175237000Y-96749000D01*
X175213000Y-96752000D01*
X175189000Y-96754000D01*
X175165000Y-96755000D01*
X175150000Y-96755000D01*
X175135000Y-96754000D01*
X175120000Y-96754000D01*
X175105000Y-96752000D01*
X175090000Y-96750000D01*
X175076000Y-96748000D01*
X175061000Y-96745000D01*
X175046000Y-96741000D01*
X175032000Y-96737000D01*
X175018000Y-96733000D01*
X175004000Y-96728000D01*
X174990000Y-96723000D01*
X174976000Y-96717000D01*
X174962000Y-96711000D01*
X174949000Y-96705000D01*
X174936000Y-96698000D01*
X174923000Y-96690000D01*
X174910000Y-96682000D01*
X174898000Y-96674000D01*
X174886000Y-96665000D01*
X174874000Y-96656000D01*
X174862000Y-96647000D01*
X174851000Y-96637000D01*
X174840000Y-96627000D01*
X174830000Y-96616000D01*
X174819000Y-96606000D01*
X174809000Y-96594000D01*
X174800000Y-96583000D01*
X174791000Y-96571000D01*
X174782000Y-96559000D01*
X174775000Y-96548000D01*
X173332000Y-96548000D01*
X173331500Y-96548500D01*
X173332000Y-95827000D01*
X175185000Y-95827000D01*
X175207000Y-95828000D01*
G37*
D18*
X163800000Y-70200000D03*
X169800000Y-70200000D03*
X163800000Y-66500000D03*
X169800000Y-66500000D03*
D19*
X175410000Y-142062000D03*
X174140000Y-142062000D03*
X172870000Y-142062000D03*
X171600000Y-142062000D03*
X171600000Y-136638000D03*
X172870000Y-136638000D03*
X174140000Y-136638000D03*
X175410000Y-136638000D03*
D20*
X173505000Y-139350000D03*
D21*
X184200000Y-144150000D03*
X184200000Y-134450000D03*
D22*
X167700000Y-138700000D03*
X165700000Y-138700000D03*
X167800000Y-135400000D03*
X165800000Y-135400000D03*
X167700000Y-142100000D03*
X165700000Y-142100000D03*
D23*
X171900000Y-109300000D03*
X171900000Y-111300000D03*
X171900000Y-105300000D03*
X171900000Y-107300000D03*
D22*
X166300000Y-93400000D03*
X164300000Y-93400000D03*
X185800000Y-90800000D03*
X183800000Y-90800000D03*
X185800000Y-93900000D03*
X183800000Y-93900000D03*
X167900000Y-51400000D03*
X165900000Y-51400000D03*
D24*
X171700000Y-99150000D03*
X171700000Y-97100000D03*
X171500000Y-125325000D03*
X171500000Y-123275000D03*
D25*
X192337500Y-126437500D03*
X192337500Y-124362500D03*
D26*
X195400000Y-124400000D03*
X195400000Y-126475000D03*
D27*
X173962500Y-133300000D03*
X176037500Y-133300000D03*
D26*
X197700000Y-124400000D03*
X197700000Y-126475000D03*
D28*
X171737500Y-133300000D03*
X169662500Y-133300000D03*
D26*
X169000000Y-144725000D03*
X169000000Y-146800000D03*
X175400000Y-144725000D03*
X175400000Y-146800000D03*
X172100000Y-144725000D03*
X172100000Y-146800000D03*
X168500000Y-109225000D03*
X168500000Y-111300000D03*
D28*
X167537500Y-89700000D03*
X165462500Y-89700000D03*
X167937500Y-54000000D03*
X165862500Y-54000000D03*
D23*
X189800000Y-124400000D03*
X189800000Y-126400000D03*
D18*
X163800000Y-61650000D03*
X169800000Y-61650000D03*
X163800000Y-57950000D03*
X169800000Y-57950000D03*
D29*
X180000000Y-105690000D03*
X180000000Y-106960000D03*
X180000000Y-108230000D03*
X180000000Y-109500000D03*
X175050000Y-109500000D03*
X175050000Y-108230000D03*
X175050000Y-106960000D03*
X175050000Y-105690000D03*
D30*
X169800000Y-92750000D03*
D31*
X169800000Y-94450000D03*
X167800000Y-94450000D03*
X167800000Y-92550000D03*
D32*
X175165000Y-89690000D03*
X175165000Y-96290000D03*
D33*
X179105000Y-88380000D03*
X179105000Y-97600000D03*
X174605000Y-88380000D03*
X174605000Y-97600000D03*
D34*
X172500000Y-117870000D03*
X192500000Y-117870000D03*
D35*
X171499999Y-115739999D03*
X171499999Y-120000001D03*
X173500000Y-115739999D03*
X173500000Y-120000001D03*
X175499999Y-115739999D03*
X175499999Y-120000001D03*
X177500000Y-115739999D03*
X177500000Y-120000001D03*
X179499998Y-115739999D03*
X179499998Y-120000001D03*
X181499999Y-115739999D03*
X181499999Y-120000001D03*
X183500001Y-115739999D03*
X183500001Y-120000001D03*
X185499999Y-115739999D03*
X185499999Y-120000001D03*
X187500000Y-115739999D03*
X187500000Y-120000001D03*
X189499999Y-115739999D03*
X189499999Y-120000001D03*
X191500000Y-115739999D03*
X191500000Y-120000001D03*
X193499998Y-115739999D03*
X193499998Y-120000001D03*
%LPD*%
M02*
