M48
; DRILL file {KiCad 8.0.1} date 2024-03-30T15:34:29-0400
; FORMAT={-:-/ absolute / metric / decimal}
; #@! TF.CreationDate,2024-03-30T15:34:29-04:00
; #@! TF.GenerationSoftware,Kicad,Pcbnew,8.0.1
; #@! TF.FileFunction,Plated,1,2,PTH
FMAT,2
METRIC
; #@! TA.AperFunction,Plated,PTH,ViaDrill
T1C0.400
; #@! TA.AperFunction,Plated,PTH,ComponentDrill
T2C1.000
%
G90
G05
T1
X161.9Y-43.35
X161.9Y-148.55
X166.357Y-73.293
X166.55Y-122.25
X166.716Y-80.3
X166.8Y-59.1
X167.35Y-66.85
X167.35Y-72.1
X167.467Y-65.64
X167.716Y-80.3
X168.441Y-96.05
X168.6Y-109.55
X168.9Y-86.1
X169.132Y-59.127
X169.423Y-72.175
X169.6Y-80.3
X169.608Y-121.082
X169.7Y-126.35
X170.95Y-115.852
X171.45Y-76.859
X171.45Y-116.95
X172.15Y-52.15
X172.15Y-55.5
X172.15Y-57.4
X172.15Y-61.95
X172.2Y-66.9
X172.384Y-87.512
X172.4Y-96.95
X172.513Y-116.95
X172.612Y-83.2
X172.713Y-68.75
X173.5Y-109.6
X173.513Y-116.95
X173.55Y-75.1
X173.785Y-87.167
X173.9Y-68.85
X174.278Y-65.523
X174.38Y-88.179
X174.5Y-126.3
X175.122Y-83.208
X175.25Y-100.45
X175.4Y-107.85
X175.6Y-141.7
X175.65Y-68.85
X176.05Y-73.2
X176.41Y-107.85
X176.6Y-116.95
X176.95Y-83.2
X177.05Y-59.95
X177.05Y-96.05
X177.1Y-61.35
X177.5Y-88.135
X177.794Y-99.1
X178.321Y-111.95
X178.45Y-59.95
X178.45Y-61.35
X178.519Y-100.203
X178.95Y-52.15
X178.95Y-68.85
X179.2Y-79.05
X179.9Y-111.95
X180.168Y-87.167
X180.8Y-105.35
X180.91Y-141.048
X181.0Y-100.734
X181.551Y-72.464
X184.7Y-130.7
X185.9Y-52.15
X185.9Y-56.95
X185.9Y-61.95
X185.9Y-68.8
X186.5Y-107.6
X186.635Y-66.465
X187.062Y-116.927
X187.5Y-103.35
X187.95Y-128.35
X188.2Y-92.4
X189.25Y-97.8
X190.05Y-75.4
X190.05Y-77.7
X190.05Y-80.35
X190.05Y-84.45
X190.05Y-86.85
X190.05Y-89.85
X191.474Y-96.13
X191.6Y-104.8
X191.754Y-73.3
X192.8Y-79.05
X193.65Y-106.05
X197.258Y-49.318
X202.0Y-43.45
X202.0Y-148.55
T2
X195.5Y-70.25
X195.5Y-72.79
X195.5Y-75.33
X195.5Y-77.87
X195.5Y-80.41
X195.5Y-82.95
X195.5Y-85.49
X195.5Y-88.03
M30
