G04 #@! TF.GenerationSoftware,KiCad,Pcbnew,7.0.10*
G04 #@! TF.CreationDate,2024-02-24T15:32:32-05:00*
G04 #@! TF.ProjectId,Bird3Controller,42697264-3343-46f6-9e74-726f6c6c6572,rev?*
G04 #@! TF.SameCoordinates,Original*
G04 #@! TF.FileFunction,Copper,L1,Top*
G04 #@! TF.FilePolarity,Positive*
%FSLAX46Y46*%
G04 Gerber Fmt 4.6, Leading zero omitted, Abs format (unit mm)*
G04 Created by KiCad (PCBNEW 7.0.10) date 2024-02-24 15:32:32*
%MOMM*%
%LPD*%
G01*
G04 APERTURE LIST*
G04 Aperture macros list*
%AMRoundRect*
0 Rectangle with rounded corners*
0 $1 Rounding radius*
0 $2 $3 $4 $5 $6 $7 $8 $9 X,Y pos of 4 corners*
0 Add a 4 corners polygon primitive as box body*
4,1,4,$2,$3,$4,$5,$6,$7,$8,$9,$2,$3,0*
0 Add four circle primitives for the rounded corners*
1,1,$1+$1,$2,$3*
1,1,$1+$1,$4,$5*
1,1,$1+$1,$6,$7*
1,1,$1+$1,$8,$9*
0 Add four rect primitives between the rounded corners*
20,1,$1+$1,$2,$3,$4,$5,0*
20,1,$1+$1,$4,$5,$6,$7,0*
20,1,$1+$1,$6,$7,$8,$9,0*
20,1,$1+$1,$8,$9,$2,$3,0*%
G04 Aperture macros list end*
G04 #@! TA.AperFunction,SMDPad,CuDef*
%ADD10R,0.300000X0.800000*%
G04 #@! TD*
G04 #@! TA.AperFunction,SMDPad,CuDef*
%ADD11R,0.400000X0.800000*%
G04 #@! TD*
G04 #@! TA.AperFunction,SMDPad,CuDef*
%ADD12R,1.250000X0.600000*%
G04 #@! TD*
G04 #@! TA.AperFunction,SMDPad,CuDef*
%ADD13R,2.200000X1.200000*%
G04 #@! TD*
G04 #@! TA.AperFunction,SMDPad,CuDef*
%ADD14R,2.900000X5.400000*%
G04 #@! TD*
G04 #@! TA.AperFunction,SMDPad,CuDef*
%ADD15RoundRect,0.250000X-0.337500X-0.475000X0.337500X-0.475000X0.337500X0.475000X-0.337500X0.475000X0*%
G04 #@! TD*
G04 #@! TA.AperFunction,SMDPad,CuDef*
%ADD16RoundRect,0.250000X-0.325000X-0.450000X0.325000X-0.450000X0.325000X0.450000X-0.325000X0.450000X0*%
G04 #@! TD*
G04 #@! TA.AperFunction,SMDPad,CuDef*
%ADD17RoundRect,0.250000X0.325000X0.450000X-0.325000X0.450000X-0.325000X-0.450000X0.325000X-0.450000X0*%
G04 #@! TD*
G04 #@! TA.AperFunction,SMDPad,CuDef*
%ADD18RoundRect,0.250000X0.475000X-0.337500X0.475000X0.337500X-0.475000X0.337500X-0.475000X-0.337500X0*%
G04 #@! TD*
G04 #@! TA.AperFunction,SMDPad,CuDef*
%ADD19R,1.425000X0.450000*%
G04 #@! TD*
G04 #@! TA.AperFunction,SMDPad,CuDef*
%ADD20R,1.880000X2.000000*%
G04 #@! TD*
G04 #@! TA.AperFunction,SMDPad,CuDef*
%ADD21R,2.000000X1.500000*%
G04 #@! TD*
G04 #@! TA.AperFunction,SMDPad,CuDef*
%ADD22R,1.500000X0.900000*%
G04 #@! TD*
G04 #@! TA.AperFunction,SMDPad,CuDef*
%ADD23R,0.900000X1.500000*%
G04 #@! TD*
G04 #@! TA.AperFunction,SMDPad,CuDef*
%ADD24R,0.900000X0.900000*%
G04 #@! TD*
G04 #@! TA.AperFunction,ComponentPad*
%ADD25O,2.000000X1.000000*%
G04 #@! TD*
G04 #@! TA.AperFunction,ViaPad*
%ADD26C,0.800000*%
G04 #@! TD*
G04 #@! TA.AperFunction,Conductor*
%ADD27C,0.250000*%
G04 #@! TD*
G04 APERTURE END LIST*
D10*
X175250000Y-102000000D03*
X175750000Y-102000000D03*
X176250000Y-102000000D03*
X176750000Y-102000000D03*
X177250000Y-102000000D03*
X177750000Y-102000000D03*
X178250000Y-102000000D03*
X178750000Y-102000000D03*
X179250000Y-102000000D03*
X179750000Y-102000000D03*
X180250000Y-102000000D03*
X180750000Y-102000000D03*
X181250000Y-102000000D03*
X181750000Y-102000000D03*
X182250000Y-102000000D03*
X182750000Y-102000000D03*
X183250000Y-102000000D03*
X183750000Y-102000000D03*
X184250000Y-102000000D03*
X184750000Y-102000000D03*
X185250000Y-102000000D03*
X185750000Y-102000000D03*
X186250000Y-102000000D03*
X186750000Y-102000000D03*
X187250000Y-102000000D03*
X187750000Y-102000000D03*
X188250000Y-102000000D03*
X188750000Y-102000000D03*
X189250000Y-102000000D03*
X189750000Y-102000000D03*
D11*
X190750000Y-99500000D03*
X174250000Y-99500000D03*
D12*
X192500000Y-106600000D03*
X192500000Y-107550000D03*
X192500000Y-108500000D03*
X195000000Y-108500000D03*
X195000000Y-107550000D03*
X195000000Y-106600000D03*
D13*
X198000000Y-105800000D03*
X198000000Y-108000000D03*
D14*
X178750000Y-123100000D03*
X188450000Y-123100000D03*
D15*
X167462500Y-132000000D03*
X169537500Y-132000000D03*
D16*
X174175000Y-136300000D03*
X176225000Y-136300000D03*
X166825000Y-136300000D03*
X164775000Y-136300000D03*
D17*
X169375000Y-136300000D03*
X171425000Y-136300000D03*
D16*
X195375000Y-111500000D03*
X197425000Y-111500000D03*
D15*
X195462500Y-114900000D03*
X197537500Y-114900000D03*
X170762500Y-122800000D03*
X172837500Y-122800000D03*
X190862500Y-111500000D03*
X192937500Y-111500000D03*
D18*
X193200000Y-104037500D03*
X193200000Y-101962500D03*
X165500000Y-58237500D03*
X165500000Y-56162500D03*
X169000000Y-58337500D03*
X169000000Y-56262500D03*
D19*
X165788000Y-126025000D03*
X165788000Y-126675000D03*
X165788000Y-127325000D03*
X165788000Y-127975000D03*
X170212000Y-127975000D03*
X170212000Y-127325000D03*
X170212000Y-126675000D03*
X170212000Y-126025000D03*
D20*
X168000000Y-127000000D03*
D21*
X186600000Y-140000000D03*
X178400000Y-140000000D03*
D22*
X173450000Y-56380000D03*
X173450000Y-57650000D03*
X173450000Y-58920000D03*
X173450000Y-60190000D03*
X173450000Y-61460000D03*
X173450000Y-62730000D03*
X173450000Y-64000000D03*
X173450000Y-65270000D03*
X173450000Y-66540000D03*
X173450000Y-67810000D03*
X173450000Y-69080000D03*
X173450000Y-70350000D03*
X173450000Y-71620000D03*
X173450000Y-72890000D03*
D23*
X175215000Y-74140000D03*
X176485000Y-74140000D03*
X177755000Y-74140000D03*
X179025000Y-74140000D03*
X180295000Y-74140000D03*
X181565000Y-74140000D03*
X182835000Y-74140000D03*
X184105000Y-74140000D03*
X185375000Y-74140000D03*
X186645000Y-74140000D03*
X187915000Y-74140000D03*
X189185000Y-74140000D03*
D22*
X190950000Y-72890000D03*
X190950000Y-71620000D03*
X190950000Y-70350000D03*
X190950000Y-69080000D03*
X190950000Y-67810000D03*
X190950000Y-66540000D03*
X190950000Y-65270000D03*
X190950000Y-64000000D03*
X190950000Y-62730000D03*
X190950000Y-61460000D03*
X190950000Y-60190000D03*
X190950000Y-58920000D03*
X190950000Y-57650000D03*
X190950000Y-56380000D03*
D24*
X179300000Y-62700000D03*
X179300000Y-64100000D03*
X179300000Y-65500000D03*
X179300000Y-65500000D03*
X180700000Y-62700000D03*
X180700000Y-62700000D03*
X180700000Y-64100000D03*
X180700000Y-65500000D03*
X182100000Y-62700000D03*
X182100000Y-64100000D03*
X182100000Y-65500000D03*
D25*
X179105000Y-88380000D03*
X179105000Y-97600000D03*
X174605000Y-88380000D03*
X174605000Y-97600000D03*
D26*
X187195400Y-72738800D03*
X177273200Y-75906400D03*
X174824700Y-72782900D03*
X172077500Y-58920000D03*
X181565000Y-72785900D03*
X184892700Y-76113600D03*
X183751700Y-76559600D03*
X183863500Y-78861800D03*
X175428400Y-66563500D03*
X182912700Y-77794200D03*
X176846900Y-72749400D03*
X182803400Y-79925100D03*
X174811300Y-68322000D03*
X182076500Y-75587200D03*
X175646700Y-72161800D03*
X180772700Y-78116500D03*
X186001700Y-97828000D03*
X180300300Y-103031900D03*
X187550400Y-78655200D03*
X181525800Y-84180600D03*
X186082700Y-72662400D03*
X180858100Y-83431300D03*
X185374200Y-71953900D03*
X180131200Y-82741200D03*
X186505000Y-96616100D03*
X178879600Y-103044400D03*
X192464000Y-121767800D03*
X174823700Y-61756800D03*
X177479600Y-62140600D03*
X174823000Y-62891600D03*
X174827800Y-64026400D03*
X172601900Y-101976800D03*
X176798500Y-100982400D03*
X185219400Y-128846300D03*
X163892400Y-53407600D03*
X193750000Y-106775000D03*
X175153800Y-58548400D03*
X169091500Y-90424400D03*
X169091500Y-105869300D03*
X177506300Y-105975200D03*
X193094900Y-112962800D03*
X172837500Y-124157400D03*
X167361400Y-56162500D03*
X172043300Y-94393600D03*
X175296900Y-92764400D03*
X172551800Y-92555700D03*
X171185700Y-93540700D03*
D27*
X190950000Y-72890000D02*
X189873100Y-72890000D01*
X189721900Y-72738800D02*
X187195400Y-72738800D01*
X189873100Y-72890000D02*
X189721900Y-72738800D01*
X169375000Y-136300000D02*
X166825000Y-136300000D01*
X177755000Y-74140000D02*
X177755000Y-75216900D01*
X177273200Y-75698700D02*
X177273200Y-75906400D01*
X177755000Y-75216900D02*
X177273200Y-75698700D01*
X173450000Y-70350000D02*
X174526900Y-70350000D01*
X174526900Y-72485100D02*
X174824700Y-72782900D01*
X174526900Y-70350000D02*
X174526900Y-72485100D01*
X173450000Y-58920000D02*
X172077500Y-58920000D01*
X180295000Y-74140000D02*
X180295000Y-75216900D01*
X177326200Y-78185700D02*
X180295000Y-75216900D01*
X177326200Y-92699300D02*
X177326200Y-78185700D01*
X173237000Y-96788500D02*
X177326200Y-92699300D01*
X173237000Y-101583600D02*
X173237000Y-96788500D01*
X173358900Y-101705500D02*
X173237000Y-101583600D01*
X173358900Y-103494800D02*
X173358900Y-101705500D01*
X186600000Y-116735900D02*
X173358900Y-103494800D01*
X186600000Y-140000000D02*
X186600000Y-116735900D01*
X181565000Y-74140000D02*
X181565000Y-73063100D01*
X181565000Y-73063100D02*
X181565000Y-72785900D01*
X185250000Y-76470900D02*
X185250000Y-102000000D01*
X184892700Y-76113600D02*
X185250000Y-76470900D01*
X182835000Y-74140000D02*
X182835000Y-75216900D01*
X184750000Y-78601500D02*
X184750000Y-102000000D01*
X182835000Y-76686500D02*
X184750000Y-78601500D01*
X182835000Y-75216900D02*
X182835000Y-76686500D01*
X184105000Y-74140000D02*
X184105000Y-75216900D01*
X184250000Y-102000000D02*
X184250000Y-101273100D01*
X183751700Y-75570200D02*
X183751700Y-76559600D01*
X184105000Y-75216900D02*
X183751700Y-75570200D01*
X184250000Y-79248300D02*
X184250000Y-101273100D01*
X183863500Y-78861800D02*
X184250000Y-79248300D01*
X174526900Y-65662000D02*
X175428400Y-66563500D01*
X174526900Y-65270000D02*
X174526900Y-65662000D01*
X173450000Y-65270000D02*
X174526900Y-65270000D01*
X182750000Y-100156500D02*
X182750000Y-102000000D01*
X183608500Y-99298000D02*
X182750000Y-100156500D01*
X183608500Y-79702000D02*
X183608500Y-99298000D01*
X182912700Y-79006200D02*
X183608500Y-79702000D01*
X182912700Y-77794200D02*
X182912700Y-79006200D01*
X173450000Y-66540000D02*
X174526900Y-66540000D01*
X174526900Y-66714200D02*
X174526900Y-66540000D01*
X176846900Y-69034200D02*
X174526900Y-66714200D01*
X176846900Y-72749400D02*
X176846900Y-69034200D01*
X182250000Y-100017400D02*
X182250000Y-102000000D01*
X183156600Y-99110800D02*
X182250000Y-100017400D01*
X183156600Y-80278300D02*
X183156600Y-99110800D01*
X182803400Y-79925100D02*
X183156600Y-80278300D01*
X173450000Y-67810000D02*
X174526900Y-67810000D01*
X174526900Y-68037600D02*
X174811300Y-68322000D01*
X174526900Y-67810000D02*
X174526900Y-68037600D01*
X181750000Y-99878300D02*
X181750000Y-102000000D01*
X182704700Y-98923600D02*
X181750000Y-99878300D01*
X182704700Y-82024800D02*
X182704700Y-98923600D01*
X182076500Y-81396600D02*
X182704700Y-82024800D01*
X182076500Y-75587200D02*
X182076500Y-81396600D01*
X173450000Y-69080000D02*
X174526900Y-69080000D01*
X175646700Y-70199800D02*
X175646700Y-72161800D01*
X174526900Y-69080000D02*
X175646700Y-70199800D01*
X181250000Y-99739200D02*
X181250000Y-102000000D01*
X182252800Y-98736400D02*
X181250000Y-99739200D01*
X182252800Y-82467100D02*
X182252800Y-98736400D01*
X180772700Y-80987000D02*
X182252800Y-82467100D01*
X180772700Y-78116500D02*
X180772700Y-80987000D01*
X180605300Y-102726900D02*
X180750000Y-102726900D01*
X180300300Y-103031900D02*
X180605300Y-102726900D01*
X180750000Y-102000000D02*
X180750000Y-102726900D01*
X185375000Y-74140000D02*
X185375000Y-75216900D01*
X185774300Y-97600600D02*
X186001700Y-97828000D01*
X185774300Y-75616200D02*
X185774300Y-97600600D01*
X185375000Y-75216900D02*
X185774300Y-75616200D01*
X190950000Y-71620000D02*
X192026900Y-71620000D01*
X192026900Y-74178700D02*
X187550400Y-78655200D01*
X192026900Y-71620000D02*
X192026900Y-74178700D01*
X181525800Y-98168900D02*
X181525800Y-84180600D01*
X180250000Y-99444700D02*
X181525800Y-98168900D01*
X180250000Y-102000000D02*
X180250000Y-99444700D01*
X190950000Y-70350000D02*
X189873100Y-70350000D01*
X188395100Y-70350000D02*
X186082700Y-72662400D01*
X189873100Y-70350000D02*
X188395100Y-70350000D01*
X179750000Y-99305600D02*
X179750000Y-102000000D01*
X180915000Y-98140600D02*
X179750000Y-99305600D01*
X180915000Y-86612300D02*
X180915000Y-98140600D01*
X180798900Y-86496200D02*
X180915000Y-86612300D01*
X180798900Y-83490500D02*
X180798900Y-86496200D01*
X180858100Y-83431300D02*
X180798900Y-83490500D01*
X190950000Y-69080000D02*
X189873100Y-69080000D01*
X188248100Y-69080000D02*
X185374200Y-71953900D01*
X189873100Y-69080000D02*
X188248100Y-69080000D01*
X179250000Y-99152500D02*
X179250000Y-102000000D01*
X180451500Y-97951000D02*
X179250000Y-99152500D01*
X180451500Y-87106100D02*
X180451500Y-97951000D01*
X180131200Y-86785800D02*
X180451500Y-87106100D01*
X180131200Y-82741200D02*
X180131200Y-86785800D01*
X190950000Y-67810000D02*
X192026900Y-67810000D01*
X194734000Y-70517100D02*
X192026900Y-67810000D01*
X194734000Y-90344000D02*
X194734000Y-70517100D01*
X199447600Y-95057600D02*
X194734000Y-90344000D01*
X199447600Y-114621300D02*
X199447600Y-95057600D01*
X198106300Y-115962600D02*
X199447600Y-114621300D01*
X196927800Y-115962600D02*
X198106300Y-115962600D01*
X196622100Y-115656900D02*
X196927800Y-115962600D01*
X196622100Y-114429900D02*
X196622100Y-115656900D01*
X196018200Y-113826000D02*
X196622100Y-114429900D01*
X184329200Y-113826000D02*
X196018200Y-113826000D01*
X173810800Y-103307600D02*
X184329200Y-113826000D01*
X173810800Y-100881400D02*
X173810800Y-103307600D01*
X173723100Y-100793700D02*
X173810800Y-100881400D01*
X173723100Y-98938800D02*
X173723100Y-100793700D01*
X173910300Y-98751600D02*
X173723100Y-98938800D01*
X176298600Y-98751600D02*
X173910300Y-98751600D01*
X178750000Y-101203000D02*
X176298600Y-98751600D01*
X178750000Y-102000000D02*
X178750000Y-101203000D01*
X178250000Y-102000000D02*
X178250000Y-102726900D01*
X186645000Y-74140000D02*
X186645000Y-75216900D01*
X186318400Y-96429500D02*
X186505000Y-96616100D01*
X186318400Y-75543500D02*
X186318400Y-96429500D01*
X186645000Y-75216900D02*
X186318400Y-75543500D01*
X178567500Y-103044400D02*
X178250000Y-102726900D01*
X178879600Y-103044400D02*
X178567500Y-103044400D01*
X188450000Y-123100000D02*
X190226900Y-123100000D01*
X192011500Y-121315400D02*
X190226900Y-123100000D01*
X192011600Y-121315400D02*
X192011500Y-121315400D01*
X195462500Y-117864500D02*
X195462500Y-114900000D01*
X192011600Y-121315400D02*
X195462500Y-117864500D01*
X192464000Y-121767800D02*
X192011600Y-121315400D01*
X173450000Y-61460000D02*
X174526900Y-61460000D01*
X174526900Y-61460000D02*
X174823700Y-61756800D01*
X175529000Y-60190000D02*
X177479600Y-62140600D01*
X173450000Y-60190000D02*
X175529000Y-60190000D01*
X173450000Y-62730000D02*
X174526900Y-62730000D01*
X174688500Y-62891600D02*
X174526900Y-62730000D01*
X174823000Y-62891600D02*
X174688500Y-62891600D01*
X173450000Y-64000000D02*
X174526900Y-64000000D01*
X174553300Y-64026400D02*
X174526900Y-64000000D01*
X174827800Y-64026400D02*
X174553300Y-64026400D01*
X169847100Y-125660100D02*
X170212000Y-126025000D01*
X169847100Y-99242400D02*
X169847100Y-125660100D01*
X176609000Y-92480500D02*
X169847100Y-99242400D01*
X176609000Y-77632900D02*
X176609000Y-92480500D01*
X179025000Y-75216900D02*
X176609000Y-77632900D01*
X179025000Y-74140000D02*
X179025000Y-75216900D01*
X177250000Y-102000000D02*
X177250000Y-101273100D01*
X176750000Y-102000000D02*
X176750000Y-101273100D01*
X176750000Y-101273100D02*
X176798500Y-101273100D01*
X176798500Y-101273100D02*
X177250000Y-101273100D01*
X176798500Y-101273100D02*
X176798500Y-100982400D01*
X171251400Y-123288900D02*
X170762500Y-122800000D01*
X171251400Y-127325000D02*
X171251400Y-123288900D01*
X170212000Y-127325000D02*
X171251400Y-127325000D01*
X171425000Y-127498600D02*
X171251400Y-127325000D01*
X171425000Y-136300000D02*
X171425000Y-127498600D01*
X170762500Y-103816200D02*
X172601900Y-101976800D01*
X170762500Y-122800000D02*
X170762500Y-103816200D01*
X170212000Y-131325500D02*
X169537500Y-132000000D01*
X170212000Y-127975000D02*
X170212000Y-131325500D01*
X178750000Y-123100000D02*
X178750000Y-126126900D01*
X179733800Y-127110700D02*
X178750000Y-126126900D01*
X179733800Y-140878500D02*
X179733800Y-127110700D01*
X179535400Y-141076900D02*
X179733800Y-140878500D01*
X177225000Y-141076900D02*
X179535400Y-141076900D01*
X173311600Y-137163400D02*
X177225000Y-141076900D01*
X173134100Y-137340900D02*
X173311600Y-137163400D01*
X170867900Y-137340900D02*
X173134100Y-137340900D01*
X170400000Y-136873000D02*
X170867900Y-137340900D01*
X170400000Y-132862500D02*
X170400000Y-136873000D01*
X169537500Y-132000000D02*
X170400000Y-132862500D01*
X173311600Y-137163400D02*
X174175000Y-136300000D01*
X167462500Y-129649500D02*
X167462500Y-132000000D01*
X165788000Y-127975000D02*
X167462500Y-129649500D01*
X164775000Y-134687500D02*
X164775000Y-136300000D01*
X167462500Y-132000000D02*
X164775000Y-134687500D01*
X163867800Y-126905800D02*
X164748600Y-126025000D01*
X163867800Y-136985800D02*
X163867800Y-126905800D01*
X168430400Y-141548400D02*
X163867800Y-136985800D01*
X179767500Y-141548400D02*
X168430400Y-141548400D01*
X185219400Y-136096500D02*
X179767500Y-141548400D01*
X185219400Y-128846300D02*
X185219400Y-136096500D01*
X165788000Y-126025000D02*
X164748600Y-126025000D01*
X195000000Y-106600000D02*
X194048100Y-106600000D01*
X196573100Y-105978800D02*
X195951900Y-106600000D01*
X196573100Y-105800000D02*
X196573100Y-105978800D01*
X195000000Y-106600000D02*
X195951900Y-106600000D01*
X198000000Y-105800000D02*
X196573100Y-105800000D01*
X194048100Y-104885600D02*
X193200000Y-104037500D01*
X194048100Y-106600000D02*
X194048100Y-104885600D01*
X193873100Y-106775000D02*
X194048100Y-106600000D01*
X193750000Y-106775000D02*
X193873100Y-106775000D01*
X169687500Y-57650000D02*
X169000000Y-58337500D01*
X173450000Y-57650000D02*
X169687500Y-57650000D01*
X163892400Y-56629900D02*
X165500000Y-58237500D01*
X163892400Y-53407600D02*
X163892400Y-56629900D01*
X168900000Y-58237500D02*
X169000000Y-58337500D01*
X165500000Y-58237500D02*
X168900000Y-58237500D01*
X174526900Y-57921500D02*
X174526900Y-57650000D01*
X175153800Y-58548400D02*
X174526900Y-57921500D01*
X173450000Y-57650000D02*
X174526900Y-57650000D01*
X196123100Y-107550000D02*
X195000000Y-107550000D01*
X196573100Y-108000000D02*
X196123100Y-107550000D01*
X198000000Y-108000000D02*
X196573100Y-108000000D01*
X197425000Y-109501900D02*
X198000000Y-108926900D01*
X197425000Y-111500000D02*
X197425000Y-109501900D01*
X198000000Y-108000000D02*
X198000000Y-108926900D01*
X195000000Y-108500000D02*
X195951900Y-108500000D01*
X175750000Y-102000000D02*
X175750000Y-101273100D01*
X174946700Y-101273100D02*
X175750000Y-101273100D01*
X174746000Y-101473800D02*
X174946700Y-101273100D01*
X174746000Y-102696700D02*
X174746000Y-101473800D01*
X177297600Y-105248300D02*
X174746000Y-102696700D01*
X178072000Y-105248300D02*
X177297600Y-105248300D01*
X185428900Y-112605200D02*
X178072000Y-105248300D01*
X191429700Y-112605200D02*
X185428900Y-112605200D01*
X191900000Y-112134900D02*
X191429700Y-112605200D01*
X191900000Y-110861700D02*
X191900000Y-112134900D01*
X192350100Y-110411600D02*
X191900000Y-110861700D01*
X193563200Y-110411600D02*
X192350100Y-110411600D01*
X194289700Y-111138100D02*
X193563200Y-110411600D01*
X194289700Y-112077700D02*
X194289700Y-111138100D01*
X194762100Y-112550100D02*
X194289700Y-112077700D01*
X195924000Y-112550100D02*
X194762100Y-112550100D01*
X196285300Y-112188800D02*
X195924000Y-112550100D01*
X196285300Y-108833400D02*
X196285300Y-112188800D01*
X195951900Y-108500000D02*
X196285300Y-108833400D01*
X195375000Y-110423100D02*
X193451900Y-108500000D01*
X195375000Y-111500000D02*
X195375000Y-110423100D01*
X192500000Y-108500000D02*
X193451900Y-108500000D01*
X192500000Y-108500000D02*
X191548100Y-108500000D01*
X190862500Y-111500000D02*
X190862500Y-109185600D01*
X190862500Y-109185600D02*
X191548100Y-108500000D01*
X175250000Y-102544300D02*
X175250000Y-102000000D01*
X177502100Y-104796400D02*
X175250000Y-102544300D01*
X186473300Y-104796400D02*
X177502100Y-104796400D01*
X190862500Y-109185600D02*
X186473300Y-104796400D01*
X182100000Y-64100000D02*
X182100000Y-62700000D01*
X179300000Y-64488400D02*
X179300000Y-64876900D01*
X179300000Y-64488400D02*
X179300000Y-64100000D01*
X179300000Y-65500000D02*
X179300000Y-64876900D01*
X179300000Y-64100000D02*
X179300000Y-62700000D01*
X189196900Y-56380000D02*
X182876900Y-62700000D01*
X190950000Y-56380000D02*
X189196900Y-56380000D01*
X182100000Y-62700000D02*
X182876900Y-62700000D01*
X179300000Y-65500000D02*
X180700000Y-65500000D01*
X189750000Y-102000000D02*
X189750000Y-101273100D01*
X192318000Y-101841100D02*
X190750000Y-100273100D01*
X193078700Y-101841100D02*
X192318000Y-101841100D01*
X193078700Y-101841200D02*
X193078700Y-101841100D01*
X193200000Y-101962500D02*
X193078700Y-101841200D01*
X189750000Y-101273100D02*
X190750000Y-100273100D01*
X190750000Y-100273100D02*
X190750000Y-99500000D01*
X170212000Y-126675000D02*
X169172600Y-126675000D01*
X180700000Y-62700000D02*
X179923100Y-62700000D01*
X179300000Y-62700000D02*
X179923100Y-62700000D01*
X182100000Y-64100000D02*
X181323100Y-64100000D01*
X180700000Y-64100000D02*
X181323100Y-64100000D01*
X174250000Y-99500000D02*
X174250000Y-100226900D01*
X188750000Y-102000000D02*
X188750000Y-102613500D01*
X189750000Y-102000000D02*
X189750000Y-102726900D01*
X192500000Y-107550000D02*
X191548100Y-107550000D01*
X174294100Y-100226900D02*
X174250000Y-100226900D01*
X188750000Y-102725400D02*
X188751500Y-102726900D01*
X188750000Y-102613500D02*
X188750000Y-102725400D01*
X188751500Y-102726900D02*
X189750000Y-102726900D01*
X169005800Y-126508200D02*
X169172600Y-126675000D01*
X165788000Y-126675000D02*
X166827400Y-126675000D01*
X168000000Y-126754000D02*
X168000000Y-127000000D01*
X168245800Y-126508200D02*
X168000000Y-126754000D01*
X169005800Y-126508200D02*
X168245800Y-126508200D01*
X166906400Y-126754000D02*
X166827400Y-126675000D01*
X168000000Y-126754000D02*
X166906400Y-126754000D01*
X182100000Y-65500000D02*
X181323100Y-65500000D01*
X180700000Y-65500000D02*
X180700000Y-64100000D01*
X180700000Y-65500000D02*
X181323100Y-65500000D01*
X193210100Y-113078000D02*
X193094900Y-112962800D01*
X195955200Y-113078000D02*
X193210100Y-113078000D01*
X197537500Y-114660300D02*
X195955200Y-113078000D01*
X197537500Y-114900000D02*
X197537500Y-114660300D01*
X193094900Y-112962800D02*
X192937500Y-112805400D01*
X192937500Y-112805400D02*
X192937500Y-111500000D01*
X177385400Y-105975200D02*
X177506300Y-105975200D01*
X174294100Y-102883900D02*
X177385400Y-105975200D01*
X174294100Y-100226900D02*
X174294100Y-102883900D01*
X192681600Y-113061300D02*
X192937500Y-112805400D01*
X184592400Y-113061300D02*
X192681600Y-113061300D01*
X177506300Y-105975200D02*
X184592400Y-113061300D01*
X169091500Y-105869300D02*
X169091500Y-90424400D01*
X178400000Y-140000000D02*
X178400000Y-138923100D01*
X172837500Y-124157400D02*
X172837500Y-122800000D01*
X176225000Y-136748100D02*
X176225000Y-136300000D01*
X178400000Y-138923100D02*
X176225000Y-136748100D01*
X172837500Y-132912500D02*
X172837500Y-124157400D01*
X176225000Y-136300000D02*
X172837500Y-132912500D01*
X173450000Y-56380000D02*
X172373100Y-56380000D01*
X172255600Y-56262500D02*
X172373100Y-56380000D01*
X169000000Y-56262500D02*
X172255600Y-56262500D01*
X169091400Y-126422600D02*
X169005800Y-126508200D01*
X169091400Y-105869300D02*
X169091400Y-126422600D01*
X169091500Y-105869300D02*
X169091400Y-105869300D01*
X179300000Y-61153100D02*
X174526900Y-56380000D01*
X179300000Y-62700000D02*
X179300000Y-61153100D01*
X173450000Y-56380000D02*
X174526900Y-56380000D01*
X168900000Y-56162500D02*
X167361400Y-56162500D01*
X169000000Y-56262500D02*
X168900000Y-56162500D01*
X167361400Y-56162500D02*
X165500000Y-56162500D01*
X177750000Y-100896000D02*
X177750000Y-102000000D01*
X177080900Y-100226900D02*
X177750000Y-100896000D01*
X174294100Y-100226900D02*
X177080900Y-100226900D01*
X177750000Y-102726900D02*
X176250000Y-102726900D01*
X177750000Y-102000000D02*
X177750000Y-102726900D01*
X176250000Y-102000000D02*
X176250000Y-102726900D01*
X188063900Y-104065800D02*
X188063900Y-103805100D01*
X191548100Y-107550000D02*
X188063900Y-104065800D01*
X188063900Y-103414500D02*
X188751500Y-102726900D01*
X188063900Y-103805100D02*
X188063900Y-103414500D01*
X177750000Y-102963000D02*
X177750000Y-102726900D01*
X178592100Y-103805100D02*
X177750000Y-102963000D01*
X188063900Y-103805100D02*
X178592100Y-103805100D01*
X187915000Y-74140000D02*
X187915000Y-75216900D01*
X192500000Y-106600000D02*
X191548100Y-106600000D01*
X186823400Y-76308500D02*
X187915000Y-75216900D01*
X186823400Y-83268800D02*
X186823400Y-76308500D01*
X194283600Y-90729000D02*
X186823400Y-83268800D01*
X194283600Y-102532700D02*
X194283600Y-90729000D01*
X193816300Y-103000000D02*
X194283600Y-102532700D01*
X192601300Y-103000000D02*
X193816300Y-103000000D01*
X191548100Y-104053200D02*
X192601300Y-103000000D01*
X191548100Y-106600000D02*
X191548100Y-104053200D01*
X173450000Y-72890000D02*
X172373100Y-72890000D01*
X173379400Y-92764400D02*
X175296900Y-92764400D01*
X173379400Y-93057500D02*
X173379400Y-92764400D01*
X172043300Y-94393600D02*
X173379400Y-93057500D01*
X172373100Y-91248300D02*
X172373100Y-72890000D01*
X173379400Y-92254600D02*
X172373100Y-91248300D01*
X173379400Y-92764400D02*
X173379400Y-92254600D01*
X173450000Y-71620000D02*
X172373100Y-71620000D01*
X171876800Y-91981500D02*
X172310900Y-92415500D01*
X171876800Y-72116300D02*
X171876800Y-91981500D01*
X172373100Y-71620000D02*
X171876800Y-72116300D01*
X172310900Y-92415500D02*
X171185700Y-93540700D01*
X172451000Y-92555700D02*
X172551800Y-92555700D01*
X172310900Y-92415500D02*
X172451000Y-92555700D01*
X179105000Y-88380000D02*
X177778100Y-88380000D01*
X179105000Y-97600000D02*
X177778100Y-97600000D01*
X174605000Y-97600000D02*
X177778100Y-97600000D01*
X177778100Y-97600000D02*
X177778100Y-88380000D01*
M02*
