G04 #@! TF.GenerationSoftware,KiCad,Pcbnew,8.0.1*
G04 #@! TF.CreationDate,2024-03-30T15:34:10-04:00*
G04 #@! TF.ProjectId,Bird3Controller,42697264-3343-46f6-9e74-726f6c6c6572,rev?*
G04 #@! TF.SameCoordinates,Original*
G04 #@! TF.FileFunction,Copper,L1,Top*
G04 #@! TF.FilePolarity,Positive*
%FSLAX46Y46*%
G04 Gerber Fmt 4.6, Leading zero omitted, Abs format (unit mm)*
G04 Created by KiCad (PCBNEW 8.0.1) date 2024-03-30 15:34:10*
%MOMM*%
%LPD*%
G01*
G04 APERTURE LIST*
G04 Aperture macros list*
%AMRoundRect*
0 Rectangle with rounded corners*
0 $1 Rounding radius*
0 $2 $3 $4 $5 $6 $7 $8 $9 X,Y pos of 4 corners*
0 Add a 4 corners polygon primitive as box body*
4,1,4,$2,$3,$4,$5,$6,$7,$8,$9,$2,$3,0*
0 Add four circle primitives for the rounded corners*
1,1,$1+$1,$2,$3*
1,1,$1+$1,$4,$5*
1,1,$1+$1,$6,$7*
1,1,$1+$1,$8,$9*
0 Add four rect primitives between the rounded corners*
20,1,$1+$1,$2,$3,$4,$5,0*
20,1,$1+$1,$4,$5,$6,$7,0*
20,1,$1+$1,$6,$7,$8,$9,0*
20,1,$1+$1,$8,$9,$2,$3,0*%
G04 Aperture macros list end*
G04 #@! TA.AperFunction,EtchedComponent*
%ADD10C,0.700000*%
G04 #@! TD*
G04 #@! TA.AperFunction,ComponentPad*
%ADD11R,1.700000X1.700000*%
G04 #@! TD*
G04 #@! TA.AperFunction,ComponentPad*
%ADD12O,1.700000X1.700000*%
G04 #@! TD*
G04 #@! TA.AperFunction,SMDPad,CuDef*
%ADD13R,1.525000X0.650000*%
G04 #@! TD*
G04 #@! TA.AperFunction,SMDPad,CuDef*
%ADD14RoundRect,0.250000X-1.100000X0.412500X-1.100000X-0.412500X1.100000X-0.412500X1.100000X0.412500X0*%
G04 #@! TD*
G04 #@! TA.AperFunction,SMDPad,CuDef*
%ADD15R,2.000000X1.500000*%
G04 #@! TD*
G04 #@! TA.AperFunction,SMDPad,CuDef*
%ADD16RoundRect,0.250000X-0.325000X-0.450000X0.325000X-0.450000X0.325000X0.450000X-0.325000X0.450000X0*%
G04 #@! TD*
G04 #@! TA.AperFunction,SMDPad,CuDef*
%ADD17RoundRect,0.250000X0.475000X-0.337500X0.475000X0.337500X-0.475000X0.337500X-0.475000X-0.337500X0*%
G04 #@! TD*
G04 #@! TA.AperFunction,SMDPad,CuDef*
%ADD18R,2.200000X1.200000*%
G04 #@! TD*
G04 #@! TA.AperFunction,SMDPad,CuDef*
%ADD19R,1.250000X0.600000*%
G04 #@! TD*
G04 #@! TA.AperFunction,SMDPad,CuDef*
%ADD20R,1.500000X0.900000*%
G04 #@! TD*
G04 #@! TA.AperFunction,SMDPad,CuDef*
%ADD21R,0.900000X1.500000*%
G04 #@! TD*
G04 #@! TA.AperFunction,SMDPad,CuDef*
%ADD22R,0.900000X0.900000*%
G04 #@! TD*
G04 #@! TA.AperFunction,SMDPad,CuDef*
%ADD23RoundRect,0.250000X-0.337500X-0.475000X0.337500X-0.475000X0.337500X0.475000X-0.337500X0.475000X0*%
G04 #@! TD*
G04 #@! TA.AperFunction,SMDPad,CuDef*
%ADD24R,0.300000X0.800000*%
G04 #@! TD*
G04 #@! TA.AperFunction,SMDPad,CuDef*
%ADD25R,0.400000X0.800000*%
G04 #@! TD*
G04 #@! TA.AperFunction,SMDPad,CuDef*
%ADD26RoundRect,0.250000X0.450000X-0.350000X0.450000X0.350000X-0.450000X0.350000X-0.450000X-0.350000X0*%
G04 #@! TD*
G04 #@! TA.AperFunction,SMDPad,CuDef*
%ADD27C,1.500000*%
G04 #@! TD*
G04 #@! TA.AperFunction,ViaPad*
%ADD28C,0.800000*%
G04 #@! TD*
G04 #@! TA.AperFunction,Conductor*
%ADD29C,0.250000*%
G04 #@! TD*
G04 #@! TA.AperFunction,Conductor*
%ADD30C,0.200000*%
G04 #@! TD*
G04 #@! TA.AperFunction,Conductor*
%ADD31C,0.500000*%
G04 #@! TD*
G04 APERTURE END LIST*
D10*
X168850000Y-84000000D02*
X168850000Y-81600000D01*
D11*
X195500000Y-70250000D03*
D12*
X195500000Y-72790000D03*
X195500000Y-75330000D03*
X195500000Y-77870000D03*
X195500000Y-80410000D03*
X195500000Y-82950000D03*
X195500000Y-85490000D03*
X195500000Y-88030000D03*
D13*
X192288000Y-53095000D03*
X192288000Y-54365000D03*
X192288000Y-55635000D03*
X192288000Y-56905000D03*
X197712000Y-56905000D03*
X197712000Y-55635000D03*
X197712000Y-54365000D03*
X197712000Y-53095000D03*
D14*
X167500000Y-75637500D03*
X167500000Y-78762500D03*
D15*
X178400000Y-140000000D03*
X186600000Y-140000000D03*
D16*
X177075000Y-84700000D03*
X179125000Y-84700000D03*
D17*
X163250000Y-57087500D03*
X163250000Y-55012500D03*
D18*
X179650000Y-80250000D03*
X179650000Y-82450000D03*
D19*
X174600000Y-80400000D03*
X174600000Y-81350000D03*
X174600000Y-82300000D03*
X177100000Y-82300000D03*
X177100000Y-81350000D03*
X177100000Y-80400000D03*
D20*
X170500000Y-52940000D03*
X170500000Y-54210000D03*
X170500000Y-55480000D03*
X170500000Y-56750000D03*
X170500000Y-58020000D03*
X170500000Y-59290000D03*
X170500000Y-60560000D03*
X170500000Y-61830000D03*
X170500000Y-63100000D03*
X170500000Y-64370000D03*
X170500000Y-65640000D03*
X170500000Y-66910000D03*
X170500000Y-68180000D03*
X170500000Y-69450000D03*
D21*
X172265000Y-70700000D03*
X173535000Y-70700000D03*
X174805000Y-70700000D03*
X176075000Y-70700000D03*
X177345000Y-70700000D03*
X178615000Y-70700000D03*
X179885000Y-70700000D03*
X181155000Y-70700000D03*
X182425000Y-70700000D03*
X183695000Y-70700000D03*
X184965000Y-70700000D03*
X186235000Y-70700000D03*
D20*
X188000000Y-69450000D03*
X188000000Y-68180000D03*
X188000000Y-66910000D03*
X188000000Y-65640000D03*
X188000000Y-64370000D03*
X188000000Y-63100000D03*
X188000000Y-61830000D03*
X188000000Y-60560000D03*
X188000000Y-59290000D03*
X188000000Y-58020000D03*
X188000000Y-56750000D03*
X188000000Y-55480000D03*
X188000000Y-54210000D03*
X188000000Y-52940000D03*
D22*
X176350000Y-59260000D03*
X176350000Y-60660000D03*
X176350000Y-62060000D03*
X176350000Y-62060000D03*
X177750000Y-59260000D03*
X177750000Y-59260000D03*
X177750000Y-60660000D03*
X177750000Y-62060000D03*
X179150000Y-59260000D03*
X179150000Y-60660000D03*
X179150000Y-62060000D03*
D17*
X165500000Y-57087500D03*
X165500000Y-55012500D03*
D23*
X172612500Y-84700000D03*
X174687500Y-84700000D03*
D24*
X189250000Y-102000000D03*
X188750000Y-102000000D03*
X188250000Y-102000000D03*
X187750000Y-102000000D03*
X187250000Y-102000000D03*
X186750000Y-102000000D03*
X186250000Y-102000000D03*
X185750000Y-102000000D03*
X185250000Y-102000000D03*
X184750000Y-102000000D03*
X184250000Y-102000000D03*
X183750000Y-102000000D03*
X183250000Y-102000000D03*
X182750000Y-102000000D03*
X182250000Y-102000000D03*
X181750000Y-102000000D03*
X181250000Y-102000000D03*
X180750000Y-102000000D03*
X180250000Y-102000000D03*
X179750000Y-102000000D03*
X179250000Y-102000000D03*
X178750000Y-102000000D03*
X178250000Y-102000000D03*
X177750000Y-102000000D03*
X177250000Y-102000000D03*
X176750000Y-102000000D03*
X176250000Y-102000000D03*
X175750000Y-102000000D03*
X175250000Y-102000000D03*
X174750000Y-102000000D03*
D25*
X190250000Y-99500000D03*
X173750000Y-99500000D03*
D26*
X171450000Y-82350000D03*
X171450000Y-80350000D03*
D27*
X168850000Y-84000000D03*
X168850000Y-81600000D03*
D28*
X190050000Y-89850000D03*
X190050000Y-86850000D03*
X190050000Y-84450000D03*
X190050000Y-80350000D03*
X190050000Y-77700000D03*
X190050000Y-75400000D03*
X161900000Y-43350000D03*
X161900000Y-148550000D03*
X202000000Y-148550000D03*
X202000000Y-43450000D03*
X167350000Y-66850000D03*
X167350000Y-72100000D03*
X178950000Y-68850000D03*
X178950000Y-52150000D03*
X185900000Y-52150000D03*
X172150000Y-52150000D03*
X178450000Y-59950000D03*
X177050000Y-59950000D03*
X177100000Y-61350000D03*
X178450000Y-61350000D03*
X172200000Y-66900000D03*
X175650000Y-68850000D03*
X185900000Y-68800000D03*
X185900000Y-61950000D03*
X185900000Y-56950000D03*
X176600000Y-116950000D03*
X174500000Y-126300000D03*
X171450000Y-116950000D03*
X168900000Y-86100000D03*
X168600000Y-109550000D03*
X175400000Y-107850000D03*
X172513433Y-116950000D03*
X178321000Y-111950000D03*
X172712500Y-68750000D03*
X173900000Y-68850000D03*
X172383933Y-87512384D03*
X169608000Y-121082000D03*
X169423000Y-72175000D03*
X171450000Y-76858600D03*
X166550000Y-122250000D03*
X193650000Y-106050000D03*
X169600000Y-80300000D03*
X180910000Y-141048000D03*
X175250000Y-100450000D03*
X166800000Y-59100000D03*
X180800000Y-105350000D03*
X173500000Y-109600000D03*
X177050000Y-96050000D03*
X172150000Y-61950000D03*
X177500000Y-88134500D03*
X174380000Y-88178998D03*
X173550000Y-75100000D03*
X188200000Y-92400000D03*
X169700000Y-126350000D03*
X189250000Y-97800000D03*
X168441000Y-96050000D03*
X187950000Y-128350000D03*
X191600000Y-104800000D03*
X192800000Y-79050000D03*
X187500000Y-103350000D03*
X179200000Y-79050000D03*
X197258000Y-49318300D03*
X176050000Y-73200000D03*
X172400000Y-96950000D03*
X170950000Y-115852226D03*
X176410000Y-107850000D03*
X173513000Y-116950000D03*
X166715997Y-80300000D03*
X166357291Y-73292709D03*
X179900000Y-111950000D03*
X167716000Y-80300000D03*
X169132000Y-59127500D03*
X191473611Y-96129912D03*
X187062000Y-116927000D03*
X186500000Y-107600000D03*
X191753698Y-73300000D03*
X172150000Y-57400000D03*
X181551000Y-72464200D03*
X181000000Y-100734000D03*
X174278000Y-65523000D03*
X180167719Y-87167500D03*
X173784718Y-87167500D03*
X172150000Y-55500000D03*
X177794000Y-99100000D03*
X178519000Y-100203000D03*
X186635000Y-66465300D03*
X172612000Y-83200000D03*
X175122000Y-83208200D03*
X176950000Y-83200002D03*
X175600000Y-141700000D03*
X184700000Y-130700000D03*
X167467000Y-65640000D03*
D29*
X188469000Y-88235772D02*
X186250000Y-90454772D01*
X188469000Y-75411188D02*
X188469000Y-88235772D01*
X192233000Y-71647188D02*
X188469000Y-75411188D01*
X192233000Y-62523000D02*
X192233000Y-71647188D01*
X189000000Y-59290000D02*
X192233000Y-62523000D01*
X186250000Y-90454772D02*
X186250000Y-102000000D01*
X188000000Y-59290000D02*
X189000000Y-59290000D01*
X188019000Y-75224792D02*
X191783000Y-71460792D01*
X189000000Y-60560000D02*
X188000000Y-60560000D01*
X188019000Y-88049376D02*
X188019000Y-75224792D01*
X185750000Y-90318376D02*
X188019000Y-88049376D01*
X191783000Y-71460792D02*
X191783000Y-63343000D01*
X185750000Y-102000000D02*
X185750000Y-90318376D01*
X191783000Y-63343000D02*
X189000000Y-60560000D01*
X187569000Y-87862980D02*
X185250000Y-90181980D01*
X187569000Y-75038396D02*
X187569000Y-87862980D01*
X191333000Y-64163000D02*
X191333000Y-71274396D01*
X191333000Y-71274396D02*
X187569000Y-75038396D01*
X185250000Y-90181980D02*
X185250000Y-102000000D01*
X188000000Y-61830000D02*
X189000000Y-61830000D01*
X189000000Y-61830000D02*
X191333000Y-64163000D01*
X189000000Y-63100000D02*
X188000000Y-63100000D01*
X190883000Y-71088000D02*
X190883000Y-64983000D01*
X184750000Y-90045584D02*
X187119000Y-87676584D01*
X187119000Y-74852000D02*
X190883000Y-71088000D01*
X190883000Y-64983000D02*
X189000000Y-63100000D01*
X184750000Y-102000000D02*
X184750000Y-90045584D01*
X187119000Y-87676584D02*
X187119000Y-74852000D01*
X186669000Y-87490188D02*
X184250000Y-89909188D01*
X184250000Y-89909188D02*
X184250000Y-102000000D01*
X186669000Y-74590188D02*
X186669000Y-87490188D01*
X190433000Y-70826188D02*
X186669000Y-74590188D01*
X190433000Y-65683000D02*
X190433000Y-70826188D01*
X188000000Y-64370000D02*
X189120000Y-64370000D01*
X189120000Y-64370000D02*
X190433000Y-65683000D01*
X186219000Y-87303792D02*
X183750000Y-89772792D01*
X186219000Y-74403792D02*
X186219000Y-87303792D01*
X189981000Y-70641792D02*
X186219000Y-74403792D01*
X189981000Y-66543800D02*
X189981000Y-70641792D01*
X189077000Y-65640000D02*
X189981000Y-66543800D01*
X183750000Y-89772792D02*
X183750000Y-102000000D01*
X188000000Y-65640000D02*
X189077000Y-65640000D01*
X183250000Y-89636396D02*
X183250000Y-102000000D01*
X185769000Y-87117396D02*
X183250000Y-89636396D01*
X185769000Y-74217396D02*
X185769000Y-87117396D01*
X189529000Y-70457396D02*
X185769000Y-74217396D01*
X189077000Y-66910000D02*
X189529000Y-67361900D01*
X189529000Y-67361900D02*
X189529000Y-70457396D01*
X188000000Y-66910000D02*
X189077000Y-66910000D01*
X185319000Y-74031000D02*
X185319000Y-86931000D01*
X185319000Y-86931000D02*
X182750000Y-89500000D01*
X182750000Y-89500000D02*
X182750000Y-102000000D01*
X189077000Y-70273000D02*
X185319000Y-74031000D01*
X189077000Y-68180000D02*
X189077000Y-70273000D01*
X188000000Y-68180000D02*
X189077000Y-68180000D01*
X184869000Y-86681792D02*
X182250000Y-89300792D01*
X182250000Y-89300792D02*
X182250000Y-102000000D01*
X184869000Y-70796000D02*
X184869000Y-86681792D01*
X184965000Y-70700000D02*
X184869000Y-70796000D01*
D30*
X173300000Y-69450000D02*
X170500000Y-69450000D01*
X173900000Y-68850000D02*
X173300000Y-69450000D01*
D29*
X172130000Y-55480000D02*
X170500000Y-55480000D01*
X172150000Y-55500000D02*
X172130000Y-55480000D01*
X171577000Y-56750000D02*
X170500000Y-56750000D01*
X172150000Y-57323000D02*
X171577000Y-56750000D01*
X172150000Y-57400000D02*
X172150000Y-57323000D01*
D31*
X177750000Y-60700000D02*
X177750000Y-60660000D01*
X177100000Y-61350000D02*
X177750000Y-60700000D01*
X177750000Y-62000000D02*
X177100000Y-61350000D01*
D29*
X175400000Y-112013604D02*
X172513433Y-114900171D01*
X175400000Y-107850000D02*
X175400000Y-112013604D01*
X172513433Y-114900171D02*
X172513433Y-117200000D01*
X173513000Y-114537000D02*
X176410000Y-111640000D01*
X173513000Y-117200000D02*
X173513000Y-114537000D01*
X176410000Y-111640000D02*
X176410000Y-107836000D01*
D31*
X194414000Y-68948100D02*
X196814000Y-68948100D01*
X192808000Y-71885361D02*
X192808000Y-70554100D01*
X192800000Y-79050000D02*
X192800000Y-71893361D01*
X192808000Y-70554100D02*
X194414000Y-68948100D01*
X192800000Y-71893361D02*
X192808000Y-71885361D01*
D29*
X176075000Y-73175000D02*
X176075000Y-70700000D01*
X176050000Y-73200000D02*
X176075000Y-73175000D01*
D31*
X169600000Y-80324100D02*
X171450000Y-82174100D01*
X169600000Y-80300000D02*
X169600000Y-80324100D01*
X168062500Y-78762500D02*
X167500000Y-78762500D01*
X169600000Y-80300000D02*
X168062500Y-78762500D01*
D29*
X167716000Y-120232000D02*
X167716000Y-80300000D01*
X169297000Y-121813000D02*
X167716000Y-120232000D01*
X169971000Y-121813000D02*
X169297000Y-121813000D01*
X174982000Y-116802000D02*
X169971000Y-121813000D01*
X174982000Y-114198000D02*
X174982000Y-116802000D01*
X178024000Y-111155000D02*
X174982000Y-114198000D01*
X179900000Y-111900000D02*
X179155000Y-111155000D01*
X179155000Y-111155000D02*
X178024000Y-111155000D01*
X168166000Y-95775000D02*
X168166000Y-84684000D01*
X168441000Y-96050000D02*
X168166000Y-95775000D01*
X168166000Y-84684000D02*
X168850000Y-84000000D01*
X175434000Y-114822000D02*
X178321000Y-111934000D01*
X175434000Y-117055000D02*
X175434000Y-114822000D01*
X170224000Y-122265000D02*
X175434000Y-117055000D01*
X167266000Y-80875305D02*
X167266000Y-120421000D01*
X166991000Y-80600305D02*
X167266000Y-80875305D01*
X169110000Y-122265000D02*
X170224000Y-122265000D01*
X166715997Y-80300000D02*
X166991000Y-80575003D01*
X166991000Y-80575003D02*
X166991000Y-80600305D01*
X167266000Y-120421000D02*
X169110000Y-122265000D01*
X170500000Y-66910000D02*
X169920000Y-66910000D01*
X169425000Y-70200000D02*
X173316396Y-74091396D01*
X169425000Y-67405000D02*
X169425000Y-70200000D01*
X169920000Y-66910000D02*
X169425000Y-67405000D01*
X174355000Y-74091396D02*
X178363604Y-78100000D01*
X173316396Y-74091396D02*
X174355000Y-74091396D01*
D31*
X174198000Y-98200000D02*
X173750000Y-98648100D01*
X174250000Y-98200000D02*
X174198000Y-98200000D01*
X174380000Y-98017800D02*
X174250000Y-98148100D01*
X174380000Y-88178998D02*
X174380000Y-98017800D01*
X174687500Y-87871498D02*
X174687500Y-84700000D01*
X174380000Y-88178998D02*
X174687500Y-87871498D01*
X173750000Y-98648100D02*
X173750000Y-99500000D01*
X174250000Y-98148100D02*
X174250000Y-98200000D01*
D29*
X173784718Y-87167500D02*
X173152000Y-87800218D01*
X186335000Y-139735000D02*
X186600000Y-140000000D01*
X173152000Y-87800218D02*
X173152000Y-102916000D01*
X173152000Y-102916000D02*
X186335000Y-116099000D01*
X186335000Y-116099000D02*
X186335000Y-139735000D01*
X177345000Y-73995000D02*
X177345000Y-70700000D01*
X182161000Y-78811000D02*
X177345000Y-73995000D01*
X182161000Y-85171300D02*
X182161000Y-78811000D01*
X180167719Y-87164581D02*
X182161000Y-85171300D01*
X180167719Y-87167500D02*
X180167719Y-87164581D01*
X179166000Y-95458200D02*
X178519000Y-96105700D01*
X178519000Y-96105700D02*
X178519000Y-100203000D01*
X181677000Y-84569400D02*
X179166000Y-87080400D01*
X179166000Y-87080400D02*
X179166000Y-95458200D01*
X181677000Y-79081882D02*
X181677000Y-84569400D01*
X180245118Y-77650000D02*
X181677000Y-79081882D01*
X178366045Y-78100000D02*
X179852441Y-78100000D01*
X178552441Y-77650000D02*
X180247559Y-77650000D01*
X174805000Y-70700000D02*
X174805000Y-73905000D01*
X174805000Y-73905000D02*
X178550000Y-77650000D01*
X177794000Y-96193906D02*
X177794000Y-99100000D01*
X178716000Y-95271906D02*
X177794000Y-96193906D01*
X178716000Y-86884000D02*
X178716000Y-95271906D01*
X181227000Y-84373000D02*
X178716000Y-86884000D01*
X181227000Y-79477000D02*
X181227000Y-84373000D01*
X179850000Y-78100000D02*
X181227000Y-79477000D01*
D31*
X179200000Y-79050000D02*
X179650000Y-79500000D01*
X179650000Y-79500000D02*
X179650000Y-80250000D01*
D29*
X179650000Y-82450000D02*
X179575000Y-82525000D01*
D31*
X179500000Y-80400000D02*
X179650000Y-80250000D01*
X177100000Y-80400000D02*
X179500000Y-80400000D01*
X179650000Y-80250000D02*
X179474000Y-80250000D01*
D29*
X179575000Y-82525000D02*
X179575000Y-83376900D01*
X174687500Y-85382000D02*
X174687500Y-84700000D01*
X174688000Y-85382500D02*
X174687500Y-85382000D01*
X172612500Y-84370600D02*
X172612500Y-84700000D01*
X172612000Y-84370100D02*
X172612500Y-84370600D01*
X171950000Y-84700000D02*
X172612500Y-84700000D01*
X168850000Y-81600000D02*
X171950000Y-84700000D01*
X179575000Y-84250000D02*
X179575000Y-83376900D01*
X179125000Y-84700000D02*
X179575000Y-84250000D01*
X177075000Y-83375002D02*
X177075000Y-84700000D01*
X176900000Y-83200002D02*
X177075000Y-83375002D01*
X171500000Y-80400000D02*
X171450000Y-80350000D01*
X174600000Y-80400000D02*
X171500000Y-80400000D01*
X198230000Y-58020000D02*
X188000000Y-58020000D01*
X198799500Y-57450500D02*
X198230000Y-58020000D01*
X198799500Y-56255000D02*
X198799500Y-57450500D01*
X198179500Y-55635000D02*
X198799500Y-56255000D01*
X197712000Y-55635000D02*
X198179500Y-55635000D01*
X197062000Y-57555000D02*
X189405000Y-57555000D01*
X189405000Y-57555000D02*
X188600000Y-56750000D01*
X197712000Y-56905000D02*
X197062000Y-57555000D01*
X188600000Y-56750000D02*
X188000000Y-56750000D01*
D31*
X192288000Y-55635000D02*
X195724500Y-55635000D01*
X195724500Y-55635000D02*
X196994500Y-54365000D01*
X196994500Y-54365000D02*
X197712000Y-54365000D01*
X192288000Y-55635000D02*
X192288000Y-56905000D01*
X188830000Y-52940000D02*
X191525000Y-55635000D01*
X191525000Y-55635000D02*
X192288000Y-55635000D01*
X188000000Y-52940000D02*
X188830000Y-52940000D01*
X197855000Y-53095000D02*
X197712000Y-53095000D01*
X199444850Y-51505150D02*
X197855000Y-53095000D01*
X199444850Y-51505150D02*
X197258000Y-49318300D01*
X201350000Y-53410300D02*
X199444850Y-51505150D01*
X201350000Y-64412100D02*
X201350000Y-53410300D01*
X196814000Y-68948100D02*
X201350000Y-64412100D01*
D30*
X172712500Y-68750000D02*
X172142500Y-68180000D01*
X172142500Y-68180000D02*
X170500000Y-68180000D01*
D31*
X172383933Y-87512384D02*
X172393000Y-87521451D01*
X169608000Y-97992000D02*
X169608000Y-121082000D01*
X172393000Y-87521451D02*
X172393000Y-95207000D01*
X172393000Y-95207000D02*
X169608000Y-97992000D01*
D29*
X169423000Y-72175000D02*
X166575000Y-69327000D01*
X166575000Y-64370000D02*
X170500000Y-64370000D01*
X171450000Y-76858600D02*
X171450000Y-80350000D01*
X166575000Y-69327000D02*
X166575000Y-64370000D01*
D31*
X179862000Y-140000000D02*
X180910000Y-141048000D01*
X179150000Y-62060000D02*
X179150000Y-60660000D01*
D29*
X174750000Y-102000000D02*
X174750000Y-100950000D01*
D31*
X173523000Y-81350000D02*
X173523000Y-82106900D01*
X177750000Y-62060000D02*
X177750000Y-62000000D01*
X187500000Y-98347918D02*
X188897918Y-96950000D01*
X176350000Y-60660000D02*
X176350000Y-59260000D01*
X174600000Y-81350000D02*
X173523000Y-81350000D01*
X163250000Y-55012500D02*
X162039000Y-56223500D01*
X191250100Y-96950000D02*
X191812000Y-97511900D01*
X176350000Y-62060000D02*
X177750000Y-62060000D01*
X180052000Y-59260000D02*
X186372000Y-52940000D01*
D29*
X187500000Y-101100000D02*
X188050000Y-101100000D01*
X188050000Y-101100000D02*
X188250000Y-101300000D01*
D31*
X176350000Y-57588100D02*
X176350000Y-59260000D01*
D29*
X186950000Y-101100000D02*
X186750000Y-101300000D01*
D31*
X187500000Y-101100000D02*
X187500000Y-98347918D01*
X170500000Y-52940000D02*
X171702000Y-52940000D01*
X171450000Y-82174100D02*
X173456000Y-82174100D01*
D29*
X174750000Y-100950000D02*
X175250000Y-100450000D01*
D31*
X177750000Y-60660000D02*
X177750000Y-59260000D01*
D29*
X188250000Y-101300000D02*
X188250000Y-102000000D01*
D31*
X186372000Y-52940000D02*
X188000000Y-52940000D01*
X173456000Y-82866100D02*
X173456000Y-82174100D01*
X174688000Y-85382500D02*
X174688000Y-84097700D01*
X171702000Y-52940000D02*
X176350000Y-57588100D01*
X174688000Y-84097700D02*
X173456000Y-82866100D01*
X179150000Y-62060000D02*
X177750000Y-62060000D01*
X165500000Y-55012500D02*
X163250000Y-55012500D01*
X178400000Y-140000000D02*
X179862000Y-140000000D01*
X179150000Y-60660000D02*
X179150000Y-59260000D01*
D29*
X187500000Y-101100000D02*
X186950000Y-101100000D01*
D31*
X173523000Y-82106900D02*
X173456000Y-82174100D01*
X191812000Y-97511900D02*
X195500000Y-93823900D01*
X195500000Y-93823900D02*
X195500000Y-88030000D01*
X170500000Y-52940000D02*
X167572000Y-52940000D01*
X179150000Y-59260000D02*
X180052000Y-59260000D01*
D29*
X175750000Y-100950000D02*
X175250000Y-100450000D01*
D31*
X167572000Y-52940000D02*
X165500000Y-55012500D01*
X176350000Y-62060000D02*
X176350000Y-60660000D01*
X190250000Y-99500000D02*
X190250000Y-99073900D01*
D29*
X175750000Y-102000000D02*
X175750000Y-100950000D01*
D31*
X162039000Y-73301500D02*
X167500000Y-78762500D01*
X188897918Y-96950000D02*
X191250100Y-96950000D01*
X171450000Y-82174100D02*
X171450000Y-82350000D01*
X162039000Y-56223500D02*
X162039000Y-73301500D01*
X190250000Y-99073900D02*
X191812000Y-97511900D01*
D29*
X186750000Y-101300000D02*
X186750000Y-102000000D01*
X189250000Y-97800000D02*
X189250000Y-102000000D01*
X177100000Y-82300000D02*
X176148000Y-82300000D01*
X188750000Y-103125305D02*
X188750000Y-102000000D01*
X175844000Y-104175000D02*
X187700305Y-104175000D01*
X174255000Y-100379000D02*
X174255000Y-102586000D01*
X176148000Y-82300000D02*
X176148000Y-98486600D01*
X176148000Y-98486600D02*
X174255000Y-100379000D01*
X174255000Y-102586000D02*
X175844000Y-104175000D01*
X187700305Y-104175000D02*
X188750000Y-103125305D01*
X179493000Y-83303800D02*
X179493000Y-83241200D01*
X179067000Y-82815400D02*
X178942000Y-82815400D01*
X178052000Y-81350000D02*
X177100000Y-81350000D01*
X179493000Y-83241200D02*
X179067000Y-82815400D01*
X178942000Y-82815400D02*
X178052000Y-81925400D01*
X179575000Y-83376900D02*
X179566000Y-83376900D01*
X179566000Y-83376900D02*
X179493000Y-83303800D01*
X178052000Y-81925400D02*
X178052000Y-81350000D01*
D31*
X170500000Y-54210000D02*
X168378000Y-54210000D01*
D29*
X187250000Y-103100000D02*
X187500000Y-103350000D01*
D31*
X191600000Y-104800000D02*
X187956000Y-108444000D01*
D29*
X187250000Y-102000000D02*
X187250000Y-103100000D01*
D31*
X165500000Y-57087500D02*
X163250000Y-57087500D01*
X165500000Y-57087500D02*
X165500000Y-73637500D01*
X187956000Y-108444000D02*
X187956000Y-128594000D01*
X167500000Y-75637500D02*
X172337500Y-75637500D01*
X187956000Y-128594000D02*
X187950000Y-128600000D01*
X196814000Y-99586000D02*
X196814000Y-68948100D01*
D29*
X187750000Y-103100000D02*
X187500000Y-103350000D01*
D31*
X172337500Y-75637500D02*
X177100000Y-80400000D01*
X191600000Y-104800000D02*
X196814000Y-99586000D01*
X165500000Y-73637500D02*
X167500000Y-75637500D01*
D29*
X187750000Y-102000000D02*
X187750000Y-103100000D01*
D31*
X168378000Y-54210000D02*
X165500000Y-57087500D01*
X170950000Y-98400000D02*
X170950000Y-115852226D01*
X172400000Y-96950000D02*
X170950000Y-98400000D01*
D29*
X166125000Y-63858000D02*
X169423000Y-60560000D01*
X166357291Y-73292709D02*
X166125000Y-73060418D01*
X169423000Y-60560000D02*
X170500000Y-60560000D01*
X166125000Y-73060418D02*
X166125000Y-63858000D01*
X169132000Y-59127500D02*
X169261000Y-59127500D01*
X169261000Y-59127500D02*
X169423000Y-59290000D01*
X169423000Y-59290000D02*
X170500000Y-59290000D01*
X191473611Y-96129912D02*
X191478698Y-96124825D01*
X191478698Y-96124825D02*
X191478698Y-73575000D01*
X187062000Y-108162000D02*
X187062000Y-116927000D01*
X191478698Y-73575000D02*
X191753698Y-73300000D01*
X186500000Y-107600000D02*
X187062000Y-108162000D01*
X174278000Y-60721400D02*
X174278000Y-65523000D01*
X181551000Y-72464200D02*
X181551000Y-75554300D01*
X171577000Y-58020000D02*
X174278000Y-60721400D01*
X183969000Y-77972100D02*
X183969000Y-86309000D01*
X183969000Y-86309000D02*
X181000000Y-89278000D01*
X170500000Y-58020000D02*
X171577000Y-58020000D01*
X181551000Y-75554300D02*
X183969000Y-77972100D01*
X181000000Y-89278000D02*
X181000000Y-100734000D01*
X184419000Y-86495396D02*
X184419000Y-77669000D01*
X181750000Y-102000000D02*
X181750000Y-89164396D01*
X183705000Y-76955000D02*
X183695000Y-76955000D01*
X181750000Y-89164396D02*
X184419000Y-86495396D01*
X184419000Y-77669000D02*
X183705000Y-76955000D01*
X183695000Y-76955000D02*
X183695000Y-70700000D01*
X180816000Y-72115800D02*
X181155000Y-71776900D01*
X180522000Y-96019800D02*
X180522000Y-89117000D01*
X180816000Y-75458300D02*
X180816000Y-72115800D01*
X183517000Y-86121800D02*
X183517000Y-78159300D01*
X180250000Y-96291700D02*
X180522000Y-96019800D01*
X180522000Y-89117000D02*
X183517000Y-86121800D01*
X180250000Y-102000000D02*
X180250000Y-96291700D01*
X181155000Y-71776900D02*
X181155000Y-70700000D01*
X183517000Y-78159300D02*
X180816000Y-75458300D01*
X179885000Y-75166300D02*
X179885000Y-70700000D01*
X179750000Y-102000000D02*
X179750000Y-96152600D01*
X183065000Y-85934600D02*
X183065000Y-78346500D01*
X180070000Y-95832600D02*
X180070000Y-88929800D01*
X180070000Y-88929800D02*
X183065000Y-85934600D01*
X183065000Y-78346500D02*
X179885000Y-75166300D01*
X179750000Y-96152600D02*
X180070000Y-95832600D01*
X179250000Y-96013500D02*
X179618000Y-95645400D01*
X178615000Y-74535500D02*
X178615000Y-70700000D01*
X182613000Y-85747400D02*
X182613000Y-78533800D01*
X179618000Y-88742600D02*
X182613000Y-85747400D01*
X182613000Y-78533800D02*
X178615000Y-74535500D01*
X179250000Y-102000000D02*
X179250000Y-96013500D01*
X179618000Y-95645400D02*
X179618000Y-88742600D01*
X186923000Y-66753700D02*
X186635000Y-66465300D01*
X188000000Y-69450000D02*
X186923000Y-69450000D01*
X186923000Y-69450000D02*
X186923000Y-66753700D01*
X175552000Y-82778300D02*
X175122000Y-83208200D01*
X172612000Y-83200000D02*
X172612000Y-84370100D01*
X172612000Y-85350000D02*
X172162000Y-84900000D01*
X175552000Y-82300000D02*
X175552000Y-82778300D01*
X172612000Y-84370100D02*
X172612000Y-85350000D01*
X174600000Y-82300000D02*
X175552000Y-82300000D01*
D31*
X184700000Y-130700000D02*
X178787000Y-130700000D01*
X178787000Y-130700000D02*
X175600000Y-133887000D01*
X175600000Y-133887000D02*
X175600000Y-141700000D01*
D29*
X167467000Y-65640000D02*
X170500000Y-65640000D01*
G04 #@! TA.AperFunction,Conductor*
G36*
X171575729Y-116600284D02*
G01*
X171624425Y-116650389D01*
X171638301Y-116718867D01*
X171632688Y-116746572D01*
X171627760Y-116761739D01*
X171627759Y-116761741D01*
X171627759Y-116761744D01*
X171607973Y-116950000D01*
X171627759Y-117138256D01*
X171627760Y-117138259D01*
X171686251Y-117318277D01*
X171686254Y-117318284D01*
X171780900Y-117482216D01*
X171907562Y-117622888D01*
X172060698Y-117734148D01*
X172060703Y-117734151D01*
X172233625Y-117811142D01*
X172233630Y-117811144D01*
X172418787Y-117850500D01*
X172418788Y-117850500D01*
X172608077Y-117850500D01*
X172608079Y-117850500D01*
X172758435Y-117818541D01*
X172828101Y-117823857D01*
X172883835Y-117865994D01*
X172907940Y-117931574D01*
X172892763Y-117999775D01*
X172871896Y-118027512D01*
X170570181Y-120329228D01*
X170508858Y-120362713D01*
X170439166Y-120357729D01*
X170383233Y-120315857D01*
X170358816Y-120250393D01*
X170358500Y-120241547D01*
X170358500Y-116765535D01*
X170378185Y-116698496D01*
X170430989Y-116652741D01*
X170500147Y-116642797D01*
X170532929Y-116652253D01*
X170670197Y-116713370D01*
X170855354Y-116752726D01*
X170855355Y-116752726D01*
X171044644Y-116752726D01*
X171044646Y-116752726D01*
X171229803Y-116713370D01*
X171402730Y-116636377D01*
X171441871Y-116607939D01*
X171507675Y-116584459D01*
X171575729Y-116600284D01*
G37*
G04 #@! TD.AperFunction*
G04 #@! TA.AperFunction,Conductor*
G36*
X173705223Y-83023337D02*
G01*
X173708572Y-83025758D01*
X173732665Y-83043793D01*
X173732671Y-83043797D01*
X173775449Y-83059752D01*
X173867517Y-83094091D01*
X173927127Y-83100500D01*
X174093570Y-83100499D01*
X174160609Y-83120183D01*
X174206364Y-83172987D01*
X174216890Y-83211535D01*
X174236326Y-83396456D01*
X174236327Y-83396459D01*
X174294818Y-83576477D01*
X174294821Y-83576484D01*
X174389467Y-83740416D01*
X174516129Y-83881088D01*
X174669265Y-83992348D01*
X174669270Y-83992351D01*
X174842192Y-84069342D01*
X174842197Y-84069344D01*
X175027354Y-84108700D01*
X175027355Y-84108700D01*
X175216644Y-84108700D01*
X175216646Y-84108700D01*
X175372719Y-84075526D01*
X175442386Y-84080842D01*
X175498120Y-84122979D01*
X175522225Y-84188559D01*
X175522500Y-84196816D01*
X175522500Y-98176078D01*
X175502815Y-98243117D01*
X175486167Y-98263773D01*
X173989167Y-99760298D01*
X173927839Y-99793773D01*
X173858148Y-99788778D01*
X173802221Y-99746898D01*
X173777815Y-99681429D01*
X173777500Y-99672603D01*
X173777500Y-88190064D01*
X173797185Y-88123025D01*
X173849989Y-88077270D01*
X173875720Y-88068774D01*
X173879361Y-88068000D01*
X173879364Y-88068000D01*
X174064521Y-88028644D01*
X174237448Y-87951651D01*
X174390589Y-87840388D01*
X174517251Y-87699716D01*
X174611897Y-87535784D01*
X174670392Y-87355756D01*
X174690178Y-87167500D01*
X174670392Y-86979244D01*
X174611897Y-86799216D01*
X174517251Y-86635284D01*
X174390589Y-86494612D01*
X174377727Y-86485267D01*
X174237452Y-86383351D01*
X174237447Y-86383348D01*
X174064525Y-86306357D01*
X174064520Y-86306355D01*
X173918719Y-86275365D01*
X173879364Y-86267000D01*
X173690072Y-86267000D01*
X173657615Y-86273898D01*
X173504915Y-86306355D01*
X173504910Y-86306357D01*
X173331988Y-86383348D01*
X173331983Y-86383351D01*
X173178847Y-86494611D01*
X173052184Y-86635285D01*
X173019546Y-86691814D01*
X172968978Y-86740028D01*
X172900371Y-86753250D01*
X172842396Y-86731311D01*
X172842296Y-86731485D01*
X172841234Y-86730871D01*
X172839276Y-86730131D01*
X172836666Y-86728235D01*
X172836662Y-86728232D01*
X172663740Y-86651241D01*
X172663735Y-86651239D01*
X172517934Y-86620249D01*
X172478579Y-86611884D01*
X172289287Y-86611884D01*
X172256830Y-86618782D01*
X172104130Y-86651239D01*
X172104125Y-86651241D01*
X171931203Y-86728232D01*
X171931198Y-86728235D01*
X171778062Y-86839495D01*
X171651399Y-86980169D01*
X171556754Y-87144099D01*
X171556751Y-87144106D01*
X171498260Y-87324124D01*
X171498259Y-87324128D01*
X171478473Y-87512384D01*
X171498259Y-87700640D01*
X171498260Y-87700643D01*
X171556751Y-87880661D01*
X171556754Y-87880668D01*
X171604966Y-87964174D01*
X171625887Y-88000409D01*
X171642500Y-88062409D01*
X171642500Y-94844769D01*
X171622815Y-94911808D01*
X171606181Y-94932450D01*
X169025050Y-97513580D01*
X169025044Y-97513588D01*
X168975812Y-97587268D01*
X168975813Y-97587269D01*
X168942921Y-97636496D01*
X168942914Y-97636508D01*
X168886342Y-97773086D01*
X168886340Y-97773092D01*
X168857500Y-97918079D01*
X168857500Y-120189547D01*
X168837815Y-120256586D01*
X168785011Y-120302341D01*
X168715853Y-120312285D01*
X168652297Y-120283260D01*
X168645819Y-120277228D01*
X168377819Y-120009228D01*
X168344334Y-119947905D01*
X168341500Y-119921547D01*
X168341500Y-97074500D01*
X168361185Y-97007461D01*
X168413989Y-96961706D01*
X168465500Y-96950500D01*
X168535644Y-96950500D01*
X168535646Y-96950500D01*
X168720803Y-96911144D01*
X168893730Y-96834151D01*
X169046871Y-96722888D01*
X169173533Y-96582216D01*
X169268179Y-96418284D01*
X169326674Y-96238256D01*
X169346460Y-96050000D01*
X169326674Y-95861744D01*
X169268179Y-95681716D01*
X169173533Y-95517784D01*
X169046871Y-95377112D01*
X169046870Y-95377111D01*
X168893731Y-95265849D01*
X168865063Y-95253085D01*
X168811826Y-95207834D01*
X168791506Y-95140984D01*
X168791500Y-95139806D01*
X168791500Y-85374020D01*
X168811185Y-85306981D01*
X168863989Y-85261226D01*
X168904692Y-85250492D01*
X169067977Y-85236207D01*
X169279330Y-85179575D01*
X169477639Y-85087102D01*
X169656877Y-84961598D01*
X169811598Y-84806877D01*
X169937102Y-84627639D01*
X170029575Y-84429330D01*
X170086207Y-84217977D01*
X170103028Y-84025699D01*
X170128480Y-83960632D01*
X170185071Y-83919653D01*
X170254833Y-83915775D01*
X170314237Y-83948827D01*
X171461016Y-85095606D01*
X171461045Y-85095637D01*
X171488181Y-85122773D01*
X171521666Y-85184096D01*
X171524500Y-85210447D01*
X171524500Y-85224998D01*
X171524501Y-85225018D01*
X171535001Y-85327797D01*
X171535001Y-85327799D01*
X171588750Y-85490000D01*
X171590186Y-85494334D01*
X171682288Y-85643656D01*
X171806344Y-85767712D01*
X171955666Y-85859814D01*
X172122203Y-85914999D01*
X172224991Y-85925500D01*
X172342201Y-85925499D01*
X172389653Y-85934937D01*
X172396207Y-85937652D01*
X172429548Y-85951463D01*
X172489971Y-85963481D01*
X172550393Y-85975500D01*
X172673607Y-85975500D01*
X172734029Y-85963481D01*
X172794452Y-85951463D01*
X172834346Y-85934938D01*
X172881799Y-85925499D01*
X173000002Y-85925499D01*
X173000008Y-85925499D01*
X173102797Y-85914999D01*
X173269334Y-85859814D01*
X173418656Y-85767712D01*
X173542712Y-85643656D01*
X173634814Y-85494334D01*
X173689999Y-85327797D01*
X173700500Y-85225009D01*
X173700499Y-84174992D01*
X173697969Y-84150228D01*
X173689999Y-84072203D01*
X173689998Y-84072200D01*
X173674590Y-84025701D01*
X173634814Y-83905666D01*
X173542712Y-83756344D01*
X173472181Y-83685813D01*
X173438696Y-83624490D01*
X173441931Y-83559814D01*
X173460478Y-83502732D01*
X173497674Y-83388256D01*
X173517460Y-83200000D01*
X173510941Y-83137982D01*
X173523510Y-83069258D01*
X173571241Y-83018234D01*
X173638981Y-83001115D01*
X173705223Y-83023337D01*
G37*
G04 #@! TD.AperFunction*
G04 #@! TA.AperFunction,Conductor*
G36*
X194068834Y-70457147D02*
G01*
X194124767Y-70499019D01*
X194149184Y-70564483D01*
X194149500Y-70573329D01*
X194149500Y-71147870D01*
X194149501Y-71147876D01*
X194155908Y-71207483D01*
X194206202Y-71342328D01*
X194206206Y-71342335D01*
X194292452Y-71457544D01*
X194292455Y-71457547D01*
X194407664Y-71543793D01*
X194407671Y-71543797D01*
X194539081Y-71592810D01*
X194595015Y-71634681D01*
X194619432Y-71700145D01*
X194604580Y-71768418D01*
X194583430Y-71796673D01*
X194461503Y-71918600D01*
X194325965Y-72112169D01*
X194325964Y-72112171D01*
X194226098Y-72326335D01*
X194226094Y-72326344D01*
X194164938Y-72554586D01*
X194164936Y-72554596D01*
X194144341Y-72789999D01*
X194144341Y-72790000D01*
X194164936Y-73025403D01*
X194164938Y-73025413D01*
X194226094Y-73253655D01*
X194226096Y-73253659D01*
X194226097Y-73253663D01*
X194244305Y-73292709D01*
X194325965Y-73467830D01*
X194325967Y-73467834D01*
X194335162Y-73480965D01*
X194461219Y-73660993D01*
X194461501Y-73661395D01*
X194461506Y-73661402D01*
X194628597Y-73828493D01*
X194628603Y-73828498D01*
X194814158Y-73958425D01*
X194857783Y-74013002D01*
X194864977Y-74082500D01*
X194833454Y-74144855D01*
X194814158Y-74161575D01*
X194628597Y-74291505D01*
X194461505Y-74458597D01*
X194325965Y-74652169D01*
X194325964Y-74652171D01*
X194226098Y-74866335D01*
X194226094Y-74866344D01*
X194164938Y-75094586D01*
X194164936Y-75094596D01*
X194144341Y-75329999D01*
X194144341Y-75330000D01*
X194164936Y-75565403D01*
X194164938Y-75565413D01*
X194226094Y-75793655D01*
X194226096Y-75793659D01*
X194226097Y-75793663D01*
X194270448Y-75888774D01*
X194325965Y-76007830D01*
X194325967Y-76007834D01*
X194461501Y-76201395D01*
X194461506Y-76201402D01*
X194628597Y-76368493D01*
X194628603Y-76368498D01*
X194814158Y-76498425D01*
X194857783Y-76553002D01*
X194864977Y-76622500D01*
X194833454Y-76684855D01*
X194814158Y-76701575D01*
X194628597Y-76831505D01*
X194461505Y-76998597D01*
X194325965Y-77192169D01*
X194325964Y-77192171D01*
X194226098Y-77406335D01*
X194226094Y-77406344D01*
X194164938Y-77634586D01*
X194164936Y-77634596D01*
X194144341Y-77869999D01*
X194144341Y-77870000D01*
X194164936Y-78105403D01*
X194164938Y-78105413D01*
X194226094Y-78333655D01*
X194226096Y-78333659D01*
X194226097Y-78333663D01*
X194310972Y-78515677D01*
X194325965Y-78547830D01*
X194325967Y-78547834D01*
X194461501Y-78741395D01*
X194461506Y-78741402D01*
X194628597Y-78908493D01*
X194628603Y-78908498D01*
X194814158Y-79038425D01*
X194857783Y-79093002D01*
X194864977Y-79162500D01*
X194833454Y-79224855D01*
X194814158Y-79241575D01*
X194628597Y-79371505D01*
X194461505Y-79538597D01*
X194325965Y-79732169D01*
X194325964Y-79732171D01*
X194226098Y-79946335D01*
X194226094Y-79946344D01*
X194164938Y-80174586D01*
X194164936Y-80174596D01*
X194144341Y-80409999D01*
X194144341Y-80410000D01*
X194164936Y-80645403D01*
X194164938Y-80645413D01*
X194226094Y-80873655D01*
X194226096Y-80873659D01*
X194226097Y-80873663D01*
X194272367Y-80972888D01*
X194325965Y-81087830D01*
X194325967Y-81087834D01*
X194461501Y-81281395D01*
X194461506Y-81281402D01*
X194628597Y-81448493D01*
X194628603Y-81448498D01*
X194814158Y-81578425D01*
X194857783Y-81633002D01*
X194864977Y-81702500D01*
X194833454Y-81764855D01*
X194814158Y-81781575D01*
X194628597Y-81911505D01*
X194461505Y-82078597D01*
X194325965Y-82272169D01*
X194325964Y-82272171D01*
X194226098Y-82486335D01*
X194226094Y-82486344D01*
X194164938Y-82714586D01*
X194164936Y-82714596D01*
X194144341Y-82949999D01*
X194144341Y-82950000D01*
X194164936Y-83185403D01*
X194164938Y-83185413D01*
X194226094Y-83413655D01*
X194226096Y-83413659D01*
X194226097Y-83413663D01*
X194323707Y-83622988D01*
X194325965Y-83627830D01*
X194325967Y-83627834D01*
X194461501Y-83821395D01*
X194461506Y-83821402D01*
X194628597Y-83988493D01*
X194628603Y-83988498D01*
X194814158Y-84118425D01*
X194857783Y-84173002D01*
X194864977Y-84242500D01*
X194833454Y-84304855D01*
X194814158Y-84321575D01*
X194628597Y-84451505D01*
X194461505Y-84618597D01*
X194325965Y-84812169D01*
X194325964Y-84812171D01*
X194226098Y-85026335D01*
X194226094Y-85026344D01*
X194164938Y-85254586D01*
X194164936Y-85254596D01*
X194144341Y-85489999D01*
X194144341Y-85490000D01*
X194164936Y-85725403D01*
X194164938Y-85725413D01*
X194226094Y-85953655D01*
X194226096Y-85953659D01*
X194226097Y-85953663D01*
X194325965Y-86167830D01*
X194325967Y-86167834D01*
X194422961Y-86306355D01*
X194461505Y-86361401D01*
X194628599Y-86528495D01*
X194803898Y-86651241D01*
X194814594Y-86658730D01*
X194858219Y-86713307D01*
X194865413Y-86782805D01*
X194833890Y-86845160D01*
X194814595Y-86861880D01*
X194628922Y-86991890D01*
X194628920Y-86991891D01*
X194461891Y-87158920D01*
X194461886Y-87158926D01*
X194326400Y-87352420D01*
X194326399Y-87352422D01*
X194226570Y-87566507D01*
X194226567Y-87566513D01*
X194169364Y-87779999D01*
X194169364Y-87780000D01*
X195066988Y-87780000D01*
X195034075Y-87837007D01*
X195000000Y-87964174D01*
X195000000Y-88095826D01*
X195034075Y-88222993D01*
X195066988Y-88280000D01*
X194169364Y-88280000D01*
X194226567Y-88493486D01*
X194226570Y-88493492D01*
X194326399Y-88707578D01*
X194461894Y-88901082D01*
X194628917Y-89068105D01*
X194822421Y-89203600D01*
X195036507Y-89303429D01*
X195036516Y-89303433D01*
X195250000Y-89360634D01*
X195250000Y-88463012D01*
X195307007Y-88495925D01*
X195434174Y-88530000D01*
X195565826Y-88530000D01*
X195692993Y-88495925D01*
X195750000Y-88463012D01*
X195750000Y-89360633D01*
X195907407Y-89318458D01*
X195977257Y-89320121D01*
X196035119Y-89359284D01*
X196062623Y-89423512D01*
X196063500Y-89438233D01*
X196063500Y-99223769D01*
X196043815Y-99290808D01*
X196027181Y-99311450D01*
X191447228Y-103891402D01*
X191385905Y-103924887D01*
X191385329Y-103925011D01*
X191320196Y-103938856D01*
X191320192Y-103938857D01*
X191147270Y-104015848D01*
X191147265Y-104015851D01*
X190994129Y-104127111D01*
X190867466Y-104267785D01*
X190772821Y-104431715D01*
X190772819Y-104431719D01*
X190717478Y-104602041D01*
X190687228Y-104651403D01*
X187649292Y-107689338D01*
X187587969Y-107722823D01*
X187518277Y-107717839D01*
X187473930Y-107689338D01*
X187457637Y-107673045D01*
X187457606Y-107673016D01*
X187438960Y-107654370D01*
X187405475Y-107593047D01*
X187403323Y-107579671D01*
X187385674Y-107411744D01*
X187327179Y-107231716D01*
X187232533Y-107067784D01*
X187105871Y-106927112D01*
X187105870Y-106927111D01*
X186952734Y-106815851D01*
X186952729Y-106815848D01*
X186779807Y-106738857D01*
X186779802Y-106738855D01*
X186628327Y-106706659D01*
X186594646Y-106699500D01*
X186405354Y-106699500D01*
X186372897Y-106706398D01*
X186220197Y-106738855D01*
X186220192Y-106738857D01*
X186047270Y-106815848D01*
X186047265Y-106815851D01*
X185894129Y-106927111D01*
X185767466Y-107067785D01*
X185672821Y-107231715D01*
X185672818Y-107231722D01*
X185614327Y-107411740D01*
X185614326Y-107411744D01*
X185594540Y-107600000D01*
X185614326Y-107788256D01*
X185614327Y-107788259D01*
X185672818Y-107968277D01*
X185672821Y-107968284D01*
X185767467Y-108132216D01*
X185894129Y-108272888D01*
X186047265Y-108384148D01*
X186047270Y-108384151D01*
X186220192Y-108461142D01*
X186220193Y-108461142D01*
X186220197Y-108461144D01*
X186316662Y-108481648D01*
X186338280Y-108486243D01*
X186399762Y-108519435D01*
X186433539Y-108580598D01*
X186436500Y-108607533D01*
X186436500Y-115016547D01*
X186416815Y-115083586D01*
X186364011Y-115129341D01*
X186294853Y-115139285D01*
X186231297Y-115110260D01*
X186224819Y-115104228D01*
X176132771Y-105012181D01*
X176099286Y-104950858D01*
X176104270Y-104881166D01*
X176146142Y-104825233D01*
X176211606Y-104800816D01*
X176220452Y-104800500D01*
X187761912Y-104800500D01*
X187822334Y-104788481D01*
X187882757Y-104776463D01*
X187882760Y-104776461D01*
X187882763Y-104776461D01*
X187916092Y-104762654D01*
X187916091Y-104762654D01*
X187916097Y-104762652D01*
X187996591Y-104729312D01*
X188047814Y-104695084D01*
X188099038Y-104660858D01*
X188186163Y-104573733D01*
X188186164Y-104573731D01*
X188193230Y-104566665D01*
X188193233Y-104566661D01*
X189148729Y-103611165D01*
X189148733Y-103611163D01*
X189235858Y-103524038D01*
X189304311Y-103421591D01*
X189304312Y-103421590D01*
X189304313Y-103421587D01*
X189304315Y-103421584D01*
X189304315Y-103421582D01*
X189312485Y-103401858D01*
X189351463Y-103307756D01*
X189355315Y-103288393D01*
X189375500Y-103186911D01*
X189375500Y-103019663D01*
X189395185Y-102952624D01*
X189447989Y-102906869D01*
X189486248Y-102896373D01*
X189507483Y-102894091D01*
X189642331Y-102843796D01*
X189757546Y-102757546D01*
X189843796Y-102642331D01*
X189894091Y-102507483D01*
X189900500Y-102447873D01*
X189900499Y-101552128D01*
X189894091Y-101492517D01*
X189883317Y-101463632D01*
X189875500Y-101420300D01*
X189875500Y-98498687D01*
X189895185Y-98431648D01*
X189907350Y-98415715D01*
X189925891Y-98395122D01*
X189982533Y-98332216D01*
X190077179Y-98168284D01*
X190135674Y-97988256D01*
X190155460Y-97800000D01*
X190135674Y-97611744D01*
X190077179Y-97431716D01*
X189982533Y-97267784D01*
X189855871Y-97127112D01*
X189855870Y-97127111D01*
X189702734Y-97015851D01*
X189702729Y-97015848D01*
X189529807Y-96938857D01*
X189529802Y-96938855D01*
X189384001Y-96907865D01*
X189344646Y-96899500D01*
X189155354Y-96899500D01*
X189122897Y-96906398D01*
X188970197Y-96938855D01*
X188970192Y-96938857D01*
X188797270Y-97015848D01*
X188797265Y-97015851D01*
X188644129Y-97127111D01*
X188517466Y-97267785D01*
X188422821Y-97431715D01*
X188422818Y-97431722D01*
X188372278Y-97587269D01*
X188364326Y-97611744D01*
X188344540Y-97800000D01*
X188364326Y-97988256D01*
X188364327Y-97988259D01*
X188422818Y-98168277D01*
X188422821Y-98168284D01*
X188517467Y-98332216D01*
X188560772Y-98380310D01*
X188592650Y-98415715D01*
X188622880Y-98478706D01*
X188624500Y-98498687D01*
X188624500Y-100980336D01*
X188604815Y-101047375D01*
X188552011Y-101093130D01*
X188513754Y-101103626D01*
X188492516Y-101105909D01*
X188357671Y-101156202D01*
X188357669Y-101156203D01*
X188324310Y-101181176D01*
X188258845Y-101205592D01*
X188190572Y-101190740D01*
X188175690Y-101181176D01*
X188142330Y-101156203D01*
X188142328Y-101156202D01*
X188007486Y-101105910D01*
X188007485Y-101105909D01*
X188007483Y-101105909D01*
X187947873Y-101099500D01*
X187947863Y-101099500D01*
X187552130Y-101099500D01*
X187552119Y-101099501D01*
X187513253Y-101103679D01*
X187486748Y-101103679D01*
X187447874Y-101099500D01*
X187052129Y-101099500D01*
X187052120Y-101099501D01*
X187012752Y-101103733D01*
X186943993Y-101091325D01*
X186892857Y-101043714D01*
X186875500Y-100980443D01*
X186875500Y-90765223D01*
X186895185Y-90698184D01*
X186911814Y-90677547D01*
X188867729Y-88721632D01*
X188867733Y-88721630D01*
X188954858Y-88634505D01*
X189023311Y-88532058D01*
X189023312Y-88532057D01*
X189058820Y-88446333D01*
X189070463Y-88418224D01*
X189094500Y-88297378D01*
X189094500Y-75721640D01*
X189114185Y-75654601D01*
X189130819Y-75633959D01*
X190641517Y-74123261D01*
X190702840Y-74089776D01*
X190772532Y-74094760D01*
X190828465Y-74136632D01*
X190852882Y-74202096D01*
X190853198Y-74210942D01*
X190853198Y-95425575D01*
X190833513Y-95492614D01*
X190821348Y-95508547D01*
X190741077Y-95597697D01*
X190646432Y-95761627D01*
X190646429Y-95761634D01*
X190587938Y-95941652D01*
X190587937Y-95941656D01*
X190568151Y-96129912D01*
X190587937Y-96318168D01*
X190587938Y-96318171D01*
X190646429Y-96498189D01*
X190646432Y-96498196D01*
X190741078Y-96662128D01*
X190795787Y-96722888D01*
X190867740Y-96802800D01*
X191020876Y-96914060D01*
X191020881Y-96914063D01*
X191193803Y-96991054D01*
X191193808Y-96991056D01*
X191378965Y-97030412D01*
X191378966Y-97030412D01*
X191568255Y-97030412D01*
X191568257Y-97030412D01*
X191753414Y-96991056D01*
X191926341Y-96914063D01*
X192079482Y-96802800D01*
X192206144Y-96662128D01*
X192300790Y-96498196D01*
X192359285Y-96318168D01*
X192379071Y-96129912D01*
X192359285Y-95941656D01*
X192300790Y-95761628D01*
X192206144Y-95597696D01*
X192136048Y-95519846D01*
X192105818Y-95456854D01*
X192104198Y-95436874D01*
X192104198Y-79900912D01*
X192123883Y-79833873D01*
X192176687Y-79788118D01*
X192245845Y-79778174D01*
X192301084Y-79800595D01*
X192347264Y-79834147D01*
X192347270Y-79834151D01*
X192520192Y-79911142D01*
X192520197Y-79911144D01*
X192705354Y-79950500D01*
X192705355Y-79950500D01*
X192894644Y-79950500D01*
X192894646Y-79950500D01*
X193079803Y-79911144D01*
X193252730Y-79834151D01*
X193405871Y-79722888D01*
X193532533Y-79582216D01*
X193627179Y-79418284D01*
X193685674Y-79238256D01*
X193705460Y-79050000D01*
X193685674Y-78861744D01*
X193627179Y-78681716D01*
X193611359Y-78654314D01*
X193567113Y-78577677D01*
X193550500Y-78515677D01*
X193550500Y-72011708D01*
X193552883Y-71987515D01*
X193553037Y-71986744D01*
X193558500Y-71959278D01*
X193558500Y-71811443D01*
X193558500Y-70916329D01*
X193578185Y-70849290D01*
X193594815Y-70828652D01*
X193937819Y-70485647D01*
X193999142Y-70452163D01*
X194068834Y-70457147D01*
G37*
G04 #@! TD.AperFunction*
G04 #@! TA.AperFunction,Conductor*
G36*
X172445834Y-98068047D02*
G01*
X172501767Y-98109919D01*
X172526184Y-98175383D01*
X172526500Y-98184229D01*
X172526500Y-102977611D01*
X172550535Y-103098444D01*
X172550540Y-103098461D01*
X172597685Y-103212280D01*
X172597690Y-103212289D01*
X172631914Y-103263507D01*
X172631915Y-103263509D01*
X172666140Y-103314731D01*
X172666141Y-103314732D01*
X172666142Y-103314733D01*
X172753267Y-103401858D01*
X176147972Y-106796563D01*
X176181457Y-106857886D01*
X176176473Y-106927578D01*
X176134601Y-106983511D01*
X176110728Y-106997523D01*
X175955437Y-107066665D01*
X175886187Y-107075951D01*
X175854564Y-107066665D01*
X175679807Y-106988857D01*
X175679802Y-106988855D01*
X175506558Y-106952032D01*
X175494646Y-106949500D01*
X175305354Y-106949500D01*
X175293442Y-106952032D01*
X175120197Y-106988855D01*
X175120192Y-106988857D01*
X174947270Y-107065848D01*
X174947265Y-107065851D01*
X174794129Y-107177111D01*
X174667466Y-107317785D01*
X174572821Y-107481715D01*
X174572818Y-107481722D01*
X174516722Y-107654370D01*
X174514326Y-107661744D01*
X174494540Y-107850000D01*
X174514326Y-108038256D01*
X174514327Y-108038259D01*
X174572818Y-108218277D01*
X174572820Y-108218281D01*
X174572821Y-108218284D01*
X174667467Y-108382216D01*
X174710772Y-108430310D01*
X174742650Y-108465715D01*
X174772880Y-108528706D01*
X174774500Y-108548687D01*
X174774500Y-111703151D01*
X174754815Y-111770190D01*
X174738181Y-111790832D01*
X174437181Y-112091832D01*
X174375858Y-112125317D01*
X174306166Y-112120333D01*
X174250233Y-112078461D01*
X174225816Y-112012997D01*
X174225500Y-112004151D01*
X174225500Y-111873619D01*
X174225499Y-111873615D01*
X174209032Y-111790832D01*
X174195698Y-111723795D01*
X174137239Y-111582663D01*
X174137238Y-111582662D01*
X174137235Y-111582656D01*
X174052370Y-111455648D01*
X174052367Y-111455644D01*
X173944355Y-111347632D01*
X173944351Y-111347629D01*
X173817343Y-111262764D01*
X173817334Y-111262759D01*
X173676205Y-111204302D01*
X173676197Y-111204300D01*
X173526384Y-111174500D01*
X173526380Y-111174500D01*
X173373620Y-111174500D01*
X173373615Y-111174500D01*
X173223802Y-111204300D01*
X173223794Y-111204302D01*
X173082665Y-111262759D01*
X173082656Y-111262764D01*
X172955648Y-111347629D01*
X172955644Y-111347632D01*
X172847632Y-111455644D01*
X172847629Y-111455648D01*
X172762764Y-111582656D01*
X172762759Y-111582665D01*
X172704302Y-111723794D01*
X172704300Y-111723802D01*
X172674500Y-111873615D01*
X172674500Y-112026384D01*
X172704300Y-112176197D01*
X172704302Y-112176205D01*
X172762759Y-112317334D01*
X172762764Y-112317343D01*
X172847629Y-112444351D01*
X172847632Y-112444355D01*
X172955644Y-112552367D01*
X172955648Y-112552370D01*
X173082656Y-112637235D01*
X173082662Y-112637238D01*
X173082663Y-112637239D01*
X173223795Y-112695698D01*
X173373615Y-112725499D01*
X173373619Y-112725500D01*
X173504152Y-112725500D01*
X173571191Y-112745185D01*
X173616946Y-112797989D01*
X173626890Y-112867147D01*
X173597865Y-112930703D01*
X173591833Y-112937181D01*
X172114703Y-114414310D01*
X172027577Y-114501435D01*
X172027571Y-114501443D01*
X171993347Y-114552660D01*
X171993348Y-114552661D01*
X171959124Y-114603879D01*
X171959117Y-114603891D01*
X171944306Y-114639652D01*
X171944305Y-114639655D01*
X171939060Y-114652317D01*
X171895218Y-114706719D01*
X171828924Y-114728783D01*
X171761225Y-114711503D01*
X171713615Y-114660365D01*
X171700500Y-114604862D01*
X171700500Y-98762229D01*
X171720185Y-98695190D01*
X171736819Y-98674548D01*
X172314819Y-98096548D01*
X172376142Y-98063063D01*
X172445834Y-98068047D01*
G37*
G04 #@! TD.AperFunction*
G04 #@! TA.AperFunction,Conductor*
G36*
X176872746Y-98782820D02*
G01*
X176909454Y-98842270D01*
X176908319Y-98905094D01*
X176909678Y-98905383D01*
X176908327Y-98911738D01*
X176908326Y-98911742D01*
X176908326Y-98911744D01*
X176888540Y-99100000D01*
X176908326Y-99288256D01*
X176908327Y-99288259D01*
X176966818Y-99468277D01*
X176966821Y-99468284D01*
X177061467Y-99632216D01*
X177176793Y-99760298D01*
X177188129Y-99772888D01*
X177341265Y-99884148D01*
X177341270Y-99884151D01*
X177514192Y-99961142D01*
X177514193Y-99961142D01*
X177514197Y-99961144D01*
X177527021Y-99963869D01*
X177588503Y-99997061D01*
X177622280Y-100058224D01*
X177624562Y-100098120D01*
X177613540Y-100202999D01*
X177613540Y-100203000D01*
X177633326Y-100391256D01*
X177633327Y-100391259D01*
X177691818Y-100571277D01*
X177691821Y-100571284D01*
X177786467Y-100735216D01*
X177913129Y-100875888D01*
X177917958Y-100880236D01*
X177916932Y-100881374D01*
X177954823Y-100930513D01*
X177960802Y-101000126D01*
X177928196Y-101061921D01*
X177867357Y-101096278D01*
X177839272Y-101099500D01*
X177552131Y-101099500D01*
X177552119Y-101099501D01*
X177513253Y-101103679D01*
X177486748Y-101103679D01*
X177447874Y-101099500D01*
X177052130Y-101099500D01*
X177052119Y-101099501D01*
X177013253Y-101103679D01*
X176986748Y-101103679D01*
X176947874Y-101099500D01*
X176552130Y-101099500D01*
X176552119Y-101099501D01*
X176513253Y-101103679D01*
X176486748Y-101103679D01*
X176447874Y-101099500D01*
X176052129Y-101099500D01*
X176052123Y-101099501D01*
X175992516Y-101105908D01*
X175857671Y-101156202D01*
X175857669Y-101156203D01*
X175824310Y-101181176D01*
X175758845Y-101205592D01*
X175690572Y-101190740D01*
X175675690Y-101181176D01*
X175642330Y-101156203D01*
X175642328Y-101156202D01*
X175507486Y-101105910D01*
X175507485Y-101105909D01*
X175507483Y-101105909D01*
X175447873Y-101099500D01*
X175447863Y-101099500D01*
X175052129Y-101099500D01*
X175052123Y-101099501D01*
X175017753Y-101103196D01*
X174948994Y-101090789D01*
X174897857Y-101043178D01*
X174880500Y-100979906D01*
X174880500Y-100689521D01*
X174900185Y-100622482D01*
X174916830Y-100601828D01*
X176542222Y-98976951D01*
X176542378Y-98976812D01*
X176546729Y-98972460D01*
X176546733Y-98972458D01*
X176592738Y-98926452D01*
X176633794Y-98885410D01*
X176633794Y-98885409D01*
X176633810Y-98885394D01*
X176633826Y-98885377D01*
X176633830Y-98885372D01*
X176633852Y-98885338D01*
X176633858Y-98885333D01*
X176668610Y-98833322D01*
X176686779Y-98806140D01*
X176740398Y-98761348D01*
X176809725Y-98752654D01*
X176872746Y-98782820D01*
G37*
G04 #@! TD.AperFunction*
G04 #@! TA.AperFunction,Conductor*
G36*
X178179451Y-85585713D02*
G01*
X178205537Y-85615817D01*
X178207288Y-85618656D01*
X178331344Y-85742712D01*
X178480666Y-85834814D01*
X178590227Y-85871119D01*
X178647671Y-85910890D01*
X178674494Y-85975406D01*
X178662179Y-86044182D01*
X178638903Y-86076505D01*
X178448409Y-86267000D01*
X178317270Y-86398139D01*
X178317267Y-86398142D01*
X178273704Y-86441704D01*
X178230142Y-86485266D01*
X178209651Y-86515934D01*
X178209650Y-86515935D01*
X178161690Y-86587709D01*
X178161687Y-86587715D01*
X178128344Y-86668213D01*
X178125079Y-86676097D01*
X178125075Y-86676109D01*
X178114536Y-86701550D01*
X178114535Y-86701556D01*
X178092590Y-86811885D01*
X178090500Y-86822392D01*
X178090500Y-94961453D01*
X178070815Y-95028492D01*
X178054181Y-95049134D01*
X177726204Y-95377111D01*
X177395270Y-95708045D01*
X177395267Y-95708048D01*
X177351704Y-95751610D01*
X177308142Y-95795172D01*
X177280456Y-95836608D01*
X177280455Y-95836609D01*
X177239690Y-95897615D01*
X177239688Y-95897619D01*
X177239688Y-95897620D01*
X177213419Y-95961040D01*
X177192538Y-96011450D01*
X177192535Y-96011462D01*
X177168500Y-96132295D01*
X177168500Y-98401312D01*
X177148815Y-98468351D01*
X177136650Y-98484284D01*
X177061466Y-98567785D01*
X176991727Y-98688576D01*
X176941160Y-98736792D01*
X176872553Y-98750014D01*
X176807688Y-98724046D01*
X176767160Y-98667132D01*
X176762727Y-98602367D01*
X176773490Y-98548306D01*
X176773490Y-98548299D01*
X176773497Y-98548232D01*
X176773500Y-98548201D01*
X176773500Y-98486699D01*
X176773503Y-98468351D01*
X176773510Y-98425092D01*
X176773509Y-98425087D01*
X176773510Y-98419214D01*
X176773500Y-98418986D01*
X176773500Y-86024499D01*
X176793185Y-85957460D01*
X176845989Y-85911705D01*
X176897500Y-85900499D01*
X177450002Y-85900499D01*
X177450008Y-85900499D01*
X177552797Y-85889999D01*
X177719334Y-85834814D01*
X177868656Y-85742712D01*
X177992712Y-85618656D01*
X177994461Y-85615819D01*
X177996169Y-85614283D01*
X177997193Y-85612989D01*
X177997414Y-85613163D01*
X178046406Y-85569096D01*
X178115368Y-85557872D01*
X178179451Y-85585713D01*
G37*
G04 #@! TD.AperFunction*
G04 #@! TA.AperFunction,Conductor*
G36*
X166955703Y-70592739D02*
G01*
X166962181Y-70598771D01*
X168484038Y-72120628D01*
X168517523Y-72181951D01*
X168519678Y-72195347D01*
X168526934Y-72264378D01*
X168537326Y-72363256D01*
X168537327Y-72363258D01*
X168537327Y-72363259D01*
X168595818Y-72543277D01*
X168595821Y-72543284D01*
X168690467Y-72707216D01*
X168767449Y-72792713D01*
X168817129Y-72847888D01*
X168970265Y-72959148D01*
X168970270Y-72959151D01*
X169143192Y-73036142D01*
X169143197Y-73036144D01*
X169328354Y-73075500D01*
X169328355Y-73075500D01*
X169517644Y-73075500D01*
X169517646Y-73075500D01*
X169702803Y-73036144D01*
X169875730Y-72959151D01*
X170028871Y-72847888D01*
X170155533Y-72707216D01*
X170250179Y-72543284D01*
X170308674Y-72363256D01*
X170319066Y-72264373D01*
X170345649Y-72199763D01*
X170402946Y-72159777D01*
X170472765Y-72157117D01*
X170530067Y-72189657D01*
X172827412Y-74487002D01*
X172827441Y-74487033D01*
X172917660Y-74577252D01*
X172917663Y-74577254D01*
X172968886Y-74611480D01*
X173020110Y-74645708D01*
X173035709Y-74652169D01*
X173079912Y-74670479D01*
X173079917Y-74670480D01*
X173079919Y-74670481D01*
X173133944Y-74692859D01*
X173170238Y-74700078D01*
X173254787Y-74716895D01*
X173254788Y-74716896D01*
X173254789Y-74716896D01*
X173254790Y-74716896D01*
X174044548Y-74716896D01*
X174111587Y-74736581D01*
X174132229Y-74753215D01*
X177964871Y-78585857D01*
X178016094Y-78620084D01*
X178067313Y-78654309D01*
X178067322Y-78654314D01*
X178181142Y-78701459D01*
X178181147Y-78701460D01*
X178181153Y-78701463D01*
X178181157Y-78701463D01*
X178181158Y-78701464D01*
X178218390Y-78708870D01*
X178280301Y-78741254D01*
X178314875Y-78801970D01*
X178315492Y-78856256D01*
X178314327Y-78861737D01*
X178314327Y-78861740D01*
X178314326Y-78861744D01*
X178309412Y-78908498D01*
X178294540Y-79050000D01*
X178303357Y-79133894D01*
X178290787Y-79202623D01*
X178254348Y-79246120D01*
X178192452Y-79292455D01*
X178106206Y-79407664D01*
X178106202Y-79407671D01*
X178053198Y-79549785D01*
X178051487Y-79549146D01*
X178021789Y-79601294D01*
X177959877Y-79633676D01*
X177892359Y-79628240D01*
X177832485Y-79605909D01*
X177832483Y-79605908D01*
X177772883Y-79599501D01*
X177772881Y-79599500D01*
X177772873Y-79599500D01*
X177772865Y-79599500D01*
X177412229Y-79599500D01*
X177345190Y-79579815D01*
X177324548Y-79563181D01*
X172815921Y-75054552D01*
X172815914Y-75054546D01*
X172734279Y-75000000D01*
X172734279Y-75000001D01*
X172692991Y-74972413D01*
X172556417Y-74915843D01*
X172556407Y-74915840D01*
X172411420Y-74887000D01*
X172411418Y-74887000D01*
X169342508Y-74887000D01*
X169275469Y-74867315D01*
X169236969Y-74828097D01*
X169192712Y-74756344D01*
X169068656Y-74632288D01*
X168919334Y-74540186D01*
X168752797Y-74485001D01*
X168752795Y-74485000D01*
X168650016Y-74474500D01*
X168650009Y-74474500D01*
X167449729Y-74474500D01*
X167382690Y-74454815D01*
X167362048Y-74438181D01*
X167011450Y-74087583D01*
X166977965Y-74026260D01*
X166982949Y-73956568D01*
X167006979Y-73916932D01*
X167089824Y-73824925D01*
X167184470Y-73660993D01*
X167242965Y-73480965D01*
X167262751Y-73292709D01*
X167242965Y-73104453D01*
X167184470Y-72924425D01*
X167089824Y-72760493D01*
X166963162Y-72619821D01*
X166963161Y-72619820D01*
X166804764Y-72504738D01*
X166805940Y-72503118D01*
X166764272Y-72459397D01*
X166750500Y-72402601D01*
X166750500Y-70686452D01*
X166770185Y-70619413D01*
X166822989Y-70573658D01*
X166892147Y-70563714D01*
X166955703Y-70592739D01*
G37*
G04 #@! TD.AperFunction*
G04 #@! TA.AperFunction,Conductor*
G36*
X169194258Y-66285185D02*
G01*
X169240013Y-66337989D01*
X169250507Y-66402756D01*
X169249500Y-66412127D01*
X169249500Y-66412129D01*
X169249500Y-66644547D01*
X169229815Y-66711586D01*
X169213181Y-66732228D01*
X169026269Y-66919140D01*
X169026267Y-66919142D01*
X168982704Y-66962704D01*
X168939142Y-67006266D01*
X168912570Y-67046035D01*
X168912569Y-67046036D01*
X168870690Y-67108709D01*
X168870688Y-67108713D01*
X168870688Y-67108714D01*
X168845590Y-67169307D01*
X168823538Y-67222544D01*
X168823535Y-67222553D01*
X168820208Y-67239279D01*
X168820209Y-67239280D01*
X168806384Y-67308787D01*
X168806383Y-67308789D01*
X168799500Y-67343391D01*
X168799500Y-70261604D01*
X168820390Y-70366630D01*
X168814161Y-70436221D01*
X168771298Y-70491398D01*
X168705408Y-70514642D01*
X168637411Y-70498574D01*
X168611091Y-70478501D01*
X167236819Y-69104229D01*
X167203334Y-69042906D01*
X167200500Y-69016548D01*
X167200500Y-66657098D01*
X167220185Y-66590059D01*
X167272989Y-66544304D01*
X167342147Y-66534360D01*
X167350270Y-66535805D01*
X167372354Y-66540500D01*
X167372355Y-66540500D01*
X167561644Y-66540500D01*
X167561646Y-66540500D01*
X167746803Y-66501144D01*
X167919730Y-66424151D01*
X168072871Y-66312888D01*
X168078037Y-66307151D01*
X168078600Y-66306526D01*
X168138087Y-66269879D01*
X168170748Y-66265500D01*
X169127219Y-66265500D01*
X169194258Y-66285185D01*
G37*
G04 #@! TD.AperFunction*
G04 #@! TA.AperFunction,Conductor*
G36*
X169192539Y-54980185D02*
G01*
X169238294Y-55032989D01*
X169249500Y-55084500D01*
X169249500Y-55977870D01*
X169249501Y-55977876D01*
X169255908Y-56037481D01*
X169268659Y-56071669D01*
X169273642Y-56141361D01*
X169268659Y-56158331D01*
X169255908Y-56192518D01*
X169249626Y-56250951D01*
X169249501Y-56252123D01*
X169249500Y-56252135D01*
X169249500Y-57247870D01*
X169249501Y-57247876D01*
X169255908Y-57307481D01*
X169268659Y-57341669D01*
X169273642Y-57411361D01*
X169268659Y-57428331D01*
X169255908Y-57462518D01*
X169249501Y-57522116D01*
X169249500Y-57522135D01*
X169249500Y-58103000D01*
X169229815Y-58170039D01*
X169177011Y-58215794D01*
X169125500Y-58227000D01*
X169037354Y-58227000D01*
X169004897Y-58233898D01*
X168852197Y-58266355D01*
X168852192Y-58266357D01*
X168679270Y-58343348D01*
X168679265Y-58343351D01*
X168526129Y-58454611D01*
X168399466Y-58595285D01*
X168304821Y-58759215D01*
X168304818Y-58759222D01*
X168261914Y-58891269D01*
X168246326Y-58939244D01*
X168226540Y-59127500D01*
X168246326Y-59315756D01*
X168246327Y-59315759D01*
X168304818Y-59495777D01*
X168304821Y-59495784D01*
X168399467Y-59659716D01*
X168514852Y-59787864D01*
X168526129Y-59800388D01*
X168679265Y-59911648D01*
X168679270Y-59911651D01*
X168852185Y-59988639D01*
X168852187Y-59988639D01*
X168852197Y-59988644D01*
X168852206Y-59988646D01*
X168854142Y-59989275D01*
X168855130Y-59989950D01*
X168858134Y-59991288D01*
X168857889Y-59991837D01*
X168911821Y-60028707D01*
X168939025Y-60093063D01*
X168927118Y-60161911D01*
X168903516Y-60194891D01*
X166462181Y-62636227D01*
X166400858Y-62669712D01*
X166331166Y-62664728D01*
X166275233Y-62622856D01*
X166250816Y-62557392D01*
X166250500Y-62548546D01*
X166250500Y-58206057D01*
X166270185Y-58139018D01*
X166309401Y-58100520D01*
X166443656Y-58017712D01*
X166567712Y-57893656D01*
X166659814Y-57744334D01*
X166714999Y-57577797D01*
X166725500Y-57475009D01*
X166725499Y-56974856D01*
X166745183Y-56907818D01*
X166761825Y-56887168D01*
X166781212Y-56867785D01*
X168103319Y-55545908D01*
X168652512Y-54996811D01*
X168713838Y-54963331D01*
X168740186Y-54960500D01*
X169125500Y-54960500D01*
X169192539Y-54980185D01*
G37*
G04 #@! TD.AperFunction*
G04 #@! TA.AperFunction,Conductor*
G36*
X201428781Y-42000001D02*
G01*
X201429270Y-42000003D01*
X201499593Y-42000317D01*
X201500425Y-42000324D01*
X201569232Y-42001244D01*
X201573618Y-42001381D01*
X201638820Y-42004583D01*
X201646538Y-42005205D01*
X201711655Y-42012499D01*
X201715463Y-42012986D01*
X201782086Y-42022565D01*
X201786437Y-42023270D01*
X201920252Y-42047413D01*
X201928866Y-42049287D01*
X202058466Y-42082366D01*
X202066938Y-42084853D01*
X202193835Y-42127089D01*
X202202119Y-42130178D01*
X202325701Y-42181367D01*
X202333696Y-42185018D01*
X202453326Y-42244900D01*
X202461078Y-42249133D01*
X202576091Y-42317374D01*
X202583536Y-42322159D01*
X202693393Y-42398433D01*
X202700480Y-42403739D01*
X202804597Y-42487642D01*
X202811287Y-42493438D01*
X202909170Y-42584570D01*
X202915428Y-42590829D01*
X203006554Y-42688704D01*
X203012352Y-42695394D01*
X203096267Y-42799527D01*
X203101572Y-42806614D01*
X203177840Y-42916463D01*
X203182625Y-42923908D01*
X203250866Y-43038921D01*
X203255104Y-43046683D01*
X203314969Y-43166278D01*
X203318638Y-43174311D01*
X203318646Y-43174330D01*
X203369818Y-43297873D01*
X203372910Y-43306164D01*
X203402677Y-43395598D01*
X203415143Y-43433053D01*
X203415146Y-43433060D01*
X203417640Y-43441555D01*
X203450706Y-43571110D01*
X203452588Y-43579758D01*
X203476728Y-43713557D01*
X203477436Y-43717927D01*
X203487010Y-43784515D01*
X203487501Y-43788357D01*
X203494794Y-43853459D01*
X203495416Y-43861182D01*
X203498617Y-43926363D01*
X203498755Y-43930787D01*
X203499673Y-43999433D01*
X203499683Y-44000537D01*
X203499999Y-44071218D01*
X203500000Y-44071772D01*
X203500000Y-88424576D01*
X203499991Y-88426087D01*
X203499718Y-88448494D01*
X203499644Y-88451518D01*
X203499021Y-88468541D01*
X203497980Y-88480665D01*
X203496959Y-88488196D01*
X203492296Y-88508977D01*
X203489773Y-88516943D01*
X203486123Y-88526950D01*
X203481086Y-88539112D01*
X203475881Y-88550118D01*
X203461625Y-88576789D01*
X203448123Y-88596998D01*
X203432829Y-88615635D01*
X203415635Y-88632829D01*
X203396998Y-88648123D01*
X203376789Y-88661625D01*
X203350118Y-88675881D01*
X203339112Y-88681086D01*
X203326950Y-88686123D01*
X203316943Y-88689773D01*
X203308977Y-88692296D01*
X203288196Y-88696959D01*
X203280665Y-88697980D01*
X203268541Y-88699021D01*
X203251518Y-88699644D01*
X203248494Y-88699718D01*
X203227723Y-88699971D01*
X203226083Y-88699991D01*
X203224576Y-88700000D01*
X202624999Y-88700000D01*
X202463239Y-88721295D01*
X202463237Y-88721296D01*
X202312502Y-88783732D01*
X202183058Y-88883058D01*
X202083732Y-89012502D01*
X202021296Y-89163237D01*
X202021295Y-89163239D01*
X202000000Y-89324999D01*
X202000000Y-94075000D01*
X202021295Y-94236760D01*
X202021296Y-94236762D01*
X202083732Y-94387497D01*
X202083733Y-94387499D01*
X202083734Y-94387500D01*
X202183058Y-94516942D01*
X202312500Y-94616266D01*
X202463238Y-94678704D01*
X202544119Y-94689352D01*
X202624999Y-94700000D01*
X202625000Y-94700000D01*
X203224576Y-94700000D01*
X203226081Y-94700009D01*
X203227717Y-94700028D01*
X203248543Y-94700282D01*
X203251453Y-94700353D01*
X203268550Y-94700978D01*
X203280649Y-94702017D01*
X203288202Y-94703041D01*
X203308968Y-94707701D01*
X203316955Y-94710230D01*
X203326950Y-94713876D01*
X203339112Y-94718913D01*
X203350118Y-94724118D01*
X203376789Y-94738374D01*
X203396996Y-94751874D01*
X203415642Y-94767177D01*
X203432822Y-94784357D01*
X203448123Y-94803001D01*
X203461625Y-94823210D01*
X203475881Y-94849881D01*
X203481086Y-94860887D01*
X203486123Y-94873049D01*
X203489773Y-94883056D01*
X203492296Y-94891022D01*
X203496959Y-94911803D01*
X203497980Y-94919334D01*
X203499021Y-94931458D01*
X203499644Y-94948481D01*
X203499718Y-94951505D01*
X203499991Y-94973912D01*
X203500000Y-94975423D01*
X203500000Y-109424576D01*
X203499991Y-109426087D01*
X203499718Y-109448494D01*
X203499644Y-109451518D01*
X203499021Y-109468541D01*
X203497980Y-109480665D01*
X203496959Y-109488196D01*
X203492296Y-109508977D01*
X203489773Y-109516943D01*
X203486123Y-109526950D01*
X203481086Y-109539112D01*
X203475881Y-109550118D01*
X203461625Y-109576789D01*
X203448123Y-109596998D01*
X203432829Y-109615635D01*
X203415635Y-109632829D01*
X203396998Y-109648123D01*
X203376789Y-109661625D01*
X203350118Y-109675881D01*
X203339112Y-109681086D01*
X203326950Y-109686123D01*
X203316943Y-109689773D01*
X203308977Y-109692296D01*
X203288196Y-109696959D01*
X203280665Y-109697980D01*
X203268541Y-109699021D01*
X203251518Y-109699644D01*
X203248494Y-109699718D01*
X203227723Y-109699971D01*
X203226083Y-109699991D01*
X203224576Y-109700000D01*
X202624999Y-109700000D01*
X202463239Y-109721295D01*
X202463237Y-109721296D01*
X202312502Y-109783732D01*
X202183058Y-109883058D01*
X202083732Y-110012502D01*
X202021296Y-110163237D01*
X202021295Y-110163239D01*
X202000000Y-110324999D01*
X202000000Y-115075000D01*
X202021295Y-115236760D01*
X202021296Y-115236762D01*
X202083732Y-115387497D01*
X202083733Y-115387499D01*
X202083734Y-115387500D01*
X202183058Y-115516942D01*
X202312500Y-115616266D01*
X202463238Y-115678704D01*
X202544119Y-115689352D01*
X202624999Y-115700000D01*
X202625000Y-115700000D01*
X203224576Y-115700000D01*
X203226081Y-115700009D01*
X203227717Y-115700028D01*
X203248543Y-115700282D01*
X203251453Y-115700353D01*
X203268550Y-115700978D01*
X203280649Y-115702017D01*
X203288202Y-115703041D01*
X203308968Y-115707701D01*
X203316955Y-115710230D01*
X203326950Y-115713876D01*
X203339112Y-115718913D01*
X203350118Y-115724118D01*
X203376789Y-115738374D01*
X203396996Y-115751874D01*
X203415642Y-115767177D01*
X203432822Y-115784357D01*
X203448123Y-115803001D01*
X203461625Y-115823210D01*
X203475881Y-115849881D01*
X203481086Y-115860887D01*
X203486123Y-115873049D01*
X203489773Y-115883056D01*
X203492296Y-115891022D01*
X203496959Y-115911803D01*
X203497980Y-115919334D01*
X203499021Y-115931458D01*
X203499644Y-115948481D01*
X203499718Y-115951505D01*
X203499991Y-115973912D01*
X203500000Y-115975423D01*
X203500000Y-147928227D01*
X203499999Y-147928781D01*
X203499683Y-147999462D01*
X203499673Y-148000566D01*
X203498755Y-148069211D01*
X203498617Y-148073635D01*
X203495416Y-148138816D01*
X203494794Y-148146538D01*
X203487501Y-148211641D01*
X203487010Y-148215484D01*
X203477436Y-148282072D01*
X203476728Y-148286441D01*
X203452589Y-148420236D01*
X203450707Y-148428886D01*
X203417632Y-148558471D01*
X203415138Y-148566965D01*
X203372909Y-148693839D01*
X203369816Y-148702132D01*
X203318640Y-148825682D01*
X203314963Y-148833734D01*
X203255105Y-148953314D01*
X203250863Y-148961083D01*
X203182625Y-149076091D01*
X203177840Y-149083536D01*
X203101572Y-149193385D01*
X203096267Y-149200472D01*
X203012352Y-149304605D01*
X203006554Y-149311295D01*
X202915428Y-149409170D01*
X202909170Y-149415428D01*
X202811295Y-149506554D01*
X202804605Y-149512352D01*
X202700472Y-149596267D01*
X202693385Y-149601572D01*
X202583536Y-149677840D01*
X202576091Y-149682625D01*
X202461083Y-149750863D01*
X202453314Y-149755105D01*
X202333734Y-149814963D01*
X202325681Y-149818640D01*
X202202127Y-149869817D01*
X202193834Y-149872910D01*
X202066933Y-149915147D01*
X202058439Y-149917641D01*
X201928889Y-149950706D01*
X201920241Y-149952588D01*
X201786442Y-149976728D01*
X201782072Y-149977436D01*
X201715484Y-149987010D01*
X201711641Y-149987501D01*
X201646538Y-149994794D01*
X201638817Y-149995416D01*
X201573643Y-149998617D01*
X201569218Y-149998755D01*
X201500566Y-149999673D01*
X201499462Y-149999683D01*
X201428782Y-149999999D01*
X201428228Y-150000000D01*
X162571772Y-150000000D01*
X162571218Y-149999999D01*
X162500537Y-149999683D01*
X162499433Y-149999673D01*
X162430787Y-149998755D01*
X162426363Y-149998617D01*
X162361182Y-149995416D01*
X162353459Y-149994794D01*
X162288357Y-149987501D01*
X162284515Y-149987010D01*
X162217927Y-149977436D01*
X162213558Y-149976728D01*
X162079763Y-149952589D01*
X162071118Y-149950708D01*
X162022631Y-149938332D01*
X161941536Y-149917634D01*
X161933044Y-149915140D01*
X161806161Y-149872909D01*
X161797868Y-149869816D01*
X161674328Y-149818645D01*
X161666275Y-149814968D01*
X161546685Y-149755105D01*
X161538916Y-149750863D01*
X161423908Y-149682625D01*
X161416463Y-149677840D01*
X161306614Y-149601572D01*
X161299527Y-149596267D01*
X161195394Y-149512352D01*
X161188704Y-149506554D01*
X161090829Y-149415428D01*
X161084571Y-149409170D01*
X160993448Y-149311298D01*
X160987651Y-149304608D01*
X160903739Y-149200480D01*
X160898433Y-149193393D01*
X160898427Y-149193385D01*
X160822159Y-149083536D01*
X160817374Y-149076091D01*
X160749133Y-148961078D01*
X160744894Y-148953314D01*
X160685018Y-148833696D01*
X160681367Y-148825701D01*
X160630178Y-148702119D01*
X160627089Y-148693835D01*
X160584853Y-148566938D01*
X160582364Y-148558459D01*
X160549287Y-148428866D01*
X160547413Y-148420252D01*
X160523270Y-148286437D01*
X160522563Y-148282072D01*
X160512989Y-148215484D01*
X160512498Y-148211641D01*
X160505205Y-148146538D01*
X160504583Y-148138817D01*
X160504583Y-148138816D01*
X160501380Y-148073605D01*
X160501244Y-148069218D01*
X160501244Y-148069211D01*
X160500324Y-148000425D01*
X160500317Y-147999593D01*
X160500001Y-147928780D01*
X160500000Y-147928227D01*
X160500000Y-145200002D01*
X162002562Y-145200002D01*
X162007676Y-145323656D01*
X162022984Y-145446463D01*
X162022985Y-145446472D01*
X162048383Y-145567598D01*
X162081866Y-145680068D01*
X162082798Y-145683914D01*
X162083697Y-145686217D01*
X162083697Y-145686218D01*
X162128686Y-145801514D01*
X162155386Y-145856130D01*
X162183035Y-145912689D01*
X162183044Y-145912706D01*
X162246389Y-146019014D01*
X162246396Y-146019025D01*
X162318312Y-146119749D01*
X162321619Y-146123653D01*
X162321631Y-146123666D01*
X162398297Y-146214186D01*
X162485813Y-146301702D01*
X162580250Y-146381686D01*
X162580254Y-146381689D01*
X162680979Y-146453605D01*
X162761411Y-146501532D01*
X162787294Y-146516956D01*
X162787297Y-146516957D01*
X162787298Y-146516958D01*
X162898485Y-146571314D01*
X162898486Y-146571314D01*
X162902264Y-146573161D01*
X162906852Y-146574578D01*
X163013782Y-146616303D01*
X163013788Y-146616304D01*
X163013793Y-146616307D01*
X163078994Y-146635717D01*
X163132400Y-146651617D01*
X163132401Y-146651617D01*
X163132404Y-146651617D01*
X163133403Y-146651915D01*
X163136163Y-146652405D01*
X163253530Y-146677015D01*
X163376342Y-146692324D01*
X163376343Y-146692324D01*
X163376372Y-146692325D01*
X163377618Y-146692403D01*
X163378906Y-146692430D01*
X163499998Y-146697439D01*
X163500000Y-146697439D01*
X163500001Y-146697439D01*
X163504912Y-146697235D01*
X163623658Y-146692324D01*
X163746470Y-146677015D01*
X163863842Y-146652404D01*
X163866596Y-146651915D01*
X163867592Y-146651618D01*
X163867599Y-146651617D01*
X163867600Y-146651617D01*
X163947772Y-146627748D01*
X163986206Y-146616307D01*
X163986208Y-146616305D01*
X163986218Y-146616303D01*
X164093150Y-146574577D01*
X164097738Y-146573159D01*
X164101504Y-146571317D01*
X164101514Y-146571314D01*
X164101515Y-146571314D01*
X164212702Y-146516958D01*
X164306861Y-146460850D01*
X164312325Y-146458386D01*
X164319021Y-146453605D01*
X164319022Y-146453605D01*
X164419746Y-146381689D01*
X164499403Y-146314221D01*
X164505207Y-146310681D01*
X164514187Y-146301701D01*
X164514188Y-146301701D01*
X164601701Y-146214187D01*
X164680134Y-146121581D01*
X164681687Y-146119749D01*
X164753603Y-146019025D01*
X164753610Y-146019014D01*
X164816958Y-145912702D01*
X164871314Y-145801514D01*
X164916303Y-145686218D01*
X164916303Y-145686217D01*
X164916303Y-145686215D01*
X164917200Y-145683918D01*
X164918128Y-145680083D01*
X164951617Y-145567599D01*
X164977015Y-145446470D01*
X164987224Y-145385288D01*
X164989124Y-145370656D01*
X164997802Y-145350946D01*
X164998690Y-145264912D01*
X164998883Y-145259148D01*
X164999322Y-145251431D01*
X165004367Y-145237275D01*
X165002648Y-145207043D01*
X165002648Y-145200002D01*
X199002562Y-145200002D01*
X199007676Y-145323656D01*
X199022984Y-145446463D01*
X199022985Y-145446472D01*
X199048383Y-145567598D01*
X199081866Y-145680068D01*
X199082798Y-145683914D01*
X199083697Y-145686217D01*
X199083697Y-145686218D01*
X199128686Y-145801514D01*
X199155386Y-145856130D01*
X199183035Y-145912689D01*
X199183044Y-145912706D01*
X199246389Y-146019014D01*
X199246396Y-146019025D01*
X199318312Y-146119749D01*
X199321619Y-146123653D01*
X199321631Y-146123666D01*
X199398297Y-146214186D01*
X199485813Y-146301702D01*
X199580250Y-146381686D01*
X199580254Y-146381689D01*
X199680979Y-146453605D01*
X199761411Y-146501532D01*
X199787294Y-146516956D01*
X199787297Y-146516957D01*
X199787298Y-146516958D01*
X199898485Y-146571314D01*
X199898486Y-146571314D01*
X199902264Y-146573161D01*
X199906852Y-146574578D01*
X200013782Y-146616303D01*
X200013788Y-146616304D01*
X200013793Y-146616307D01*
X200078994Y-146635717D01*
X200132400Y-146651617D01*
X200132401Y-146651617D01*
X200132404Y-146651617D01*
X200133403Y-146651915D01*
X200136163Y-146652405D01*
X200253530Y-146677015D01*
X200376342Y-146692324D01*
X200376343Y-146692324D01*
X200376372Y-146692325D01*
X200377618Y-146692403D01*
X200378906Y-146692430D01*
X200499998Y-146697439D01*
X200500000Y-146697439D01*
X200500001Y-146697439D01*
X200504912Y-146697235D01*
X200623658Y-146692324D01*
X200746470Y-146677015D01*
X200863842Y-146652404D01*
X200866596Y-146651915D01*
X200867592Y-146651618D01*
X200867599Y-146651617D01*
X200867600Y-146651617D01*
X200947772Y-146627748D01*
X200986206Y-146616307D01*
X200986208Y-146616305D01*
X200986218Y-146616303D01*
X201093150Y-146574577D01*
X201097738Y-146573159D01*
X201101504Y-146571317D01*
X201101514Y-146571314D01*
X201101515Y-146571314D01*
X201212702Y-146516958D01*
X201306861Y-146460850D01*
X201312325Y-146458386D01*
X201319021Y-146453605D01*
X201319022Y-146453605D01*
X201419746Y-146381689D01*
X201499403Y-146314221D01*
X201505207Y-146310681D01*
X201514187Y-146301701D01*
X201514188Y-146301701D01*
X201601701Y-146214187D01*
X201680134Y-146121581D01*
X201681687Y-146119749D01*
X201753603Y-146019025D01*
X201753610Y-146019014D01*
X201816958Y-145912702D01*
X201871314Y-145801514D01*
X201916303Y-145686218D01*
X201916303Y-145686217D01*
X201916303Y-145686215D01*
X201917200Y-145683918D01*
X201918128Y-145680083D01*
X201951617Y-145567599D01*
X201977015Y-145446470D01*
X201987224Y-145385288D01*
X201989124Y-145370656D01*
X201997802Y-145350946D01*
X201998690Y-145264912D01*
X201998883Y-145259148D01*
X201999322Y-145251431D01*
X202004367Y-145237275D01*
X202002648Y-145207043D01*
X202002648Y-145192957D01*
X202004022Y-145168791D01*
X201999322Y-145148568D01*
X201998883Y-145140851D01*
X201998690Y-145135087D01*
X201997912Y-145059752D01*
X201989125Y-145029347D01*
X201987224Y-145014712D01*
X201977015Y-144953530D01*
X201951617Y-144832401D01*
X201918130Y-144719920D01*
X201917200Y-144716082D01*
X201916303Y-144713782D01*
X201871314Y-144598486D01*
X201816958Y-144487298D01*
X201753606Y-144380979D01*
X201753603Y-144380974D01*
X201681687Y-144280250D01*
X201678392Y-144276361D01*
X201678387Y-144276356D01*
X201601701Y-144185813D01*
X201601698Y-144185810D01*
X201601693Y-144185804D01*
X201514186Y-144098297D01*
X201419749Y-144018313D01*
X201419735Y-144018303D01*
X201389513Y-143996725D01*
X201377249Y-143981091D01*
X201212702Y-143883042D01*
X201101515Y-143828686D01*
X201101514Y-143828686D01*
X201097732Y-143826837D01*
X201093140Y-143825418D01*
X200986223Y-143783699D01*
X200986206Y-143783692D01*
X200866590Y-143748082D01*
X200863836Y-143747593D01*
X200746470Y-143722984D01*
X200734605Y-143721506D01*
X200711081Y-143711293D01*
X200628783Y-143707889D01*
X200618571Y-143707043D01*
X200537317Y-143696915D01*
X200502320Y-143702657D01*
X200500012Y-143702562D01*
X200499986Y-143702562D01*
X200497678Y-143702657D01*
X200470669Y-143695919D01*
X200381428Y-143707043D01*
X200371216Y-143707889D01*
X200301878Y-143710757D01*
X200265395Y-143721506D01*
X200253530Y-143722984D01*
X200132401Y-143748383D01*
X200013793Y-143783693D01*
X200013775Y-143783699D01*
X199906859Y-143825418D01*
X199902267Y-143826837D01*
X199787294Y-143883043D01*
X199680981Y-143946394D01*
X199680975Y-143946398D01*
X199580253Y-144018311D01*
X199580250Y-144018313D01*
X199485813Y-144098297D01*
X199485808Y-144098303D01*
X199398305Y-144185805D01*
X199321631Y-144276334D01*
X199321572Y-144276401D01*
X199318312Y-144280250D01*
X199246396Y-144380974D01*
X199246389Y-144380985D01*
X199183044Y-144487293D01*
X199183035Y-144487310D01*
X199128692Y-144598474D01*
X199128683Y-144598493D01*
X199082797Y-144716086D01*
X199081866Y-144719931D01*
X199048383Y-144832401D01*
X199022985Y-144953527D01*
X199022984Y-144953536D01*
X199007676Y-145076343D01*
X199002562Y-145199997D01*
X199002562Y-145200002D01*
X165002648Y-145200002D01*
X165002648Y-145192957D01*
X165004022Y-145168791D01*
X164999322Y-145148568D01*
X164998883Y-145140851D01*
X164998690Y-145135087D01*
X164997912Y-145059752D01*
X164989125Y-145029347D01*
X164987224Y-145014712D01*
X164977015Y-144953530D01*
X164951617Y-144832401D01*
X164918130Y-144719920D01*
X164917200Y-144716082D01*
X164916303Y-144713782D01*
X164871314Y-144598486D01*
X164816958Y-144487298D01*
X164753606Y-144380979D01*
X164753603Y-144380974D01*
X164681687Y-144280250D01*
X164678392Y-144276361D01*
X164678387Y-144276356D01*
X164601701Y-144185813D01*
X164601698Y-144185810D01*
X164601693Y-144185804D01*
X164514186Y-144098297D01*
X164419749Y-144018313D01*
X164419735Y-144018303D01*
X164389513Y-143996725D01*
X164377249Y-143981091D01*
X164212702Y-143883042D01*
X164101515Y-143828686D01*
X164101514Y-143828686D01*
X164097732Y-143826837D01*
X164093140Y-143825418D01*
X163986223Y-143783699D01*
X163986206Y-143783692D01*
X163866590Y-143748082D01*
X163863836Y-143747593D01*
X163746470Y-143722984D01*
X163734605Y-143721506D01*
X163711081Y-143711293D01*
X163628783Y-143707889D01*
X163618571Y-143707043D01*
X163537317Y-143696915D01*
X163502320Y-143702657D01*
X163500012Y-143702562D01*
X163499986Y-143702562D01*
X163497678Y-143702657D01*
X163470669Y-143695919D01*
X163381428Y-143707043D01*
X163371216Y-143707889D01*
X163301878Y-143710757D01*
X163265395Y-143721506D01*
X163253530Y-143722984D01*
X163132401Y-143748383D01*
X163013793Y-143783693D01*
X163013775Y-143783699D01*
X162906859Y-143825418D01*
X162902267Y-143826837D01*
X162787294Y-143883043D01*
X162680981Y-143946394D01*
X162680975Y-143946398D01*
X162580253Y-144018311D01*
X162580250Y-144018313D01*
X162485813Y-144098297D01*
X162485808Y-144098303D01*
X162398305Y-144185805D01*
X162321631Y-144276334D01*
X162321572Y-144276401D01*
X162318312Y-144280250D01*
X162246396Y-144380974D01*
X162246389Y-144380985D01*
X162183044Y-144487293D01*
X162183035Y-144487310D01*
X162128692Y-144598474D01*
X162128683Y-144598493D01*
X162082797Y-144716086D01*
X162081866Y-144719931D01*
X162048383Y-144832401D01*
X162022985Y-144953527D01*
X162022984Y-144953536D01*
X162007676Y-145076343D01*
X162002562Y-145199997D01*
X162002562Y-145200002D01*
X160500000Y-145200002D01*
X160500000Y-115975423D01*
X160500009Y-115973918D01*
X160500024Y-115972652D01*
X160500282Y-115951454D01*
X160500353Y-115948548D01*
X160500978Y-115931447D01*
X160502017Y-115919351D01*
X160503041Y-115911794D01*
X160507699Y-115891034D01*
X160510232Y-115883039D01*
X160513876Y-115873049D01*
X160518920Y-115860869D01*
X160524118Y-115849881D01*
X160538374Y-115823208D01*
X160551876Y-115803002D01*
X160551877Y-115803001D01*
X160567177Y-115784357D01*
X160584357Y-115767177D01*
X160603003Y-115751874D01*
X160623208Y-115738374D01*
X160649891Y-115724112D01*
X160660869Y-115718920D01*
X160673055Y-115713873D01*
X160683039Y-115710232D01*
X160691034Y-115707699D01*
X160711794Y-115703041D01*
X160719351Y-115702017D01*
X160731447Y-115700978D01*
X160748548Y-115700353D01*
X160751454Y-115700282D01*
X160772309Y-115700028D01*
X160773919Y-115700009D01*
X160775424Y-115700000D01*
X161375001Y-115700000D01*
X161428920Y-115692901D01*
X161536762Y-115678704D01*
X161687500Y-115616266D01*
X161816942Y-115516942D01*
X161916266Y-115387500D01*
X161978704Y-115236762D01*
X162000000Y-115075000D01*
X162000000Y-110325000D01*
X161978704Y-110163238D01*
X161916266Y-110012500D01*
X161816942Y-109883058D01*
X161687500Y-109783734D01*
X161687499Y-109783733D01*
X161687497Y-109783732D01*
X161536762Y-109721296D01*
X161536760Y-109721295D01*
X161375001Y-109700000D01*
X161375000Y-109700000D01*
X160775424Y-109700000D01*
X160773916Y-109699991D01*
X160772197Y-109699970D01*
X160751505Y-109699718D01*
X160748481Y-109699644D01*
X160731458Y-109699021D01*
X160719334Y-109697980D01*
X160711803Y-109696959D01*
X160691026Y-109692297D01*
X160683059Y-109689774D01*
X160673043Y-109686121D01*
X160660880Y-109681083D01*
X160649880Y-109675881D01*
X160623212Y-109661627D01*
X160603002Y-109648123D01*
X160584364Y-109632828D01*
X160567177Y-109615642D01*
X160551874Y-109596996D01*
X160538374Y-109576789D01*
X160524118Y-109550118D01*
X160518913Y-109539112D01*
X160513876Y-109526950D01*
X160510230Y-109516955D01*
X160507701Y-109508968D01*
X160503041Y-109488202D01*
X160502017Y-109480649D01*
X160500978Y-109468541D01*
X160500353Y-109451453D01*
X160500282Y-109448543D01*
X160500009Y-109426081D01*
X160500000Y-109424576D01*
X160500000Y-107100000D01*
X162002566Y-107100000D01*
X162007682Y-107200901D01*
X162007683Y-107200909D01*
X162022983Y-107300783D01*
X162048308Y-107398595D01*
X162049464Y-107403057D01*
X162051863Y-107408193D01*
X162083395Y-107493334D01*
X162127896Y-107584056D01*
X162127901Y-107584065D01*
X162171723Y-107654370D01*
X162181342Y-107669802D01*
X162243188Y-107749701D01*
X162243189Y-107749702D01*
X162243448Y-107749996D01*
X162244266Y-107750835D01*
X162312802Y-107822935D01*
X162312809Y-107822941D01*
X162389464Y-107888747D01*
X162389466Y-107888748D01*
X162472388Y-107946464D01*
X162472391Y-107946465D01*
X162472393Y-107946467D01*
X162560735Y-107995501D01*
X162560736Y-107995501D01*
X162564285Y-107997471D01*
X162569406Y-107999221D01*
X162653586Y-108035346D01*
X162738718Y-108062056D01*
X162744368Y-108064438D01*
X162749990Y-108065593D01*
X162749991Y-108065594D01*
X162848961Y-108085932D01*
X162905560Y-108091687D01*
X162916524Y-108096155D01*
X162949481Y-108096155D01*
X163050519Y-108096155D01*
X163151039Y-108085933D01*
X163151039Y-108085932D01*
X163159183Y-108085104D01*
X163165723Y-108082914D01*
X163250010Y-108065593D01*
X163346415Y-108035347D01*
X163346415Y-108035346D01*
X163370010Y-108027944D01*
X163377464Y-108022021D01*
X163439265Y-107995502D01*
X163527607Y-107946468D01*
X163610535Y-107888747D01*
X163687199Y-107822934D01*
X163687200Y-107822933D01*
X163756812Y-107749701D01*
X163818658Y-107669803D01*
X163872104Y-107584057D01*
X163902462Y-107522166D01*
X163908554Y-107515070D01*
X163916600Y-107493344D01*
X163916601Y-107493344D01*
X163951692Y-107398595D01*
X163977017Y-107300782D01*
X163987223Y-107251121D01*
X163987227Y-107251093D01*
X163987359Y-107250453D01*
X163997703Y-107230978D01*
X163998673Y-107154244D01*
X163998964Y-107147180D01*
X164004547Y-107067149D01*
X163998039Y-107039552D01*
X163995199Y-106998838D01*
X163995197Y-106998820D01*
X163993606Y-106988855D01*
X163987223Y-106948879D01*
X163977017Y-106899218D01*
X163951692Y-106801405D01*
X163928526Y-106738857D01*
X163916602Y-106706661D01*
X163916600Y-106706656D01*
X163872104Y-106615943D01*
X163818658Y-106530197D01*
X163818658Y-106530198D01*
X163786411Y-106478463D01*
X163771024Y-106468422D01*
X163767245Y-106463776D01*
X163756822Y-106450311D01*
X163756818Y-106450306D01*
X163756812Y-106450299D01*
X163687200Y-106377067D01*
X163687199Y-106377066D01*
X163650587Y-106345636D01*
X163610537Y-106311254D01*
X163527608Y-106253534D01*
X163527607Y-106253533D01*
X163512931Y-106245387D01*
X163439276Y-106204503D01*
X163439258Y-106204495D01*
X163346411Y-106164652D01*
X163346404Y-106164649D01*
X163250026Y-106134411D01*
X163249999Y-106134404D01*
X163165727Y-106117085D01*
X163159187Y-106114896D01*
X163151039Y-106114067D01*
X163050519Y-106103845D01*
X162949480Y-106103845D01*
X162848970Y-106114067D01*
X162848966Y-106114067D01*
X162848961Y-106114068D01*
X162848959Y-106114068D01*
X162848954Y-106114069D01*
X162744363Y-106135562D01*
X162738711Y-106137945D01*
X162653591Y-106164651D01*
X162653590Y-106164652D01*
X162560739Y-106204496D01*
X162472391Y-106253534D01*
X162340064Y-106345636D01*
X162329597Y-106362602D01*
X162327460Y-106364480D01*
X162312811Y-106377056D01*
X162312803Y-106377063D01*
X162312801Y-106377066D01*
X162244266Y-106449165D01*
X162243446Y-106450005D01*
X162243185Y-106450302D01*
X162181342Y-106530197D01*
X162127901Y-106615934D01*
X162127896Y-106615943D01*
X162083398Y-106706659D01*
X162047859Y-106802618D01*
X162047126Y-106805972D01*
X162022985Y-106899207D01*
X162022983Y-106899216D01*
X162007684Y-106999082D01*
X162007682Y-106999098D01*
X162002566Y-107100000D01*
X160500000Y-107100000D01*
X160500000Y-94975423D01*
X160500009Y-94973918D01*
X160500024Y-94972652D01*
X160500282Y-94951454D01*
X160500353Y-94948548D01*
X160500978Y-94931447D01*
X160502017Y-94919351D01*
X160503041Y-94911794D01*
X160507699Y-94891034D01*
X160510232Y-94883039D01*
X160513876Y-94873049D01*
X160518920Y-94860869D01*
X160524118Y-94849881D01*
X160538374Y-94823208D01*
X160551876Y-94803002D01*
X160551877Y-94803001D01*
X160567177Y-94784357D01*
X160584357Y-94767177D01*
X160603003Y-94751874D01*
X160623208Y-94738374D01*
X160649891Y-94724112D01*
X160660869Y-94718920D01*
X160673055Y-94713873D01*
X160683039Y-94710232D01*
X160691034Y-94707699D01*
X160711794Y-94703041D01*
X160719351Y-94702017D01*
X160731447Y-94700978D01*
X160748548Y-94700353D01*
X160751454Y-94700282D01*
X160772309Y-94700028D01*
X160773919Y-94700009D01*
X160775424Y-94700000D01*
X161375001Y-94700000D01*
X161428920Y-94692901D01*
X161536762Y-94678704D01*
X161687500Y-94616266D01*
X161816942Y-94516942D01*
X161916266Y-94387500D01*
X161978704Y-94236762D01*
X162000000Y-94075000D01*
X162000000Y-89325000D01*
X161978704Y-89163238D01*
X161916266Y-89012500D01*
X161816942Y-88883058D01*
X161687500Y-88783734D01*
X161687499Y-88783733D01*
X161687497Y-88783732D01*
X161536762Y-88721296D01*
X161536760Y-88721295D01*
X161375001Y-88700000D01*
X161375000Y-88700000D01*
X160775424Y-88700000D01*
X160773916Y-88699991D01*
X160772197Y-88699970D01*
X160751505Y-88699718D01*
X160748481Y-88699644D01*
X160731458Y-88699021D01*
X160719334Y-88697980D01*
X160711803Y-88696959D01*
X160691026Y-88692297D01*
X160683059Y-88689774D01*
X160673043Y-88686121D01*
X160660880Y-88681083D01*
X160649880Y-88675881D01*
X160623212Y-88661627D01*
X160603002Y-88648123D01*
X160584364Y-88632828D01*
X160567177Y-88615642D01*
X160551874Y-88596996D01*
X160538374Y-88576789D01*
X160524118Y-88550118D01*
X160518913Y-88539112D01*
X160513876Y-88526950D01*
X160510230Y-88516955D01*
X160507701Y-88508968D01*
X160503041Y-88488202D01*
X160502017Y-88480649D01*
X160500978Y-88468541D01*
X160500353Y-88451453D01*
X160500282Y-88448543D01*
X160500009Y-88426081D01*
X160500000Y-88424576D01*
X160500000Y-83200002D01*
X161902562Y-83200002D01*
X161905971Y-83282438D01*
X161907676Y-83323657D01*
X161911078Y-83350946D01*
X161918894Y-83413655D01*
X161922985Y-83446470D01*
X161948383Y-83567599D01*
X161960250Y-83607460D01*
X161981866Y-83680068D01*
X161982798Y-83683914D01*
X161983697Y-83686217D01*
X161983697Y-83686218D01*
X162028686Y-83801514D01*
X162048540Y-83842126D01*
X162083035Y-83912689D01*
X162083044Y-83912706D01*
X162146389Y-84019014D01*
X162146396Y-84019025D01*
X162218312Y-84119749D01*
X162221619Y-84123653D01*
X162221631Y-84123666D01*
X162298297Y-84214186D01*
X162385813Y-84301702D01*
X162480250Y-84381686D01*
X162480258Y-84381692D01*
X162587675Y-84458387D01*
X162593142Y-84460852D01*
X162643139Y-84490645D01*
X162687294Y-84516956D01*
X162687297Y-84516957D01*
X162687298Y-84516958D01*
X162798485Y-84571314D01*
X162798486Y-84571314D01*
X162802264Y-84573161D01*
X162806852Y-84574578D01*
X162913782Y-84616303D01*
X163032401Y-84651617D01*
X163153530Y-84677015D01*
X163276342Y-84692324D01*
X163276343Y-84692324D01*
X163276372Y-84692325D01*
X163277618Y-84692403D01*
X163278906Y-84692430D01*
X163399998Y-84697439D01*
X163400000Y-84697439D01*
X163400001Y-84697439D01*
X163404912Y-84697235D01*
X163523658Y-84692324D01*
X163646470Y-84677015D01*
X163767600Y-84651617D01*
X163886218Y-84616303D01*
X163993150Y-84574577D01*
X163997738Y-84573159D01*
X164001504Y-84571317D01*
X164001514Y-84571314D01*
X164001515Y-84571314D01*
X164112702Y-84516958D01*
X164219022Y-84453605D01*
X164219026Y-84453602D01*
X164219027Y-84453602D01*
X164319739Y-84381694D01*
X164319739Y-84381693D01*
X164319746Y-84381689D01*
X164399403Y-84314221D01*
X164405207Y-84310681D01*
X164414187Y-84301701D01*
X164414188Y-84301701D01*
X164501701Y-84214187D01*
X164580134Y-84121581D01*
X164581687Y-84119749D01*
X164615635Y-84072203D01*
X164653606Y-84019021D01*
X164716958Y-83912702D01*
X164771314Y-83801514D01*
X164816303Y-83686218D01*
X164816303Y-83686217D01*
X164816303Y-83686215D01*
X164817200Y-83683918D01*
X164818128Y-83680083D01*
X164851617Y-83567599D01*
X164877015Y-83446470D01*
X164887224Y-83385288D01*
X164889124Y-83370656D01*
X164897802Y-83350946D01*
X164898690Y-83264912D01*
X164898883Y-83259148D01*
X164899322Y-83251431D01*
X164904367Y-83237275D01*
X164902648Y-83207043D01*
X164902648Y-83192957D01*
X164904022Y-83168791D01*
X164899322Y-83148568D01*
X164898883Y-83140851D01*
X164898690Y-83135087D01*
X164897912Y-83059752D01*
X164889125Y-83029347D01*
X164887224Y-83014712D01*
X164877015Y-82953530D01*
X164851617Y-82832401D01*
X164818130Y-82719920D01*
X164817200Y-82716082D01*
X164816303Y-82713782D01*
X164771314Y-82598486D01*
X164722693Y-82499030D01*
X164716964Y-82487310D01*
X164716955Y-82487293D01*
X164653610Y-82380985D01*
X164653603Y-82380974D01*
X164581687Y-82280250D01*
X164578392Y-82276361D01*
X164578387Y-82276356D01*
X164501701Y-82185813D01*
X164501698Y-82185810D01*
X164501693Y-82185804D01*
X164414186Y-82098297D01*
X164319749Y-82018313D01*
X164319741Y-82018307D01*
X164219026Y-81946397D01*
X164112702Y-81883042D01*
X164001515Y-81828686D01*
X164001514Y-81828686D01*
X163997732Y-81826837D01*
X163993140Y-81825418D01*
X163886223Y-81783699D01*
X163886224Y-81783699D01*
X163886218Y-81783697D01*
X163886213Y-81783695D01*
X163886206Y-81783693D01*
X163798797Y-81757671D01*
X163767599Y-81748383D01*
X163723856Y-81739211D01*
X163646467Y-81722984D01*
X163523658Y-81707677D01*
X163523659Y-81707677D01*
X163400001Y-81702562D01*
X163399998Y-81702562D01*
X163276341Y-81707677D01*
X163153532Y-81722984D01*
X163032401Y-81748383D01*
X162913793Y-81783693D01*
X162913775Y-81783699D01*
X162806859Y-81825418D01*
X162802267Y-81826837D01*
X162687297Y-81883042D01*
X162525764Y-81979295D01*
X162518040Y-81990880D01*
X162510487Y-81996724D01*
X162480269Y-82018299D01*
X162480250Y-82018313D01*
X162385813Y-82098297D01*
X162385808Y-82098303D01*
X162298305Y-82185805D01*
X162221631Y-82276334D01*
X162221572Y-82276401D01*
X162218312Y-82280250D01*
X162146396Y-82380974D01*
X162146389Y-82380985D01*
X162083044Y-82487293D01*
X162083035Y-82487310D01*
X162028692Y-82598474D01*
X162028683Y-82598493D01*
X161982797Y-82716086D01*
X161981866Y-82719931D01*
X161948383Y-82832401D01*
X161922985Y-82953527D01*
X161922984Y-82953536D01*
X161907676Y-83076343D01*
X161902562Y-83199997D01*
X161902562Y-83200002D01*
X160500000Y-83200002D01*
X160500000Y-57475001D01*
X162024500Y-57475001D01*
X162024501Y-57475019D01*
X162035000Y-57577796D01*
X162035001Y-57577799D01*
X162090185Y-57744331D01*
X162090186Y-57744334D01*
X162182288Y-57893656D01*
X162306344Y-58017712D01*
X162455666Y-58109814D01*
X162622203Y-58164999D01*
X162724991Y-58175500D01*
X163775008Y-58175499D01*
X163775016Y-58175498D01*
X163775019Y-58175498D01*
X163831302Y-58169748D01*
X163877797Y-58164999D01*
X164044334Y-58109814D01*
X164193656Y-58017712D01*
X164287319Y-57924049D01*
X164348642Y-57890564D01*
X164418334Y-57895548D01*
X164462681Y-57924049D01*
X164556344Y-58017712D01*
X164690597Y-58100519D01*
X164737321Y-58152465D01*
X164749500Y-58206057D01*
X164749500Y-73711418D01*
X164749500Y-73711420D01*
X164749499Y-73711420D01*
X164778340Y-73856407D01*
X164778342Y-73856413D01*
X164834915Y-73992994D01*
X164836201Y-73994917D01*
X164836208Y-73994940D01*
X164836214Y-73994937D01*
X164902912Y-74094760D01*
X164917051Y-74115920D01*
X164917052Y-74115921D01*
X165659015Y-74857883D01*
X165692500Y-74919206D01*
X165689040Y-74984568D01*
X165660001Y-75072201D01*
X165649500Y-75174983D01*
X165649500Y-76100001D01*
X165649501Y-76100019D01*
X165660000Y-76202796D01*
X165660001Y-76202799D01*
X165714907Y-76368493D01*
X165715186Y-76369334D01*
X165807288Y-76518656D01*
X165931344Y-76642712D01*
X166080666Y-76734814D01*
X166247203Y-76789999D01*
X166349991Y-76800500D01*
X168650008Y-76800499D01*
X168752797Y-76789999D01*
X168919334Y-76734814D01*
X169068656Y-76642712D01*
X169192712Y-76518656D01*
X169236970Y-76446902D01*
X169288917Y-76400179D01*
X169342508Y-76388000D01*
X170485394Y-76388000D01*
X170552433Y-76407685D01*
X170598188Y-76460489D01*
X170608132Y-76529647D01*
X170603325Y-76550318D01*
X170579872Y-76622500D01*
X170564326Y-76670344D01*
X170544540Y-76858600D01*
X170564326Y-77046856D01*
X170564327Y-77046858D01*
X170564327Y-77046859D01*
X170622818Y-77226877D01*
X170622821Y-77226884D01*
X170717467Y-77390816D01*
X170731449Y-77406344D01*
X170792650Y-77474315D01*
X170822880Y-77537306D01*
X170824500Y-77557287D01*
X170824500Y-79177983D01*
X170804815Y-79245022D01*
X170752011Y-79290777D01*
X170739510Y-79295686D01*
X170680666Y-79315186D01*
X170680663Y-79315187D01*
X170531342Y-79407289D01*
X170407289Y-79531342D01*
X170315187Y-79680663D01*
X170315185Y-79680668D01*
X170290615Y-79754815D01*
X170260001Y-79847203D01*
X170260001Y-79847204D01*
X170260000Y-79847204D01*
X170249500Y-79949983D01*
X170249500Y-80750001D01*
X170249501Y-80750019D01*
X170260000Y-80852796D01*
X170260001Y-80852799D01*
X170315185Y-81019331D01*
X170315187Y-81019336D01*
X170335640Y-81052495D01*
X170407288Y-81168656D01*
X170531344Y-81292712D01*
X170680666Y-81384814D01*
X170847203Y-81439999D01*
X170949991Y-81450500D01*
X171950008Y-81450499D01*
X171950016Y-81450498D01*
X171950019Y-81450498D01*
X172006302Y-81444748D01*
X172052797Y-81439999D01*
X172219334Y-81384814D01*
X172368656Y-81292712D01*
X172492712Y-81168656D01*
X172544680Y-81084402D01*
X172596627Y-81037679D01*
X172650218Y-81025500D01*
X173534046Y-81025500D01*
X173601085Y-81045185D01*
X173610157Y-81052495D01*
X173610355Y-81052232D01*
X173732664Y-81143793D01*
X173732671Y-81143797D01*
X173867517Y-81194091D01*
X173867516Y-81194091D01*
X173874444Y-81194835D01*
X173927127Y-81200500D01*
X175272872Y-81200499D01*
X175332483Y-81194091D01*
X175467331Y-81143796D01*
X175582546Y-81057546D01*
X175668796Y-80942331D01*
X175719091Y-80807483D01*
X175725500Y-80747873D01*
X175725499Y-80386226D01*
X175745183Y-80319189D01*
X175797987Y-80273434D01*
X175867146Y-80263490D01*
X175930701Y-80292515D01*
X175937180Y-80298547D01*
X175938181Y-80299548D01*
X175971666Y-80360871D01*
X175974500Y-80387229D01*
X175974500Y-80747869D01*
X175974501Y-80747876D01*
X175980909Y-80807484D01*
X175989929Y-80831670D01*
X175994911Y-80901361D01*
X175989929Y-80918330D01*
X175980909Y-80942515D01*
X175980908Y-80942516D01*
X175974501Y-81002116D01*
X175974500Y-81002135D01*
X175974500Y-81611974D01*
X175954815Y-81679013D01*
X175902011Y-81724768D01*
X175898046Y-81726496D01*
X175897545Y-81726704D01*
X175828082Y-81734230D01*
X175802548Y-81726743D01*
X175734452Y-81698537D01*
X175734448Y-81698536D01*
X175734444Y-81698535D01*
X175651729Y-81682082D01*
X175589818Y-81649697D01*
X175588242Y-81648150D01*
X175582548Y-81642457D01*
X175582546Y-81642454D01*
X175525831Y-81599997D01*
X175467335Y-81556206D01*
X175467328Y-81556202D01*
X175332482Y-81505908D01*
X175332483Y-81505908D01*
X175272883Y-81499501D01*
X175272881Y-81499500D01*
X175272873Y-81499500D01*
X175272864Y-81499500D01*
X173927129Y-81499500D01*
X173927123Y-81499501D01*
X173867516Y-81505908D01*
X173732671Y-81556202D01*
X173732664Y-81556206D01*
X173617455Y-81642452D01*
X173617452Y-81642455D01*
X173531206Y-81757664D01*
X173531202Y-81757671D01*
X173480910Y-81892513D01*
X173480909Y-81892517D01*
X173474500Y-81952127D01*
X173474500Y-81952134D01*
X173474500Y-81952135D01*
X173474500Y-82489097D01*
X173454815Y-82556136D01*
X173402011Y-82601891D01*
X173332853Y-82611835D01*
X173269297Y-82582810D01*
X173258354Y-82572073D01*
X173217871Y-82527112D01*
X173217870Y-82527111D01*
X173064734Y-82415851D01*
X173064729Y-82415848D01*
X172891807Y-82338857D01*
X172891802Y-82338855D01*
X172746001Y-82307865D01*
X172706646Y-82299500D01*
X172517354Y-82299500D01*
X172484897Y-82306398D01*
X172332197Y-82338855D01*
X172332192Y-82338857D01*
X172159270Y-82415848D01*
X172159265Y-82415851D01*
X172006129Y-82527111D01*
X171879466Y-82667785D01*
X171784821Y-82831715D01*
X171784818Y-82831722D01*
X171726327Y-83011740D01*
X171726326Y-83011744D01*
X171706540Y-83200000D01*
X171713362Y-83264912D01*
X171713623Y-83267389D01*
X171701053Y-83336119D01*
X171653321Y-83387142D01*
X171585581Y-83404260D01*
X171519340Y-83382037D01*
X171502621Y-83368031D01*
X170108588Y-81973998D01*
X170075103Y-81912675D01*
X170076495Y-81854221D01*
X170086206Y-81817981D01*
X170086206Y-81817980D01*
X170086207Y-81817977D01*
X170102633Y-81630212D01*
X170105277Y-81600002D01*
X170105277Y-81599997D01*
X170097045Y-81505908D01*
X170086207Y-81382023D01*
X170029575Y-81170670D01*
X169937102Y-80972362D01*
X169937100Y-80972359D01*
X169937099Y-80972357D01*
X169811599Y-80793124D01*
X169766339Y-80747864D01*
X169656877Y-80638402D01*
X169477639Y-80512898D01*
X169477640Y-80512898D01*
X169477638Y-80512897D01*
X169378484Y-80466661D01*
X169279330Y-80420425D01*
X169279326Y-80420424D01*
X169279322Y-80420422D01*
X169067977Y-80363793D01*
X168850002Y-80344723D01*
X168849998Y-80344723D01*
X168749590Y-80353507D01*
X168681090Y-80339740D01*
X168630907Y-80291125D01*
X168615463Y-80242944D01*
X168601674Y-80111744D01*
X168543179Y-79931716D01*
X168448533Y-79767784D01*
X168321871Y-79627112D01*
X168316224Y-79623009D01*
X168168734Y-79515851D01*
X168168729Y-79515848D01*
X167995807Y-79438857D01*
X167995802Y-79438855D01*
X167847286Y-79407288D01*
X167810646Y-79399500D01*
X167621354Y-79399500D01*
X167588897Y-79406398D01*
X167436197Y-79438855D01*
X167436192Y-79438857D01*
X167266434Y-79514440D01*
X167197184Y-79523725D01*
X167165562Y-79514440D01*
X166995803Y-79438857D01*
X166995799Y-79438855D01*
X166847283Y-79407288D01*
X166810643Y-79399500D01*
X166621351Y-79399500D01*
X166588894Y-79406398D01*
X166436194Y-79438855D01*
X166436189Y-79438857D01*
X166263267Y-79515848D01*
X166263262Y-79515851D01*
X166110126Y-79627111D01*
X165983463Y-79767785D01*
X165888818Y-79931715D01*
X165888815Y-79931722D01*
X165838406Y-80086866D01*
X165830323Y-80111744D01*
X165810537Y-80300000D01*
X165830323Y-80488256D01*
X165830324Y-80488259D01*
X165888815Y-80668277D01*
X165888818Y-80668284D01*
X165983464Y-80832216D01*
X166045723Y-80901361D01*
X166110126Y-80972888D01*
X166263262Y-81084148D01*
X166263267Y-81084151D01*
X166436189Y-81161142D01*
X166436190Y-81161142D01*
X166436194Y-81161144D01*
X166542280Y-81183693D01*
X166603762Y-81216885D01*
X166637539Y-81278048D01*
X166640500Y-81304983D01*
X166640500Y-120482611D01*
X166664535Y-120603444D01*
X166664540Y-120603461D01*
X166711685Y-120717281D01*
X166711688Y-120717286D01*
X166736265Y-120754067D01*
X166736266Y-120754070D01*
X166736267Y-120754070D01*
X166780141Y-120819732D01*
X166780144Y-120819736D01*
X166871586Y-120911178D01*
X166871608Y-120911198D01*
X168621016Y-122660606D01*
X168621045Y-122660637D01*
X168711264Y-122750856D01*
X168711267Y-122750858D01*
X168788190Y-122802256D01*
X168813710Y-122819309D01*
X168813712Y-122819310D01*
X168813715Y-122819312D01*
X168880396Y-122846931D01*
X168880398Y-122846933D01*
X168920640Y-122863601D01*
X168927548Y-122866463D01*
X168987971Y-122878481D01*
X169048393Y-122890500D01*
X170285607Y-122890500D01*
X170346029Y-122878481D01*
X170406452Y-122866463D01*
X170406455Y-122866461D01*
X170406458Y-122866461D01*
X170439787Y-122852654D01*
X170439786Y-122852654D01*
X170439792Y-122852652D01*
X170520286Y-122819312D01*
X170571509Y-122785084D01*
X170622733Y-122750858D01*
X170709858Y-122663733D01*
X170709858Y-122663731D01*
X170720066Y-122653524D01*
X170720067Y-122653521D01*
X171489680Y-121883909D01*
X171551002Y-121850425D01*
X171620694Y-121855409D01*
X171676627Y-121897281D01*
X171698977Y-121947400D01*
X171708434Y-121994943D01*
X171708436Y-121994951D01*
X171766571Y-122135301D01*
X171766571Y-122135302D01*
X171850967Y-122261610D01*
X171850973Y-122261617D01*
X171958382Y-122369026D01*
X171958389Y-122369032D01*
X172084698Y-122453428D01*
X172084699Y-122453428D01*
X172084700Y-122453429D01*
X172225049Y-122511564D01*
X172374038Y-122541199D01*
X172374042Y-122541200D01*
X172374043Y-122541200D01*
X172525958Y-122541200D01*
X172525959Y-122541199D01*
X172674951Y-122511564D01*
X172815300Y-122453429D01*
X172815301Y-122453428D01*
X172815302Y-122453428D01*
X172878456Y-122411230D01*
X172941612Y-122369031D01*
X173049031Y-122261612D01*
X173133429Y-122135300D01*
X173191564Y-121994951D01*
X173221200Y-121845957D01*
X173221200Y-121694043D01*
X173191564Y-121545049D01*
X173133429Y-121404700D01*
X173133428Y-121404698D01*
X173133428Y-121404697D01*
X173049032Y-121278389D01*
X173049026Y-121278382D01*
X172941617Y-121170973D01*
X172941610Y-121170967D01*
X172815301Y-121086571D01*
X172674951Y-121028436D01*
X172674943Y-121028434D01*
X172627400Y-121018977D01*
X172565489Y-120986592D01*
X172530915Y-120925877D01*
X172534654Y-120856107D01*
X172563908Y-120809681D01*
X175919858Y-117453733D01*
X175988312Y-117351285D01*
X176035463Y-117237451D01*
X176055194Y-117138259D01*
X176059501Y-117116608D01*
X176059501Y-116988283D01*
X176059500Y-116988257D01*
X176059500Y-115132375D01*
X176079185Y-115065336D01*
X176095804Y-115044709D01*
X176123957Y-115016547D01*
X178252934Y-112886834D01*
X178314251Y-112853338D01*
X178340630Y-112850500D01*
X178415644Y-112850500D01*
X178415646Y-112850500D01*
X178600803Y-112811144D01*
X178773730Y-112734151D01*
X178926871Y-112622888D01*
X179018351Y-112521289D01*
X179077837Y-112484641D01*
X179147694Y-112485972D01*
X179202648Y-112521289D01*
X179230634Y-112552370D01*
X179294129Y-112622888D01*
X179447265Y-112734148D01*
X179447270Y-112734151D01*
X179620192Y-112811142D01*
X179620197Y-112811144D01*
X179805354Y-112850500D01*
X179805355Y-112850500D01*
X179994644Y-112850500D01*
X179994646Y-112850500D01*
X180179803Y-112811144D01*
X180352730Y-112734151D01*
X180505871Y-112622888D01*
X180632533Y-112482216D01*
X180727179Y-112318284D01*
X180785674Y-112138256D01*
X180805460Y-111950000D01*
X180785674Y-111761744D01*
X180785671Y-111761737D01*
X180784322Y-111755383D01*
X180787345Y-111754740D01*
X180785583Y-111698342D01*
X180821504Y-111638413D01*
X180884123Y-111607418D01*
X180953558Y-111615197D01*
X180993274Y-111641864D01*
X185673181Y-116321771D01*
X185706666Y-116383094D01*
X185709500Y-116409452D01*
X185709500Y-130184731D01*
X185689815Y-130251770D01*
X185637011Y-130297525D01*
X185567853Y-130307469D01*
X185504297Y-130278444D01*
X185478113Y-130246731D01*
X185442317Y-130184731D01*
X185432533Y-130167784D01*
X185305871Y-130027112D01*
X185284357Y-130011481D01*
X185152734Y-129915851D01*
X185152729Y-129915848D01*
X184979807Y-129838857D01*
X184979802Y-129838855D01*
X184834001Y-129807865D01*
X184794646Y-129799500D01*
X184605354Y-129799500D01*
X184572897Y-129806398D01*
X184420197Y-129838855D01*
X184420192Y-129838857D01*
X184247270Y-129915848D01*
X184247265Y-129915851D01*
X184233548Y-129925818D01*
X184167742Y-129949298D01*
X184160663Y-129949500D01*
X178713076Y-129949500D01*
X178684242Y-129955234D01*
X178684243Y-129955235D01*
X178568093Y-129978339D01*
X178568083Y-129978342D01*
X178488081Y-130011479D01*
X178488082Y-130011480D01*
X178431505Y-130034915D01*
X178349372Y-130089795D01*
X178308585Y-130117047D01*
X178308581Y-130117050D01*
X175017050Y-133408580D01*
X175017044Y-133408588D01*
X174967812Y-133482268D01*
X174967813Y-133482269D01*
X174934921Y-133531496D01*
X174934914Y-133531508D01*
X174878342Y-133668086D01*
X174878340Y-133668092D01*
X174849500Y-133813079D01*
X174849500Y-141165677D01*
X174832887Y-141227677D01*
X174772821Y-141331714D01*
X174714327Y-141511740D01*
X174714326Y-141511744D01*
X174694540Y-141700000D01*
X174714326Y-141888256D01*
X174714327Y-141888259D01*
X174772818Y-142068277D01*
X174772821Y-142068284D01*
X174867467Y-142232216D01*
X174994129Y-142372888D01*
X175147265Y-142484148D01*
X175147270Y-142484151D01*
X175320192Y-142561142D01*
X175320197Y-142561144D01*
X175505354Y-142600500D01*
X175505355Y-142600500D01*
X175694644Y-142600500D01*
X175694646Y-142600500D01*
X175879803Y-142561144D01*
X176052730Y-142484151D01*
X176205871Y-142372888D01*
X176332533Y-142232216D01*
X176427179Y-142068284D01*
X176485674Y-141888256D01*
X176505460Y-141700000D01*
X176485674Y-141511744D01*
X176427179Y-141331716D01*
X176427178Y-141331714D01*
X176367113Y-141227677D01*
X176350500Y-141165677D01*
X176350500Y-134249229D01*
X176370185Y-134182190D01*
X176386819Y-134161548D01*
X179061548Y-131486819D01*
X179122871Y-131453334D01*
X179149229Y-131450500D01*
X184160663Y-131450500D01*
X184227702Y-131470185D01*
X184233548Y-131474182D01*
X184247265Y-131484148D01*
X184247270Y-131484151D01*
X184420192Y-131561142D01*
X184420197Y-131561144D01*
X184605354Y-131600500D01*
X184605355Y-131600500D01*
X184794644Y-131600500D01*
X184794646Y-131600500D01*
X184979803Y-131561144D01*
X185152730Y-131484151D01*
X185305871Y-131372888D01*
X185432533Y-131232216D01*
X185478114Y-131153266D01*
X185528679Y-131105053D01*
X185597286Y-131091829D01*
X185662151Y-131117797D01*
X185702680Y-131174711D01*
X185709500Y-131215268D01*
X185709500Y-138625500D01*
X185689815Y-138692539D01*
X185637011Y-138738294D01*
X185585503Y-138749500D01*
X185552131Y-138749500D01*
X185552123Y-138749501D01*
X185492516Y-138755908D01*
X185357671Y-138806202D01*
X185357664Y-138806206D01*
X185242455Y-138892452D01*
X185242452Y-138892455D01*
X185156206Y-139007664D01*
X185156202Y-139007671D01*
X185105908Y-139142517D01*
X185099501Y-139202116D01*
X185099501Y-139202123D01*
X185099500Y-139202135D01*
X185099500Y-140797870D01*
X185099501Y-140797876D01*
X185105908Y-140857483D01*
X185156202Y-140992328D01*
X185156206Y-140992335D01*
X185242452Y-141107544D01*
X185242455Y-141107547D01*
X185357664Y-141193793D01*
X185357671Y-141193797D01*
X185492517Y-141244091D01*
X185492516Y-141244091D01*
X185499444Y-141244835D01*
X185552127Y-141250500D01*
X187647872Y-141250499D01*
X187707483Y-141244091D01*
X187842331Y-141193796D01*
X187957546Y-141107546D01*
X188043796Y-140992331D01*
X188094091Y-140857483D01*
X188100500Y-140797873D01*
X188100499Y-139202128D01*
X188094091Y-139142517D01*
X188088511Y-139127557D01*
X188043797Y-139007671D01*
X188043793Y-139007664D01*
X187957547Y-138892455D01*
X187957544Y-138892452D01*
X187842335Y-138806206D01*
X187842328Y-138806202D01*
X187707482Y-138755908D01*
X187707483Y-138755908D01*
X187647883Y-138749501D01*
X187647881Y-138749500D01*
X187647873Y-138749500D01*
X187647865Y-138749500D01*
X187084500Y-138749500D01*
X187017461Y-138729815D01*
X186971706Y-138677011D01*
X186960500Y-138625500D01*
X186960500Y-138600000D01*
X198402465Y-138600000D01*
X198402466Y-138600021D01*
X198407381Y-138693817D01*
X198422078Y-138786604D01*
X198446397Y-138877363D01*
X198488086Y-138985967D01*
X198494359Y-138993120D01*
X198522716Y-139048775D01*
X198573871Y-139127547D01*
X198573878Y-139127556D01*
X198573879Y-139127557D01*
X198573880Y-139127558D01*
X198633002Y-139200568D01*
X198699432Y-139266998D01*
X198699438Y-139267003D01*
X198699445Y-139267009D01*
X198772435Y-139326116D01*
X198797493Y-139342388D01*
X198848531Y-139375533D01*
X198850658Y-139376994D01*
X198851228Y-139377284D01*
X198851232Y-139377287D01*
X198851233Y-139377288D01*
X198905527Y-139404952D01*
X198934935Y-139419937D01*
X198934939Y-139419938D01*
X198934940Y-139419939D01*
X199022646Y-139453606D01*
X199022647Y-139453606D01*
X199022651Y-139453607D01*
X199023891Y-139454083D01*
X199027348Y-139454866D01*
X199065710Y-139465144D01*
X199113392Y-139477921D01*
X199206182Y-139492618D01*
X199299999Y-139497535D01*
X199300000Y-139497535D01*
X199300001Y-139497535D01*
X199346909Y-139495076D01*
X199393818Y-139492618D01*
X199486608Y-139477921D01*
X199531981Y-139465763D01*
X199577348Y-139453608D01*
X199577351Y-139453606D01*
X199577354Y-139453606D01*
X199665060Y-139419939D01*
X199748767Y-139377288D01*
X199748768Y-139377287D01*
X199748768Y-139377286D01*
X199749339Y-139376996D01*
X199751450Y-139375545D01*
X199827558Y-139326120D01*
X199900568Y-139266998D01*
X199966998Y-139200568D01*
X200026120Y-139127558D01*
X200026121Y-139127557D01*
X200026125Y-139127550D01*
X200026128Y-139127547D01*
X200054622Y-139083668D01*
X200077288Y-139048767D01*
X200119939Y-138965060D01*
X200153606Y-138877353D01*
X200177921Y-138786608D01*
X200186531Y-138746099D01*
X200197747Y-138725324D01*
X200198459Y-138670841D01*
X200205602Y-138647637D01*
X200202811Y-138608917D01*
X200202811Y-138591083D01*
X200204985Y-138560914D01*
X200198459Y-138529158D01*
X200197859Y-138483203D01*
X200195366Y-138480364D01*
X200186531Y-138453897D01*
X200177922Y-138413392D01*
X200153606Y-138322647D01*
X200119939Y-138234940D01*
X200077288Y-138151233D01*
X200077285Y-138151228D01*
X200026128Y-138072452D01*
X200026120Y-138072442D01*
X199966998Y-137999432D01*
X199900568Y-137933002D01*
X199900563Y-137932998D01*
X199900554Y-137932990D01*
X199827561Y-137873882D01*
X199827558Y-137873880D01*
X199751485Y-137824477D01*
X199749344Y-137823006D01*
X199665067Y-137780064D01*
X199665062Y-137780062D01*
X199665060Y-137780061D01*
X199621537Y-137763354D01*
X199577348Y-137746391D01*
X199486611Y-137722079D01*
X199486604Y-137722078D01*
X199415030Y-137710742D01*
X199393818Y-137707383D01*
X199393816Y-137707382D01*
X199393811Y-137707382D01*
X199300001Y-137702466D01*
X199299999Y-137702466D01*
X199206188Y-137707382D01*
X199113395Y-137722078D01*
X199113394Y-137722078D01*
X198959348Y-137763354D01*
X198952739Y-137770800D01*
X198937403Y-137778963D01*
X198934948Y-137780056D01*
X198850653Y-137823007D01*
X198848503Y-137824485D01*
X198772438Y-137873882D01*
X198699445Y-137932990D01*
X198699428Y-137933005D01*
X198633005Y-137999428D01*
X198632998Y-137999436D01*
X198577971Y-138067390D01*
X198575722Y-138070166D01*
X198573871Y-138072452D01*
X198522714Y-138151228D01*
X198480057Y-138234947D01*
X198446397Y-138322636D01*
X198422078Y-138413395D01*
X198407381Y-138506182D01*
X198402466Y-138599978D01*
X198402465Y-138600000D01*
X186960500Y-138600000D01*
X186960500Y-128899910D01*
X186980185Y-128832871D01*
X187032989Y-128787116D01*
X187102147Y-128777172D01*
X187165703Y-128806197D01*
X187191888Y-128837911D01*
X187217467Y-128882216D01*
X187283156Y-128955171D01*
X187294109Y-128969253D01*
X187363038Y-129072415D01*
X187367051Y-129078420D01*
X187471578Y-129182947D01*
X187471581Y-129182949D01*
X187471584Y-129182952D01*
X187594506Y-129265084D01*
X187731088Y-129321658D01*
X187731092Y-129321658D01*
X187731093Y-129321659D01*
X187876080Y-129350500D01*
X187876083Y-129350500D01*
X188023919Y-129350500D01*
X188121461Y-129331096D01*
X188168912Y-129321658D01*
X188305494Y-129265084D01*
X188428416Y-129182952D01*
X188538951Y-129072416D01*
X188613616Y-128960669D01*
X188624553Y-128946607D01*
X188682533Y-128882216D01*
X188777179Y-128718284D01*
X188835674Y-128538256D01*
X188855460Y-128350000D01*
X188835674Y-128161744D01*
X188777179Y-127981716D01*
X188723111Y-127888068D01*
X188706500Y-127826070D01*
X188706500Y-121845961D01*
X191678800Y-121845961D01*
X191708434Y-121994943D01*
X191708436Y-121994951D01*
X191766571Y-122135301D01*
X191766571Y-122135302D01*
X191850967Y-122261610D01*
X191850973Y-122261617D01*
X191958382Y-122369026D01*
X191958389Y-122369032D01*
X192084698Y-122453428D01*
X192084699Y-122453428D01*
X192084700Y-122453429D01*
X192225049Y-122511564D01*
X192374038Y-122541199D01*
X192374042Y-122541200D01*
X192374043Y-122541200D01*
X192525958Y-122541200D01*
X192525959Y-122541199D01*
X192674951Y-122511564D01*
X192815300Y-122453429D01*
X192815301Y-122453428D01*
X192815302Y-122453428D01*
X192878456Y-122411230D01*
X192941612Y-122369031D01*
X193049031Y-122261612D01*
X193133429Y-122135300D01*
X193191564Y-121994951D01*
X193221200Y-121845957D01*
X193221200Y-121694043D01*
X193191564Y-121545049D01*
X193133429Y-121404700D01*
X193133428Y-121404698D01*
X193133428Y-121404697D01*
X193049032Y-121278389D01*
X193049026Y-121278382D01*
X192941617Y-121170973D01*
X192941610Y-121170967D01*
X192815301Y-121086571D01*
X192674951Y-121028436D01*
X192674943Y-121028434D01*
X192525961Y-120998800D01*
X192525957Y-120998800D01*
X192374043Y-120998800D01*
X192374038Y-120998800D01*
X192225056Y-121028434D01*
X192225048Y-121028436D01*
X192084698Y-121086571D01*
X192084697Y-121086571D01*
X191958389Y-121170967D01*
X191958382Y-121170973D01*
X191850973Y-121278382D01*
X191850967Y-121278389D01*
X191766571Y-121404697D01*
X191766571Y-121404698D01*
X191708436Y-121545048D01*
X191708434Y-121545056D01*
X191678800Y-121694038D01*
X191678800Y-121845961D01*
X188706500Y-121845961D01*
X188706500Y-112026384D01*
X190674500Y-112026384D01*
X190704300Y-112176197D01*
X190704302Y-112176205D01*
X190762759Y-112317334D01*
X190762764Y-112317343D01*
X190847629Y-112444351D01*
X190847632Y-112444355D01*
X190955644Y-112552367D01*
X190955648Y-112552370D01*
X191082656Y-112637235D01*
X191082662Y-112637238D01*
X191082663Y-112637239D01*
X191223795Y-112695698D01*
X191373615Y-112725499D01*
X191373619Y-112725500D01*
X191373620Y-112725500D01*
X191526381Y-112725500D01*
X191526382Y-112725499D01*
X191676205Y-112695698D01*
X191817337Y-112637239D01*
X191944352Y-112552370D01*
X192052370Y-112444352D01*
X192137239Y-112317337D01*
X192195698Y-112176205D01*
X192225500Y-112026380D01*
X192225500Y-111873620D01*
X192195698Y-111723795D01*
X192137239Y-111582663D01*
X192137238Y-111582662D01*
X192137235Y-111582656D01*
X192052370Y-111455648D01*
X192052367Y-111455644D01*
X191944355Y-111347632D01*
X191944351Y-111347629D01*
X191817343Y-111262764D01*
X191817334Y-111262759D01*
X191676205Y-111204302D01*
X191676197Y-111204300D01*
X191526384Y-111174500D01*
X191526380Y-111174500D01*
X191373620Y-111174500D01*
X191373615Y-111174500D01*
X191223802Y-111204300D01*
X191223794Y-111204302D01*
X191082665Y-111262759D01*
X191082656Y-111262764D01*
X190955648Y-111347629D01*
X190955644Y-111347632D01*
X190847632Y-111455644D01*
X190847629Y-111455648D01*
X190762764Y-111582656D01*
X190762759Y-111582665D01*
X190704302Y-111723794D01*
X190704300Y-111723802D01*
X190674500Y-111873615D01*
X190674500Y-112026384D01*
X188706500Y-112026384D01*
X188706500Y-108806228D01*
X188726185Y-108739189D01*
X188742814Y-108718552D01*
X191752770Y-105708595D01*
X191814091Y-105675112D01*
X191814427Y-105675039D01*
X191879803Y-105661144D01*
X192052730Y-105584151D01*
X192205871Y-105472888D01*
X192332533Y-105332216D01*
X192427179Y-105168284D01*
X192482522Y-104997956D01*
X192512768Y-104948598D01*
X197396952Y-100064415D01*
X197453229Y-99980190D01*
X197479084Y-99941495D01*
X197507515Y-99872856D01*
X197535659Y-99804912D01*
X197560359Y-99680734D01*
X197564500Y-99659918D01*
X197564500Y-96800000D01*
X200002566Y-96800000D01*
X200007682Y-96900901D01*
X200007684Y-96900917D01*
X200021492Y-96991054D01*
X200022983Y-97000783D01*
X200048308Y-97098595D01*
X200049464Y-97103057D01*
X200051863Y-97108193D01*
X200083395Y-97193334D01*
X200127896Y-97284056D01*
X200127901Y-97284065D01*
X200181342Y-97369802D01*
X200243188Y-97449701D01*
X200243189Y-97449702D01*
X200243448Y-97449996D01*
X200244266Y-97450835D01*
X200312802Y-97522935D01*
X200312809Y-97522941D01*
X200389464Y-97588747D01*
X200389466Y-97588748D01*
X200472388Y-97646464D01*
X200472391Y-97646465D01*
X200472393Y-97646467D01*
X200560735Y-97695501D01*
X200560736Y-97695501D01*
X200564285Y-97697471D01*
X200569406Y-97699221D01*
X200653586Y-97735346D01*
X200738718Y-97762056D01*
X200744368Y-97764438D01*
X200749990Y-97765593D01*
X200749991Y-97765594D01*
X200848961Y-97785932D01*
X200905560Y-97791687D01*
X200916524Y-97796155D01*
X200949481Y-97796155D01*
X201050519Y-97796155D01*
X201151039Y-97785933D01*
X201151039Y-97785932D01*
X201159183Y-97785104D01*
X201165723Y-97782914D01*
X201250010Y-97765593D01*
X201346415Y-97735347D01*
X201346415Y-97735346D01*
X201370010Y-97727944D01*
X201377464Y-97722021D01*
X201439265Y-97695502D01*
X201527607Y-97646468D01*
X201610535Y-97588747D01*
X201687199Y-97522934D01*
X201687200Y-97522933D01*
X201756812Y-97449701D01*
X201818658Y-97369803D01*
X201872104Y-97284057D01*
X201902462Y-97222166D01*
X201908554Y-97215070D01*
X201916600Y-97193344D01*
X201916601Y-97193344D01*
X201951692Y-97098595D01*
X201977017Y-97000782D01*
X201987223Y-96951121D01*
X201987227Y-96951093D01*
X201987359Y-96950453D01*
X201997703Y-96930978D01*
X201998673Y-96854244D01*
X201998964Y-96847180D01*
X202004547Y-96767149D01*
X201998039Y-96739552D01*
X201995199Y-96698838D01*
X201995197Y-96698820D01*
X201994528Y-96694631D01*
X201987223Y-96648879D01*
X201977017Y-96599218D01*
X201951692Y-96501405D01*
X201916600Y-96406656D01*
X201872104Y-96315943D01*
X201818658Y-96230197D01*
X201818658Y-96230198D01*
X201786411Y-96178463D01*
X201771024Y-96168422D01*
X201767245Y-96163776D01*
X201756822Y-96150311D01*
X201756818Y-96150306D01*
X201756812Y-96150299D01*
X201687200Y-96077067D01*
X201687199Y-96077066D01*
X201670350Y-96062602D01*
X201610537Y-96011254D01*
X201563825Y-95978742D01*
X201527607Y-95953533D01*
X201506202Y-95941652D01*
X201439276Y-95904503D01*
X201439258Y-95904495D01*
X201346411Y-95864652D01*
X201346404Y-95864649D01*
X201250026Y-95834411D01*
X201249999Y-95834404D01*
X201165727Y-95817085D01*
X201159187Y-95814896D01*
X201151039Y-95814067D01*
X201050519Y-95803845D01*
X200949480Y-95803845D01*
X200848970Y-95814067D01*
X200848966Y-95814067D01*
X200848961Y-95814068D01*
X200848959Y-95814068D01*
X200848954Y-95814069D01*
X200744363Y-95835562D01*
X200738711Y-95837945D01*
X200653591Y-95864651D01*
X200653590Y-95864652D01*
X200560739Y-95904496D01*
X200472391Y-95953534D01*
X200340064Y-96045636D01*
X200329597Y-96062602D01*
X200327460Y-96064480D01*
X200312811Y-96077056D01*
X200312803Y-96077063D01*
X200312801Y-96077066D01*
X200262567Y-96129912D01*
X200244266Y-96149165D01*
X200243446Y-96150005D01*
X200243185Y-96150302D01*
X200181342Y-96230197D01*
X200127901Y-96315934D01*
X200127896Y-96315943D01*
X200083398Y-96406659D01*
X200047859Y-96502618D01*
X200047126Y-96505972D01*
X200022985Y-96599207D01*
X200022983Y-96599216D01*
X200007684Y-96699082D01*
X200007682Y-96699098D01*
X200002566Y-96800000D01*
X197564500Y-96800000D01*
X197564500Y-83200002D01*
X199002562Y-83200002D01*
X199005971Y-83282438D01*
X199007676Y-83323657D01*
X199011078Y-83350946D01*
X199018894Y-83413655D01*
X199022985Y-83446470D01*
X199048383Y-83567599D01*
X199060250Y-83607460D01*
X199081866Y-83680068D01*
X199082798Y-83683914D01*
X199083697Y-83686217D01*
X199083697Y-83686218D01*
X199128686Y-83801514D01*
X199148540Y-83842126D01*
X199183035Y-83912689D01*
X199183044Y-83912706D01*
X199246389Y-84019014D01*
X199246396Y-84019025D01*
X199318312Y-84119749D01*
X199321619Y-84123653D01*
X199321631Y-84123666D01*
X199398297Y-84214186D01*
X199485813Y-84301702D01*
X199580250Y-84381686D01*
X199580258Y-84381692D01*
X199687675Y-84458387D01*
X199693142Y-84460852D01*
X199743139Y-84490645D01*
X199787294Y-84516956D01*
X199787297Y-84516957D01*
X199787298Y-84516958D01*
X199898485Y-84571314D01*
X199898486Y-84571314D01*
X199902264Y-84573161D01*
X199906852Y-84574578D01*
X200013782Y-84616303D01*
X200132401Y-84651617D01*
X200253530Y-84677015D01*
X200376342Y-84692324D01*
X200376343Y-84692324D01*
X200376372Y-84692325D01*
X200377618Y-84692403D01*
X200378906Y-84692430D01*
X200499998Y-84697439D01*
X200500000Y-84697439D01*
X200500001Y-84697439D01*
X200504912Y-84697235D01*
X200623658Y-84692324D01*
X200746470Y-84677015D01*
X200867600Y-84651617D01*
X200986218Y-84616303D01*
X201093150Y-84574577D01*
X201097738Y-84573159D01*
X201101504Y-84571317D01*
X201101514Y-84571314D01*
X201101515Y-84571314D01*
X201212702Y-84516958D01*
X201319022Y-84453605D01*
X201319026Y-84453602D01*
X201319027Y-84453602D01*
X201419739Y-84381694D01*
X201419739Y-84381693D01*
X201419746Y-84381689D01*
X201499403Y-84314221D01*
X201505207Y-84310681D01*
X201514187Y-84301701D01*
X201514188Y-84301701D01*
X201601701Y-84214187D01*
X201680134Y-84121581D01*
X201681687Y-84119749D01*
X201715635Y-84072203D01*
X201753606Y-84019021D01*
X201816958Y-83912702D01*
X201871314Y-83801514D01*
X201916303Y-83686218D01*
X201916303Y-83686217D01*
X201916303Y-83686215D01*
X201917200Y-83683918D01*
X201918128Y-83680083D01*
X201951617Y-83567599D01*
X201977015Y-83446470D01*
X201987224Y-83385288D01*
X201989124Y-83370656D01*
X201997802Y-83350946D01*
X201998690Y-83264912D01*
X201998883Y-83259148D01*
X201999322Y-83251431D01*
X202004367Y-83237275D01*
X202002648Y-83207043D01*
X202002648Y-83192957D01*
X202004022Y-83168791D01*
X201999322Y-83148568D01*
X201998883Y-83140851D01*
X201998690Y-83135087D01*
X201997912Y-83059752D01*
X201989125Y-83029347D01*
X201987224Y-83014712D01*
X201977015Y-82953530D01*
X201951617Y-82832401D01*
X201918130Y-82719920D01*
X201917200Y-82716082D01*
X201916303Y-82713782D01*
X201871314Y-82598486D01*
X201822693Y-82499030D01*
X201816964Y-82487310D01*
X201816955Y-82487293D01*
X201753610Y-82380985D01*
X201753603Y-82380974D01*
X201681687Y-82280250D01*
X201678392Y-82276361D01*
X201678387Y-82276356D01*
X201601701Y-82185813D01*
X201601698Y-82185810D01*
X201601693Y-82185804D01*
X201514186Y-82098297D01*
X201419749Y-82018313D01*
X201419741Y-82018307D01*
X201319026Y-81946397D01*
X201212702Y-81883042D01*
X201101515Y-81828686D01*
X201101514Y-81828686D01*
X201097732Y-81826837D01*
X201093140Y-81825418D01*
X200986223Y-81783699D01*
X200986224Y-81783699D01*
X200986218Y-81783697D01*
X200986213Y-81783695D01*
X200986206Y-81783693D01*
X200898797Y-81757671D01*
X200867599Y-81748383D01*
X200823856Y-81739211D01*
X200746467Y-81722984D01*
X200623658Y-81707677D01*
X200623659Y-81707677D01*
X200500001Y-81702562D01*
X200499998Y-81702562D01*
X200376341Y-81707677D01*
X200253532Y-81722984D01*
X200132401Y-81748383D01*
X200013793Y-81783693D01*
X200013775Y-81783699D01*
X199906859Y-81825418D01*
X199902267Y-81826837D01*
X199787297Y-81883042D01*
X199625764Y-81979295D01*
X199618040Y-81990880D01*
X199610487Y-81996724D01*
X199580269Y-82018299D01*
X199580250Y-82018313D01*
X199485813Y-82098297D01*
X199485808Y-82098303D01*
X199398305Y-82185805D01*
X199321631Y-82276334D01*
X199321572Y-82276401D01*
X199318312Y-82280250D01*
X199246396Y-82380974D01*
X199246389Y-82380985D01*
X199183044Y-82487293D01*
X199183035Y-82487310D01*
X199128692Y-82598474D01*
X199128683Y-82598493D01*
X199082797Y-82716086D01*
X199081866Y-82719931D01*
X199048383Y-82832401D01*
X199022985Y-82953527D01*
X199022984Y-82953536D01*
X199007676Y-83076343D01*
X199002562Y-83199997D01*
X199002562Y-83200002D01*
X197564500Y-83200002D01*
X197564500Y-69310330D01*
X197584185Y-69243291D01*
X197600819Y-69222649D01*
X201932947Y-64890521D01*
X201932952Y-64890516D01*
X201952723Y-64860926D01*
X201993057Y-64800562D01*
X201993059Y-64800557D01*
X201993065Y-64800549D01*
X202015084Y-64767595D01*
X202048586Y-64686714D01*
X202071659Y-64631012D01*
X202100500Y-64486017D01*
X202100500Y-64338182D01*
X202100500Y-53336382D01*
X202100500Y-53336379D01*
X202071659Y-53191392D01*
X202071658Y-53191391D01*
X202071658Y-53191387D01*
X202015084Y-53054805D01*
X201982186Y-53005570D01*
X201982185Y-53005568D01*
X201932956Y-52931889D01*
X201932952Y-52931884D01*
X198170770Y-49169702D01*
X198140521Y-49120341D01*
X198085179Y-48950016D01*
X197990533Y-48786084D01*
X197863871Y-48645412D01*
X197863870Y-48645411D01*
X197710734Y-48534151D01*
X197710729Y-48534148D01*
X197537807Y-48457157D01*
X197537802Y-48457155D01*
X197392001Y-48426165D01*
X197352646Y-48417800D01*
X197163354Y-48417800D01*
X197130897Y-48424698D01*
X196978197Y-48457155D01*
X196978192Y-48457157D01*
X196805270Y-48534148D01*
X196805265Y-48534151D01*
X196652129Y-48645411D01*
X196525466Y-48786085D01*
X196430821Y-48950015D01*
X196430818Y-48950022D01*
X196375479Y-49120339D01*
X196372326Y-49130044D01*
X196352540Y-49318300D01*
X196372326Y-49506556D01*
X196372327Y-49506559D01*
X196430818Y-49686577D01*
X196430821Y-49686584D01*
X196525467Y-49850516D01*
X196652129Y-49991188D01*
X196805265Y-50102448D01*
X196805270Y-50102451D01*
X196978191Y-50179442D01*
X196978193Y-50179442D01*
X196978197Y-50179444D01*
X197043329Y-50193287D01*
X197104809Y-50226478D01*
X197105228Y-50226896D01*
X198295800Y-51417468D01*
X198329285Y-51478791D01*
X198324301Y-51548483D01*
X198295800Y-51592830D01*
X197655449Y-52233181D01*
X197594126Y-52266666D01*
X197567768Y-52269500D01*
X196901629Y-52269500D01*
X196901623Y-52269501D01*
X196842016Y-52275908D01*
X196707171Y-52326202D01*
X196707164Y-52326206D01*
X196591955Y-52412452D01*
X196591952Y-52412455D01*
X196505706Y-52527664D01*
X196505702Y-52527671D01*
X196455410Y-52662513D01*
X196455409Y-52662517D01*
X196449000Y-52722127D01*
X196449000Y-52722134D01*
X196449000Y-52722135D01*
X196449000Y-53467870D01*
X196449001Y-53467876D01*
X196455408Y-53527483D01*
X196505702Y-53662328D01*
X196505706Y-53662335D01*
X196591952Y-53777544D01*
X196591955Y-53777547D01*
X196707164Y-53863793D01*
X196707171Y-53863797D01*
X196842017Y-53914091D01*
X196842016Y-53914091D01*
X196848944Y-53914835D01*
X196901627Y-53920500D01*
X198522372Y-53920499D01*
X198581983Y-53914091D01*
X198716831Y-53863796D01*
X198832046Y-53777546D01*
X198918296Y-53662331D01*
X198968591Y-53527483D01*
X198975000Y-53467873D01*
X198974999Y-53087728D01*
X198994683Y-53020690D01*
X199011314Y-53000052D01*
X199357168Y-52654197D01*
X199418491Y-52620713D01*
X199488183Y-52625697D01*
X199532530Y-52654198D01*
X200563181Y-53684849D01*
X200596666Y-53746172D01*
X200599500Y-53772530D01*
X200599500Y-64049870D01*
X200579815Y-64116909D01*
X200563181Y-64137551D01*
X196539451Y-68161281D01*
X196478128Y-68194766D01*
X196451770Y-68197600D01*
X194340080Y-68197600D01*
X194195092Y-68226440D01*
X194195082Y-68226443D01*
X194058509Y-68283013D01*
X194058500Y-68283018D01*
X194047422Y-68290421D01*
X194047420Y-68290423D01*
X193935579Y-68365151D01*
X193935578Y-68365152D01*
X193070181Y-69230550D01*
X193008858Y-69264035D01*
X192939166Y-69259051D01*
X192883233Y-69217179D01*
X192858816Y-69151715D01*
X192858500Y-69142869D01*
X192858500Y-62461393D01*
X192858499Y-62461389D01*
X192850598Y-62421666D01*
X192834463Y-62340548D01*
X192787311Y-62226714D01*
X192787310Y-62226713D01*
X192787307Y-62226707D01*
X192718859Y-62124268D01*
X192718858Y-62124267D01*
X192631733Y-62037142D01*
X192631732Y-62037141D01*
X189492927Y-58898337D01*
X189492926Y-58898335D01*
X189451772Y-58857181D01*
X189418287Y-58795858D01*
X189423271Y-58726166D01*
X189465143Y-58670233D01*
X189530607Y-58645816D01*
X189539453Y-58645500D01*
X198291607Y-58645500D01*
X198352029Y-58633481D01*
X198412452Y-58621463D01*
X198412455Y-58621461D01*
X198412458Y-58621461D01*
X198445787Y-58607654D01*
X198445786Y-58607654D01*
X198445792Y-58607652D01*
X198526286Y-58574312D01*
X198577509Y-58540084D01*
X198628733Y-58505858D01*
X198715858Y-58418733D01*
X198715859Y-58418730D01*
X199285358Y-57849233D01*
X199353812Y-57746785D01*
X199400963Y-57632951D01*
X199425001Y-57512106D01*
X199425001Y-57388893D01*
X199425001Y-57383783D01*
X199425000Y-57383757D01*
X199425000Y-56193394D01*
X199424826Y-56192517D01*
X199420810Y-56172331D01*
X199400963Y-56072548D01*
X199353811Y-55958714D01*
X199300369Y-55878733D01*
X199285358Y-55856267D01*
X199198233Y-55769142D01*
X199198232Y-55769141D01*
X199011318Y-55582227D01*
X198977833Y-55520904D01*
X198974999Y-55494546D01*
X198974999Y-55262129D01*
X198974998Y-55262123D01*
X198968591Y-55202516D01*
X198918297Y-55067671D01*
X198918293Y-55067664D01*
X198832047Y-54952455D01*
X198832044Y-54952452D01*
X198716835Y-54866206D01*
X198716828Y-54866202D01*
X198581982Y-54815908D01*
X198581983Y-54815908D01*
X198522383Y-54809501D01*
X198522381Y-54809500D01*
X198522373Y-54809500D01*
X198522364Y-54809500D01*
X196901629Y-54809500D01*
X196901623Y-54809501D01*
X196842016Y-54815908D01*
X196707171Y-54866202D01*
X196707164Y-54866206D01*
X196591955Y-54952452D01*
X196591952Y-54952455D01*
X196505706Y-55067664D01*
X196505702Y-55067671D01*
X196455410Y-55202513D01*
X196455409Y-55202517D01*
X196449000Y-55262127D01*
X196449000Y-55262134D01*
X196449000Y-55262135D01*
X196449000Y-56007870D01*
X196449001Y-56007871D01*
X196455408Y-56067483D01*
X196505702Y-56202328D01*
X196509954Y-56210114D01*
X196506780Y-56211846D01*
X196525159Y-56261302D01*
X196510225Y-56329557D01*
X196509617Y-56330502D01*
X196505702Y-56337671D01*
X196455410Y-56472513D01*
X196455409Y-56472517D01*
X196449000Y-56532127D01*
X196449000Y-56727112D01*
X196449001Y-56805500D01*
X196429317Y-56872539D01*
X196376513Y-56918294D01*
X196325001Y-56929500D01*
X189715452Y-56929500D01*
X189648413Y-56909815D01*
X189627771Y-56893181D01*
X189286818Y-56552228D01*
X189253333Y-56490905D01*
X189250499Y-56464547D01*
X189250499Y-56252129D01*
X189250498Y-56252123D01*
X189250497Y-56252116D01*
X189244091Y-56192517D01*
X189231340Y-56158332D01*
X189226357Y-56088642D01*
X189231340Y-56071669D01*
X189244091Y-56037483D01*
X189250500Y-55977873D01*
X189250499Y-54982128D01*
X189244091Y-54922517D01*
X189231340Y-54888332D01*
X189226357Y-54818642D01*
X189231340Y-54801669D01*
X189244091Y-54767483D01*
X189247275Y-54737870D01*
X191025000Y-54737870D01*
X191025001Y-54737876D01*
X191031408Y-54797483D01*
X191081702Y-54932328D01*
X191081706Y-54932335D01*
X191167952Y-55047544D01*
X191167955Y-55047547D01*
X191283164Y-55133793D01*
X191283171Y-55133797D01*
X191418017Y-55184091D01*
X191418016Y-55184091D01*
X191424944Y-55184835D01*
X191477627Y-55190500D01*
X193098372Y-55190499D01*
X193157983Y-55184091D01*
X193292831Y-55133796D01*
X193408046Y-55047546D01*
X193494296Y-54932331D01*
X193544591Y-54797483D01*
X193551000Y-54737873D01*
X193550999Y-53992128D01*
X193544591Y-53932517D01*
X193540109Y-53920499D01*
X193494297Y-53797670D01*
X193490047Y-53789888D01*
X193493257Y-53788134D01*
X193474861Y-53739001D01*
X193489627Y-53670709D01*
X193490252Y-53669736D01*
X193494297Y-53662329D01*
X193507471Y-53627007D01*
X193544591Y-53527483D01*
X193551000Y-53467873D01*
X193550999Y-52722128D01*
X193544591Y-52662517D01*
X193541488Y-52654198D01*
X193494297Y-52527671D01*
X193494293Y-52527664D01*
X193408047Y-52412455D01*
X193408044Y-52412452D01*
X193292835Y-52326206D01*
X193292828Y-52326202D01*
X193157982Y-52275908D01*
X193157983Y-52275908D01*
X193098383Y-52269501D01*
X193098381Y-52269500D01*
X193098373Y-52269500D01*
X193098364Y-52269500D01*
X191477629Y-52269500D01*
X191477623Y-52269501D01*
X191418016Y-52275908D01*
X191283171Y-52326202D01*
X191283164Y-52326206D01*
X191167955Y-52412452D01*
X191167952Y-52412455D01*
X191081706Y-52527664D01*
X191081702Y-52527671D01*
X191031410Y-52662513D01*
X191031409Y-52662517D01*
X191025000Y-52722127D01*
X191025000Y-52722134D01*
X191025000Y-52722135D01*
X191025000Y-53467870D01*
X191025001Y-53467876D01*
X191031408Y-53527483D01*
X191081702Y-53662328D01*
X191085954Y-53670114D01*
X191082780Y-53671846D01*
X191101159Y-53721302D01*
X191086225Y-53789557D01*
X191085617Y-53790502D01*
X191081702Y-53797671D01*
X191031410Y-53932513D01*
X191031409Y-53932517D01*
X191025000Y-53992127D01*
X191025000Y-53992134D01*
X191025000Y-53992135D01*
X191025000Y-54737870D01*
X189247275Y-54737870D01*
X189250500Y-54707873D01*
X189250499Y-53712128D01*
X189244091Y-53652517D01*
X189234576Y-53627007D01*
X189193797Y-53517671D01*
X189193793Y-53517664D01*
X189107547Y-53402455D01*
X189107544Y-53402452D01*
X188992335Y-53316206D01*
X188992328Y-53316202D01*
X188857482Y-53265908D01*
X188857483Y-53265908D01*
X188797883Y-53259501D01*
X188797881Y-53259500D01*
X188797873Y-53259500D01*
X188797864Y-53259500D01*
X187202129Y-53259500D01*
X187202123Y-53259501D01*
X187142516Y-53265908D01*
X187007671Y-53316202D01*
X187007664Y-53316206D01*
X186892455Y-53402452D01*
X186892452Y-53402455D01*
X186806206Y-53517664D01*
X186806202Y-53517671D01*
X186755908Y-53652517D01*
X186749501Y-53712116D01*
X186749501Y-53712123D01*
X186749500Y-53712135D01*
X186749500Y-54707870D01*
X186749501Y-54707876D01*
X186755908Y-54767481D01*
X186768659Y-54801669D01*
X186773642Y-54871361D01*
X186768659Y-54888331D01*
X186755908Y-54922518D01*
X186751042Y-54967784D01*
X186749501Y-54982123D01*
X186749500Y-54982135D01*
X186749500Y-55977870D01*
X186749501Y-55977876D01*
X186755908Y-56037481D01*
X186768659Y-56071669D01*
X186773642Y-56141361D01*
X186768659Y-56158331D01*
X186755908Y-56192518D01*
X186749626Y-56250951D01*
X186749501Y-56252123D01*
X186749500Y-56252135D01*
X186749500Y-57247870D01*
X186749501Y-57247876D01*
X186755908Y-57307481D01*
X186768659Y-57341669D01*
X186773642Y-57411361D01*
X186768659Y-57428331D01*
X186755908Y-57462518D01*
X186749501Y-57522116D01*
X186749500Y-57522135D01*
X186749500Y-58517870D01*
X186749501Y-58517876D01*
X186755908Y-58577481D01*
X186768659Y-58611669D01*
X186773642Y-58681361D01*
X186768659Y-58698331D01*
X186755908Y-58732518D01*
X186749501Y-58792116D01*
X186749500Y-58792135D01*
X186749500Y-59787870D01*
X186749501Y-59787876D01*
X186755908Y-59847481D01*
X186768659Y-59881669D01*
X186773642Y-59951361D01*
X186768659Y-59968331D01*
X186755908Y-60002518D01*
X186753169Y-60028000D01*
X186749501Y-60062123D01*
X186749500Y-60062135D01*
X186749500Y-61057870D01*
X186749501Y-61057876D01*
X186755908Y-61117481D01*
X186768659Y-61151669D01*
X186773642Y-61221361D01*
X186768659Y-61238331D01*
X186755908Y-61272518D01*
X186749501Y-61332116D01*
X186749501Y-61332123D01*
X186749500Y-61332135D01*
X186749500Y-62327870D01*
X186749501Y-62327876D01*
X186755908Y-62387481D01*
X186768659Y-62421669D01*
X186773642Y-62491361D01*
X186768659Y-62508331D01*
X186755908Y-62542518D01*
X186749501Y-62602116D01*
X186749501Y-62602123D01*
X186749500Y-62602135D01*
X186749500Y-63597870D01*
X186749501Y-63597876D01*
X186755908Y-63657481D01*
X186768659Y-63691669D01*
X186773642Y-63761361D01*
X186768659Y-63778331D01*
X186755908Y-63812518D01*
X186749501Y-63872116D01*
X186749501Y-63872123D01*
X186749500Y-63872135D01*
X186749500Y-64867870D01*
X186749501Y-64867876D01*
X186755908Y-64927481D01*
X186768659Y-64961669D01*
X186773642Y-65031361D01*
X186768659Y-65048331D01*
X186755908Y-65082518D01*
X186749501Y-65142116D01*
X186749501Y-65142123D01*
X186749500Y-65142135D01*
X186749500Y-65440800D01*
X186729815Y-65507839D01*
X186677011Y-65553594D01*
X186625500Y-65564800D01*
X186540354Y-65564800D01*
X186507897Y-65571698D01*
X186355197Y-65604155D01*
X186355192Y-65604157D01*
X186182270Y-65681148D01*
X186182265Y-65681151D01*
X186029129Y-65792411D01*
X185902466Y-65933085D01*
X185807821Y-66097015D01*
X185807818Y-66097022D01*
X185764070Y-66231666D01*
X185749326Y-66277044D01*
X185729540Y-66465300D01*
X185749326Y-66653556D01*
X185749327Y-66653559D01*
X185807818Y-66833577D01*
X185807821Y-66833584D01*
X185902467Y-66997516D01*
X186029129Y-67138188D01*
X186182265Y-67249448D01*
X186182266Y-67249448D01*
X186182270Y-67249451D01*
X186223936Y-67268002D01*
X186277173Y-67313252D01*
X186297494Y-67380101D01*
X186297500Y-67381281D01*
X186297500Y-69325500D01*
X186277815Y-69392539D01*
X186225011Y-69438294D01*
X186173500Y-69449500D01*
X185737129Y-69449500D01*
X185737123Y-69449501D01*
X185677518Y-69455908D01*
X185643331Y-69468659D01*
X185573639Y-69473642D01*
X185556669Y-69468659D01*
X185522480Y-69455908D01*
X185522482Y-69455908D01*
X185462883Y-69449501D01*
X185462881Y-69449500D01*
X185462873Y-69449500D01*
X185462864Y-69449500D01*
X184467129Y-69449500D01*
X184467123Y-69449501D01*
X184407518Y-69455908D01*
X184373331Y-69468659D01*
X184303639Y-69473642D01*
X184286669Y-69468659D01*
X184252480Y-69455908D01*
X184252482Y-69455908D01*
X184192883Y-69449501D01*
X184192881Y-69449500D01*
X184192873Y-69449500D01*
X184192864Y-69449500D01*
X183197129Y-69449500D01*
X183197123Y-69449501D01*
X183137518Y-69455908D01*
X183103331Y-69468659D01*
X183033639Y-69473642D01*
X183016669Y-69468659D01*
X182982480Y-69455908D01*
X182982482Y-69455908D01*
X182922883Y-69449501D01*
X182922881Y-69449500D01*
X182922873Y-69449500D01*
X182922864Y-69449500D01*
X181927129Y-69449500D01*
X181927123Y-69449501D01*
X181867518Y-69455908D01*
X181833331Y-69468659D01*
X181763639Y-69473642D01*
X181746669Y-69468659D01*
X181712480Y-69455908D01*
X181712482Y-69455908D01*
X181652883Y-69449501D01*
X181652881Y-69449500D01*
X181652873Y-69449500D01*
X181652864Y-69449500D01*
X180657129Y-69449500D01*
X180657123Y-69449501D01*
X180597518Y-69455908D01*
X180563331Y-69468659D01*
X180493639Y-69473642D01*
X180476669Y-69468659D01*
X180442480Y-69455908D01*
X180442482Y-69455908D01*
X180382883Y-69449501D01*
X180382881Y-69449500D01*
X180382873Y-69449500D01*
X180382864Y-69449500D01*
X179387129Y-69449500D01*
X179387123Y-69449501D01*
X179327518Y-69455908D01*
X179293331Y-69468659D01*
X179223639Y-69473642D01*
X179206669Y-69468659D01*
X179172480Y-69455908D01*
X179172482Y-69455908D01*
X179112883Y-69449501D01*
X179112881Y-69449500D01*
X179112873Y-69449500D01*
X179112864Y-69449500D01*
X178117129Y-69449500D01*
X178117123Y-69449501D01*
X178057518Y-69455908D01*
X178023331Y-69468659D01*
X177953639Y-69473642D01*
X177936669Y-69468659D01*
X177902480Y-69455908D01*
X177902482Y-69455908D01*
X177842883Y-69449501D01*
X177842881Y-69449500D01*
X177842873Y-69449500D01*
X177842864Y-69449500D01*
X176847129Y-69449500D01*
X176847123Y-69449501D01*
X176787518Y-69455908D01*
X176753331Y-69468659D01*
X176683639Y-69473642D01*
X176666669Y-69468659D01*
X176632480Y-69455908D01*
X176632482Y-69455908D01*
X176572883Y-69449501D01*
X176572881Y-69449500D01*
X176572873Y-69449500D01*
X176572864Y-69449500D01*
X175577129Y-69449500D01*
X175577123Y-69449501D01*
X175517518Y-69455908D01*
X175483331Y-69468659D01*
X175413639Y-69473642D01*
X175396669Y-69468659D01*
X175362480Y-69455908D01*
X175362482Y-69455908D01*
X175302883Y-69449501D01*
X175302881Y-69449500D01*
X175302873Y-69449500D01*
X175302865Y-69449500D01*
X174808460Y-69449500D01*
X174741421Y-69429815D01*
X174695666Y-69377011D01*
X174685722Y-69307853D01*
X174701072Y-69263502D01*
X174727179Y-69218284D01*
X174785674Y-69038256D01*
X174805460Y-68850000D01*
X174785674Y-68661744D01*
X174727179Y-68481716D01*
X174632533Y-68317784D01*
X174505871Y-68177112D01*
X174505870Y-68177111D01*
X174352734Y-68065851D01*
X174352729Y-68065848D01*
X174179807Y-67988857D01*
X174179802Y-67988855D01*
X174034001Y-67957865D01*
X173994646Y-67949500D01*
X173805354Y-67949500D01*
X173772897Y-67956398D01*
X173620197Y-67988855D01*
X173620192Y-67988857D01*
X173447270Y-68065848D01*
X173441637Y-68069101D01*
X173440923Y-68067865D01*
X173382122Y-68088831D01*
X173314071Y-68072992D01*
X173302184Y-68065351D01*
X173196898Y-67988857D01*
X173165230Y-67965849D01*
X173165228Y-67965848D01*
X173165229Y-67965848D01*
X172992307Y-67888857D01*
X172992302Y-67888855D01*
X172846501Y-67857865D01*
X172807146Y-67849500D01*
X172807145Y-67849500D01*
X172712599Y-67849500D01*
X172656056Y-67832897D01*
X172655249Y-67834513D01*
X172655247Y-67834512D01*
X172650909Y-67831385D01*
X172645560Y-67829815D01*
X172624918Y-67813181D01*
X172623023Y-67811286D01*
X172623020Y-67811284D01*
X172511217Y-67699481D01*
X172511216Y-67699480D01*
X172424404Y-67649360D01*
X172424404Y-67649359D01*
X172424400Y-67649358D01*
X172374285Y-67620423D01*
X172221557Y-67579499D01*
X172063443Y-67579499D01*
X172055847Y-67579499D01*
X172055831Y-67579500D01*
X171870094Y-67579500D01*
X171803055Y-67559815D01*
X171757300Y-67507011D01*
X171746804Y-67442246D01*
X171750500Y-67407873D01*
X171750499Y-66412128D01*
X171744091Y-66352517D01*
X171731340Y-66318332D01*
X171726357Y-66248642D01*
X171731338Y-66231672D01*
X171744091Y-66197483D01*
X171750500Y-66137873D01*
X171750499Y-65142128D01*
X171744091Y-65082517D01*
X171731340Y-65048332D01*
X171726357Y-64978642D01*
X171731340Y-64961669D01*
X171744091Y-64927483D01*
X171750500Y-64867873D01*
X171750499Y-63872128D01*
X171744091Y-63812517D01*
X171731340Y-63778332D01*
X171726357Y-63708642D01*
X171731340Y-63691669D01*
X171744091Y-63657483D01*
X171750500Y-63597873D01*
X171750499Y-62602128D01*
X171744091Y-62542517D01*
X171731340Y-62508332D01*
X171726357Y-62438642D01*
X171731340Y-62421669D01*
X171744091Y-62387483D01*
X171750500Y-62327873D01*
X171750499Y-61332128D01*
X171744091Y-61272517D01*
X171731340Y-61238332D01*
X171726357Y-61168642D01*
X171731340Y-61151669D01*
X171744091Y-61117483D01*
X171750500Y-61057873D01*
X171750499Y-60062128D01*
X171744091Y-60002517D01*
X171731340Y-59968332D01*
X171726357Y-59898642D01*
X171731340Y-59881669D01*
X171744091Y-59847483D01*
X171750500Y-59787873D01*
X171750499Y-59377572D01*
X171770183Y-59310535D01*
X171822987Y-59264780D01*
X171892146Y-59254836D01*
X171955702Y-59283861D01*
X171962181Y-59289893D01*
X173616188Y-60944146D01*
X173649668Y-61005471D01*
X173652500Y-61031820D01*
X173652500Y-64824312D01*
X173632815Y-64891351D01*
X173620650Y-64907284D01*
X173545466Y-64990784D01*
X173450821Y-65154715D01*
X173450818Y-65154722D01*
X173392327Y-65334740D01*
X173392326Y-65334744D01*
X173372540Y-65523000D01*
X173392326Y-65711256D01*
X173392327Y-65711259D01*
X173450818Y-65891277D01*
X173450821Y-65891284D01*
X173545467Y-66055216D01*
X173619884Y-66137864D01*
X173672129Y-66195888D01*
X173825265Y-66307148D01*
X173825270Y-66307151D01*
X173998192Y-66384142D01*
X173998197Y-66384144D01*
X174183354Y-66423500D01*
X174183355Y-66423500D01*
X174372644Y-66423500D01*
X174372646Y-66423500D01*
X174557803Y-66384144D01*
X174730730Y-66307151D01*
X174883871Y-66195888D01*
X175010533Y-66055216D01*
X175105179Y-65891284D01*
X175163674Y-65711256D01*
X175183460Y-65523000D01*
X175163674Y-65334744D01*
X175105179Y-65154716D01*
X175010533Y-64990784D01*
X174984315Y-64961666D01*
X174935350Y-64907284D01*
X174905120Y-64844292D01*
X174903500Y-64824312D01*
X174903500Y-60728292D01*
X174903500Y-60728286D01*
X174903505Y-60659840D01*
X174903502Y-60659826D01*
X174903499Y-60659788D01*
X174892426Y-60604121D01*
X174892424Y-60604111D01*
X174879711Y-60540174D01*
X174879494Y-60539005D01*
X174879205Y-60538327D01*
X174857119Y-60485006D01*
X174832334Y-60425156D01*
X174832331Y-60425148D01*
X174832320Y-60425127D01*
X174797706Y-60373324D01*
X174797707Y-60373323D01*
X174797699Y-60373315D01*
X174763885Y-60322700D01*
X174763852Y-60322660D01*
X174716637Y-60275446D01*
X174716632Y-60275436D01*
X174716630Y-60275439D01*
X172718653Y-58277166D01*
X172685173Y-58215840D01*
X172690162Y-58146149D01*
X172732038Y-58090218D01*
X172733393Y-58089218D01*
X172755871Y-58072888D01*
X172882533Y-57932216D01*
X172977179Y-57768284D01*
X173035674Y-57588256D01*
X173055460Y-57400000D01*
X173035674Y-57211744D01*
X172977179Y-57031716D01*
X172882533Y-56867784D01*
X172755871Y-56727112D01*
X172755870Y-56727111D01*
X172602734Y-56615851D01*
X172602729Y-56615848D01*
X172484658Y-56563279D01*
X172431421Y-56518029D01*
X172411100Y-56451180D01*
X172430146Y-56383956D01*
X172482512Y-56337701D01*
X172484658Y-56336721D01*
X172533801Y-56314840D01*
X172602730Y-56284151D01*
X172755871Y-56172888D01*
X172882533Y-56032216D01*
X172977179Y-55868284D01*
X173035674Y-55688256D01*
X173055460Y-55500000D01*
X173035674Y-55311744D01*
X172977179Y-55131716D01*
X172882533Y-54967784D01*
X172755871Y-54827112D01*
X172744213Y-54818642D01*
X172602734Y-54715851D01*
X172602729Y-54715848D01*
X172429807Y-54638857D01*
X172429802Y-54638855D01*
X172284001Y-54607865D01*
X172244646Y-54599500D01*
X172055354Y-54599500D01*
X172055352Y-54599500D01*
X171900279Y-54632461D01*
X171830612Y-54627145D01*
X171774879Y-54585007D01*
X171750774Y-54519427D01*
X171750499Y-54511171D01*
X171750499Y-53712129D01*
X171750498Y-53712123D01*
X171750497Y-53712116D01*
X171744091Y-53652517D01*
X171734576Y-53627007D01*
X171693797Y-53517671D01*
X171693793Y-53517664D01*
X171607547Y-53402455D01*
X171607544Y-53402452D01*
X171492335Y-53316206D01*
X171492328Y-53316202D01*
X171357482Y-53265908D01*
X171357483Y-53265908D01*
X171297883Y-53259501D01*
X171297881Y-53259500D01*
X171297873Y-53259500D01*
X171297864Y-53259500D01*
X169702129Y-53259500D01*
X169702123Y-53259501D01*
X169642516Y-53265908D01*
X169507671Y-53316202D01*
X169507664Y-53316206D01*
X169392457Y-53402451D01*
X169392451Y-53402457D01*
X169386948Y-53409809D01*
X169331015Y-53451681D01*
X169287680Y-53459500D01*
X168372380Y-53459500D01*
X168372373Y-53459499D01*
X168304147Y-53459493D01*
X168304076Y-53459500D01*
X168228137Y-53474606D01*
X168228128Y-53474608D01*
X168159116Y-53488329D01*
X168090274Y-53516844D01*
X168090267Y-53516847D01*
X168022534Y-53544896D01*
X167961760Y-53585504D01*
X167961752Y-53585509D01*
X167899608Y-53627024D01*
X167848688Y-53677944D01*
X167848682Y-53677951D01*
X165563046Y-55963189D01*
X165501720Y-55996669D01*
X165475372Y-55999500D01*
X164974998Y-55999500D01*
X164974980Y-55999501D01*
X164872203Y-56010000D01*
X164872200Y-56010001D01*
X164705668Y-56065185D01*
X164705663Y-56065187D01*
X164556342Y-56157289D01*
X164462681Y-56250951D01*
X164401358Y-56284436D01*
X164331666Y-56279452D01*
X164287319Y-56250951D01*
X164193657Y-56157289D01*
X164193656Y-56157288D01*
X164100888Y-56100069D01*
X164044336Y-56065187D01*
X164044331Y-56065185D01*
X164042862Y-56064698D01*
X163877797Y-56010001D01*
X163877795Y-56010000D01*
X163775010Y-55999500D01*
X162724998Y-55999500D01*
X162724980Y-55999501D01*
X162622203Y-56010000D01*
X162622200Y-56010001D01*
X162455668Y-56065185D01*
X162455663Y-56065187D01*
X162306342Y-56157289D01*
X162182289Y-56281342D01*
X162090187Y-56430663D01*
X162090186Y-56430666D01*
X162035001Y-56597203D01*
X162035001Y-56597204D01*
X162035000Y-56597204D01*
X162024500Y-56699983D01*
X162024500Y-57475001D01*
X160500000Y-57475001D01*
X160500000Y-51700000D01*
X162602465Y-51700000D01*
X162602466Y-51700021D01*
X162607381Y-51793817D01*
X162622078Y-51886604D01*
X162646397Y-51977363D01*
X162688086Y-52085967D01*
X162694359Y-52093120D01*
X162722716Y-52148775D01*
X162773871Y-52227547D01*
X162773878Y-52227556D01*
X162773879Y-52227557D01*
X162773880Y-52227558D01*
X162833002Y-52300568D01*
X162899432Y-52366998D01*
X162899438Y-52367003D01*
X162899445Y-52367009D01*
X162972435Y-52426116D01*
X162997493Y-52442388D01*
X163048531Y-52475533D01*
X163050658Y-52476994D01*
X163051228Y-52477284D01*
X163051232Y-52477287D01*
X163051233Y-52477288D01*
X163108333Y-52506382D01*
X163134943Y-52519941D01*
X163222636Y-52553602D01*
X163222637Y-52553602D01*
X163222647Y-52553606D01*
X163313392Y-52577921D01*
X163406182Y-52592618D01*
X163499999Y-52597535D01*
X163500000Y-52597535D01*
X163500001Y-52597535D01*
X163546909Y-52595076D01*
X163593818Y-52592618D01*
X163686608Y-52577921D01*
X163731981Y-52565763D01*
X163777348Y-52553608D01*
X163777351Y-52553606D01*
X163777354Y-52553606D01*
X163865060Y-52519939D01*
X163948767Y-52477288D01*
X163948768Y-52477287D01*
X163948768Y-52477286D01*
X163949339Y-52476996D01*
X163951450Y-52475545D01*
X164027558Y-52426120D01*
X164100568Y-52366998D01*
X164166998Y-52300568D01*
X164226120Y-52227558D01*
X164226121Y-52227557D01*
X164226125Y-52227550D01*
X164226128Y-52227547D01*
X164254622Y-52183668D01*
X164277288Y-52148767D01*
X164319939Y-52065060D01*
X164353606Y-51977353D01*
X164377921Y-51886608D01*
X164386531Y-51846099D01*
X164397747Y-51825324D01*
X164398459Y-51770841D01*
X164405602Y-51747637D01*
X164402811Y-51708917D01*
X164402811Y-51691083D01*
X164404985Y-51660914D01*
X164398459Y-51629158D01*
X164397859Y-51583203D01*
X164395366Y-51580364D01*
X164386531Y-51553897D01*
X164377922Y-51513392D01*
X164353606Y-51422647D01*
X164319939Y-51334940D01*
X164277288Y-51251233D01*
X164277285Y-51251228D01*
X164226128Y-51172452D01*
X164226120Y-51172442D01*
X164166998Y-51099432D01*
X164100568Y-51033002D01*
X164100563Y-51032998D01*
X164100554Y-51032990D01*
X164027561Y-50973882D01*
X164027558Y-50973880D01*
X163951485Y-50924477D01*
X163949344Y-50923006D01*
X163865069Y-50880065D01*
X163862603Y-50878967D01*
X163845888Y-50864757D01*
X163686605Y-50822078D01*
X163609726Y-50809902D01*
X163593818Y-50807383D01*
X163593816Y-50807382D01*
X163593811Y-50807382D01*
X163500001Y-50802466D01*
X163499999Y-50802466D01*
X163406180Y-50807383D01*
X163313402Y-50822077D01*
X163313390Y-50822079D01*
X163222636Y-50846397D01*
X163134943Y-50880058D01*
X163050653Y-50923007D01*
X163048503Y-50924485D01*
X162972438Y-50973882D01*
X162899445Y-51032990D01*
X162899428Y-51033005D01*
X162833005Y-51099428D01*
X162832998Y-51099436D01*
X162777971Y-51167390D01*
X162775722Y-51170166D01*
X162773871Y-51172452D01*
X162722714Y-51251228D01*
X162680057Y-51334947D01*
X162646397Y-51422636D01*
X162622078Y-51513395D01*
X162607381Y-51606182D01*
X162602466Y-51699978D01*
X162602465Y-51700000D01*
X160500000Y-51700000D01*
X160500000Y-46700002D01*
X162002562Y-46700002D01*
X162007676Y-46823656D01*
X162022984Y-46946463D01*
X162022985Y-46946472D01*
X162048383Y-47067598D01*
X162081866Y-47180068D01*
X162082798Y-47183914D01*
X162083697Y-47186217D01*
X162083697Y-47186218D01*
X162128686Y-47301514D01*
X162155386Y-47356130D01*
X162183035Y-47412689D01*
X162183044Y-47412706D01*
X162246389Y-47519014D01*
X162246396Y-47519025D01*
X162318312Y-47619749D01*
X162321619Y-47623653D01*
X162321631Y-47623666D01*
X162398297Y-47714186D01*
X162485813Y-47801702D01*
X162580250Y-47881686D01*
X162580258Y-47881692D01*
X162687675Y-47958387D01*
X162693142Y-47960852D01*
X162743139Y-47990645D01*
X162787294Y-48016956D01*
X162787297Y-48016957D01*
X162787298Y-48016958D01*
X162898485Y-48071314D01*
X162898486Y-48071314D01*
X162902264Y-48073161D01*
X162906852Y-48074578D01*
X163013782Y-48116303D01*
X163132401Y-48151617D01*
X163253530Y-48177015D01*
X163376342Y-48192324D01*
X163376343Y-48192324D01*
X163376372Y-48192325D01*
X163377618Y-48192403D01*
X163378906Y-48192430D01*
X163499998Y-48197439D01*
X163500000Y-48197439D01*
X163500001Y-48197439D01*
X163504912Y-48197235D01*
X163623658Y-48192324D01*
X163746470Y-48177015D01*
X163867600Y-48151617D01*
X163986218Y-48116303D01*
X164093150Y-48074577D01*
X164097738Y-48073159D01*
X164101504Y-48071317D01*
X164101514Y-48071314D01*
X164101515Y-48071314D01*
X164212702Y-48016958D01*
X164306861Y-47960850D01*
X164312325Y-47958386D01*
X164319021Y-47953605D01*
X164319022Y-47953605D01*
X164419746Y-47881689D01*
X164499403Y-47814221D01*
X164505207Y-47810681D01*
X164514187Y-47801701D01*
X164514188Y-47801701D01*
X164601701Y-47714187D01*
X164680134Y-47621581D01*
X164681687Y-47619749D01*
X164753603Y-47519025D01*
X164753610Y-47519014D01*
X164816958Y-47412702D01*
X164871314Y-47301514D01*
X164916303Y-47186218D01*
X164916303Y-47186217D01*
X164916303Y-47186215D01*
X164917200Y-47183918D01*
X164918128Y-47180083D01*
X164951617Y-47067599D01*
X164977015Y-46946470D01*
X164987224Y-46885288D01*
X164989124Y-46870656D01*
X164997802Y-46850946D01*
X164998690Y-46764912D01*
X164998883Y-46759148D01*
X164999322Y-46751431D01*
X165004367Y-46737275D01*
X165002648Y-46707043D01*
X165002648Y-46692957D01*
X165004022Y-46668791D01*
X164999322Y-46648568D01*
X164998883Y-46640851D01*
X164998690Y-46635087D01*
X164997912Y-46559752D01*
X164989125Y-46529347D01*
X164987224Y-46514712D01*
X164977015Y-46453530D01*
X164951617Y-46332401D01*
X164918130Y-46219920D01*
X164917200Y-46216082D01*
X164916303Y-46213782D01*
X164871314Y-46098486D01*
X164816958Y-45987298D01*
X164753606Y-45880979D01*
X164753603Y-45880974D01*
X164681687Y-45780250D01*
X164678392Y-45776361D01*
X164678387Y-45776356D01*
X164601701Y-45685813D01*
X164601698Y-45685810D01*
X164601693Y-45685804D01*
X164514186Y-45598297D01*
X164419749Y-45518313D01*
X164419741Y-45518307D01*
X164324072Y-45450000D01*
X170250000Y-45450000D01*
X170250000Y-51400000D01*
X188250000Y-51400000D01*
X188250000Y-46700002D01*
X199002562Y-46700002D01*
X199007676Y-46823656D01*
X199022984Y-46946463D01*
X199022985Y-46946472D01*
X199048383Y-47067598D01*
X199081866Y-47180068D01*
X199082798Y-47183914D01*
X199083697Y-47186217D01*
X199083697Y-47186218D01*
X199128686Y-47301514D01*
X199155386Y-47356130D01*
X199183035Y-47412689D01*
X199183044Y-47412706D01*
X199246389Y-47519014D01*
X199246396Y-47519025D01*
X199318312Y-47619749D01*
X199321619Y-47623653D01*
X199321631Y-47623666D01*
X199398297Y-47714186D01*
X199485813Y-47801702D01*
X199580250Y-47881686D01*
X199580258Y-47881692D01*
X199687675Y-47958387D01*
X199693142Y-47960852D01*
X199743139Y-47990645D01*
X199787294Y-48016956D01*
X199787297Y-48016957D01*
X199787298Y-48016958D01*
X199898485Y-48071314D01*
X199898486Y-48071314D01*
X199902264Y-48073161D01*
X199906852Y-48074578D01*
X200013782Y-48116303D01*
X200132401Y-48151617D01*
X200253530Y-48177015D01*
X200376342Y-48192324D01*
X200376343Y-48192324D01*
X200376372Y-48192325D01*
X200377618Y-48192403D01*
X200378906Y-48192430D01*
X200499998Y-48197439D01*
X200500000Y-48197439D01*
X200500001Y-48197439D01*
X200504912Y-48197235D01*
X200623658Y-48192324D01*
X200746470Y-48177015D01*
X200867600Y-48151617D01*
X200986218Y-48116303D01*
X201093150Y-48074577D01*
X201097738Y-48073159D01*
X201101504Y-48071317D01*
X201101514Y-48071314D01*
X201101515Y-48071314D01*
X201212702Y-48016958D01*
X201306861Y-47960850D01*
X201312325Y-47958386D01*
X201319021Y-47953605D01*
X201319022Y-47953605D01*
X201419746Y-47881689D01*
X201499403Y-47814221D01*
X201505207Y-47810681D01*
X201514187Y-47801701D01*
X201514188Y-47801701D01*
X201601701Y-47714187D01*
X201680134Y-47621581D01*
X201681687Y-47619749D01*
X201753603Y-47519025D01*
X201753610Y-47519014D01*
X201816958Y-47412702D01*
X201871314Y-47301514D01*
X201916303Y-47186218D01*
X201916303Y-47186217D01*
X201916303Y-47186215D01*
X201917200Y-47183918D01*
X201918128Y-47180083D01*
X201951617Y-47067599D01*
X201977015Y-46946470D01*
X201987224Y-46885288D01*
X201989124Y-46870656D01*
X201997802Y-46850946D01*
X201998690Y-46764912D01*
X201998883Y-46759148D01*
X201999322Y-46751431D01*
X202004367Y-46737275D01*
X202002648Y-46707043D01*
X202002648Y-46692957D01*
X202004022Y-46668791D01*
X201999322Y-46648568D01*
X201998883Y-46640851D01*
X201998690Y-46635087D01*
X201997912Y-46559752D01*
X201989125Y-46529347D01*
X201987224Y-46514712D01*
X201977015Y-46453530D01*
X201951617Y-46332401D01*
X201918130Y-46219920D01*
X201917200Y-46216082D01*
X201916303Y-46213782D01*
X201871314Y-46098486D01*
X201816958Y-45987298D01*
X201753606Y-45880979D01*
X201753603Y-45880974D01*
X201681687Y-45780250D01*
X201678392Y-45776361D01*
X201678387Y-45776356D01*
X201601701Y-45685813D01*
X201601698Y-45685810D01*
X201601693Y-45685804D01*
X201514186Y-45598297D01*
X201419749Y-45518313D01*
X201419741Y-45518307D01*
X201319026Y-45446397D01*
X201212702Y-45383042D01*
X201101515Y-45328686D01*
X201101514Y-45328686D01*
X201097732Y-45326837D01*
X201093140Y-45325418D01*
X200986223Y-45283699D01*
X200986206Y-45283692D01*
X200866590Y-45248082D01*
X200863836Y-45247593D01*
X200746477Y-45222986D01*
X200746463Y-45222984D01*
X200561428Y-45199919D01*
X200544565Y-45204391D01*
X200542714Y-45204328D01*
X200500004Y-45202562D01*
X200499986Y-45202562D01*
X200497678Y-45202657D01*
X200470669Y-45195919D01*
X200381428Y-45207043D01*
X200371216Y-45207889D01*
X200301878Y-45210757D01*
X200265395Y-45221506D01*
X200253530Y-45222984D01*
X200132401Y-45248383D01*
X200013793Y-45283693D01*
X200013775Y-45283699D01*
X199906859Y-45325418D01*
X199902267Y-45326837D01*
X199787294Y-45383043D01*
X199693922Y-45438682D01*
X199680979Y-45446395D01*
X199680975Y-45446398D01*
X199580253Y-45518311D01*
X199580250Y-45518313D01*
X199485813Y-45598297D01*
X199485808Y-45598303D01*
X199398305Y-45685805D01*
X199321631Y-45776334D01*
X199321572Y-45776401D01*
X199318312Y-45780250D01*
X199246396Y-45880974D01*
X199246389Y-45880985D01*
X199183044Y-45987293D01*
X199183035Y-45987310D01*
X199128692Y-46098474D01*
X199128683Y-46098493D01*
X199082797Y-46216086D01*
X199081866Y-46219931D01*
X199048383Y-46332401D01*
X199022985Y-46453527D01*
X199022984Y-46453536D01*
X199007676Y-46576343D01*
X199002562Y-46699997D01*
X199002562Y-46700002D01*
X188250000Y-46700002D01*
X188250000Y-45450000D01*
X170250000Y-45450000D01*
X164324072Y-45450000D01*
X164319026Y-45446397D01*
X164212702Y-45383042D01*
X164101515Y-45328686D01*
X164101514Y-45328686D01*
X164097732Y-45326837D01*
X164093140Y-45325418D01*
X163986223Y-45283699D01*
X163986206Y-45283692D01*
X163866590Y-45248082D01*
X163863836Y-45247593D01*
X163746477Y-45222986D01*
X163746463Y-45222984D01*
X163561428Y-45199919D01*
X163544565Y-45204391D01*
X163542714Y-45204328D01*
X163500004Y-45202562D01*
X163499986Y-45202562D01*
X163497678Y-45202657D01*
X163470669Y-45195919D01*
X163381428Y-45207043D01*
X163371216Y-45207889D01*
X163301878Y-45210757D01*
X163265395Y-45221506D01*
X163253530Y-45222984D01*
X163132401Y-45248383D01*
X163013793Y-45283693D01*
X163013775Y-45283699D01*
X162906859Y-45325418D01*
X162902267Y-45326837D01*
X162787294Y-45383043D01*
X162693922Y-45438682D01*
X162680979Y-45446395D01*
X162680975Y-45446398D01*
X162580253Y-45518311D01*
X162580250Y-45518313D01*
X162485813Y-45598297D01*
X162485808Y-45598303D01*
X162398305Y-45685805D01*
X162321631Y-45776334D01*
X162321572Y-45776401D01*
X162318312Y-45780250D01*
X162246396Y-45880974D01*
X162246389Y-45880985D01*
X162183044Y-45987293D01*
X162183035Y-45987310D01*
X162128692Y-46098474D01*
X162128683Y-46098493D01*
X162082797Y-46216086D01*
X162081866Y-46219931D01*
X162048383Y-46332401D01*
X162022985Y-46453527D01*
X162022984Y-46453536D01*
X162007676Y-46576343D01*
X162002562Y-46699997D01*
X162002562Y-46700002D01*
X160500000Y-46700002D01*
X160500000Y-44071772D01*
X160500001Y-44071219D01*
X160500003Y-44070733D01*
X160500317Y-44000404D01*
X160500324Y-43999576D01*
X160501244Y-43930766D01*
X160501382Y-43926363D01*
X160504583Y-43861182D01*
X160505205Y-43853459D01*
X160512498Y-43788357D01*
X160512989Y-43784515D01*
X160522563Y-43717927D01*
X160523271Y-43713558D01*
X160523271Y-43713557D01*
X160547414Y-43579741D01*
X160549286Y-43571139D01*
X160582369Y-43441519D01*
X160584849Y-43433075D01*
X160627093Y-43306152D01*
X160630177Y-43297883D01*
X160681357Y-43174322D01*
X160685023Y-43166293D01*
X160744900Y-43046673D01*
X160749123Y-43038938D01*
X160817377Y-42923903D01*
X160822159Y-42916463D01*
X160898445Y-42806589D01*
X160903717Y-42799546D01*
X160987662Y-42695376D01*
X160993415Y-42688736D01*
X161084577Y-42590821D01*
X161090829Y-42584571D01*
X161188701Y-42493448D01*
X161195380Y-42487660D01*
X161299529Y-42403730D01*
X161306589Y-42398445D01*
X161416471Y-42322153D01*
X161423908Y-42317374D01*
X161538932Y-42249126D01*
X161546668Y-42244903D01*
X161666303Y-42185018D01*
X161674287Y-42181371D01*
X161797889Y-42130174D01*
X161806165Y-42127089D01*
X161933041Y-42084860D01*
X161941528Y-42082368D01*
X161954222Y-42079127D01*
X162071145Y-42049284D01*
X162079741Y-42047414D01*
X162213570Y-42023268D01*
X162217904Y-42022566D01*
X162284544Y-42012985D01*
X162288328Y-42012501D01*
X162353468Y-42005204D01*
X162361174Y-42004583D01*
X162426384Y-42001381D01*
X162430766Y-42001244D01*
X162499576Y-42000324D01*
X162500404Y-42000317D01*
X162570733Y-42000003D01*
X162571219Y-42000001D01*
X162571772Y-42000000D01*
X201428228Y-42000000D01*
X201428781Y-42000001D01*
G37*
G04 #@! TD.AperFunction*
M02*
