G04 #@! TF.GenerationSoftware,KiCad,Pcbnew,8.0.1*
G04 #@! TF.CreationDate,2024-03-30T15:34:10-04:00*
G04 #@! TF.ProjectId,Bird3Controller,42697264-3343-46f6-9e74-726f6c6c6572,rev?*
G04 #@! TF.SameCoordinates,Original*
G04 #@! TF.FileFunction,Soldermask,Top*
G04 #@! TF.FilePolarity,Negative*
%FSLAX46Y46*%
G04 Gerber Fmt 4.6, Leading zero omitted, Abs format (unit mm)*
G04 Created by KiCad (PCBNEW 8.0.1) date 2024-03-30 15:34:10*
%MOMM*%
%LPD*%
G01*
G04 APERTURE LIST*
G04 Aperture macros list*
%AMRoundRect*
0 Rectangle with rounded corners*
0 $1 Rounding radius*
0 $2 $3 $4 $5 $6 $7 $8 $9 X,Y pos of 4 corners*
0 Add a 4 corners polygon primitive as box body*
4,1,4,$2,$3,$4,$5,$6,$7,$8,$9,$2,$3,0*
0 Add four circle primitives for the rounded corners*
1,1,$1+$1,$2,$3*
1,1,$1+$1,$4,$5*
1,1,$1+$1,$6,$7*
1,1,$1+$1,$8,$9*
0 Add four rect primitives between the rounded corners*
20,1,$1+$1,$2,$3,$4,$5,0*
20,1,$1+$1,$4,$5,$6,$7,0*
20,1,$1+$1,$6,$7,$8,$9,0*
20,1,$1+$1,$8,$9,$2,$3,0*%
G04 Aperture macros list end*
%ADD10R,1.700000X1.700000*%
%ADD11O,1.700000X1.700000*%
%ADD12R,1.525000X0.650000*%
%ADD13RoundRect,0.250000X-1.100000X0.412500X-1.100000X-0.412500X1.100000X-0.412500X1.100000X0.412500X0*%
%ADD14R,2.000000X1.500000*%
%ADD15RoundRect,0.250000X-0.325000X-0.450000X0.325000X-0.450000X0.325000X0.450000X-0.325000X0.450000X0*%
%ADD16RoundRect,0.250000X0.475000X-0.337500X0.475000X0.337500X-0.475000X0.337500X-0.475000X-0.337500X0*%
%ADD17R,2.200000X1.200000*%
%ADD18R,1.250000X0.600000*%
%ADD19R,1.500000X0.900000*%
%ADD20R,0.900000X1.500000*%
%ADD21R,0.900000X0.900000*%
%ADD22RoundRect,0.250000X-0.337500X-0.475000X0.337500X-0.475000X0.337500X0.475000X-0.337500X0.475000X0*%
%ADD23R,0.300000X0.800000*%
%ADD24R,0.400000X0.800000*%
%ADD25RoundRect,0.250000X0.450000X-0.350000X0.450000X0.350000X-0.450000X0.350000X-0.450000X-0.350000X0*%
%ADD26C,1.500000*%
%ADD27C,1.050000*%
%ADD28C,1.041400*%
G04 APERTURE END LIST*
D10*
X195500000Y-70250000D03*
D11*
X195500000Y-72790000D03*
X195500000Y-75330000D03*
X195500000Y-77870000D03*
X195500000Y-80410000D03*
X195500000Y-82950000D03*
X195500000Y-85490000D03*
X195500000Y-88030000D03*
D12*
X192288000Y-53095000D03*
X192288000Y-54365000D03*
X192288000Y-55635000D03*
X192288000Y-56905000D03*
X197712000Y-56905000D03*
X197712000Y-55635000D03*
X197712000Y-54365000D03*
X197712000Y-53095000D03*
D13*
X167500000Y-75637500D03*
X167500000Y-78762500D03*
D14*
X178400000Y-140000000D03*
X186600000Y-140000000D03*
D15*
X177075000Y-84700000D03*
X179125000Y-84700000D03*
D16*
X163250000Y-57087500D03*
X163250000Y-55012500D03*
D17*
X179650000Y-80250000D03*
X179650000Y-82450000D03*
D18*
X174600000Y-80400000D03*
X174600000Y-81350000D03*
X174600000Y-82300000D03*
X177100000Y-82300000D03*
X177100000Y-81350000D03*
X177100000Y-80400000D03*
D19*
X170500000Y-52940000D03*
X170500000Y-54210000D03*
X170500000Y-55480000D03*
X170500000Y-56750000D03*
X170500000Y-58020000D03*
X170500000Y-59290000D03*
X170500000Y-60560000D03*
X170500000Y-61830000D03*
X170500000Y-63100000D03*
X170500000Y-64370000D03*
X170500000Y-65640000D03*
X170500000Y-66910000D03*
X170500000Y-68180000D03*
X170500000Y-69450000D03*
D20*
X172265000Y-70700000D03*
X173535000Y-70700000D03*
X174805000Y-70700000D03*
X176075000Y-70700000D03*
X177345000Y-70700000D03*
X178615000Y-70700000D03*
X179885000Y-70700000D03*
X181155000Y-70700000D03*
X182425000Y-70700000D03*
X183695000Y-70700000D03*
X184965000Y-70700000D03*
X186235000Y-70700000D03*
D19*
X188000000Y-69450000D03*
X188000000Y-68180000D03*
X188000000Y-66910000D03*
X188000000Y-65640000D03*
X188000000Y-64370000D03*
X188000000Y-63100000D03*
X188000000Y-61830000D03*
X188000000Y-60560000D03*
X188000000Y-59290000D03*
X188000000Y-58020000D03*
X188000000Y-56750000D03*
X188000000Y-55480000D03*
X188000000Y-54210000D03*
X188000000Y-52940000D03*
D21*
X176350000Y-59260000D03*
X176350000Y-60660000D03*
X176350000Y-62060000D03*
X176350000Y-62060000D03*
X177750000Y-59260000D03*
X177750000Y-59260000D03*
X177750000Y-60660000D03*
X177750000Y-62060000D03*
X179150000Y-59260000D03*
X179150000Y-60660000D03*
X179150000Y-62060000D03*
D16*
X165500000Y-57087500D03*
X165500000Y-55012500D03*
D22*
X172612500Y-84700000D03*
X174687500Y-84700000D03*
D23*
X189250000Y-102000000D03*
X188750000Y-102000000D03*
X188250000Y-102000000D03*
X187750000Y-102000000D03*
X187250000Y-102000000D03*
X186750000Y-102000000D03*
X186250000Y-102000000D03*
X185750000Y-102000000D03*
X185250000Y-102000000D03*
X184750000Y-102000000D03*
X184250000Y-102000000D03*
X183750000Y-102000000D03*
X183250000Y-102000000D03*
X182750000Y-102000000D03*
X182250000Y-102000000D03*
X181750000Y-102000000D03*
X181250000Y-102000000D03*
X180750000Y-102000000D03*
X180250000Y-102000000D03*
X179750000Y-102000000D03*
X179250000Y-102000000D03*
X178750000Y-102000000D03*
X178250000Y-102000000D03*
X177750000Y-102000000D03*
X177250000Y-102000000D03*
X176750000Y-102000000D03*
X176250000Y-102000000D03*
X175750000Y-102000000D03*
X175250000Y-102000000D03*
X174750000Y-102000000D03*
D24*
X190250000Y-99500000D03*
X173750000Y-99500000D03*
D25*
X171450000Y-82350000D03*
X171450000Y-80350000D03*
D26*
X168850000Y-84000000D03*
X168850000Y-81600000D03*
D27*
X173450000Y-111950000D03*
X191450000Y-111950000D03*
D28*
X172450000Y-121770000D03*
X192450000Y-121770000D03*
M02*
