M48
; DRILL file {KiCad 7.0.10} date Sat Feb 24 15:32:42 2024
; FORMAT={-:-/ absolute / metric / decimal}
; #@! TF.CreationDate,2024-02-24T15:32:42-05:00
; #@! TF.GenerationSoftware,Kicad,Pcbnew,7.0.10
; #@! TF.FileFunction,Plated,1,2,PTH
FMAT,2
METRIC
; #@! TA.AperFunction,Plated,PTH,ViaDrill
T1C0.400
; #@! TA.AperFunction,Plated,PTH,ComponentDrill
T2C0.600
%
G90
G05
T1
X163.892Y-53.408
X167.361Y-56.162
X169.091Y-90.424
X169.091Y-105.869
X171.186Y-93.541
X172.043Y-94.394
X172.077Y-58.92
X172.552Y-92.556
X172.602Y-101.977
X172.838Y-124.157
X174.811Y-68.322
X174.823Y-62.892
X174.824Y-61.757
X174.825Y-72.783
X174.828Y-64.026
X175.154Y-58.548
X175.297Y-92.764
X175.428Y-66.563
X175.647Y-72.162
X176.798Y-100.982
X176.847Y-72.749
X177.273Y-75.906
X177.48Y-62.141
X177.506Y-105.975
X178.88Y-103.044
X180.131Y-82.741
X180.3Y-103.032
X180.773Y-78.117
X180.858Y-83.431
X181.526Y-84.181
X181.565Y-72.786
X182.076Y-75.587
X182.803Y-79.925
X182.913Y-77.794
X183.752Y-76.56
X183.863Y-78.862
X184.893Y-76.114
X185.219Y-128.846
X185.374Y-71.954
X186.002Y-97.828
X186.083Y-72.662
X186.505Y-96.616
X187.195Y-72.739
X187.55Y-78.655
X192.464Y-121.768
X193.095Y-112.963
X193.75Y-106.775
T2
X175.105Y-88.38G85X174.105Y-88.38
G05
X175.105Y-97.6G85X174.105Y-97.6
G05
X179.605Y-88.38G85X178.605Y-88.38
G05
X179.605Y-97.6G85X178.605Y-97.6
G05
M30
