G04 #@! TF.GenerationSoftware,KiCad,Pcbnew,7.0.10*
G04 #@! TF.CreationDate,2024-02-24T15:32:32-05:00*
G04 #@! TF.ProjectId,Bird3Controller,42697264-3343-46f6-9e74-726f6c6c6572,rev?*
G04 #@! TF.SameCoordinates,Original*
G04 #@! TF.FileFunction,Profile,NP*
%FSLAX46Y46*%
G04 Gerber Fmt 4.6, Leading zero omitted, Abs format (unit mm)*
G04 Created by KiCad (PCBNEW 7.0.10) date 2024-02-24 15:32:32*
%MOMM*%
%LPD*%
G01*
G04 APERTURE LIST*
G04 #@! TA.AperFunction,Profile*
%ADD10C,0.100000*%
G04 #@! TD*
G04 APERTURE END LIST*
D10*
X160500000Y-148000000D02*
X160500000Y-115950000D01*
X203500000Y-115950000D02*
G75*
G03*
X203250000Y-115700000I-250000J0D01*
G01*
X203250000Y-88700000D02*
X202200000Y-88700000D01*
X202200000Y-94700000D02*
X203250000Y-94700000D01*
X203500000Y-94950000D02*
G75*
G03*
X203250000Y-94700000I-250000J0D01*
G01*
X165000000Y-83500000D02*
G75*
G03*
X162000000Y-83500000I-1500000J0D01*
G01*
X162000000Y-83500000D02*
G75*
G03*
X165000000Y-83500000I1500000J0D01*
G01*
X201500000Y-42000000D02*
X162500000Y-42000000D01*
X200200000Y-138600000D02*
G75*
G03*
X198400000Y-138600000I-900000J0D01*
G01*
X198400000Y-138600000D02*
G75*
G03*
X200200000Y-138600000I900000J0D01*
G01*
X162500000Y-42000000D02*
G75*
G03*
X160500000Y-44000000I0J-2000000D01*
G01*
X202200000Y-109700000D02*
X202200000Y-115700000D01*
X160500000Y-109450000D02*
X160500000Y-94950000D01*
X203500000Y-94950000D02*
X203500000Y-109450000D01*
X203250000Y-109700000D02*
G75*
G03*
X203500000Y-109450000I0J250000D01*
G01*
X161800000Y-94700000D02*
X161800000Y-88700000D01*
X203250000Y-109700000D02*
X202200000Y-109700000D01*
X160500000Y-88450000D02*
X160500000Y-44000000D01*
X202200000Y-88700000D02*
X202200000Y-94700000D01*
X203500000Y-44000000D02*
G75*
G03*
X201500000Y-42000000I-2000000J0D01*
G01*
X160500000Y-88450000D02*
G75*
G03*
X160750000Y-88700000I250000J0D01*
G01*
X161800000Y-109700000D02*
X160750000Y-109700000D01*
X160750000Y-115700000D02*
G75*
G03*
X160500000Y-115950000I0J-250000D01*
G01*
X203250000Y-88700000D02*
G75*
G03*
X203500000Y-88450000I0J250000D01*
G01*
X203500000Y-44000000D02*
X203500000Y-88450000D01*
X201500000Y-150000000D02*
G75*
G03*
X203500000Y-148000000I0J2000000D01*
G01*
X165000000Y-145200000D02*
G75*
G03*
X162000000Y-145200000I-1500000J0D01*
G01*
X162000000Y-145200000D02*
G75*
G03*
X165000000Y-145200000I1500000J0D01*
G01*
X160750000Y-94700000D02*
G75*
G03*
X160500000Y-94950000I0J-250000D01*
G01*
X201500000Y-150000000D02*
X162500000Y-150000000D01*
X164400000Y-51700000D02*
G75*
G03*
X162600000Y-51700000I-900000J0D01*
G01*
X162600000Y-51700000D02*
G75*
G03*
X164400000Y-51700000I900000J0D01*
G01*
X203500000Y-115950000D02*
X203500000Y-148000000D01*
X202200000Y-115700000D02*
X203250000Y-115700000D01*
X160500000Y-148000000D02*
G75*
G03*
X162500000Y-150000000I2000000J0D01*
G01*
X160750000Y-94700000D02*
X161800000Y-94700000D01*
X202000000Y-46700000D02*
G75*
G03*
X199000000Y-46700000I-1500000J0D01*
G01*
X199000000Y-46700000D02*
G75*
G03*
X202000000Y-46700000I1500000J0D01*
G01*
X160750000Y-115700000D02*
X161800000Y-115700000D01*
X160500000Y-109450000D02*
G75*
G03*
X160750000Y-109700000I250000J0D01*
G01*
X202000000Y-145200000D02*
G75*
G03*
X199000000Y-145200000I-1500000J0D01*
G01*
X199000000Y-145200000D02*
G75*
G03*
X202000000Y-145200000I1500000J0D01*
G01*
X161800000Y-88700000D02*
X160750000Y-88700000D01*
X202000000Y-83500000D02*
G75*
G03*
X199000000Y-83500000I-1500000J0D01*
G01*
X199000000Y-83500000D02*
G75*
G03*
X202000000Y-83500000I1500000J0D01*
G01*
X165000000Y-46700000D02*
G75*
G03*
X162000000Y-46700000I-1500000J0D01*
G01*
X162000000Y-46700000D02*
G75*
G03*
X165000000Y-46700000I1500000J0D01*
G01*
X161800000Y-115700000D02*
X161800000Y-109700000D01*
M02*
