%TF.GenerationSoftware,KiCad,Pcbnew,8.0.1*%
%TF.CreationDate,2024-03-30T15:34:31-04:00*%
%TF.ProjectId,Bird3Controller,42697264-3343-46f6-9e74-726f6c6c6572,rev?*%
%TF.SameCoordinates,Original*%
%TF.FileFunction,Drillmap*%
%TF.FilePolarity,Positive*%
%FSLAX45Y45*%
G04 Gerber Fmt 4.5, Leading zero omitted, Abs format (unit mm)*
G04 Created by KiCad (PCBNEW 8.0.1) date 2024-03-30 15:34:31*
%MOMM*%
%LPD*%
G01*
G04 APERTURE LIST*
%ADD10C,0.100000*%
%ADD11C,0.200000*%
G04 APERTURE END LIST*
D10*
X16050000Y-8845000D02*
X16050000Y-4400000D01*
X16490000Y-8320000D02*
G75*
G02*
X16190000Y-8320000I-150000J0D01*
G01*
X16190000Y-8320000D02*
G75*
G02*
X16490000Y-8320000I150000J0D01*
G01*
X20150000Y-4200000D02*
X16250000Y-4200000D01*
X20020000Y-13860000D02*
G75*
G02*
X19840000Y-13860000I-90000J0D01*
G01*
X19840000Y-13860000D02*
G75*
G02*
X20020000Y-13860000I90000J0D01*
G01*
X16050000Y-4400000D02*
G75*
G02*
X16250000Y-4200000I200000J0D01*
G01*
X16050000Y-14800000D02*
X16050000Y-11595000D01*
X20150000Y-4200000D02*
G75*
G02*
X20350000Y-4400000I0J-200000D01*
G01*
X20350000Y-11595000D02*
X20350000Y-14800000D01*
X20350000Y-4400000D02*
X20350000Y-8845000D01*
X20350000Y-14800000D02*
G75*
G02*
X20150000Y-15000000I-200000J0D01*
G01*
X16500000Y-14520000D02*
G75*
G02*
X16200000Y-14520000I-150000J0D01*
G01*
X16200000Y-14520000D02*
G75*
G02*
X16500000Y-14520000I150000J0D01*
G01*
X20150000Y-15000000D02*
X16250000Y-15000000D01*
X16440000Y-5170000D02*
G75*
G02*
X16260000Y-5170000I-90000J0D01*
G01*
X16260000Y-5170000D02*
G75*
G02*
X16440000Y-5170000I90000J0D01*
G01*
X16050000Y-10945000D02*
X16050000Y-9495000D01*
X16250000Y-15000000D02*
G75*
G02*
X16050000Y-14800000I0J200000D01*
G01*
X20200000Y-4670000D02*
G75*
G02*
X19900000Y-4670000I-150000J0D01*
G01*
X19900000Y-4670000D02*
G75*
G02*
X20200000Y-4670000I150000J0D01*
G01*
X20350000Y-9495000D02*
X20350000Y-10945000D01*
X20200000Y-14520000D02*
G75*
G02*
X19900000Y-14520000I-150000J0D01*
G01*
X19900000Y-14520000D02*
G75*
G02*
X20200000Y-14520000I150000J0D01*
G01*
X20200000Y-8320000D02*
G75*
G02*
X19900000Y-8320000I-150000J0D01*
G01*
X19900000Y-8320000D02*
G75*
G02*
X20200000Y-8320000I150000J0D01*
G01*
X16500000Y-4670000D02*
G75*
G02*
X16200000Y-4670000I-150000J0D01*
G01*
X16200000Y-4670000D02*
G75*
G02*
X16500000Y-4670000I150000J0D01*
G01*
X16075000Y-9470000D02*
X16200000Y-9470000D01*
X16075000Y-11570000D02*
X16200000Y-11570000D01*
X16200000Y-8870000D02*
X16075000Y-8870000D01*
X16200000Y-9470000D02*
X16200000Y-8870000D01*
X16200000Y-10970000D02*
X16075000Y-10970000D01*
X16200000Y-11570000D02*
X16200000Y-10970000D01*
X20200000Y-8870000D02*
X20200000Y-9470000D01*
X20200000Y-9470000D02*
X20325000Y-9470000D01*
X20200000Y-10970000D02*
X20200000Y-11570000D01*
X20200000Y-11570000D02*
X20325000Y-11570000D01*
X20325000Y-8870000D02*
X20200000Y-8870000D01*
X20325000Y-10970000D02*
X20200000Y-10970000D01*
X16050000Y-9495000D02*
G75*
G02*
X16075000Y-9470000I25000J0D01*
G01*
X16050000Y-11595000D02*
G75*
G02*
X16075000Y-11570000I25000J0D01*
G01*
X16075000Y-8870000D02*
G75*
G02*
X16050000Y-8845000I0J25000D01*
G01*
X16075000Y-10970000D02*
G75*
G02*
X16050000Y-10945000I0J25000D01*
G01*
X20325000Y-9470000D02*
G75*
G02*
X20350000Y-9495000I0J-25000D01*
G01*
X20325000Y-11570000D02*
G75*
G02*
X20350000Y-11595000I0J-25000D01*
G01*
X20350000Y-8845000D02*
G75*
G02*
X20325000Y-8870000I-25000J0D01*
G01*
X20350000Y-10945000D02*
G75*
G02*
X20325000Y-10970000I-25000J0D01*
G01*
X16400000Y-10710000D02*
G75*
G02*
X16200000Y-10710000I-100000J0D01*
G01*
X16200000Y-10710000D02*
G75*
G02*
X16400000Y-10710000I100000J0D01*
G01*
X20200000Y-9680000D02*
G75*
G02*
X20000000Y-9680000I-100000J0D01*
G01*
X20000000Y-9680000D02*
G75*
G02*
X20200000Y-9680000I100000J0D01*
G01*
D11*
D10*
X16170000Y-4315000D02*
X16210000Y-4355000D01*
X16210000Y-4315000D02*
X16170000Y-4355000D01*
X16170000Y-14835000D02*
X16210000Y-14875000D01*
X16210000Y-14835000D02*
X16170000Y-14875000D01*
X16615729Y-7309271D02*
X16655729Y-7349271D01*
X16655729Y-7309271D02*
X16615729Y-7349271D01*
X16635000Y-12205000D02*
X16675000Y-12245000D01*
X16675000Y-12205000D02*
X16635000Y-12245000D01*
X16651600Y-8010000D02*
X16691600Y-8050000D01*
X16691600Y-8010000D02*
X16651600Y-8050000D01*
X16660000Y-5890000D02*
X16700000Y-5930000D01*
X16700000Y-5890000D02*
X16660000Y-5930000D01*
X16715000Y-6665000D02*
X16755000Y-6705000D01*
X16755000Y-6665000D02*
X16715000Y-6705000D01*
X16715000Y-7190000D02*
X16755000Y-7230000D01*
X16755000Y-7190000D02*
X16715000Y-7230000D01*
X16726700Y-6544000D02*
X16766700Y-6584000D01*
X16766700Y-6544000D02*
X16726700Y-6584000D01*
X16751600Y-8010000D02*
X16791600Y-8050000D01*
X16791600Y-8010000D02*
X16751600Y-8050000D01*
X16824100Y-9585000D02*
X16864100Y-9625000D01*
X16864100Y-9585000D02*
X16824100Y-9625000D01*
X16840000Y-10935000D02*
X16880000Y-10975000D01*
X16880000Y-10935000D02*
X16840000Y-10975000D01*
X16870000Y-8590000D02*
X16910000Y-8630000D01*
X16910000Y-8590000D02*
X16870000Y-8630000D01*
X16893200Y-5892750D02*
X16933200Y-5932750D01*
X16933200Y-5892750D02*
X16893200Y-5932750D01*
X16922300Y-7197500D02*
X16962300Y-7237500D01*
X16962300Y-7197500D02*
X16922300Y-7237500D01*
X16940000Y-8010000D02*
X16980000Y-8050000D01*
X16980000Y-8010000D02*
X16940000Y-8050000D01*
X16940800Y-12088200D02*
X16980800Y-12128200D01*
X16980800Y-12088200D02*
X16940800Y-12128200D01*
X16950000Y-12615000D02*
X16990000Y-12655000D01*
X16990000Y-12615000D02*
X16950000Y-12655000D01*
X17075000Y-11565223D02*
X17115000Y-11605223D01*
X17115000Y-11565223D02*
X17075000Y-11605223D01*
X17125000Y-7665860D02*
X17165000Y-7705860D01*
X17165000Y-7665860D02*
X17125000Y-7705860D01*
X17125000Y-11675000D02*
X17165000Y-11715000D01*
X17165000Y-11675000D02*
X17125000Y-11715000D01*
X17195000Y-5195000D02*
X17235000Y-5235000D01*
X17235000Y-5195000D02*
X17195000Y-5235000D01*
X17195000Y-5530000D02*
X17235000Y-5570000D01*
X17235000Y-5530000D02*
X17195000Y-5570000D01*
X17195000Y-5720000D02*
X17235000Y-5760000D01*
X17235000Y-5720000D02*
X17195000Y-5760000D01*
X17195000Y-6175000D02*
X17235000Y-6215000D01*
X17235000Y-6175000D02*
X17195000Y-6215000D01*
X17200000Y-6670000D02*
X17240000Y-6710000D01*
X17240000Y-6670000D02*
X17200000Y-6710000D01*
X17218393Y-8731238D02*
X17258393Y-8771238D01*
X17258393Y-8731238D02*
X17218393Y-8771238D01*
X17220000Y-9675000D02*
X17260000Y-9715000D01*
X17260000Y-9675000D02*
X17220000Y-9715000D01*
X17231343Y-11675000D02*
X17271343Y-11715000D01*
X17271343Y-11675000D02*
X17231343Y-11715000D01*
X17241200Y-8300000D02*
X17281200Y-8340000D01*
X17281200Y-8300000D02*
X17241200Y-8340000D01*
X17251250Y-6855000D02*
X17291250Y-6895000D01*
X17291250Y-6855000D02*
X17251250Y-6895000D01*
X17330000Y-10940000D02*
X17370000Y-10980000D01*
X17370000Y-10940000D02*
X17330000Y-10980000D01*
X17331300Y-11675000D02*
X17371300Y-11715000D01*
X17371300Y-11675000D02*
X17331300Y-11715000D01*
X17335000Y-7490000D02*
X17375000Y-7530000D01*
X17375000Y-7490000D02*
X17335000Y-7530000D01*
X17358472Y-8696750D02*
X17398472Y-8736750D01*
X17398472Y-8696750D02*
X17358472Y-8736750D01*
X17370000Y-6865000D02*
X17410000Y-6905000D01*
X17410000Y-6865000D02*
X17370000Y-6905000D01*
X17407800Y-6532300D02*
X17447800Y-6572300D01*
X17447800Y-6532300D02*
X17407800Y-6572300D01*
X17418000Y-8797900D02*
X17458000Y-8837900D01*
X17458000Y-8797900D02*
X17418000Y-8837900D01*
X17430000Y-12610000D02*
X17470000Y-12650000D01*
X17470000Y-12610000D02*
X17430000Y-12650000D01*
X17492200Y-8300820D02*
X17532200Y-8340820D01*
X17532200Y-8300820D02*
X17492200Y-8340820D01*
X17505000Y-10025000D02*
X17545000Y-10065000D01*
X17545000Y-10025000D02*
X17505000Y-10065000D01*
X17520000Y-10765000D02*
X17560000Y-10805000D01*
X17560000Y-10765000D02*
X17520000Y-10805000D01*
X17540000Y-14150000D02*
X17580000Y-14190000D01*
X17580000Y-14150000D02*
X17540000Y-14190000D01*
X17545000Y-6865000D02*
X17585000Y-6905000D01*
X17585000Y-6865000D02*
X17545000Y-6905000D01*
X17585000Y-7300000D02*
X17625000Y-7340000D01*
X17625000Y-7300000D02*
X17585000Y-7340000D01*
X17621000Y-10765000D02*
X17661000Y-10805000D01*
X17661000Y-10765000D02*
X17621000Y-10805000D01*
X17640000Y-11675000D02*
X17680000Y-11715000D01*
X17680000Y-11675000D02*
X17640000Y-11715000D01*
X17675000Y-8300000D02*
X17715000Y-8340000D01*
X17715000Y-8300000D02*
X17675000Y-8340000D01*
X17685000Y-5975000D02*
X17725000Y-6015000D01*
X17725000Y-5975000D02*
X17685000Y-6015000D01*
X17685000Y-9585000D02*
X17725000Y-9625000D01*
X17725000Y-9585000D02*
X17685000Y-9625000D01*
X17690000Y-6115000D02*
X17730000Y-6155000D01*
X17730000Y-6115000D02*
X17690000Y-6155000D01*
X17730000Y-8793450D02*
X17770000Y-8833450D01*
X17770000Y-8793450D02*
X17730000Y-8833450D01*
X17759400Y-9890000D02*
X17799400Y-9930000D01*
X17799400Y-9890000D02*
X17759400Y-9930000D01*
X17812100Y-11175000D02*
X17852100Y-11215000D01*
X17852100Y-11175000D02*
X17812100Y-11215000D01*
X17825000Y-5975000D02*
X17865000Y-6015000D01*
X17865000Y-5975000D02*
X17825000Y-6015000D01*
X17825000Y-6115000D02*
X17865000Y-6155000D01*
X17865000Y-6115000D02*
X17825000Y-6155000D01*
X17831900Y-10000300D02*
X17871900Y-10040300D01*
X17871900Y-10000300D02*
X17831900Y-10040300D01*
X17875000Y-5195000D02*
X17915000Y-5235000D01*
X17915000Y-5195000D02*
X17875000Y-5235000D01*
X17875000Y-6865000D02*
X17915000Y-6905000D01*
X17915000Y-6865000D02*
X17875000Y-6905000D01*
X17900000Y-7885000D02*
X17940000Y-7925000D01*
X17940000Y-7885000D02*
X17900000Y-7925000D01*
X17970000Y-11175000D02*
X18010000Y-11215000D01*
X18010000Y-11175000D02*
X17970000Y-11215000D01*
X17996772Y-8696750D02*
X18036772Y-8736750D01*
X18036772Y-8696750D02*
X17996772Y-8736750D01*
X18060000Y-10515000D02*
X18100000Y-10555000D01*
X18100000Y-10515000D02*
X18060000Y-10555000D01*
X18071000Y-14084800D02*
X18111000Y-14124800D01*
X18111000Y-14084800D02*
X18071000Y-14124800D01*
X18080000Y-10053400D02*
X18120000Y-10093400D01*
X18120000Y-10053400D02*
X18080000Y-10093400D01*
X18135100Y-7226420D02*
X18175100Y-7266420D01*
X18175100Y-7226420D02*
X18135100Y-7266420D01*
X18450000Y-13050000D02*
X18490000Y-13090000D01*
X18490000Y-13050000D02*
X18450000Y-13090000D01*
X18570000Y-5195000D02*
X18610000Y-5235000D01*
X18610000Y-5195000D02*
X18570000Y-5235000D01*
X18570000Y-5675000D02*
X18610000Y-5715000D01*
X18610000Y-5675000D02*
X18570000Y-5715000D01*
X18570000Y-6175000D02*
X18610000Y-6215000D01*
X18610000Y-6175000D02*
X18570000Y-6215000D01*
X18570000Y-6860000D02*
X18610000Y-6900000D01*
X18610000Y-6860000D02*
X18570000Y-6900000D01*
X18630000Y-10740000D02*
X18670000Y-10780000D01*
X18670000Y-10740000D02*
X18630000Y-10780000D01*
X18643500Y-6626530D02*
X18683500Y-6666530D01*
X18683500Y-6626530D02*
X18643500Y-6666530D01*
X18686200Y-11672700D02*
X18726200Y-11712700D01*
X18726200Y-11672700D02*
X18686200Y-11712700D01*
X18730000Y-10315000D02*
X18770000Y-10355000D01*
X18770000Y-10315000D02*
X18730000Y-10355000D01*
X18775000Y-12815000D02*
X18815000Y-12855000D01*
X18815000Y-12815000D02*
X18775000Y-12855000D01*
X18800000Y-9220000D02*
X18840000Y-9260000D01*
X18840000Y-9220000D02*
X18800000Y-9260000D01*
X18905000Y-9760000D02*
X18945000Y-9800000D01*
X18945000Y-9760000D02*
X18905000Y-9800000D01*
X18985000Y-7520000D02*
X19025000Y-7560000D01*
X19025000Y-7520000D02*
X18985000Y-7560000D01*
X18985000Y-7750000D02*
X19025000Y-7790000D01*
X19025000Y-7750000D02*
X18985000Y-7790000D01*
X18985000Y-8015000D02*
X19025000Y-8055000D01*
X19025000Y-8015000D02*
X18985000Y-8055000D01*
X18985000Y-8425000D02*
X19025000Y-8465000D01*
X19025000Y-8425000D02*
X18985000Y-8465000D01*
X18985000Y-8665000D02*
X19025000Y-8705000D01*
X19025000Y-8665000D02*
X18985000Y-8705000D01*
X18985000Y-8965000D02*
X19025000Y-9005000D01*
X19025000Y-8965000D02*
X18985000Y-9005000D01*
X19127361Y-9592991D02*
X19167361Y-9632991D01*
X19167361Y-9592991D02*
X19127361Y-9632991D01*
X19140000Y-10460000D02*
X19180000Y-10500000D01*
X19180000Y-10460000D02*
X19140000Y-10500000D01*
X19155370Y-7310000D02*
X19195370Y-7350000D01*
X19195370Y-7310000D02*
X19155370Y-7350000D01*
X19260000Y-7885000D02*
X19300000Y-7925000D01*
X19300000Y-7885000D02*
X19260000Y-7925000D01*
X19345000Y-10585000D02*
X19385000Y-10625000D01*
X19385000Y-10585000D02*
X19345000Y-10625000D01*
X19705800Y-4911830D02*
X19745800Y-4951830D01*
X19745800Y-4911830D02*
X19705800Y-4951830D01*
X20180000Y-4325000D02*
X20220000Y-4365000D01*
X20220000Y-4325000D02*
X20180000Y-4365000D01*
X20180000Y-14835000D02*
X20220000Y-14875000D01*
X20220000Y-14835000D02*
X20180000Y-14875000D01*
X19600000Y-7025000D02*
G75*
G02*
X19500000Y-7025000I-50000J0D01*
G01*
X19500000Y-7025000D02*
G75*
G02*
X19600000Y-7025000I50000J0D01*
G01*
X19600000Y-7279000D02*
G75*
G02*
X19500000Y-7279000I-50000J0D01*
G01*
X19500000Y-7279000D02*
G75*
G02*
X19600000Y-7279000I50000J0D01*
G01*
X19600000Y-7533000D02*
G75*
G02*
X19500000Y-7533000I-50000J0D01*
G01*
X19500000Y-7533000D02*
G75*
G02*
X19600000Y-7533000I50000J0D01*
G01*
X19600000Y-7787000D02*
G75*
G02*
X19500000Y-7787000I-50000J0D01*
G01*
X19500000Y-7787000D02*
G75*
G02*
X19600000Y-7787000I50000J0D01*
G01*
X19600000Y-8041000D02*
G75*
G02*
X19500000Y-8041000I-50000J0D01*
G01*
X19500000Y-8041000D02*
G75*
G02*
X19600000Y-8041000I50000J0D01*
G01*
X19600000Y-8295000D02*
G75*
G02*
X19500000Y-8295000I-50000J0D01*
G01*
X19500000Y-8295000D02*
G75*
G02*
X19600000Y-8295000I50000J0D01*
G01*
X19600000Y-8549000D02*
G75*
G02*
X19500000Y-8549000I-50000J0D01*
G01*
X19500000Y-8549000D02*
G75*
G02*
X19600000Y-8549000I50000J0D01*
G01*
X19600000Y-8803000D02*
G75*
G02*
X19500000Y-8803000I-50000J0D01*
G01*
X19500000Y-8803000D02*
G75*
G02*
X19600000Y-8803000I50000J0D01*
G01*
D11*
X16305777Y-15316484D02*
X16305777Y-15116484D01*
X16305777Y-15116484D02*
X16353396Y-15116484D01*
X16353396Y-15116484D02*
X16381967Y-15126008D01*
X16381967Y-15126008D02*
X16401015Y-15145055D01*
X16401015Y-15145055D02*
X16410539Y-15164103D01*
X16410539Y-15164103D02*
X16420062Y-15202198D01*
X16420062Y-15202198D02*
X16420062Y-15230769D01*
X16420062Y-15230769D02*
X16410539Y-15268865D01*
X16410539Y-15268865D02*
X16401015Y-15287912D01*
X16401015Y-15287912D02*
X16381967Y-15306960D01*
X16381967Y-15306960D02*
X16353396Y-15316484D01*
X16353396Y-15316484D02*
X16305777Y-15316484D01*
X16505777Y-15316484D02*
X16505777Y-15183150D01*
X16505777Y-15221246D02*
X16515301Y-15202198D01*
X16515301Y-15202198D02*
X16524824Y-15192674D01*
X16524824Y-15192674D02*
X16543872Y-15183150D01*
X16543872Y-15183150D02*
X16562920Y-15183150D01*
X16629586Y-15316484D02*
X16629586Y-15183150D01*
X16629586Y-15116484D02*
X16620062Y-15126008D01*
X16620062Y-15126008D02*
X16629586Y-15135531D01*
X16629586Y-15135531D02*
X16639110Y-15126008D01*
X16639110Y-15126008D02*
X16629586Y-15116484D01*
X16629586Y-15116484D02*
X16629586Y-15135531D01*
X16753396Y-15316484D02*
X16734348Y-15306960D01*
X16734348Y-15306960D02*
X16724824Y-15287912D01*
X16724824Y-15287912D02*
X16724824Y-15116484D01*
X16858158Y-15316484D02*
X16839110Y-15306960D01*
X16839110Y-15306960D02*
X16829586Y-15287912D01*
X16829586Y-15287912D02*
X16829586Y-15116484D01*
X17086729Y-15316484D02*
X17086729Y-15116484D01*
X17086729Y-15116484D02*
X17153396Y-15259341D01*
X17153396Y-15259341D02*
X17220063Y-15116484D01*
X17220063Y-15116484D02*
X17220063Y-15316484D01*
X17401015Y-15316484D02*
X17401015Y-15211722D01*
X17401015Y-15211722D02*
X17391491Y-15192674D01*
X17391491Y-15192674D02*
X17372444Y-15183150D01*
X17372444Y-15183150D02*
X17334348Y-15183150D01*
X17334348Y-15183150D02*
X17315301Y-15192674D01*
X17401015Y-15306960D02*
X17381967Y-15316484D01*
X17381967Y-15316484D02*
X17334348Y-15316484D01*
X17334348Y-15316484D02*
X17315301Y-15306960D01*
X17315301Y-15306960D02*
X17305777Y-15287912D01*
X17305777Y-15287912D02*
X17305777Y-15268865D01*
X17305777Y-15268865D02*
X17315301Y-15249817D01*
X17315301Y-15249817D02*
X17334348Y-15240293D01*
X17334348Y-15240293D02*
X17381967Y-15240293D01*
X17381967Y-15240293D02*
X17401015Y-15230769D01*
X17496253Y-15183150D02*
X17496253Y-15383150D01*
X17496253Y-15192674D02*
X17515301Y-15183150D01*
X17515301Y-15183150D02*
X17553396Y-15183150D01*
X17553396Y-15183150D02*
X17572444Y-15192674D01*
X17572444Y-15192674D02*
X17581967Y-15202198D01*
X17581967Y-15202198D02*
X17591491Y-15221246D01*
X17591491Y-15221246D02*
X17591491Y-15278388D01*
X17591491Y-15278388D02*
X17581967Y-15297436D01*
X17581967Y-15297436D02*
X17572444Y-15306960D01*
X17572444Y-15306960D02*
X17553396Y-15316484D01*
X17553396Y-15316484D02*
X17515301Y-15316484D01*
X17515301Y-15316484D02*
X17496253Y-15306960D01*
X17677205Y-15297436D02*
X17686729Y-15306960D01*
X17686729Y-15306960D02*
X17677205Y-15316484D01*
X17677205Y-15316484D02*
X17667682Y-15306960D01*
X17667682Y-15306960D02*
X17677205Y-15297436D01*
X17677205Y-15297436D02*
X17677205Y-15316484D01*
X17677205Y-15192674D02*
X17686729Y-15202198D01*
X17686729Y-15202198D02*
X17677205Y-15211722D01*
X17677205Y-15211722D02*
X17667682Y-15202198D01*
X17667682Y-15202198D02*
X17677205Y-15192674D01*
X17677205Y-15192674D02*
X17677205Y-15211722D01*
D10*
X16005000Y-15625000D02*
X16045000Y-15665000D01*
X16045000Y-15625000D02*
X16005000Y-15665000D01*
D11*
X16343872Y-15536484D02*
X16362920Y-15536484D01*
X16362920Y-15536484D02*
X16381967Y-15546008D01*
X16381967Y-15546008D02*
X16391491Y-15555531D01*
X16391491Y-15555531D02*
X16401015Y-15574579D01*
X16401015Y-15574579D02*
X16410539Y-15612674D01*
X16410539Y-15612674D02*
X16410539Y-15660293D01*
X16410539Y-15660293D02*
X16401015Y-15698388D01*
X16401015Y-15698388D02*
X16391491Y-15717436D01*
X16391491Y-15717436D02*
X16381967Y-15726960D01*
X16381967Y-15726960D02*
X16362920Y-15736484D01*
X16362920Y-15736484D02*
X16343872Y-15736484D01*
X16343872Y-15736484D02*
X16324824Y-15726960D01*
X16324824Y-15726960D02*
X16315301Y-15717436D01*
X16315301Y-15717436D02*
X16305777Y-15698388D01*
X16305777Y-15698388D02*
X16296253Y-15660293D01*
X16296253Y-15660293D02*
X16296253Y-15612674D01*
X16296253Y-15612674D02*
X16305777Y-15574579D01*
X16305777Y-15574579D02*
X16315301Y-15555531D01*
X16315301Y-15555531D02*
X16324824Y-15546008D01*
X16324824Y-15546008D02*
X16343872Y-15536484D01*
X16496253Y-15717436D02*
X16505777Y-15726960D01*
X16505777Y-15726960D02*
X16496253Y-15736484D01*
X16496253Y-15736484D02*
X16486729Y-15726960D01*
X16486729Y-15726960D02*
X16496253Y-15717436D01*
X16496253Y-15717436D02*
X16496253Y-15736484D01*
X16677205Y-15603150D02*
X16677205Y-15736484D01*
X16629586Y-15526960D02*
X16581967Y-15669817D01*
X16581967Y-15669817D02*
X16705777Y-15669817D01*
X16820063Y-15536484D02*
X16839110Y-15536484D01*
X16839110Y-15536484D02*
X16858158Y-15546008D01*
X16858158Y-15546008D02*
X16867682Y-15555531D01*
X16867682Y-15555531D02*
X16877205Y-15574579D01*
X16877205Y-15574579D02*
X16886729Y-15612674D01*
X16886729Y-15612674D02*
X16886729Y-15660293D01*
X16886729Y-15660293D02*
X16877205Y-15698388D01*
X16877205Y-15698388D02*
X16867682Y-15717436D01*
X16867682Y-15717436D02*
X16858158Y-15726960D01*
X16858158Y-15726960D02*
X16839110Y-15736484D01*
X16839110Y-15736484D02*
X16820063Y-15736484D01*
X16820063Y-15736484D02*
X16801015Y-15726960D01*
X16801015Y-15726960D02*
X16791491Y-15717436D01*
X16791491Y-15717436D02*
X16781967Y-15698388D01*
X16781967Y-15698388D02*
X16772443Y-15660293D01*
X16772443Y-15660293D02*
X16772443Y-15612674D01*
X16772443Y-15612674D02*
X16781967Y-15574579D01*
X16781967Y-15574579D02*
X16791491Y-15555531D01*
X16791491Y-15555531D02*
X16801015Y-15546008D01*
X16801015Y-15546008D02*
X16820063Y-15536484D01*
X17010539Y-15536484D02*
X17029586Y-15536484D01*
X17029586Y-15536484D02*
X17048634Y-15546008D01*
X17048634Y-15546008D02*
X17058158Y-15555531D01*
X17058158Y-15555531D02*
X17067682Y-15574579D01*
X17067682Y-15574579D02*
X17077205Y-15612674D01*
X17077205Y-15612674D02*
X17077205Y-15660293D01*
X17077205Y-15660293D02*
X17067682Y-15698388D01*
X17067682Y-15698388D02*
X17058158Y-15717436D01*
X17058158Y-15717436D02*
X17048634Y-15726960D01*
X17048634Y-15726960D02*
X17029586Y-15736484D01*
X17029586Y-15736484D02*
X17010539Y-15736484D01*
X17010539Y-15736484D02*
X16991491Y-15726960D01*
X16991491Y-15726960D02*
X16981967Y-15717436D01*
X16981967Y-15717436D02*
X16972444Y-15698388D01*
X16972444Y-15698388D02*
X16962920Y-15660293D01*
X16962920Y-15660293D02*
X16962920Y-15612674D01*
X16962920Y-15612674D02*
X16972444Y-15574579D01*
X16972444Y-15574579D02*
X16981967Y-15555531D01*
X16981967Y-15555531D02*
X16991491Y-15546008D01*
X16991491Y-15546008D02*
X17010539Y-15536484D01*
X17162920Y-15736484D02*
X17162920Y-15603150D01*
X17162920Y-15622198D02*
X17172444Y-15612674D01*
X17172444Y-15612674D02*
X17191491Y-15603150D01*
X17191491Y-15603150D02*
X17220063Y-15603150D01*
X17220063Y-15603150D02*
X17239110Y-15612674D01*
X17239110Y-15612674D02*
X17248634Y-15631722D01*
X17248634Y-15631722D02*
X17248634Y-15736484D01*
X17248634Y-15631722D02*
X17258158Y-15612674D01*
X17258158Y-15612674D02*
X17277205Y-15603150D01*
X17277205Y-15603150D02*
X17305777Y-15603150D01*
X17305777Y-15603150D02*
X17324825Y-15612674D01*
X17324825Y-15612674D02*
X17334348Y-15631722D01*
X17334348Y-15631722D02*
X17334348Y-15736484D01*
X17429586Y-15736484D02*
X17429586Y-15603150D01*
X17429586Y-15622198D02*
X17439110Y-15612674D01*
X17439110Y-15612674D02*
X17458158Y-15603150D01*
X17458158Y-15603150D02*
X17486729Y-15603150D01*
X17486729Y-15603150D02*
X17505777Y-15612674D01*
X17505777Y-15612674D02*
X17515301Y-15631722D01*
X17515301Y-15631722D02*
X17515301Y-15736484D01*
X17515301Y-15631722D02*
X17524825Y-15612674D01*
X17524825Y-15612674D02*
X17543872Y-15603150D01*
X17543872Y-15603150D02*
X17572444Y-15603150D01*
X17572444Y-15603150D02*
X17591491Y-15612674D01*
X17591491Y-15612674D02*
X17601015Y-15631722D01*
X17601015Y-15631722D02*
X17601015Y-15736484D01*
X17991491Y-15526960D02*
X17820063Y-15784103D01*
X18248634Y-15536484D02*
X18267682Y-15536484D01*
X18267682Y-15536484D02*
X18286729Y-15546008D01*
X18286729Y-15546008D02*
X18296253Y-15555531D01*
X18296253Y-15555531D02*
X18305777Y-15574579D01*
X18305777Y-15574579D02*
X18315301Y-15612674D01*
X18315301Y-15612674D02*
X18315301Y-15660293D01*
X18315301Y-15660293D02*
X18305777Y-15698388D01*
X18305777Y-15698388D02*
X18296253Y-15717436D01*
X18296253Y-15717436D02*
X18286729Y-15726960D01*
X18286729Y-15726960D02*
X18267682Y-15736484D01*
X18267682Y-15736484D02*
X18248634Y-15736484D01*
X18248634Y-15736484D02*
X18229587Y-15726960D01*
X18229587Y-15726960D02*
X18220063Y-15717436D01*
X18220063Y-15717436D02*
X18210539Y-15698388D01*
X18210539Y-15698388D02*
X18201015Y-15660293D01*
X18201015Y-15660293D02*
X18201015Y-15612674D01*
X18201015Y-15612674D02*
X18210539Y-15574579D01*
X18210539Y-15574579D02*
X18220063Y-15555531D01*
X18220063Y-15555531D02*
X18229587Y-15546008D01*
X18229587Y-15546008D02*
X18248634Y-15536484D01*
X18401015Y-15717436D02*
X18410539Y-15726960D01*
X18410539Y-15726960D02*
X18401015Y-15736484D01*
X18401015Y-15736484D02*
X18391491Y-15726960D01*
X18391491Y-15726960D02*
X18401015Y-15717436D01*
X18401015Y-15717436D02*
X18401015Y-15736484D01*
X18534348Y-15536484D02*
X18553396Y-15536484D01*
X18553396Y-15536484D02*
X18572444Y-15546008D01*
X18572444Y-15546008D02*
X18581968Y-15555531D01*
X18581968Y-15555531D02*
X18591491Y-15574579D01*
X18591491Y-15574579D02*
X18601015Y-15612674D01*
X18601015Y-15612674D02*
X18601015Y-15660293D01*
X18601015Y-15660293D02*
X18591491Y-15698388D01*
X18591491Y-15698388D02*
X18581968Y-15717436D01*
X18581968Y-15717436D02*
X18572444Y-15726960D01*
X18572444Y-15726960D02*
X18553396Y-15736484D01*
X18553396Y-15736484D02*
X18534348Y-15736484D01*
X18534348Y-15736484D02*
X18515301Y-15726960D01*
X18515301Y-15726960D02*
X18505777Y-15717436D01*
X18505777Y-15717436D02*
X18496253Y-15698388D01*
X18496253Y-15698388D02*
X18486729Y-15660293D01*
X18486729Y-15660293D02*
X18486729Y-15612674D01*
X18486729Y-15612674D02*
X18496253Y-15574579D01*
X18496253Y-15574579D02*
X18505777Y-15555531D01*
X18505777Y-15555531D02*
X18515301Y-15546008D01*
X18515301Y-15546008D02*
X18534348Y-15536484D01*
X18791491Y-15736484D02*
X18677206Y-15736484D01*
X18734348Y-15736484D02*
X18734348Y-15536484D01*
X18734348Y-15536484D02*
X18715301Y-15565055D01*
X18715301Y-15565055D02*
X18696253Y-15584103D01*
X18696253Y-15584103D02*
X18677206Y-15593627D01*
X18972444Y-15536484D02*
X18877206Y-15536484D01*
X18877206Y-15536484D02*
X18867682Y-15631722D01*
X18867682Y-15631722D02*
X18877206Y-15622198D01*
X18877206Y-15622198D02*
X18896253Y-15612674D01*
X18896253Y-15612674D02*
X18943872Y-15612674D01*
X18943872Y-15612674D02*
X18962920Y-15622198D01*
X18962920Y-15622198D02*
X18972444Y-15631722D01*
X18972444Y-15631722D02*
X18981968Y-15650769D01*
X18981968Y-15650769D02*
X18981968Y-15698388D01*
X18981968Y-15698388D02*
X18972444Y-15717436D01*
X18972444Y-15717436D02*
X18962920Y-15726960D01*
X18962920Y-15726960D02*
X18943872Y-15736484D01*
X18943872Y-15736484D02*
X18896253Y-15736484D01*
X18896253Y-15736484D02*
X18877206Y-15726960D01*
X18877206Y-15726960D02*
X18867682Y-15717436D01*
X19048634Y-15536484D02*
X19181968Y-15536484D01*
X19181968Y-15536484D02*
X19096253Y-15736484D01*
X19248634Y-15536484D02*
X19248634Y-15574579D01*
X19324825Y-15536484D02*
X19324825Y-15574579D01*
X19620063Y-15812674D02*
X19610539Y-15803150D01*
X19610539Y-15803150D02*
X19591491Y-15774579D01*
X19591491Y-15774579D02*
X19581968Y-15755531D01*
X19581968Y-15755531D02*
X19572444Y-15726960D01*
X19572444Y-15726960D02*
X19562920Y-15679341D01*
X19562920Y-15679341D02*
X19562920Y-15641246D01*
X19562920Y-15641246D02*
X19572444Y-15593627D01*
X19572444Y-15593627D02*
X19581968Y-15565055D01*
X19581968Y-15565055D02*
X19591491Y-15546008D01*
X19591491Y-15546008D02*
X19610539Y-15517436D01*
X19610539Y-15517436D02*
X19620063Y-15507912D01*
X19705777Y-15736484D02*
X19743872Y-15736484D01*
X19743872Y-15736484D02*
X19762920Y-15726960D01*
X19762920Y-15726960D02*
X19772444Y-15717436D01*
X19772444Y-15717436D02*
X19791491Y-15688865D01*
X19791491Y-15688865D02*
X19801015Y-15650769D01*
X19801015Y-15650769D02*
X19801015Y-15574579D01*
X19801015Y-15574579D02*
X19791491Y-15555531D01*
X19791491Y-15555531D02*
X19781968Y-15546008D01*
X19781968Y-15546008D02*
X19762920Y-15536484D01*
X19762920Y-15536484D02*
X19724825Y-15536484D01*
X19724825Y-15536484D02*
X19705777Y-15546008D01*
X19705777Y-15546008D02*
X19696253Y-15555531D01*
X19696253Y-15555531D02*
X19686730Y-15574579D01*
X19686730Y-15574579D02*
X19686730Y-15622198D01*
X19686730Y-15622198D02*
X19696253Y-15641246D01*
X19696253Y-15641246D02*
X19705777Y-15650769D01*
X19705777Y-15650769D02*
X19724825Y-15660293D01*
X19724825Y-15660293D02*
X19762920Y-15660293D01*
X19762920Y-15660293D02*
X19781968Y-15650769D01*
X19781968Y-15650769D02*
X19791491Y-15641246D01*
X19791491Y-15641246D02*
X19801015Y-15622198D01*
X19877206Y-15555531D02*
X19886730Y-15546008D01*
X19886730Y-15546008D02*
X19905777Y-15536484D01*
X19905777Y-15536484D02*
X19953396Y-15536484D01*
X19953396Y-15536484D02*
X19972444Y-15546008D01*
X19972444Y-15546008D02*
X19981968Y-15555531D01*
X19981968Y-15555531D02*
X19991491Y-15574579D01*
X19991491Y-15574579D02*
X19991491Y-15593627D01*
X19991491Y-15593627D02*
X19981968Y-15622198D01*
X19981968Y-15622198D02*
X19867682Y-15736484D01*
X19867682Y-15736484D02*
X19991491Y-15736484D01*
X20229587Y-15736484D02*
X20229587Y-15536484D01*
X20315301Y-15736484D02*
X20315301Y-15631722D01*
X20315301Y-15631722D02*
X20305777Y-15612674D01*
X20305777Y-15612674D02*
X20286730Y-15603150D01*
X20286730Y-15603150D02*
X20258158Y-15603150D01*
X20258158Y-15603150D02*
X20239111Y-15612674D01*
X20239111Y-15612674D02*
X20229587Y-15622198D01*
X20439111Y-15736484D02*
X20420063Y-15726960D01*
X20420063Y-15726960D02*
X20410539Y-15717436D01*
X20410539Y-15717436D02*
X20401015Y-15698388D01*
X20401015Y-15698388D02*
X20401015Y-15641246D01*
X20401015Y-15641246D02*
X20410539Y-15622198D01*
X20410539Y-15622198D02*
X20420063Y-15612674D01*
X20420063Y-15612674D02*
X20439111Y-15603150D01*
X20439111Y-15603150D02*
X20467682Y-15603150D01*
X20467682Y-15603150D02*
X20486730Y-15612674D01*
X20486730Y-15612674D02*
X20496253Y-15622198D01*
X20496253Y-15622198D02*
X20505777Y-15641246D01*
X20505777Y-15641246D02*
X20505777Y-15698388D01*
X20505777Y-15698388D02*
X20496253Y-15717436D01*
X20496253Y-15717436D02*
X20486730Y-15726960D01*
X20486730Y-15726960D02*
X20467682Y-15736484D01*
X20467682Y-15736484D02*
X20439111Y-15736484D01*
X20620063Y-15736484D02*
X20601015Y-15726960D01*
X20601015Y-15726960D02*
X20591492Y-15707912D01*
X20591492Y-15707912D02*
X20591492Y-15536484D01*
X20772444Y-15726960D02*
X20753396Y-15736484D01*
X20753396Y-15736484D02*
X20715301Y-15736484D01*
X20715301Y-15736484D02*
X20696253Y-15726960D01*
X20696253Y-15726960D02*
X20686730Y-15707912D01*
X20686730Y-15707912D02*
X20686730Y-15631722D01*
X20686730Y-15631722D02*
X20696253Y-15612674D01*
X20696253Y-15612674D02*
X20715301Y-15603150D01*
X20715301Y-15603150D02*
X20753396Y-15603150D01*
X20753396Y-15603150D02*
X20772444Y-15612674D01*
X20772444Y-15612674D02*
X20781968Y-15631722D01*
X20781968Y-15631722D02*
X20781968Y-15650769D01*
X20781968Y-15650769D02*
X20686730Y-15669817D01*
X20858158Y-15726960D02*
X20877206Y-15736484D01*
X20877206Y-15736484D02*
X20915301Y-15736484D01*
X20915301Y-15736484D02*
X20934349Y-15726960D01*
X20934349Y-15726960D02*
X20943873Y-15707912D01*
X20943873Y-15707912D02*
X20943873Y-15698388D01*
X20943873Y-15698388D02*
X20934349Y-15679341D01*
X20934349Y-15679341D02*
X20915301Y-15669817D01*
X20915301Y-15669817D02*
X20886730Y-15669817D01*
X20886730Y-15669817D02*
X20867682Y-15660293D01*
X20867682Y-15660293D02*
X20858158Y-15641246D01*
X20858158Y-15641246D02*
X20858158Y-15631722D01*
X20858158Y-15631722D02*
X20867682Y-15612674D01*
X20867682Y-15612674D02*
X20886730Y-15603150D01*
X20886730Y-15603150D02*
X20915301Y-15603150D01*
X20915301Y-15603150D02*
X20934349Y-15612674D01*
X21010539Y-15812674D02*
X21020063Y-15803150D01*
X21020063Y-15803150D02*
X21039111Y-15774579D01*
X21039111Y-15774579D02*
X21048634Y-15755531D01*
X21048634Y-15755531D02*
X21058158Y-15726960D01*
X21058158Y-15726960D02*
X21067682Y-15679341D01*
X21067682Y-15679341D02*
X21067682Y-15641246D01*
X21067682Y-15641246D02*
X21058158Y-15593627D01*
X21058158Y-15593627D02*
X21048634Y-15565055D01*
X21048634Y-15565055D02*
X21039111Y-15546008D01*
X21039111Y-15546008D02*
X21020063Y-15517436D01*
X21020063Y-15517436D02*
X21010539Y-15507912D01*
D10*
X16045000Y-15909000D02*
G75*
G02*
X15945000Y-15909000I-50000J0D01*
G01*
X15945000Y-15909000D02*
G75*
G02*
X16045000Y-15909000I50000J0D01*
G01*
D11*
X16410539Y-16000484D02*
X16296253Y-16000484D01*
X16353396Y-16000484D02*
X16353396Y-15800484D01*
X16353396Y-15800484D02*
X16334348Y-15829055D01*
X16334348Y-15829055D02*
X16315301Y-15848103D01*
X16315301Y-15848103D02*
X16296253Y-15857627D01*
X16496253Y-15981436D02*
X16505777Y-15990960D01*
X16505777Y-15990960D02*
X16496253Y-16000484D01*
X16496253Y-16000484D02*
X16486729Y-15990960D01*
X16486729Y-15990960D02*
X16496253Y-15981436D01*
X16496253Y-15981436D02*
X16496253Y-16000484D01*
X16629586Y-15800484D02*
X16648634Y-15800484D01*
X16648634Y-15800484D02*
X16667682Y-15810008D01*
X16667682Y-15810008D02*
X16677205Y-15819531D01*
X16677205Y-15819531D02*
X16686729Y-15838579D01*
X16686729Y-15838579D02*
X16696253Y-15876674D01*
X16696253Y-15876674D02*
X16696253Y-15924293D01*
X16696253Y-15924293D02*
X16686729Y-15962388D01*
X16686729Y-15962388D02*
X16677205Y-15981436D01*
X16677205Y-15981436D02*
X16667682Y-15990960D01*
X16667682Y-15990960D02*
X16648634Y-16000484D01*
X16648634Y-16000484D02*
X16629586Y-16000484D01*
X16629586Y-16000484D02*
X16610539Y-15990960D01*
X16610539Y-15990960D02*
X16601015Y-15981436D01*
X16601015Y-15981436D02*
X16591491Y-15962388D01*
X16591491Y-15962388D02*
X16581967Y-15924293D01*
X16581967Y-15924293D02*
X16581967Y-15876674D01*
X16581967Y-15876674D02*
X16591491Y-15838579D01*
X16591491Y-15838579D02*
X16601015Y-15819531D01*
X16601015Y-15819531D02*
X16610539Y-15810008D01*
X16610539Y-15810008D02*
X16629586Y-15800484D01*
X16820063Y-15800484D02*
X16839110Y-15800484D01*
X16839110Y-15800484D02*
X16858158Y-15810008D01*
X16858158Y-15810008D02*
X16867682Y-15819531D01*
X16867682Y-15819531D02*
X16877205Y-15838579D01*
X16877205Y-15838579D02*
X16886729Y-15876674D01*
X16886729Y-15876674D02*
X16886729Y-15924293D01*
X16886729Y-15924293D02*
X16877205Y-15962388D01*
X16877205Y-15962388D02*
X16867682Y-15981436D01*
X16867682Y-15981436D02*
X16858158Y-15990960D01*
X16858158Y-15990960D02*
X16839110Y-16000484D01*
X16839110Y-16000484D02*
X16820063Y-16000484D01*
X16820063Y-16000484D02*
X16801015Y-15990960D01*
X16801015Y-15990960D02*
X16791491Y-15981436D01*
X16791491Y-15981436D02*
X16781967Y-15962388D01*
X16781967Y-15962388D02*
X16772443Y-15924293D01*
X16772443Y-15924293D02*
X16772443Y-15876674D01*
X16772443Y-15876674D02*
X16781967Y-15838579D01*
X16781967Y-15838579D02*
X16791491Y-15819531D01*
X16791491Y-15819531D02*
X16801015Y-15810008D01*
X16801015Y-15810008D02*
X16820063Y-15800484D01*
X17010539Y-15800484D02*
X17029586Y-15800484D01*
X17029586Y-15800484D02*
X17048634Y-15810008D01*
X17048634Y-15810008D02*
X17058158Y-15819531D01*
X17058158Y-15819531D02*
X17067682Y-15838579D01*
X17067682Y-15838579D02*
X17077205Y-15876674D01*
X17077205Y-15876674D02*
X17077205Y-15924293D01*
X17077205Y-15924293D02*
X17067682Y-15962388D01*
X17067682Y-15962388D02*
X17058158Y-15981436D01*
X17058158Y-15981436D02*
X17048634Y-15990960D01*
X17048634Y-15990960D02*
X17029586Y-16000484D01*
X17029586Y-16000484D02*
X17010539Y-16000484D01*
X17010539Y-16000484D02*
X16991491Y-15990960D01*
X16991491Y-15990960D02*
X16981967Y-15981436D01*
X16981967Y-15981436D02*
X16972444Y-15962388D01*
X16972444Y-15962388D02*
X16962920Y-15924293D01*
X16962920Y-15924293D02*
X16962920Y-15876674D01*
X16962920Y-15876674D02*
X16972444Y-15838579D01*
X16972444Y-15838579D02*
X16981967Y-15819531D01*
X16981967Y-15819531D02*
X16991491Y-15810008D01*
X16991491Y-15810008D02*
X17010539Y-15800484D01*
X17162920Y-16000484D02*
X17162920Y-15867150D01*
X17162920Y-15886198D02*
X17172444Y-15876674D01*
X17172444Y-15876674D02*
X17191491Y-15867150D01*
X17191491Y-15867150D02*
X17220063Y-15867150D01*
X17220063Y-15867150D02*
X17239110Y-15876674D01*
X17239110Y-15876674D02*
X17248634Y-15895722D01*
X17248634Y-15895722D02*
X17248634Y-16000484D01*
X17248634Y-15895722D02*
X17258158Y-15876674D01*
X17258158Y-15876674D02*
X17277205Y-15867150D01*
X17277205Y-15867150D02*
X17305777Y-15867150D01*
X17305777Y-15867150D02*
X17324825Y-15876674D01*
X17324825Y-15876674D02*
X17334348Y-15895722D01*
X17334348Y-15895722D02*
X17334348Y-16000484D01*
X17429586Y-16000484D02*
X17429586Y-15867150D01*
X17429586Y-15886198D02*
X17439110Y-15876674D01*
X17439110Y-15876674D02*
X17458158Y-15867150D01*
X17458158Y-15867150D02*
X17486729Y-15867150D01*
X17486729Y-15867150D02*
X17505777Y-15876674D01*
X17505777Y-15876674D02*
X17515301Y-15895722D01*
X17515301Y-15895722D02*
X17515301Y-16000484D01*
X17515301Y-15895722D02*
X17524825Y-15876674D01*
X17524825Y-15876674D02*
X17543872Y-15867150D01*
X17543872Y-15867150D02*
X17572444Y-15867150D01*
X17572444Y-15867150D02*
X17591491Y-15876674D01*
X17591491Y-15876674D02*
X17601015Y-15895722D01*
X17601015Y-15895722D02*
X17601015Y-16000484D01*
X17991491Y-15790960D02*
X17820063Y-16048103D01*
X18248634Y-15800484D02*
X18267682Y-15800484D01*
X18267682Y-15800484D02*
X18286729Y-15810008D01*
X18286729Y-15810008D02*
X18296253Y-15819531D01*
X18296253Y-15819531D02*
X18305777Y-15838579D01*
X18305777Y-15838579D02*
X18315301Y-15876674D01*
X18315301Y-15876674D02*
X18315301Y-15924293D01*
X18315301Y-15924293D02*
X18305777Y-15962388D01*
X18305777Y-15962388D02*
X18296253Y-15981436D01*
X18296253Y-15981436D02*
X18286729Y-15990960D01*
X18286729Y-15990960D02*
X18267682Y-16000484D01*
X18267682Y-16000484D02*
X18248634Y-16000484D01*
X18248634Y-16000484D02*
X18229587Y-15990960D01*
X18229587Y-15990960D02*
X18220063Y-15981436D01*
X18220063Y-15981436D02*
X18210539Y-15962388D01*
X18210539Y-15962388D02*
X18201015Y-15924293D01*
X18201015Y-15924293D02*
X18201015Y-15876674D01*
X18201015Y-15876674D02*
X18210539Y-15838579D01*
X18210539Y-15838579D02*
X18220063Y-15819531D01*
X18220063Y-15819531D02*
X18229587Y-15810008D01*
X18229587Y-15810008D02*
X18248634Y-15800484D01*
X18401015Y-15981436D02*
X18410539Y-15990960D01*
X18410539Y-15990960D02*
X18401015Y-16000484D01*
X18401015Y-16000484D02*
X18391491Y-15990960D01*
X18391491Y-15990960D02*
X18401015Y-15981436D01*
X18401015Y-15981436D02*
X18401015Y-16000484D01*
X18534348Y-15800484D02*
X18553396Y-15800484D01*
X18553396Y-15800484D02*
X18572444Y-15810008D01*
X18572444Y-15810008D02*
X18581968Y-15819531D01*
X18581968Y-15819531D02*
X18591491Y-15838579D01*
X18591491Y-15838579D02*
X18601015Y-15876674D01*
X18601015Y-15876674D02*
X18601015Y-15924293D01*
X18601015Y-15924293D02*
X18591491Y-15962388D01*
X18591491Y-15962388D02*
X18581968Y-15981436D01*
X18581968Y-15981436D02*
X18572444Y-15990960D01*
X18572444Y-15990960D02*
X18553396Y-16000484D01*
X18553396Y-16000484D02*
X18534348Y-16000484D01*
X18534348Y-16000484D02*
X18515301Y-15990960D01*
X18515301Y-15990960D02*
X18505777Y-15981436D01*
X18505777Y-15981436D02*
X18496253Y-15962388D01*
X18496253Y-15962388D02*
X18486729Y-15924293D01*
X18486729Y-15924293D02*
X18486729Y-15876674D01*
X18486729Y-15876674D02*
X18496253Y-15838579D01*
X18496253Y-15838579D02*
X18505777Y-15819531D01*
X18505777Y-15819531D02*
X18515301Y-15810008D01*
X18515301Y-15810008D02*
X18534348Y-15800484D01*
X18667682Y-15800484D02*
X18791491Y-15800484D01*
X18791491Y-15800484D02*
X18724825Y-15876674D01*
X18724825Y-15876674D02*
X18753396Y-15876674D01*
X18753396Y-15876674D02*
X18772444Y-15886198D01*
X18772444Y-15886198D02*
X18781968Y-15895722D01*
X18781968Y-15895722D02*
X18791491Y-15914769D01*
X18791491Y-15914769D02*
X18791491Y-15962388D01*
X18791491Y-15962388D02*
X18781968Y-15981436D01*
X18781968Y-15981436D02*
X18772444Y-15990960D01*
X18772444Y-15990960D02*
X18753396Y-16000484D01*
X18753396Y-16000484D02*
X18696253Y-16000484D01*
X18696253Y-16000484D02*
X18677206Y-15990960D01*
X18677206Y-15990960D02*
X18667682Y-15981436D01*
X18886729Y-16000484D02*
X18924825Y-16000484D01*
X18924825Y-16000484D02*
X18943872Y-15990960D01*
X18943872Y-15990960D02*
X18953396Y-15981436D01*
X18953396Y-15981436D02*
X18972444Y-15952865D01*
X18972444Y-15952865D02*
X18981968Y-15914769D01*
X18981968Y-15914769D02*
X18981968Y-15838579D01*
X18981968Y-15838579D02*
X18972444Y-15819531D01*
X18972444Y-15819531D02*
X18962920Y-15810008D01*
X18962920Y-15810008D02*
X18943872Y-15800484D01*
X18943872Y-15800484D02*
X18905777Y-15800484D01*
X18905777Y-15800484D02*
X18886729Y-15810008D01*
X18886729Y-15810008D02*
X18877206Y-15819531D01*
X18877206Y-15819531D02*
X18867682Y-15838579D01*
X18867682Y-15838579D02*
X18867682Y-15886198D01*
X18867682Y-15886198D02*
X18877206Y-15905246D01*
X18877206Y-15905246D02*
X18886729Y-15914769D01*
X18886729Y-15914769D02*
X18905777Y-15924293D01*
X18905777Y-15924293D02*
X18943872Y-15924293D01*
X18943872Y-15924293D02*
X18962920Y-15914769D01*
X18962920Y-15914769D02*
X18972444Y-15905246D01*
X18972444Y-15905246D02*
X18981968Y-15886198D01*
X19153396Y-15867150D02*
X19153396Y-16000484D01*
X19105777Y-15790960D02*
X19058158Y-15933817D01*
X19058158Y-15933817D02*
X19181968Y-15933817D01*
X19248634Y-15800484D02*
X19248634Y-15838579D01*
X19324825Y-15800484D02*
X19324825Y-15838579D01*
X19620063Y-16076674D02*
X19610539Y-16067150D01*
X19610539Y-16067150D02*
X19591491Y-16038579D01*
X19591491Y-16038579D02*
X19581968Y-16019531D01*
X19581968Y-16019531D02*
X19572444Y-15990960D01*
X19572444Y-15990960D02*
X19562920Y-15943341D01*
X19562920Y-15943341D02*
X19562920Y-15905246D01*
X19562920Y-15905246D02*
X19572444Y-15857627D01*
X19572444Y-15857627D02*
X19581968Y-15829055D01*
X19581968Y-15829055D02*
X19591491Y-15810008D01*
X19591491Y-15810008D02*
X19610539Y-15781436D01*
X19610539Y-15781436D02*
X19620063Y-15771912D01*
X19724825Y-15886198D02*
X19705777Y-15876674D01*
X19705777Y-15876674D02*
X19696253Y-15867150D01*
X19696253Y-15867150D02*
X19686730Y-15848103D01*
X19686730Y-15848103D02*
X19686730Y-15838579D01*
X19686730Y-15838579D02*
X19696253Y-15819531D01*
X19696253Y-15819531D02*
X19705777Y-15810008D01*
X19705777Y-15810008D02*
X19724825Y-15800484D01*
X19724825Y-15800484D02*
X19762920Y-15800484D01*
X19762920Y-15800484D02*
X19781968Y-15810008D01*
X19781968Y-15810008D02*
X19791491Y-15819531D01*
X19791491Y-15819531D02*
X19801015Y-15838579D01*
X19801015Y-15838579D02*
X19801015Y-15848103D01*
X19801015Y-15848103D02*
X19791491Y-15867150D01*
X19791491Y-15867150D02*
X19781968Y-15876674D01*
X19781968Y-15876674D02*
X19762920Y-15886198D01*
X19762920Y-15886198D02*
X19724825Y-15886198D01*
X19724825Y-15886198D02*
X19705777Y-15895722D01*
X19705777Y-15895722D02*
X19696253Y-15905246D01*
X19696253Y-15905246D02*
X19686730Y-15924293D01*
X19686730Y-15924293D02*
X19686730Y-15962388D01*
X19686730Y-15962388D02*
X19696253Y-15981436D01*
X19696253Y-15981436D02*
X19705777Y-15990960D01*
X19705777Y-15990960D02*
X19724825Y-16000484D01*
X19724825Y-16000484D02*
X19762920Y-16000484D01*
X19762920Y-16000484D02*
X19781968Y-15990960D01*
X19781968Y-15990960D02*
X19791491Y-15981436D01*
X19791491Y-15981436D02*
X19801015Y-15962388D01*
X19801015Y-15962388D02*
X19801015Y-15924293D01*
X19801015Y-15924293D02*
X19791491Y-15905246D01*
X19791491Y-15905246D02*
X19781968Y-15895722D01*
X19781968Y-15895722D02*
X19762920Y-15886198D01*
X20039111Y-16000484D02*
X20039111Y-15800484D01*
X20124825Y-16000484D02*
X20124825Y-15895722D01*
X20124825Y-15895722D02*
X20115301Y-15876674D01*
X20115301Y-15876674D02*
X20096253Y-15867150D01*
X20096253Y-15867150D02*
X20067682Y-15867150D01*
X20067682Y-15867150D02*
X20048634Y-15876674D01*
X20048634Y-15876674D02*
X20039111Y-15886198D01*
X20248634Y-16000484D02*
X20229587Y-15990960D01*
X20229587Y-15990960D02*
X20220063Y-15981436D01*
X20220063Y-15981436D02*
X20210539Y-15962388D01*
X20210539Y-15962388D02*
X20210539Y-15905246D01*
X20210539Y-15905246D02*
X20220063Y-15886198D01*
X20220063Y-15886198D02*
X20229587Y-15876674D01*
X20229587Y-15876674D02*
X20248634Y-15867150D01*
X20248634Y-15867150D02*
X20277206Y-15867150D01*
X20277206Y-15867150D02*
X20296253Y-15876674D01*
X20296253Y-15876674D02*
X20305777Y-15886198D01*
X20305777Y-15886198D02*
X20315301Y-15905246D01*
X20315301Y-15905246D02*
X20315301Y-15962388D01*
X20315301Y-15962388D02*
X20305777Y-15981436D01*
X20305777Y-15981436D02*
X20296253Y-15990960D01*
X20296253Y-15990960D02*
X20277206Y-16000484D01*
X20277206Y-16000484D02*
X20248634Y-16000484D01*
X20429587Y-16000484D02*
X20410539Y-15990960D01*
X20410539Y-15990960D02*
X20401015Y-15971912D01*
X20401015Y-15971912D02*
X20401015Y-15800484D01*
X20581968Y-15990960D02*
X20562920Y-16000484D01*
X20562920Y-16000484D02*
X20524825Y-16000484D01*
X20524825Y-16000484D02*
X20505777Y-15990960D01*
X20505777Y-15990960D02*
X20496253Y-15971912D01*
X20496253Y-15971912D02*
X20496253Y-15895722D01*
X20496253Y-15895722D02*
X20505777Y-15876674D01*
X20505777Y-15876674D02*
X20524825Y-15867150D01*
X20524825Y-15867150D02*
X20562920Y-15867150D01*
X20562920Y-15867150D02*
X20581968Y-15876674D01*
X20581968Y-15876674D02*
X20591492Y-15895722D01*
X20591492Y-15895722D02*
X20591492Y-15914769D01*
X20591492Y-15914769D02*
X20496253Y-15933817D01*
X20667682Y-15990960D02*
X20686730Y-16000484D01*
X20686730Y-16000484D02*
X20724825Y-16000484D01*
X20724825Y-16000484D02*
X20743873Y-15990960D01*
X20743873Y-15990960D02*
X20753396Y-15971912D01*
X20753396Y-15971912D02*
X20753396Y-15962388D01*
X20753396Y-15962388D02*
X20743873Y-15943341D01*
X20743873Y-15943341D02*
X20724825Y-15933817D01*
X20724825Y-15933817D02*
X20696253Y-15933817D01*
X20696253Y-15933817D02*
X20677206Y-15924293D01*
X20677206Y-15924293D02*
X20667682Y-15905246D01*
X20667682Y-15905246D02*
X20667682Y-15895722D01*
X20667682Y-15895722D02*
X20677206Y-15876674D01*
X20677206Y-15876674D02*
X20696253Y-15867150D01*
X20696253Y-15867150D02*
X20724825Y-15867150D01*
X20724825Y-15867150D02*
X20743873Y-15876674D01*
X20820063Y-16076674D02*
X20829587Y-16067150D01*
X20829587Y-16067150D02*
X20848634Y-16038579D01*
X20848634Y-16038579D02*
X20858158Y-16019531D01*
X20858158Y-16019531D02*
X20867682Y-15990960D01*
X20867682Y-15990960D02*
X20877206Y-15943341D01*
X20877206Y-15943341D02*
X20877206Y-15905246D01*
X20877206Y-15905246D02*
X20867682Y-15857627D01*
X20867682Y-15857627D02*
X20858158Y-15829055D01*
X20858158Y-15829055D02*
X20848634Y-15810008D01*
X20848634Y-15810008D02*
X20829587Y-15781436D01*
X20829587Y-15781436D02*
X20820063Y-15771912D01*
M02*
