G04 #@! TF.GenerationSoftware,KiCad,Pcbnew,7.0.10*
G04 #@! TF.CreationDate,2024-02-24T15:32:32-05:00*
G04 #@! TF.ProjectId,Bird3Controller,42697264-3343-46f6-9e74-726f6c6c6572,rev?*
G04 #@! TF.SameCoordinates,Original*
G04 #@! TF.FileFunction,Legend,Top*
G04 #@! TF.FilePolarity,Positive*
%FSLAX46Y46*%
G04 Gerber Fmt 4.6, Leading zero omitted, Abs format (unit mm)*
G04 Created by KiCad (PCBNEW 7.0.10) date 2024-02-24 15:32:32*
%MOMM*%
%LPD*%
G01*
G04 APERTURE LIST*
G04 Aperture macros list*
%AMRoundRect*
0 Rectangle with rounded corners*
0 $1 Rounding radius*
0 $2 $3 $4 $5 $6 $7 $8 $9 X,Y pos of 4 corners*
0 Add a 4 corners polygon primitive as box body*
4,1,4,$2,$3,$4,$5,$6,$7,$8,$9,$2,$3,0*
0 Add four circle primitives for the rounded corners*
1,1,$1+$1,$2,$3*
1,1,$1+$1,$4,$5*
1,1,$1+$1,$6,$7*
1,1,$1+$1,$8,$9*
0 Add four rect primitives between the rounded corners*
20,1,$1+$1,$2,$3,$4,$5,0*
20,1,$1+$1,$4,$5,$6,$7,0*
20,1,$1+$1,$6,$7,$8,$9,0*
20,1,$1+$1,$8,$9,$2,$3,0*%
G04 Aperture macros list end*
%ADD10C,0.254000*%
%ADD11C,0.150000*%
%ADD12C,0.100000*%
%ADD13C,0.300000*%
%ADD14C,0.200000*%
%ADD15C,0.120000*%
%ADD16C,0.508000*%
%ADD17C,0.463500*%
%ADD18R,0.300000X0.800000*%
%ADD19R,0.400000X0.800000*%
%ADD20R,1.250000X0.600000*%
%ADD21R,2.200000X1.200000*%
%ADD22R,2.900000X5.400000*%
%ADD23RoundRect,0.250000X-0.337500X-0.475000X0.337500X-0.475000X0.337500X0.475000X-0.337500X0.475000X0*%
%ADD24RoundRect,0.250000X-0.325000X-0.450000X0.325000X-0.450000X0.325000X0.450000X-0.325000X0.450000X0*%
%ADD25RoundRect,0.250000X0.325000X0.450000X-0.325000X0.450000X-0.325000X-0.450000X0.325000X-0.450000X0*%
%ADD26RoundRect,0.250000X0.475000X-0.337500X0.475000X0.337500X-0.475000X0.337500X-0.475000X-0.337500X0*%
%ADD27R,1.425000X0.450000*%
%ADD28R,1.880000X2.000000*%
%ADD29R,2.000000X1.500000*%
%ADD30R,1.500000X0.900000*%
%ADD31R,0.900000X1.500000*%
%ADD32R,0.900000X0.900000*%
%ADD33C,0.800000*%
%ADD34O,2.152400X1.152400*%
%ADD35C,1.041400*%
G04 APERTURE END LIST*
D10*
X182076667Y-99871318D02*
X182076667Y-100778461D01*
X182076667Y-100778461D02*
X182016190Y-100959889D01*
X182016190Y-100959889D02*
X181895238Y-101080842D01*
X181895238Y-101080842D02*
X181713809Y-101141318D01*
X181713809Y-101141318D02*
X181592857Y-101141318D01*
X182620952Y-99992270D02*
X182681428Y-99931794D01*
X182681428Y-99931794D02*
X182802381Y-99871318D01*
X182802381Y-99871318D02*
X183104762Y-99871318D01*
X183104762Y-99871318D02*
X183225714Y-99931794D01*
X183225714Y-99931794D02*
X183286190Y-99992270D01*
X183286190Y-99992270D02*
X183346667Y-100113222D01*
X183346667Y-100113222D02*
X183346667Y-100234175D01*
X183346667Y-100234175D02*
X183286190Y-100415603D01*
X183286190Y-100415603D02*
X182560476Y-101141318D01*
X182560476Y-101141318D02*
X183346667Y-101141318D01*
X188860237Y-108074318D02*
X188860237Y-106804318D01*
X190190714Y-107953365D02*
X190130238Y-108013842D01*
X190130238Y-108013842D02*
X189948809Y-108074318D01*
X189948809Y-108074318D02*
X189827857Y-108074318D01*
X189827857Y-108074318D02*
X189646428Y-108013842D01*
X189646428Y-108013842D02*
X189525476Y-107892889D01*
X189525476Y-107892889D02*
X189464999Y-107771937D01*
X189464999Y-107771937D02*
X189404523Y-107530032D01*
X189404523Y-107530032D02*
X189404523Y-107348603D01*
X189404523Y-107348603D02*
X189464999Y-107106699D01*
X189464999Y-107106699D02*
X189525476Y-106985746D01*
X189525476Y-106985746D02*
X189646428Y-106864794D01*
X189646428Y-106864794D02*
X189827857Y-106804318D01*
X189827857Y-106804318D02*
X189948809Y-106804318D01*
X189948809Y-106804318D02*
X190130238Y-106864794D01*
X190130238Y-106864794D02*
X190190714Y-106925270D01*
X190674523Y-106925270D02*
X190734999Y-106864794D01*
X190734999Y-106864794D02*
X190855952Y-106804318D01*
X190855952Y-106804318D02*
X191158333Y-106804318D01*
X191158333Y-106804318D02*
X191279285Y-106864794D01*
X191279285Y-106864794D02*
X191339761Y-106925270D01*
X191339761Y-106925270D02*
X191400238Y-107046222D01*
X191400238Y-107046222D02*
X191400238Y-107167175D01*
X191400238Y-107167175D02*
X191339761Y-107348603D01*
X191339761Y-107348603D02*
X190614047Y-108074318D01*
X190614047Y-108074318D02*
X191400238Y-108074318D01*
X200488333Y-107474318D02*
X199883571Y-107474318D01*
X199883571Y-107474318D02*
X199883571Y-106204318D01*
X201455952Y-106627651D02*
X201455952Y-107474318D01*
X201153571Y-106143842D02*
X200851190Y-107050984D01*
X200851190Y-107050984D02*
X201637381Y-107050984D01*
X182388333Y-123674318D02*
X181783571Y-123674318D01*
X181783571Y-123674318D02*
X181783571Y-122404318D01*
X183416428Y-122404318D02*
X182811666Y-122404318D01*
X182811666Y-122404318D02*
X182751190Y-123009080D01*
X182751190Y-123009080D02*
X182811666Y-122948603D01*
X182811666Y-122948603D02*
X182932619Y-122888127D01*
X182932619Y-122888127D02*
X183235000Y-122888127D01*
X183235000Y-122888127D02*
X183355952Y-122948603D01*
X183355952Y-122948603D02*
X183416428Y-123009080D01*
X183416428Y-123009080D02*
X183476905Y-123130032D01*
X183476905Y-123130032D02*
X183476905Y-123432413D01*
X183476905Y-123432413D02*
X183416428Y-123553365D01*
X183416428Y-123553365D02*
X183355952Y-123613842D01*
X183355952Y-123613842D02*
X183235000Y-123674318D01*
X183235000Y-123674318D02*
X182932619Y-123674318D01*
X182932619Y-123674318D02*
X182811666Y-123613842D01*
X182811666Y-123613842D02*
X182751190Y-123553365D01*
D11*
X167857142Y-130679580D02*
X167809523Y-130727200D01*
X167809523Y-130727200D02*
X167666666Y-130774819D01*
X167666666Y-130774819D02*
X167571428Y-130774819D01*
X167571428Y-130774819D02*
X167428571Y-130727200D01*
X167428571Y-130727200D02*
X167333333Y-130631961D01*
X167333333Y-130631961D02*
X167285714Y-130536723D01*
X167285714Y-130536723D02*
X167238095Y-130346247D01*
X167238095Y-130346247D02*
X167238095Y-130203390D01*
X167238095Y-130203390D02*
X167285714Y-130012914D01*
X167285714Y-130012914D02*
X167333333Y-129917676D01*
X167333333Y-129917676D02*
X167428571Y-129822438D01*
X167428571Y-129822438D02*
X167571428Y-129774819D01*
X167571428Y-129774819D02*
X167666666Y-129774819D01*
X167666666Y-129774819D02*
X167809523Y-129822438D01*
X167809523Y-129822438D02*
X167857142Y-129870057D01*
X168238095Y-129870057D02*
X168285714Y-129822438D01*
X168285714Y-129822438D02*
X168380952Y-129774819D01*
X168380952Y-129774819D02*
X168619047Y-129774819D01*
X168619047Y-129774819D02*
X168714285Y-129822438D01*
X168714285Y-129822438D02*
X168761904Y-129870057D01*
X168761904Y-129870057D02*
X168809523Y-129965295D01*
X168809523Y-129965295D02*
X168809523Y-130060533D01*
X168809523Y-130060533D02*
X168761904Y-130203390D01*
X168761904Y-130203390D02*
X168190476Y-130774819D01*
X168190476Y-130774819D02*
X168809523Y-130774819D01*
X169666666Y-130108152D02*
X169666666Y-130774819D01*
X169428571Y-129727200D02*
X169190476Y-130441485D01*
X169190476Y-130441485D02*
X169809523Y-130441485D01*
X174461905Y-135104819D02*
X174461905Y-134104819D01*
X174461905Y-134104819D02*
X174700000Y-134104819D01*
X174700000Y-134104819D02*
X174842857Y-134152438D01*
X174842857Y-134152438D02*
X174938095Y-134247676D01*
X174938095Y-134247676D02*
X174985714Y-134342914D01*
X174985714Y-134342914D02*
X175033333Y-134533390D01*
X175033333Y-134533390D02*
X175033333Y-134676247D01*
X175033333Y-134676247D02*
X174985714Y-134866723D01*
X174985714Y-134866723D02*
X174938095Y-134961961D01*
X174938095Y-134961961D02*
X174842857Y-135057200D01*
X174842857Y-135057200D02*
X174700000Y-135104819D01*
X174700000Y-135104819D02*
X174461905Y-135104819D01*
X175890476Y-134438152D02*
X175890476Y-135104819D01*
X175652381Y-134057200D02*
X175414286Y-134771485D01*
X175414286Y-134771485D02*
X176033333Y-134771485D01*
X165061905Y-135104819D02*
X165061905Y-134104819D01*
X165061905Y-134104819D02*
X165300000Y-134104819D01*
X165300000Y-134104819D02*
X165442857Y-134152438D01*
X165442857Y-134152438D02*
X165538095Y-134247676D01*
X165538095Y-134247676D02*
X165585714Y-134342914D01*
X165585714Y-134342914D02*
X165633333Y-134533390D01*
X165633333Y-134533390D02*
X165633333Y-134676247D01*
X165633333Y-134676247D02*
X165585714Y-134866723D01*
X165585714Y-134866723D02*
X165538095Y-134961961D01*
X165538095Y-134961961D02*
X165442857Y-135057200D01*
X165442857Y-135057200D02*
X165300000Y-135104819D01*
X165300000Y-135104819D02*
X165061905Y-135104819D01*
X165966667Y-134104819D02*
X166585714Y-134104819D01*
X166585714Y-134104819D02*
X166252381Y-134485771D01*
X166252381Y-134485771D02*
X166395238Y-134485771D01*
X166395238Y-134485771D02*
X166490476Y-134533390D01*
X166490476Y-134533390D02*
X166538095Y-134581009D01*
X166538095Y-134581009D02*
X166585714Y-134676247D01*
X166585714Y-134676247D02*
X166585714Y-134914342D01*
X166585714Y-134914342D02*
X166538095Y-135009580D01*
X166538095Y-135009580D02*
X166490476Y-135057200D01*
X166490476Y-135057200D02*
X166395238Y-135104819D01*
X166395238Y-135104819D02*
X166109524Y-135104819D01*
X166109524Y-135104819D02*
X166014286Y-135057200D01*
X166014286Y-135057200D02*
X165966667Y-135009580D01*
X169661905Y-135054819D02*
X169661905Y-134054819D01*
X169661905Y-134054819D02*
X169900000Y-134054819D01*
X169900000Y-134054819D02*
X170042857Y-134102438D01*
X170042857Y-134102438D02*
X170138095Y-134197676D01*
X170138095Y-134197676D02*
X170185714Y-134292914D01*
X170185714Y-134292914D02*
X170233333Y-134483390D01*
X170233333Y-134483390D02*
X170233333Y-134626247D01*
X170233333Y-134626247D02*
X170185714Y-134816723D01*
X170185714Y-134816723D02*
X170138095Y-134911961D01*
X170138095Y-134911961D02*
X170042857Y-135007200D01*
X170042857Y-135007200D02*
X169900000Y-135054819D01*
X169900000Y-135054819D02*
X169661905Y-135054819D01*
X170614286Y-134150057D02*
X170661905Y-134102438D01*
X170661905Y-134102438D02*
X170757143Y-134054819D01*
X170757143Y-134054819D02*
X170995238Y-134054819D01*
X170995238Y-134054819D02*
X171090476Y-134102438D01*
X171090476Y-134102438D02*
X171138095Y-134150057D01*
X171138095Y-134150057D02*
X171185714Y-134245295D01*
X171185714Y-134245295D02*
X171185714Y-134340533D01*
X171185714Y-134340533D02*
X171138095Y-134483390D01*
X171138095Y-134483390D02*
X170566667Y-135054819D01*
X170566667Y-135054819D02*
X171185714Y-135054819D01*
X195661905Y-110304819D02*
X195661905Y-109304819D01*
X195661905Y-109304819D02*
X195900000Y-109304819D01*
X195900000Y-109304819D02*
X196042857Y-109352438D01*
X196042857Y-109352438D02*
X196138095Y-109447676D01*
X196138095Y-109447676D02*
X196185714Y-109542914D01*
X196185714Y-109542914D02*
X196233333Y-109733390D01*
X196233333Y-109733390D02*
X196233333Y-109876247D01*
X196233333Y-109876247D02*
X196185714Y-110066723D01*
X196185714Y-110066723D02*
X196138095Y-110161961D01*
X196138095Y-110161961D02*
X196042857Y-110257200D01*
X196042857Y-110257200D02*
X195900000Y-110304819D01*
X195900000Y-110304819D02*
X195661905Y-110304819D01*
X197185714Y-110304819D02*
X196614286Y-110304819D01*
X196900000Y-110304819D02*
X196900000Y-109304819D01*
X196900000Y-109304819D02*
X196804762Y-109447676D01*
X196804762Y-109447676D02*
X196709524Y-109542914D01*
X196709524Y-109542914D02*
X196614286Y-109590533D01*
X195857142Y-113579580D02*
X195809523Y-113627200D01*
X195809523Y-113627200D02*
X195666666Y-113674819D01*
X195666666Y-113674819D02*
X195571428Y-113674819D01*
X195571428Y-113674819D02*
X195428571Y-113627200D01*
X195428571Y-113627200D02*
X195333333Y-113531961D01*
X195333333Y-113531961D02*
X195285714Y-113436723D01*
X195285714Y-113436723D02*
X195238095Y-113246247D01*
X195238095Y-113246247D02*
X195238095Y-113103390D01*
X195238095Y-113103390D02*
X195285714Y-112912914D01*
X195285714Y-112912914D02*
X195333333Y-112817676D01*
X195333333Y-112817676D02*
X195428571Y-112722438D01*
X195428571Y-112722438D02*
X195571428Y-112674819D01*
X195571428Y-112674819D02*
X195666666Y-112674819D01*
X195666666Y-112674819D02*
X195809523Y-112722438D01*
X195809523Y-112722438D02*
X195857142Y-112770057D01*
X196238095Y-112770057D02*
X196285714Y-112722438D01*
X196285714Y-112722438D02*
X196380952Y-112674819D01*
X196380952Y-112674819D02*
X196619047Y-112674819D01*
X196619047Y-112674819D02*
X196714285Y-112722438D01*
X196714285Y-112722438D02*
X196761904Y-112770057D01*
X196761904Y-112770057D02*
X196809523Y-112865295D01*
X196809523Y-112865295D02*
X196809523Y-112960533D01*
X196809523Y-112960533D02*
X196761904Y-113103390D01*
X196761904Y-113103390D02*
X196190476Y-113674819D01*
X196190476Y-113674819D02*
X196809523Y-113674819D01*
X197714285Y-112674819D02*
X197238095Y-112674819D01*
X197238095Y-112674819D02*
X197190476Y-113151009D01*
X197190476Y-113151009D02*
X197238095Y-113103390D01*
X197238095Y-113103390D02*
X197333333Y-113055771D01*
X197333333Y-113055771D02*
X197571428Y-113055771D01*
X197571428Y-113055771D02*
X197666666Y-113103390D01*
X197666666Y-113103390D02*
X197714285Y-113151009D01*
X197714285Y-113151009D02*
X197761904Y-113246247D01*
X197761904Y-113246247D02*
X197761904Y-113484342D01*
X197761904Y-113484342D02*
X197714285Y-113579580D01*
X197714285Y-113579580D02*
X197666666Y-113627200D01*
X197666666Y-113627200D02*
X197571428Y-113674819D01*
X197571428Y-113674819D02*
X197333333Y-113674819D01*
X197333333Y-113674819D02*
X197238095Y-113627200D01*
X197238095Y-113627200D02*
X197190476Y-113579580D01*
X171157142Y-121479580D02*
X171109523Y-121527200D01*
X171109523Y-121527200D02*
X170966666Y-121574819D01*
X170966666Y-121574819D02*
X170871428Y-121574819D01*
X170871428Y-121574819D02*
X170728571Y-121527200D01*
X170728571Y-121527200D02*
X170633333Y-121431961D01*
X170633333Y-121431961D02*
X170585714Y-121336723D01*
X170585714Y-121336723D02*
X170538095Y-121146247D01*
X170538095Y-121146247D02*
X170538095Y-121003390D01*
X170538095Y-121003390D02*
X170585714Y-120812914D01*
X170585714Y-120812914D02*
X170633333Y-120717676D01*
X170633333Y-120717676D02*
X170728571Y-120622438D01*
X170728571Y-120622438D02*
X170871428Y-120574819D01*
X170871428Y-120574819D02*
X170966666Y-120574819D01*
X170966666Y-120574819D02*
X171109523Y-120622438D01*
X171109523Y-120622438D02*
X171157142Y-120670057D01*
X171538095Y-120670057D02*
X171585714Y-120622438D01*
X171585714Y-120622438D02*
X171680952Y-120574819D01*
X171680952Y-120574819D02*
X171919047Y-120574819D01*
X171919047Y-120574819D02*
X172014285Y-120622438D01*
X172014285Y-120622438D02*
X172061904Y-120670057D01*
X172061904Y-120670057D02*
X172109523Y-120765295D01*
X172109523Y-120765295D02*
X172109523Y-120860533D01*
X172109523Y-120860533D02*
X172061904Y-121003390D01*
X172061904Y-121003390D02*
X171490476Y-121574819D01*
X171490476Y-121574819D02*
X172109523Y-121574819D01*
X172442857Y-120574819D02*
X173061904Y-120574819D01*
X173061904Y-120574819D02*
X172728571Y-120955771D01*
X172728571Y-120955771D02*
X172871428Y-120955771D01*
X172871428Y-120955771D02*
X172966666Y-121003390D01*
X172966666Y-121003390D02*
X173014285Y-121051009D01*
X173014285Y-121051009D02*
X173061904Y-121146247D01*
X173061904Y-121146247D02*
X173061904Y-121384342D01*
X173061904Y-121384342D02*
X173014285Y-121479580D01*
X173014285Y-121479580D02*
X172966666Y-121527200D01*
X172966666Y-121527200D02*
X172871428Y-121574819D01*
X172871428Y-121574819D02*
X172585714Y-121574819D01*
X172585714Y-121574819D02*
X172490476Y-121527200D01*
X172490476Y-121527200D02*
X172442857Y-121479580D01*
X191257142Y-110179580D02*
X191209523Y-110227200D01*
X191209523Y-110227200D02*
X191066666Y-110274819D01*
X191066666Y-110274819D02*
X190971428Y-110274819D01*
X190971428Y-110274819D02*
X190828571Y-110227200D01*
X190828571Y-110227200D02*
X190733333Y-110131961D01*
X190733333Y-110131961D02*
X190685714Y-110036723D01*
X190685714Y-110036723D02*
X190638095Y-109846247D01*
X190638095Y-109846247D02*
X190638095Y-109703390D01*
X190638095Y-109703390D02*
X190685714Y-109512914D01*
X190685714Y-109512914D02*
X190733333Y-109417676D01*
X190733333Y-109417676D02*
X190828571Y-109322438D01*
X190828571Y-109322438D02*
X190971428Y-109274819D01*
X190971428Y-109274819D02*
X191066666Y-109274819D01*
X191066666Y-109274819D02*
X191209523Y-109322438D01*
X191209523Y-109322438D02*
X191257142Y-109370057D01*
X191638095Y-109370057D02*
X191685714Y-109322438D01*
X191685714Y-109322438D02*
X191780952Y-109274819D01*
X191780952Y-109274819D02*
X192019047Y-109274819D01*
X192019047Y-109274819D02*
X192114285Y-109322438D01*
X192114285Y-109322438D02*
X192161904Y-109370057D01*
X192161904Y-109370057D02*
X192209523Y-109465295D01*
X192209523Y-109465295D02*
X192209523Y-109560533D01*
X192209523Y-109560533D02*
X192161904Y-109703390D01*
X192161904Y-109703390D02*
X191590476Y-110274819D01*
X191590476Y-110274819D02*
X192209523Y-110274819D01*
X192590476Y-109370057D02*
X192638095Y-109322438D01*
X192638095Y-109322438D02*
X192733333Y-109274819D01*
X192733333Y-109274819D02*
X192971428Y-109274819D01*
X192971428Y-109274819D02*
X193066666Y-109322438D01*
X193066666Y-109322438D02*
X193114285Y-109370057D01*
X193114285Y-109370057D02*
X193161904Y-109465295D01*
X193161904Y-109465295D02*
X193161904Y-109560533D01*
X193161904Y-109560533D02*
X193114285Y-109703390D01*
X193114285Y-109703390D02*
X192542857Y-110274819D01*
X192542857Y-110274819D02*
X193161904Y-110274819D01*
X191879580Y-103642857D02*
X191927200Y-103690476D01*
X191927200Y-103690476D02*
X191974819Y-103833333D01*
X191974819Y-103833333D02*
X191974819Y-103928571D01*
X191974819Y-103928571D02*
X191927200Y-104071428D01*
X191927200Y-104071428D02*
X191831961Y-104166666D01*
X191831961Y-104166666D02*
X191736723Y-104214285D01*
X191736723Y-104214285D02*
X191546247Y-104261904D01*
X191546247Y-104261904D02*
X191403390Y-104261904D01*
X191403390Y-104261904D02*
X191212914Y-104214285D01*
X191212914Y-104214285D02*
X191117676Y-104166666D01*
X191117676Y-104166666D02*
X191022438Y-104071428D01*
X191022438Y-104071428D02*
X190974819Y-103928571D01*
X190974819Y-103928571D02*
X190974819Y-103833333D01*
X190974819Y-103833333D02*
X191022438Y-103690476D01*
X191022438Y-103690476D02*
X191070057Y-103642857D01*
X191070057Y-103261904D02*
X191022438Y-103214285D01*
X191022438Y-103214285D02*
X190974819Y-103119047D01*
X190974819Y-103119047D02*
X190974819Y-102880952D01*
X190974819Y-102880952D02*
X191022438Y-102785714D01*
X191022438Y-102785714D02*
X191070057Y-102738095D01*
X191070057Y-102738095D02*
X191165295Y-102690476D01*
X191165295Y-102690476D02*
X191260533Y-102690476D01*
X191260533Y-102690476D02*
X191403390Y-102738095D01*
X191403390Y-102738095D02*
X191974819Y-103309523D01*
X191974819Y-103309523D02*
X191974819Y-102690476D01*
X191974819Y-101738095D02*
X191974819Y-102309523D01*
X191974819Y-102023809D02*
X190974819Y-102023809D01*
X190974819Y-102023809D02*
X191117676Y-102119047D01*
X191117676Y-102119047D02*
X191212914Y-102214285D01*
X191212914Y-102214285D02*
X191260533Y-102309523D01*
X164179580Y-57366666D02*
X164227200Y-57414285D01*
X164227200Y-57414285D02*
X164274819Y-57557142D01*
X164274819Y-57557142D02*
X164274819Y-57652380D01*
X164274819Y-57652380D02*
X164227200Y-57795237D01*
X164227200Y-57795237D02*
X164131961Y-57890475D01*
X164131961Y-57890475D02*
X164036723Y-57938094D01*
X164036723Y-57938094D02*
X163846247Y-57985713D01*
X163846247Y-57985713D02*
X163703390Y-57985713D01*
X163703390Y-57985713D02*
X163512914Y-57938094D01*
X163512914Y-57938094D02*
X163417676Y-57890475D01*
X163417676Y-57890475D02*
X163322438Y-57795237D01*
X163322438Y-57795237D02*
X163274819Y-57652380D01*
X163274819Y-57652380D02*
X163274819Y-57557142D01*
X163274819Y-57557142D02*
X163322438Y-57414285D01*
X163322438Y-57414285D02*
X163370057Y-57366666D01*
X163370057Y-56985713D02*
X163322438Y-56938094D01*
X163322438Y-56938094D02*
X163274819Y-56842856D01*
X163274819Y-56842856D02*
X163274819Y-56604761D01*
X163274819Y-56604761D02*
X163322438Y-56509523D01*
X163322438Y-56509523D02*
X163370057Y-56461904D01*
X163370057Y-56461904D02*
X163465295Y-56414285D01*
X163465295Y-56414285D02*
X163560533Y-56414285D01*
X163560533Y-56414285D02*
X163703390Y-56461904D01*
X163703390Y-56461904D02*
X164274819Y-57033332D01*
X164274819Y-57033332D02*
X164274819Y-56414285D01*
X167679580Y-57466666D02*
X167727200Y-57514285D01*
X167727200Y-57514285D02*
X167774819Y-57657142D01*
X167774819Y-57657142D02*
X167774819Y-57752380D01*
X167774819Y-57752380D02*
X167727200Y-57895237D01*
X167727200Y-57895237D02*
X167631961Y-57990475D01*
X167631961Y-57990475D02*
X167536723Y-58038094D01*
X167536723Y-58038094D02*
X167346247Y-58085713D01*
X167346247Y-58085713D02*
X167203390Y-58085713D01*
X167203390Y-58085713D02*
X167012914Y-58038094D01*
X167012914Y-58038094D02*
X166917676Y-57990475D01*
X166917676Y-57990475D02*
X166822438Y-57895237D01*
X166822438Y-57895237D02*
X166774819Y-57752380D01*
X166774819Y-57752380D02*
X166774819Y-57657142D01*
X166774819Y-57657142D02*
X166822438Y-57514285D01*
X166822438Y-57514285D02*
X166870057Y-57466666D01*
X167774819Y-56514285D02*
X167774819Y-57085713D01*
X167774819Y-56799999D02*
X166774819Y-56799999D01*
X166774819Y-56799999D02*
X166917676Y-56895237D01*
X166917676Y-56895237D02*
X167012914Y-56990475D01*
X167012914Y-56990475D02*
X167060533Y-57085713D01*
D10*
X166860237Y-125074318D02*
X166860237Y-123804318D01*
X168190714Y-124953365D02*
X168130238Y-125013842D01*
X168130238Y-125013842D02*
X167948809Y-125074318D01*
X167948809Y-125074318D02*
X167827857Y-125074318D01*
X167827857Y-125074318D02*
X167646428Y-125013842D01*
X167646428Y-125013842D02*
X167525476Y-124892889D01*
X167525476Y-124892889D02*
X167464999Y-124771937D01*
X167464999Y-124771937D02*
X167404523Y-124530032D01*
X167404523Y-124530032D02*
X167404523Y-124348603D01*
X167404523Y-124348603D02*
X167464999Y-124106699D01*
X167464999Y-124106699D02*
X167525476Y-123985746D01*
X167525476Y-123985746D02*
X167646428Y-123864794D01*
X167646428Y-123864794D02*
X167827857Y-123804318D01*
X167827857Y-123804318D02*
X167948809Y-123804318D01*
X167948809Y-123804318D02*
X168130238Y-123864794D01*
X168130238Y-123864794D02*
X168190714Y-123925270D01*
X168614047Y-123804318D02*
X169400238Y-123804318D01*
X169400238Y-123804318D02*
X168976904Y-124288127D01*
X168976904Y-124288127D02*
X169158333Y-124288127D01*
X169158333Y-124288127D02*
X169279285Y-124348603D01*
X169279285Y-124348603D02*
X169339761Y-124409080D01*
X169339761Y-124409080D02*
X169400238Y-124530032D01*
X169400238Y-124530032D02*
X169400238Y-124832413D01*
X169400238Y-124832413D02*
X169339761Y-124953365D01*
X169339761Y-124953365D02*
X169279285Y-125013842D01*
X169279285Y-125013842D02*
X169158333Y-125074318D01*
X169158333Y-125074318D02*
X168795476Y-125074318D01*
X168795476Y-125074318D02*
X168674523Y-125013842D01*
X168674523Y-125013842D02*
X168614047Y-124953365D01*
X181232380Y-140513842D02*
X181413809Y-140574318D01*
X181413809Y-140574318D02*
X181716190Y-140574318D01*
X181716190Y-140574318D02*
X181837142Y-140513842D01*
X181837142Y-140513842D02*
X181897618Y-140453365D01*
X181897618Y-140453365D02*
X181958095Y-140332413D01*
X181958095Y-140332413D02*
X181958095Y-140211461D01*
X181958095Y-140211461D02*
X181897618Y-140090508D01*
X181897618Y-140090508D02*
X181837142Y-140030032D01*
X181837142Y-140030032D02*
X181716190Y-139969556D01*
X181716190Y-139969556D02*
X181474285Y-139909080D01*
X181474285Y-139909080D02*
X181353333Y-139848603D01*
X181353333Y-139848603D02*
X181292856Y-139788127D01*
X181292856Y-139788127D02*
X181232380Y-139667175D01*
X181232380Y-139667175D02*
X181232380Y-139546222D01*
X181232380Y-139546222D02*
X181292856Y-139425270D01*
X181292856Y-139425270D02*
X181353333Y-139364794D01*
X181353333Y-139364794D02*
X181474285Y-139304318D01*
X181474285Y-139304318D02*
X181776666Y-139304318D01*
X181776666Y-139304318D02*
X181958095Y-139364794D01*
X183167619Y-140574318D02*
X182441904Y-140574318D01*
X182804761Y-140574318D02*
X182804761Y-139304318D01*
X182804761Y-139304318D02*
X182683809Y-139485746D01*
X182683809Y-139485746D02*
X182562857Y-139606699D01*
X182562857Y-139606699D02*
X182441904Y-139667175D01*
D11*
X181438095Y-47044819D02*
X181438095Y-47854342D01*
X181438095Y-47854342D02*
X181485714Y-47949580D01*
X181485714Y-47949580D02*
X181533333Y-47997200D01*
X181533333Y-47997200D02*
X181628571Y-48044819D01*
X181628571Y-48044819D02*
X181819047Y-48044819D01*
X181819047Y-48044819D02*
X181914285Y-47997200D01*
X181914285Y-47997200D02*
X181961904Y-47949580D01*
X181961904Y-47949580D02*
X182009523Y-47854342D01*
X182009523Y-47854342D02*
X182009523Y-47044819D01*
X183009523Y-48044819D02*
X182438095Y-48044819D01*
X182723809Y-48044819D02*
X182723809Y-47044819D01*
X182723809Y-47044819D02*
X182628571Y-47187676D01*
X182628571Y-47187676D02*
X182533333Y-47282914D01*
X182533333Y-47282914D02*
X182438095Y-47330533D01*
X177438094Y-52059104D02*
X177914284Y-52059104D01*
X177342856Y-52344819D02*
X177676189Y-51344819D01*
X177676189Y-51344819D02*
X178009522Y-52344819D01*
X178342856Y-51678152D02*
X178342856Y-52344819D01*
X178342856Y-51773390D02*
X178390475Y-51725771D01*
X178390475Y-51725771D02*
X178485713Y-51678152D01*
X178485713Y-51678152D02*
X178628570Y-51678152D01*
X178628570Y-51678152D02*
X178723808Y-51725771D01*
X178723808Y-51725771D02*
X178771427Y-51821009D01*
X178771427Y-51821009D02*
X178771427Y-52344819D01*
X179104761Y-51678152D02*
X179485713Y-51678152D01*
X179247618Y-51344819D02*
X179247618Y-52201961D01*
X179247618Y-52201961D02*
X179295237Y-52297200D01*
X179295237Y-52297200D02*
X179390475Y-52344819D01*
X179390475Y-52344819D02*
X179485713Y-52344819D01*
X180199999Y-52297200D02*
X180104761Y-52344819D01*
X180104761Y-52344819D02*
X179914285Y-52344819D01*
X179914285Y-52344819D02*
X179819047Y-52297200D01*
X179819047Y-52297200D02*
X179771428Y-52201961D01*
X179771428Y-52201961D02*
X179771428Y-51821009D01*
X179771428Y-51821009D02*
X179819047Y-51725771D01*
X179819047Y-51725771D02*
X179914285Y-51678152D01*
X179914285Y-51678152D02*
X180104761Y-51678152D01*
X180104761Y-51678152D02*
X180199999Y-51725771D01*
X180199999Y-51725771D02*
X180247618Y-51821009D01*
X180247618Y-51821009D02*
X180247618Y-51916247D01*
X180247618Y-51916247D02*
X179771428Y-52011485D01*
X180676190Y-51678152D02*
X180676190Y-52344819D01*
X180676190Y-51773390D02*
X180723809Y-51725771D01*
X180723809Y-51725771D02*
X180819047Y-51678152D01*
X180819047Y-51678152D02*
X180961904Y-51678152D01*
X180961904Y-51678152D02*
X181057142Y-51725771D01*
X181057142Y-51725771D02*
X181104761Y-51821009D01*
X181104761Y-51821009D02*
X181104761Y-52344819D01*
X181580952Y-51678152D02*
X181580952Y-52344819D01*
X181580952Y-51773390D02*
X181628571Y-51725771D01*
X181628571Y-51725771D02*
X181723809Y-51678152D01*
X181723809Y-51678152D02*
X181866666Y-51678152D01*
X181866666Y-51678152D02*
X181961904Y-51725771D01*
X181961904Y-51725771D02*
X182009523Y-51821009D01*
X182009523Y-51821009D02*
X182009523Y-52344819D01*
X182914285Y-52344819D02*
X182914285Y-51821009D01*
X182914285Y-51821009D02*
X182866666Y-51725771D01*
X182866666Y-51725771D02*
X182771428Y-51678152D01*
X182771428Y-51678152D02*
X182580952Y-51678152D01*
X182580952Y-51678152D02*
X182485714Y-51725771D01*
X182914285Y-52297200D02*
X182819047Y-52344819D01*
X182819047Y-52344819D02*
X182580952Y-52344819D01*
X182580952Y-52344819D02*
X182485714Y-52297200D01*
X182485714Y-52297200D02*
X182438095Y-52201961D01*
X182438095Y-52201961D02*
X182438095Y-52106723D01*
X182438095Y-52106723D02*
X182485714Y-52011485D01*
X182485714Y-52011485D02*
X182580952Y-51963866D01*
X182580952Y-51963866D02*
X182819047Y-51963866D01*
X182819047Y-51963866D02*
X182914285Y-51916247D01*
X184104762Y-52059104D02*
X184580952Y-52059104D01*
X184009524Y-52344819D02*
X184342857Y-51344819D01*
X184342857Y-51344819D02*
X184676190Y-52344819D01*
X185009524Y-52344819D02*
X185009524Y-51678152D01*
X185009524Y-51868628D02*
X185057143Y-51773390D01*
X185057143Y-51773390D02*
X185104762Y-51725771D01*
X185104762Y-51725771D02*
X185200000Y-51678152D01*
X185200000Y-51678152D02*
X185295238Y-51678152D01*
X186009524Y-52297200D02*
X185914286Y-52344819D01*
X185914286Y-52344819D02*
X185723810Y-52344819D01*
X185723810Y-52344819D02*
X185628572Y-52297200D01*
X185628572Y-52297200D02*
X185580953Y-52201961D01*
X185580953Y-52201961D02*
X185580953Y-51821009D01*
X185580953Y-51821009D02*
X185628572Y-51725771D01*
X185628572Y-51725771D02*
X185723810Y-51678152D01*
X185723810Y-51678152D02*
X185914286Y-51678152D01*
X185914286Y-51678152D02*
X186009524Y-51725771D01*
X186009524Y-51725771D02*
X186057143Y-51821009D01*
X186057143Y-51821009D02*
X186057143Y-51916247D01*
X186057143Y-51916247D02*
X185580953Y-52011485D01*
X186914286Y-52344819D02*
X186914286Y-51821009D01*
X186914286Y-51821009D02*
X186866667Y-51725771D01*
X186866667Y-51725771D02*
X186771429Y-51678152D01*
X186771429Y-51678152D02*
X186580953Y-51678152D01*
X186580953Y-51678152D02*
X186485715Y-51725771D01*
X186914286Y-52297200D02*
X186819048Y-52344819D01*
X186819048Y-52344819D02*
X186580953Y-52344819D01*
X186580953Y-52344819D02*
X186485715Y-52297200D01*
X186485715Y-52297200D02*
X186438096Y-52201961D01*
X186438096Y-52201961D02*
X186438096Y-52106723D01*
X186438096Y-52106723D02*
X186485715Y-52011485D01*
X186485715Y-52011485D02*
X186580953Y-51963866D01*
X186580953Y-51963866D02*
X186819048Y-51963866D01*
X186819048Y-51963866D02*
X186914286Y-51916247D01*
D12*
X190000000Y-99100000D02*
X175250000Y-99100000D01*
D13*
X175250000Y-103000000D02*
X175250000Y-103000000D01*
X175150000Y-103000000D02*
X175150000Y-103000000D01*
X175150000Y-103000000D02*
G75*
G03*
X175250000Y-103000000I50000J0D01*
G01*
X175250000Y-103000000D02*
G75*
G03*
X175150000Y-103000000I-50000J0D01*
G01*
D14*
X191875000Y-105950000D02*
X193125000Y-105950000D01*
X193475000Y-106100000D02*
X194025000Y-106100000D01*
X193475000Y-109000000D02*
X193475000Y-106100000D01*
X194025000Y-106100000D02*
X194025000Y-109000000D01*
X194025000Y-109000000D02*
X193475000Y-109000000D01*
X198900000Y-106900000D02*
X197100000Y-106900000D01*
D12*
X177350000Y-116850000D02*
X189850000Y-116850000D01*
X189850000Y-116850000D02*
X189850000Y-116850000D01*
X189850000Y-116850000D02*
X177350000Y-116850000D01*
X177350000Y-116850000D02*
X177350000Y-116850000D01*
X189850000Y-129350000D02*
X177350000Y-129350000D01*
X177350000Y-129350000D02*
X177350000Y-129350000D01*
X177350000Y-129350000D02*
X189850000Y-129350000D01*
X189850000Y-129350000D02*
X189850000Y-129350000D01*
X177350000Y-119600000D02*
X177350000Y-119600000D01*
X177350000Y-119600000D02*
X177350000Y-116850000D01*
X177350000Y-116850000D02*
X177350000Y-116850000D01*
X177350000Y-116850000D02*
X177350000Y-119600000D01*
X189850000Y-116850000D02*
X189850000Y-116850000D01*
X189850000Y-116850000D02*
X189850000Y-119850000D01*
X189850000Y-119850000D02*
X189850000Y-119850000D01*
X189850000Y-119850000D02*
X189850000Y-116850000D01*
X189850000Y-126600000D02*
X189850000Y-126600000D01*
X189850000Y-126600000D02*
X189850000Y-129350000D01*
X189850000Y-129350000D02*
X189850000Y-129350000D01*
X189850000Y-129350000D02*
X189850000Y-126600000D01*
X177350000Y-129350000D02*
X177350000Y-129350000D01*
X177350000Y-129350000D02*
X177350000Y-126600000D01*
X177350000Y-126600000D02*
X177350000Y-126600000D01*
X177350000Y-126600000D02*
X177350000Y-129350000D01*
D15*
X168238748Y-131265000D02*
X168761252Y-131265000D01*
X168238748Y-132735000D02*
X168761252Y-132735000D01*
X173340000Y-135340000D02*
X173340000Y-137260000D01*
X176200000Y-135340000D02*
X173340000Y-135340000D01*
X173340000Y-137260000D02*
X176200000Y-137260000D01*
X163940000Y-137260000D02*
X166800000Y-137260000D01*
X166800000Y-135340000D02*
X163940000Y-135340000D01*
X163940000Y-135340000D02*
X163940000Y-137260000D01*
X172260000Y-135340000D02*
X169400000Y-135340000D01*
X169400000Y-137260000D02*
X172260000Y-137260000D01*
X172260000Y-137260000D02*
X172260000Y-135340000D01*
X194540000Y-110540000D02*
X194540000Y-112460000D01*
X197400000Y-110540000D02*
X194540000Y-110540000D01*
X194540000Y-112460000D02*
X197400000Y-112460000D01*
X196238748Y-114165000D02*
X196761252Y-114165000D01*
X196238748Y-115635000D02*
X196761252Y-115635000D01*
X171538748Y-122065000D02*
X172061252Y-122065000D01*
X171538748Y-123535000D02*
X172061252Y-123535000D01*
X191638748Y-110765000D02*
X192161252Y-110765000D01*
X191638748Y-112235000D02*
X192161252Y-112235000D01*
X192465000Y-103261252D02*
X192465000Y-102738748D01*
X193935000Y-103261252D02*
X193935000Y-102738748D01*
X164765000Y-57461252D02*
X164765000Y-56938748D01*
X166235000Y-57461252D02*
X166235000Y-56938748D01*
X168265000Y-57561252D02*
X168265000Y-57038748D01*
X169735000Y-57561252D02*
X169735000Y-57038748D01*
D14*
X165075000Y-125450000D02*
X166500000Y-125450000D01*
X176800000Y-139900000D02*
G75*
G03*
X177000000Y-139900000I100000J0D01*
G01*
X177000000Y-139900000D02*
G75*
G03*
X176800000Y-139900000I-100000J0D01*
G01*
D12*
X185500000Y-141750000D02*
X185500000Y-141100000D01*
X185500000Y-138250000D02*
X185500000Y-138900000D01*
X179500000Y-141750000D02*
X185500000Y-141750000D01*
X179500000Y-141100000D02*
X179500000Y-141750000D01*
X179500000Y-138900000D02*
X179500000Y-138250000D01*
X179500000Y-138250000D02*
X185500000Y-138250000D01*
D14*
X177000000Y-139900000D02*
X177000000Y-139900000D01*
X176800000Y-139900000D02*
X176800000Y-139900000D01*
D15*
X173200000Y-48890000D02*
X173200000Y-55640000D01*
X173200000Y-48890000D02*
X191200000Y-48890000D01*
X173200000Y-73640000D02*
X173200000Y-74390000D01*
X173200000Y-74390000D02*
X174200000Y-74390000D01*
X191200000Y-48890000D02*
X191200000Y-55640000D01*
X191200000Y-54830000D02*
X173200000Y-54830000D01*
X191200000Y-73640000D02*
X191200000Y-74390000D01*
X191200000Y-74390000D02*
X190200000Y-74390000D01*
D16*
X168796700Y-115740000D02*
G75*
G03*
X168034700Y-115740000I-381000J0D01*
G01*
X168034700Y-115740000D02*
G75*
G03*
X168796700Y-115740000I381000J0D01*
G01*
%LPC*%
D17*
X175396750Y-89690000D02*
G75*
G03*
X174933250Y-89690000I-231750J0D01*
G01*
X174933250Y-89690000D02*
G75*
G03*
X175396750Y-89690000I231750J0D01*
G01*
X175396750Y-96290000D02*
G75*
G03*
X174933250Y-96290000I-231750J0D01*
G01*
X174933250Y-96290000D02*
G75*
G03*
X175396750Y-96290000I231750J0D01*
G01*
D18*
X175250000Y-102000000D03*
X175750000Y-102000000D03*
X176250000Y-102000000D03*
X176750000Y-102000000D03*
X177250000Y-102000000D03*
X177750000Y-102000000D03*
X178250000Y-102000000D03*
X178750000Y-102000000D03*
X179250000Y-102000000D03*
X179750000Y-102000000D03*
X180250000Y-102000000D03*
X180750000Y-102000000D03*
X181250000Y-102000000D03*
X181750000Y-102000000D03*
X182250000Y-102000000D03*
X182750000Y-102000000D03*
X183250000Y-102000000D03*
X183750000Y-102000000D03*
X184250000Y-102000000D03*
X184750000Y-102000000D03*
X185250000Y-102000000D03*
X185750000Y-102000000D03*
X186250000Y-102000000D03*
X186750000Y-102000000D03*
X187250000Y-102000000D03*
X187750000Y-102000000D03*
X188250000Y-102000000D03*
X188750000Y-102000000D03*
X189250000Y-102000000D03*
X189750000Y-102000000D03*
D19*
X190750000Y-99500000D03*
X174250000Y-99500000D03*
D20*
X192500000Y-106600000D03*
X192500000Y-107550000D03*
X192500000Y-108500000D03*
X195000000Y-108500000D03*
X195000000Y-107550000D03*
X195000000Y-106600000D03*
D21*
X198000000Y-105800000D03*
X198000000Y-108000000D03*
D22*
X178750000Y-123100000D03*
X188450000Y-123100000D03*
D23*
X167462500Y-132000000D03*
X169537500Y-132000000D03*
D24*
X174175000Y-136300000D03*
X176225000Y-136300000D03*
X166825000Y-136300000D03*
X164775000Y-136300000D03*
D25*
X169375000Y-136300000D03*
X171425000Y-136300000D03*
D24*
X195375000Y-111500000D03*
X197425000Y-111500000D03*
D23*
X195462500Y-114900000D03*
X197537500Y-114900000D03*
X170762500Y-122800000D03*
X172837500Y-122800000D03*
X190862500Y-111500000D03*
X192937500Y-111500000D03*
D26*
X193200000Y-104037500D03*
X193200000Y-101962500D03*
X165500000Y-58237500D03*
X165500000Y-56162500D03*
X169000000Y-58337500D03*
X169000000Y-56262500D03*
D27*
X165788000Y-126025000D03*
X165788000Y-126675000D03*
X165788000Y-127325000D03*
X165788000Y-127975000D03*
X170212000Y-127975000D03*
X170212000Y-127325000D03*
X170212000Y-126675000D03*
X170212000Y-126025000D03*
D28*
X168000000Y-127000000D03*
D29*
X186600000Y-140000000D03*
X178400000Y-140000000D03*
D30*
X173450000Y-56380000D03*
X173450000Y-57650000D03*
X173450000Y-58920000D03*
X173450000Y-60190000D03*
X173450000Y-61460000D03*
X173450000Y-62730000D03*
X173450000Y-64000000D03*
X173450000Y-65270000D03*
X173450000Y-66540000D03*
X173450000Y-67810000D03*
X173450000Y-69080000D03*
X173450000Y-70350000D03*
X173450000Y-71620000D03*
X173450000Y-72890000D03*
D31*
X175215000Y-74140000D03*
X176485000Y-74140000D03*
X177755000Y-74140000D03*
X179025000Y-74140000D03*
X180295000Y-74140000D03*
X181565000Y-74140000D03*
X182835000Y-74140000D03*
X184105000Y-74140000D03*
X185375000Y-74140000D03*
X186645000Y-74140000D03*
X187915000Y-74140000D03*
X189185000Y-74140000D03*
D30*
X190950000Y-72890000D03*
X190950000Y-71620000D03*
X190950000Y-70350000D03*
X190950000Y-69080000D03*
X190950000Y-67810000D03*
X190950000Y-66540000D03*
X190950000Y-65270000D03*
X190950000Y-64000000D03*
X190950000Y-62730000D03*
X190950000Y-61460000D03*
X190950000Y-60190000D03*
X190950000Y-58920000D03*
X190950000Y-57650000D03*
X190950000Y-56380000D03*
D32*
X179300000Y-62700000D03*
X179300000Y-64100000D03*
X179300000Y-65500000D03*
X179300000Y-65500000D03*
X180700000Y-62700000D03*
X180700000Y-62700000D03*
X180700000Y-64100000D03*
X180700000Y-65500000D03*
X182100000Y-62700000D03*
X182100000Y-64100000D03*
X182100000Y-65500000D03*
D33*
X175165000Y-89690000D03*
X175165000Y-96290000D03*
D34*
X179105000Y-88380000D03*
X179105000Y-97600000D03*
X174605000Y-88380000D03*
X174605000Y-97600000D03*
D35*
X172500000Y-117870000D03*
X192500000Y-117870000D03*
%LPD*%
M02*
