G04 #@! TF.GenerationSoftware,KiCad,Pcbnew,7.0.10*
G04 #@! TF.CreationDate,2024-02-24T15:32:32-05:00*
G04 #@! TF.ProjectId,Bird3Controller,42697264-3343-46f6-9e74-726f6c6c6572,rev?*
G04 #@! TF.SameCoordinates,Original*
G04 #@! TF.FileFunction,Paste,Top*
G04 #@! TF.FilePolarity,Positive*
%FSLAX46Y46*%
G04 Gerber Fmt 4.6, Leading zero omitted, Abs format (unit mm)*
G04 Created by KiCad (PCBNEW 7.0.10) date 2024-02-24 15:32:32*
%MOMM*%
%LPD*%
G01*
G04 APERTURE LIST*
G04 Aperture macros list*
%AMRoundRect*
0 Rectangle with rounded corners*
0 $1 Rounding radius*
0 $2 $3 $4 $5 $6 $7 $8 $9 X,Y pos of 4 corners*
0 Add a 4 corners polygon primitive as box body*
4,1,4,$2,$3,$4,$5,$6,$7,$8,$9,$2,$3,0*
0 Add four circle primitives for the rounded corners*
1,1,$1+$1,$2,$3*
1,1,$1+$1,$4,$5*
1,1,$1+$1,$6,$7*
1,1,$1+$1,$8,$9*
0 Add four rect primitives between the rounded corners*
20,1,$1+$1,$2,$3,$4,$5,0*
20,1,$1+$1,$4,$5,$6,$7,0*
20,1,$1+$1,$6,$7,$8,$9,0*
20,1,$1+$1,$8,$9,$2,$3,0*%
G04 Aperture macros list end*
%ADD10R,0.300000X0.800000*%
%ADD11R,0.400000X0.800000*%
%ADD12R,1.250000X0.600000*%
%ADD13R,2.200000X1.200000*%
%ADD14R,2.900000X5.400000*%
%ADD15RoundRect,0.250000X-0.337500X-0.475000X0.337500X-0.475000X0.337500X0.475000X-0.337500X0.475000X0*%
%ADD16RoundRect,0.250000X-0.325000X-0.450000X0.325000X-0.450000X0.325000X0.450000X-0.325000X0.450000X0*%
%ADD17RoundRect,0.250000X0.325000X0.450000X-0.325000X0.450000X-0.325000X-0.450000X0.325000X-0.450000X0*%
%ADD18RoundRect,0.250000X0.475000X-0.337500X0.475000X0.337500X-0.475000X0.337500X-0.475000X-0.337500X0*%
%ADD19R,1.425000X0.450000*%
%ADD20R,1.880000X2.000000*%
%ADD21R,2.000000X1.500000*%
%ADD22R,1.500000X0.900000*%
%ADD23R,0.900000X1.500000*%
%ADD24R,0.900000X0.900000*%
G04 APERTURE END LIST*
D10*
X175250000Y-102000000D03*
X175750000Y-102000000D03*
X176250000Y-102000000D03*
X176750000Y-102000000D03*
X177250000Y-102000000D03*
X177750000Y-102000000D03*
X178250000Y-102000000D03*
X178750000Y-102000000D03*
X179250000Y-102000000D03*
X179750000Y-102000000D03*
X180250000Y-102000000D03*
X180750000Y-102000000D03*
X181250000Y-102000000D03*
X181750000Y-102000000D03*
X182250000Y-102000000D03*
X182750000Y-102000000D03*
X183250000Y-102000000D03*
X183750000Y-102000000D03*
X184250000Y-102000000D03*
X184750000Y-102000000D03*
X185250000Y-102000000D03*
X185750000Y-102000000D03*
X186250000Y-102000000D03*
X186750000Y-102000000D03*
X187250000Y-102000000D03*
X187750000Y-102000000D03*
X188250000Y-102000000D03*
X188750000Y-102000000D03*
X189250000Y-102000000D03*
X189750000Y-102000000D03*
D11*
X190750000Y-99500000D03*
X174250000Y-99500000D03*
D12*
X192500000Y-106600000D03*
X192500000Y-107550000D03*
X192500000Y-108500000D03*
X195000000Y-108500000D03*
X195000000Y-107550000D03*
X195000000Y-106600000D03*
D13*
X198000000Y-105800000D03*
X198000000Y-108000000D03*
D14*
X178750000Y-123100000D03*
X188450000Y-123100000D03*
D15*
X167462500Y-132000000D03*
X169537500Y-132000000D03*
D16*
X174175000Y-136300000D03*
X176225000Y-136300000D03*
X166825000Y-136300000D03*
X164775000Y-136300000D03*
D17*
X169375000Y-136300000D03*
X171425000Y-136300000D03*
D16*
X195375000Y-111500000D03*
X197425000Y-111500000D03*
D15*
X195462500Y-114900000D03*
X197537500Y-114900000D03*
X170762500Y-122800000D03*
X172837500Y-122800000D03*
X190862500Y-111500000D03*
X192937500Y-111500000D03*
D18*
X193200000Y-104037500D03*
X193200000Y-101962500D03*
X165500000Y-58237500D03*
X165500000Y-56162500D03*
X169000000Y-58337500D03*
X169000000Y-56262500D03*
D19*
X165788000Y-126025000D03*
X165788000Y-126675000D03*
X165788000Y-127325000D03*
X165788000Y-127975000D03*
X170212000Y-127975000D03*
X170212000Y-127325000D03*
X170212000Y-126675000D03*
X170212000Y-126025000D03*
D20*
X168000000Y-127000000D03*
D21*
X186600000Y-140000000D03*
X178400000Y-140000000D03*
D22*
X173450000Y-56380000D03*
X173450000Y-57650000D03*
X173450000Y-58920000D03*
X173450000Y-60190000D03*
X173450000Y-61460000D03*
X173450000Y-62730000D03*
X173450000Y-64000000D03*
X173450000Y-65270000D03*
X173450000Y-66540000D03*
X173450000Y-67810000D03*
X173450000Y-69080000D03*
X173450000Y-70350000D03*
X173450000Y-71620000D03*
X173450000Y-72890000D03*
D23*
X175215000Y-74140000D03*
X176485000Y-74140000D03*
X177755000Y-74140000D03*
X179025000Y-74140000D03*
X180295000Y-74140000D03*
X181565000Y-74140000D03*
X182835000Y-74140000D03*
X184105000Y-74140000D03*
X185375000Y-74140000D03*
X186645000Y-74140000D03*
X187915000Y-74140000D03*
X189185000Y-74140000D03*
D22*
X190950000Y-72890000D03*
X190950000Y-71620000D03*
X190950000Y-70350000D03*
X190950000Y-69080000D03*
X190950000Y-67810000D03*
X190950000Y-66540000D03*
X190950000Y-65270000D03*
X190950000Y-64000000D03*
X190950000Y-62730000D03*
X190950000Y-61460000D03*
X190950000Y-60190000D03*
X190950000Y-58920000D03*
X190950000Y-57650000D03*
X190950000Y-56380000D03*
D24*
X179300000Y-62700000D03*
X179300000Y-64100000D03*
X179300000Y-65500000D03*
X179300000Y-65500000D03*
X180700000Y-62700000D03*
X180700000Y-62700000D03*
X180700000Y-64100000D03*
X180700000Y-65500000D03*
X182100000Y-62700000D03*
X182100000Y-64100000D03*
X182100000Y-65500000D03*
M02*
