G04 #@! TF.GenerationSoftware,KiCad,Pcbnew,7.0.10*
G04 #@! TF.CreationDate,2024-02-24T15:32:32-05:00*
G04 #@! TF.ProjectId,Bird3Controller,42697264-3343-46f6-9e74-726f6c6c6572,rev?*
G04 #@! TF.SameCoordinates,Original*
G04 #@! TF.FileFunction,Copper,L2,Bot*
G04 #@! TF.FilePolarity,Positive*
%FSLAX46Y46*%
G04 Gerber Fmt 4.6, Leading zero omitted, Abs format (unit mm)*
G04 Created by KiCad (PCBNEW 7.0.10) date 2024-02-24 15:32:32*
%MOMM*%
%LPD*%
G01*
G04 APERTURE LIST*
G04 Aperture macros list*
%AMRoundRect*
0 Rectangle with rounded corners*
0 $1 Rounding radius*
0 $2 $3 $4 $5 $6 $7 $8 $9 X,Y pos of 4 corners*
0 Add a 4 corners polygon primitive as box body*
4,1,4,$2,$3,$4,$5,$6,$7,$8,$9,$2,$3,0*
0 Add four circle primitives for the rounded corners*
1,1,$1+$1,$2,$3*
1,1,$1+$1,$4,$5*
1,1,$1+$1,$6,$7*
1,1,$1+$1,$8,$9*
0 Add four rect primitives between the rounded corners*
20,1,$1+$1,$2,$3,$4,$5,0*
20,1,$1+$1,$4,$5,$6,$7,0*
20,1,$1+$1,$6,$7,$8,$9,0*
20,1,$1+$1,$8,$9,$2,$3,0*%
G04 Aperture macros list end*
G04 #@! TA.AperFunction,SMDPad,CuDef*
%ADD10R,1.000000X0.700000*%
G04 #@! TD*
G04 #@! TA.AperFunction,SMDPad,CuDef*
%ADD11R,0.650000X1.525000*%
G04 #@! TD*
G04 #@! TA.AperFunction,SMDPad,CuDef*
%ADD12R,3.100000X2.400000*%
G04 #@! TD*
G04 #@! TA.AperFunction,SMDPad,CuDef*
%ADD13R,5.400000X2.900000*%
G04 #@! TD*
G04 #@! TA.AperFunction,SMDPad,CuDef*
%ADD14RoundRect,0.250000X0.350000X0.450000X-0.350000X0.450000X-0.350000X-0.450000X0.350000X-0.450000X0*%
G04 #@! TD*
G04 #@! TA.AperFunction,SMDPad,CuDef*
%ADD15RoundRect,0.250000X-0.450000X0.350000X-0.450000X-0.350000X0.450000X-0.350000X0.450000X0.350000X0*%
G04 #@! TD*
G04 #@! TA.AperFunction,SMDPad,CuDef*
%ADD16RoundRect,0.250000X0.450000X-0.325000X0.450000X0.325000X-0.450000X0.325000X-0.450000X-0.325000X0*%
G04 #@! TD*
G04 #@! TA.AperFunction,SMDPad,CuDef*
%ADD17RoundRect,0.250000X0.475000X-0.337500X0.475000X0.337500X-0.475000X0.337500X-0.475000X-0.337500X0*%
G04 #@! TD*
G04 #@! TA.AperFunction,SMDPad,CuDef*
%ADD18RoundRect,0.250000X-0.475000X0.337500X-0.475000X-0.337500X0.475000X-0.337500X0.475000X0.337500X0*%
G04 #@! TD*
G04 #@! TA.AperFunction,SMDPad,CuDef*
%ADD19RoundRect,0.250000X-0.337500X-0.475000X0.337500X-0.475000X0.337500X0.475000X-0.337500X0.475000X0*%
G04 #@! TD*
G04 #@! TA.AperFunction,SMDPad,CuDef*
%ADD20RoundRect,0.250000X0.337500X0.475000X-0.337500X0.475000X-0.337500X-0.475000X0.337500X-0.475000X0*%
G04 #@! TD*
G04 #@! TA.AperFunction,SMDPad,CuDef*
%ADD21RoundRect,0.150000X0.825000X0.150000X-0.825000X0.150000X-0.825000X-0.150000X0.825000X-0.150000X0*%
G04 #@! TD*
G04 #@! TA.AperFunction,SMDPad,CuDef*
%ADD22R,0.700000X1.000000*%
G04 #@! TD*
G04 #@! TA.AperFunction,SMDPad,CuDef*
%ADD23R,0.700000X0.600000*%
G04 #@! TD*
G04 #@! TA.AperFunction,SMDPad,CuDef*
%ADD24R,1.300000X0.590000*%
G04 #@! TD*
G04 #@! TA.AperFunction,SMDPad,CuDef*
%ADD25R,1.300000X0.298000*%
G04 #@! TD*
G04 #@! TA.AperFunction,ComponentPad*
%ADD26O,2.000000X1.000000*%
G04 #@! TD*
G04 #@! TA.AperFunction,SMDPad,CuDef*
%ADD27R,0.990600X2.743200*%
G04 #@! TD*
G04 #@! TA.AperFunction,ViaPad*
%ADD28C,0.800000*%
G04 #@! TD*
G04 #@! TA.AperFunction,Conductor*
%ADD29C,0.250000*%
G04 #@! TD*
G04 APERTURE END LIST*
D10*
X163800000Y-70200000D03*
X169800000Y-70200000D03*
X163800000Y-66500000D03*
X169800000Y-66500000D03*
D11*
X175410000Y-142062000D03*
X174140000Y-142062000D03*
X172870000Y-142062000D03*
X171600000Y-142062000D03*
X171600000Y-136638000D03*
X172870000Y-136638000D03*
X174140000Y-136638000D03*
X175410000Y-136638000D03*
D12*
X173505000Y-139350000D03*
D13*
X184200000Y-144150000D03*
X184200000Y-134450000D03*
D14*
X167700000Y-138700000D03*
X165700000Y-138700000D03*
X167800000Y-135400000D03*
X165800000Y-135400000D03*
X167700000Y-142100000D03*
X165700000Y-142100000D03*
D15*
X171900000Y-109300000D03*
X171900000Y-111300000D03*
X171900000Y-105300000D03*
X171900000Y-107300000D03*
D14*
X166300000Y-93400000D03*
X164300000Y-93400000D03*
X185800000Y-90800000D03*
X183800000Y-90800000D03*
X185800000Y-93900000D03*
X183800000Y-93900000D03*
X167900000Y-51400000D03*
X165900000Y-51400000D03*
D16*
X171700000Y-99150000D03*
X171700000Y-97100000D03*
X171500000Y-125325000D03*
X171500000Y-123275000D03*
D17*
X192337500Y-126437500D03*
X192337500Y-124362500D03*
D18*
X195400000Y-124400000D03*
X195400000Y-126475000D03*
D19*
X173962500Y-133300000D03*
X176037500Y-133300000D03*
D18*
X197700000Y-124400000D03*
X197700000Y-126475000D03*
D20*
X171737500Y-133300000D03*
X169662500Y-133300000D03*
D18*
X169000000Y-144725000D03*
X169000000Y-146800000D03*
X175400000Y-144725000D03*
X175400000Y-146800000D03*
X172100000Y-144725000D03*
X172100000Y-146800000D03*
X168500000Y-109225000D03*
X168500000Y-111300000D03*
D20*
X167537500Y-89700000D03*
X165462500Y-89700000D03*
X167937500Y-54000000D03*
X165862500Y-54000000D03*
D15*
X189800000Y-124400000D03*
X189800000Y-126400000D03*
D10*
X163800000Y-61650000D03*
X169800000Y-61650000D03*
X163800000Y-57950000D03*
X169800000Y-57950000D03*
D21*
X180000000Y-105690000D03*
X180000000Y-106960000D03*
X180000000Y-108230000D03*
X180000000Y-109500000D03*
X175050000Y-109500000D03*
X175050000Y-108230000D03*
X175050000Y-106960000D03*
X175050000Y-105690000D03*
D22*
X169800000Y-92750000D03*
D23*
X169800000Y-94450000D03*
X167800000Y-94450000D03*
X167800000Y-92550000D03*
D24*
X174045000Y-89790000D03*
X174045000Y-90590000D03*
D25*
X174045000Y-91740000D03*
X174045000Y-92740000D03*
X174045000Y-93240000D03*
X174045000Y-94240000D03*
D24*
X174045000Y-96190000D03*
X174045000Y-95390000D03*
D25*
X174045000Y-94740000D03*
X174045000Y-93740000D03*
X174045000Y-92240000D03*
X174045000Y-91240000D03*
D26*
X179105000Y-88380000D03*
X179105000Y-97600000D03*
X174605000Y-88380000D03*
X174605000Y-97600000D03*
D27*
X171499999Y-115739999D03*
X171499999Y-120000001D03*
X173500000Y-115739999D03*
X173500000Y-120000001D03*
X175499999Y-115739999D03*
X175499999Y-120000001D03*
X177500000Y-115739999D03*
X177500000Y-120000001D03*
X179499998Y-115739999D03*
X179499998Y-120000001D03*
X181499999Y-115739999D03*
X181499999Y-120000001D03*
X183500001Y-115739999D03*
X183500001Y-120000001D03*
X185499999Y-115739999D03*
X185499999Y-120000001D03*
X187500000Y-115739999D03*
X187500000Y-120000001D03*
X189499999Y-115739999D03*
X189499999Y-120000001D03*
X191500000Y-115739999D03*
X191500000Y-120000001D03*
X193499998Y-115739999D03*
X193499998Y-120000001D03*
D28*
X187195400Y-72738800D03*
X177273200Y-75906400D03*
X174824700Y-72782900D03*
X172077500Y-58920000D03*
X181565000Y-72785900D03*
X184892700Y-76113600D03*
X183751700Y-76559600D03*
X183863500Y-78861800D03*
X175428400Y-66563500D03*
X182912700Y-77794200D03*
X176846900Y-72749400D03*
X182803400Y-79925100D03*
X174811300Y-68322000D03*
X182076500Y-75587200D03*
X175646700Y-72161800D03*
X180772700Y-78116500D03*
X186001700Y-97828000D03*
X180300300Y-103031900D03*
X187550400Y-78655200D03*
X181525800Y-84180600D03*
X186082700Y-72662400D03*
X180858100Y-83431300D03*
X185374200Y-71953900D03*
X180131200Y-82741200D03*
X186505000Y-96616100D03*
X178879600Y-103044400D03*
X192464000Y-121767800D03*
X174823700Y-61756800D03*
X177479600Y-62140600D03*
X174823000Y-62891600D03*
X174827800Y-64026400D03*
X172601900Y-101976800D03*
X176798500Y-100982400D03*
X185219400Y-128846300D03*
X163892400Y-53407600D03*
X193750000Y-106775000D03*
X175153800Y-58548400D03*
X169091500Y-90424400D03*
X169091500Y-105869300D03*
X177506300Y-105975200D03*
X193094900Y-112962800D03*
X172837500Y-124157400D03*
X167361400Y-56162500D03*
X172043300Y-94393600D03*
X175296900Y-92764400D03*
X172551800Y-92555700D03*
X171185700Y-93540700D03*
D29*
X169800000Y-66500000D02*
X163800000Y-66500000D01*
X169800000Y-66500000D02*
X170626900Y-66500000D01*
X180275500Y-65818900D02*
X187195400Y-72738800D01*
X171308000Y-65818900D02*
X180275500Y-65818900D01*
X170626900Y-66500000D02*
X171308000Y-65818900D01*
X171900000Y-109225000D02*
X168500000Y-109225000D01*
X171900000Y-107300000D02*
X171900000Y-109225000D01*
X171900000Y-109225000D02*
X171900000Y-109300000D01*
X181965300Y-91740000D02*
X174045000Y-91740000D01*
X182088300Y-91863000D02*
X181965300Y-91740000D01*
X184737000Y-91863000D02*
X182088300Y-91863000D01*
X185800000Y-90800000D02*
X184737000Y-91863000D01*
X184200000Y-144150000D02*
X184200000Y-142373100D01*
X176037500Y-133300000D02*
X176037500Y-135656500D01*
X175410000Y-136284000D02*
X176037500Y-135656500D01*
X175410000Y-136638000D02*
X175410000Y-136284000D01*
X177483400Y-135656500D02*
X184200000Y-142373100D01*
X176037500Y-135656500D02*
X177483400Y-135656500D01*
X174140000Y-133477500D02*
X174140000Y-136638000D01*
X173962500Y-133300000D02*
X174140000Y-133477500D01*
X172870000Y-134432500D02*
X172870000Y-136638000D01*
X171737500Y-133300000D02*
X172870000Y-134432500D01*
X171600000Y-136638000D02*
X171600000Y-135548600D01*
X167800000Y-133483700D02*
X167800000Y-135400000D01*
X169041200Y-132242500D02*
X167800000Y-133483700D01*
X170291500Y-132242500D02*
X169041200Y-132242500D01*
X170700000Y-132651000D02*
X170291500Y-132242500D01*
X170700000Y-134648600D02*
X170700000Y-132651000D01*
X171600000Y-135548600D02*
X170700000Y-134648600D01*
X165700000Y-137500000D02*
X165700000Y-138700000D01*
X167800000Y-135400000D02*
X165700000Y-137500000D01*
X171600000Y-142062000D02*
X171600000Y-143151400D01*
X168751400Y-143151400D02*
X167700000Y-142100000D01*
X171600000Y-143151400D02*
X168751400Y-143151400D01*
X172870000Y-142062000D02*
X172870000Y-142606700D01*
X174140000Y-142062000D02*
X174140000Y-143151400D01*
X169000000Y-144725000D02*
X172100000Y-144725000D01*
X173414700Y-143410300D02*
X173414700Y-143151400D01*
X172100000Y-144725000D02*
X173414700Y-143410300D01*
X172870000Y-142606700D02*
X173414700Y-143151400D01*
X173414700Y-143151400D02*
X174140000Y-143151400D01*
X175400000Y-144411400D02*
X174140000Y-143151400D01*
X175400000Y-144725000D02*
X175400000Y-144411400D01*
X166971100Y-120796100D02*
X171500000Y-125325000D01*
X166971100Y-103878900D02*
X166971100Y-120796100D01*
X171700000Y-99150000D02*
X166971100Y-103878900D01*
X166048700Y-144725000D02*
X169000000Y-144725000D01*
X163820300Y-142496600D02*
X166048700Y-144725000D01*
X163820300Y-133004700D02*
X163820300Y-142496600D01*
X171500000Y-125325000D02*
X163820300Y-133004700D01*
X180397500Y-109500000D02*
X180000000Y-109500000D01*
X187775100Y-102122400D02*
X180397500Y-109500000D01*
X187775100Y-89773000D02*
X187775100Y-102122400D01*
X182909600Y-84907500D02*
X187775100Y-89773000D01*
X181224800Y-84907500D02*
X182909600Y-84907500D01*
X177273200Y-80955900D02*
X181224800Y-84907500D01*
X177273200Y-75906400D02*
X177273200Y-80955900D01*
X187275000Y-98415000D02*
X180000000Y-105690000D01*
X187275000Y-89962900D02*
X187275000Y-98415000D01*
X186343000Y-89030900D02*
X187275000Y-89962900D01*
X184709100Y-89030900D02*
X186343000Y-89030900D01*
X174824700Y-79146500D02*
X184709100Y-89030900D01*
X174824700Y-72782900D02*
X174824700Y-79146500D01*
X171784400Y-58626900D02*
X172077500Y-58920000D01*
X169800000Y-58626900D02*
X171784400Y-58626900D01*
X169800000Y-57950000D02*
X169800000Y-58626900D01*
X167900000Y-51400000D02*
X167900000Y-52164100D01*
X169800000Y-54064100D02*
X167900000Y-52164100D01*
X169800000Y-57950000D02*
X169800000Y-54064100D01*
X163800000Y-57950000D02*
X163800000Y-57273100D01*
X167698400Y-52164100D02*
X165862500Y-54000000D01*
X167900000Y-52164100D02*
X167698400Y-52164100D01*
X165862500Y-55210600D02*
X163800000Y-57273100D01*
X165862500Y-54000000D02*
X165862500Y-55210600D01*
X175633600Y-94740000D02*
X174045000Y-94740000D01*
X177548400Y-92825200D02*
X175633600Y-94740000D01*
X184725200Y-92825200D02*
X177548400Y-92825200D01*
X185800000Y-93900000D02*
X184725200Y-92825200D01*
X184892700Y-76113600D02*
X181565000Y-72785900D01*
X183751700Y-78750000D02*
X183863500Y-78861800D01*
X183751700Y-76559600D02*
X183751700Y-78750000D01*
X182912700Y-75211100D02*
X182912700Y-77794200D01*
X175428400Y-67726800D02*
X182912700Y-75211100D01*
X175428400Y-66563500D02*
X175428400Y-67726800D01*
X181499600Y-78621300D02*
X182803400Y-79925100D01*
X181499600Y-77402100D02*
X181499600Y-78621300D01*
X176846900Y-72749400D02*
X181499600Y-77402100D01*
X174811300Y-68322000D02*
X182076500Y-75587200D01*
X175646700Y-72990500D02*
X180772700Y-78116500D01*
X175646700Y-72161800D02*
X175646700Y-72990500D01*
X185504200Y-97828000D02*
X186001700Y-97828000D01*
X180300300Y-103031900D02*
X185504200Y-97828000D01*
X187051200Y-78655200D02*
X181525800Y-84180600D01*
X187550400Y-78655200D02*
X187051200Y-78655200D01*
X181019000Y-83431300D02*
X180858100Y-83431300D01*
X186126300Y-78324000D02*
X181019000Y-83431300D01*
X186126300Y-72706000D02*
X186126300Y-78324000D01*
X186082700Y-72662400D02*
X186126300Y-72706000D01*
X180168000Y-82704400D02*
X180131200Y-82741200D01*
X181064100Y-82704400D02*
X180168000Y-82704400D01*
X185661300Y-78107200D02*
X181064100Y-82704400D01*
X185661300Y-73507100D02*
X185661300Y-78107200D01*
X185305400Y-73151200D02*
X185661300Y-73507100D01*
X185305400Y-72022700D02*
X185305400Y-73151200D01*
X185374200Y-71953900D02*
X185305400Y-72022700D01*
X185307900Y-96616100D02*
X178879600Y-103044400D01*
X186505000Y-96616100D02*
X185307900Y-96616100D01*
X193439600Y-125335400D02*
X192337500Y-126437500D01*
X193439600Y-121836900D02*
X193439600Y-125335400D01*
X193500000Y-121776500D02*
X193439600Y-121836900D01*
X193500000Y-120000000D02*
X193500000Y-121776500D01*
X192533100Y-121836900D02*
X192464000Y-121767800D01*
X193439600Y-121836900D02*
X192533100Y-121836900D01*
X185500000Y-115740000D02*
X185500000Y-114041500D01*
X175189900Y-61390600D02*
X174823700Y-61756800D01*
X178863900Y-61390600D02*
X175189900Y-61390600D01*
X189673600Y-72200300D02*
X178863900Y-61390600D01*
X189673600Y-109867900D02*
X189673600Y-72200300D01*
X185500000Y-114041500D02*
X189673600Y-109867900D01*
X178973500Y-62140600D02*
X177479600Y-62140600D01*
X189217100Y-72384200D02*
X178973500Y-62140600D01*
X189217100Y-108073900D02*
X189217100Y-72384200D01*
X183500000Y-113791000D02*
X189217100Y-108073900D01*
X183500000Y-115740000D02*
X183500000Y-113791000D01*
X179016900Y-62891600D02*
X174823000Y-62891600D01*
X188760700Y-72635400D02*
X179016900Y-62891600D01*
X188760700Y-106780800D02*
X188760700Y-72635400D01*
X181500000Y-114041500D02*
X188760700Y-106780800D01*
X181500000Y-115740000D02*
X181500000Y-114041500D01*
X179500000Y-113096600D02*
X179500000Y-115740000D01*
X188304200Y-104292400D02*
X179500000Y-113096600D01*
X188304200Y-72818000D02*
X188304200Y-104292400D01*
X179512600Y-64026400D02*
X188304200Y-72818000D01*
X174827800Y-64026400D02*
X179512600Y-64026400D01*
X175500000Y-115740000D02*
X175500000Y-114041500D01*
X175457600Y-106960000D02*
X175050000Y-106960000D01*
X176352500Y-107854900D02*
X175457600Y-106960000D01*
X176352500Y-113189000D02*
X176352500Y-107854900D01*
X175500000Y-114041500D02*
X176352500Y-113189000D01*
X173560000Y-106960000D02*
X171900000Y-105300000D01*
X175050000Y-106960000D02*
X173560000Y-106960000D01*
X173500000Y-112900000D02*
X171900000Y-111300000D01*
X173500000Y-115740000D02*
X173500000Y-112900000D01*
X171900000Y-110996300D02*
X171900000Y-111300000D01*
X174666300Y-108230000D02*
X171900000Y-110996300D01*
X175050000Y-108230000D02*
X174666300Y-108230000D01*
X171500000Y-120000000D02*
X171500000Y-123275000D01*
X175804100Y-101976800D02*
X172601900Y-101976800D01*
X176798500Y-100982400D02*
X175804100Y-101976800D01*
X191500000Y-120000000D02*
X191500000Y-123525000D01*
X191500000Y-123525000D02*
X192337500Y-124362500D01*
X190625000Y-124400000D02*
X189800000Y-124400000D01*
X191500000Y-123525000D02*
X190625000Y-124400000D01*
X189665700Y-124400000D02*
X185219400Y-128846300D01*
X189800000Y-124400000D02*
X189665700Y-124400000D01*
X177500000Y-120000000D02*
X177500000Y-119150700D01*
X177500000Y-119150700D02*
X177500000Y-118301500D01*
X176650800Y-118301500D02*
X175500000Y-118301500D01*
X177500000Y-119150700D02*
X176650800Y-118301500D01*
X175500000Y-120000000D02*
X175500000Y-118301500D01*
X178322200Y-117479300D02*
X177500000Y-118301500D01*
X178322200Y-109521500D02*
X178322200Y-117479300D01*
X179613700Y-108230000D02*
X178322200Y-109521500D01*
X180000000Y-108230000D02*
X179613700Y-108230000D01*
X191379400Y-134450000D02*
X184200000Y-134450000D01*
X198795300Y-127034100D02*
X191379400Y-134450000D01*
X198795300Y-125495300D02*
X198795300Y-127034100D01*
X197700000Y-124400000D02*
X198795300Y-125495300D01*
X184200000Y-134450000D02*
X181173100Y-134450000D01*
X195400000Y-124400000D02*
X197700000Y-124400000D01*
X163892400Y-53407600D02*
X165900000Y-51400000D01*
X164748100Y-141148100D02*
X165700000Y-142100000D01*
X164748100Y-136451900D02*
X164748100Y-141148100D01*
X165800000Y-135400000D02*
X164748100Y-136451900D01*
X181500000Y-120000000D02*
X181500000Y-121698500D01*
X177500000Y-120000000D02*
X177500000Y-121698500D01*
X172940400Y-127628600D02*
X174351700Y-127628600D01*
X165800000Y-134769000D02*
X172940400Y-127628600D01*
X165800000Y-135400000D02*
X165800000Y-134769000D01*
X174351700Y-127628600D02*
X181173100Y-134450000D01*
X181500000Y-121698500D02*
X177500000Y-121698500D01*
X177500000Y-124480300D02*
X174351700Y-127628600D01*
X177500000Y-121698500D02*
X177500000Y-124480300D01*
X195400000Y-108425000D02*
X193750000Y-106775000D01*
X195400000Y-124400000D02*
X195400000Y-108425000D01*
X176695700Y-58548400D02*
X175153800Y-58548400D01*
X193750000Y-75602700D02*
X176695700Y-58548400D01*
X193750000Y-106775000D02*
X193750000Y-75602700D01*
X183500000Y-118303000D02*
X183500000Y-118301500D01*
X183500000Y-118414900D02*
X183500000Y-118303000D01*
X179500000Y-120000000D02*
X179500000Y-119150700D01*
X177500000Y-117437000D02*
X177500000Y-117438500D01*
X177500000Y-117325100D02*
X177500000Y-117437000D01*
X169800000Y-61650000D02*
X169800000Y-60973100D01*
X172100000Y-146800000D02*
X169000000Y-146800000D01*
X172100000Y-146800000D02*
X175400000Y-146800000D01*
X175491500Y-143151400D02*
X175410000Y-143151400D01*
X176457700Y-144117600D02*
X175491500Y-143151400D01*
X176457700Y-145742300D02*
X176457700Y-144117600D01*
X175400000Y-146800000D02*
X176457700Y-145742300D01*
X175410000Y-142062000D02*
X175410000Y-143151400D01*
X197700000Y-126475000D02*
X195400000Y-126475000D01*
X163800000Y-70200000D02*
X163800000Y-69523100D01*
X163800000Y-61650000D02*
X163800000Y-62326900D01*
X163800000Y-61650000D02*
X163800000Y-60973100D01*
X183500000Y-119207400D02*
X183500000Y-118414900D01*
X162973100Y-63153800D02*
X163800000Y-62326900D01*
X162973100Y-68696200D02*
X162973100Y-63153800D01*
X163800000Y-69523100D02*
X162973100Y-68696200D01*
X183500000Y-119207400D02*
X183500000Y-120000000D01*
X177500000Y-116475800D02*
X177500000Y-117325100D01*
X180349200Y-118301500D02*
X179500000Y-119150700D01*
X183500000Y-118301500D02*
X180349200Y-118301500D01*
X174045000Y-89790000D02*
X173068100Y-89790000D01*
X169800000Y-70200000D02*
X169800000Y-70538400D01*
X169800000Y-70538400D02*
X169800000Y-70876900D01*
X164965300Y-70538400D02*
X164626900Y-70200000D01*
X169800000Y-70538400D02*
X164965300Y-70538400D01*
X163800000Y-70200000D02*
X164626900Y-70200000D01*
X169800000Y-70876900D02*
X169800000Y-87414100D01*
X191500000Y-116151200D02*
X191500000Y-115740000D01*
X189349700Y-118301500D02*
X191500000Y-116151200D01*
X183500000Y-118301500D02*
X189349700Y-118301500D01*
X191500000Y-115740000D02*
X191500000Y-114041500D01*
X193392200Y-127403500D02*
X194320700Y-126475000D01*
X190803500Y-127403500D02*
X193392200Y-127403500D01*
X189800000Y-126400000D02*
X190803500Y-127403500D01*
X194320700Y-126475000D02*
X195400000Y-126475000D01*
X171241500Y-114041500D02*
X168500000Y-111300000D01*
X171500000Y-114041500D02*
X171241500Y-114041500D01*
X171500000Y-115740000D02*
X171500000Y-114041500D01*
X167426100Y-107534700D02*
X169091500Y-105869300D01*
X167426100Y-110226100D02*
X167426100Y-107534700D01*
X168500000Y-111300000D02*
X167426100Y-110226100D01*
X167748400Y-87414100D02*
X165462500Y-89700000D01*
X169800000Y-87414100D02*
X167748400Y-87414100D01*
X164300000Y-90862500D02*
X164300000Y-93400000D01*
X165462500Y-89700000D02*
X164300000Y-90862500D01*
X167090000Y-96190000D02*
X164300000Y-93400000D01*
X174045000Y-96190000D02*
X167090000Y-96190000D01*
X170601900Y-104358900D02*
X169091500Y-105869300D01*
X173718900Y-104358900D02*
X170601900Y-104358900D01*
X175050000Y-105690000D02*
X173718900Y-104358900D01*
X173500000Y-119588800D02*
X173500000Y-120000000D01*
X175650300Y-117438500D02*
X173500000Y-119588800D01*
X177500000Y-117438500D02*
X175650300Y-117438500D01*
X173500000Y-120000000D02*
X173500000Y-121698500D01*
X175314300Y-140876900D02*
X175410000Y-140972600D01*
X173505000Y-140876900D02*
X175314300Y-140876900D01*
X173505000Y-139350000D02*
X173505000Y-140876900D01*
X175410000Y-142062000D02*
X175410000Y-140972600D01*
X193094900Y-114041500D02*
X193094900Y-112962800D01*
X191500000Y-114041500D02*
X193094900Y-114041500D01*
X194320700Y-121592700D02*
X194320700Y-126475000D01*
X194348600Y-121564800D02*
X194320700Y-121592700D01*
X194348600Y-114242600D02*
X194348600Y-121564800D01*
X194147500Y-114041500D02*
X194348600Y-114242600D01*
X193094900Y-114041500D02*
X194147500Y-114041500D01*
X167700000Y-138700000D02*
X169662500Y-138700000D01*
X169662500Y-138700000D02*
X169662500Y-133300000D01*
X170978100Y-138700000D02*
X171628100Y-139350000D01*
X169662500Y-138700000D02*
X170978100Y-138700000D01*
X173505000Y-139350000D02*
X171628100Y-139350000D01*
X169725900Y-89790000D02*
X169091500Y-90424400D01*
X173068100Y-89790000D02*
X169725900Y-89790000D01*
X166700000Y-139700000D02*
X167700000Y-138700000D01*
X166700000Y-142759400D02*
X166700000Y-139700000D01*
X166305100Y-143154300D02*
X166700000Y-142759400D01*
X165117100Y-143154300D02*
X166305100Y-143154300D01*
X164272200Y-142309400D02*
X165117100Y-143154300D01*
X164272200Y-134632800D02*
X164272200Y-142309400D01*
X172837500Y-126067500D02*
X164272200Y-134632800D01*
X172837500Y-124157400D02*
X172837500Y-126067500D01*
X173500000Y-123494900D02*
X172837500Y-124157400D01*
X173500000Y-121698500D02*
X173500000Y-123494900D01*
X175050000Y-105690000D02*
X177221100Y-105690000D01*
X180414100Y-87414100D02*
X183800000Y-90800000D01*
X169800000Y-87414100D02*
X180414100Y-87414100D01*
X183800000Y-95764600D02*
X183800000Y-94964700D01*
X177221100Y-102343500D02*
X183800000Y-95764600D01*
X177221100Y-105690000D02*
X177221100Y-102343500D01*
X183800000Y-94964700D02*
X183800000Y-93900000D01*
X177221100Y-105690000D02*
X177506300Y-105975200D01*
X177500000Y-116475800D02*
X177500000Y-115740000D01*
X177500000Y-107951100D02*
X178491100Y-106960000D01*
X177500000Y-115740000D02*
X177500000Y-107951100D01*
X177506300Y-105975200D02*
X178491100Y-106960000D01*
X178491100Y-106960000D02*
X180000000Y-106960000D01*
X186352800Y-94964700D02*
X183800000Y-94964700D01*
X186778300Y-94539200D02*
X186352800Y-94964700D01*
X186778300Y-90156000D02*
X186778300Y-94539200D01*
X186382500Y-89760200D02*
X186778300Y-90156000D01*
X184839800Y-89760200D02*
X186382500Y-89760200D01*
X183800000Y-90800000D02*
X184839800Y-89760200D01*
X166999900Y-60973100D02*
X167937500Y-60035500D01*
X163800000Y-60973100D02*
X166999900Y-60973100D01*
X168862400Y-60035500D02*
X169800000Y-60973100D01*
X167937500Y-60035500D02*
X168862400Y-60035500D01*
X167937500Y-56162500D02*
X167361400Y-56162500D01*
X167937500Y-60035500D02*
X167937500Y-56162500D01*
X167937500Y-56162500D02*
X167937500Y-54000000D01*
X174045000Y-90590000D02*
X173068100Y-90590000D01*
X167800000Y-92550000D02*
X167800000Y-91923100D01*
X171802300Y-93121100D02*
X171802300Y-91923100D01*
X173068100Y-94386900D02*
X171802300Y-93121100D01*
X173068100Y-95390000D02*
X173068100Y-94386900D01*
X167800000Y-91923100D02*
X171802300Y-91923100D01*
X171802300Y-91855800D02*
X173068100Y-90590000D01*
X171802300Y-91923100D02*
X171802300Y-91855800D01*
X173916400Y-95390000D02*
X173068100Y-95390000D01*
X174045000Y-95390000D02*
X173916400Y-95390000D01*
X173058600Y-98458600D02*
X171700000Y-97100000D01*
X175425100Y-98458600D02*
X173058600Y-98458600D01*
X176191100Y-97692600D02*
X175425100Y-98458600D01*
X176191100Y-95877600D02*
X176191100Y-97692600D01*
X175566000Y-95252500D02*
X176191100Y-95877600D01*
X174182500Y-95252500D02*
X175566000Y-95252500D01*
X174045000Y-95390000D02*
X174182500Y-95252500D01*
X174045000Y-92740000D02*
X175021900Y-92740000D01*
X174045000Y-93740000D02*
X175021900Y-93740000D01*
X167800000Y-94450000D02*
X167800000Y-95076900D01*
X171360000Y-95076900D02*
X172043300Y-94393600D01*
X167800000Y-95076900D02*
X171360000Y-95076900D01*
X175021900Y-92764400D02*
X175296900Y-92764400D01*
X175021900Y-93740000D02*
X175021900Y-92764400D01*
X175021900Y-92764400D02*
X175021900Y-92740000D01*
X174045000Y-93240000D02*
X173068100Y-93240000D01*
X173068100Y-92298000D02*
X172810400Y-92555700D01*
X173068100Y-92240000D02*
X173068100Y-92298000D01*
X172810400Y-92982300D02*
X173068100Y-93240000D01*
X172810400Y-92555700D02*
X172810400Y-92982300D01*
X174045000Y-92240000D02*
X173068100Y-92240000D01*
X169800000Y-94450000D02*
X170476900Y-94450000D01*
X170476900Y-94249500D02*
X171185700Y-93540700D01*
X170476900Y-94450000D02*
X170476900Y-94249500D01*
X172810400Y-92555700D02*
X172551800Y-92555700D01*
X169800000Y-92750000D02*
X169123100Y-92750000D01*
X168635600Y-93237500D02*
X167069000Y-93237500D01*
X169123100Y-92750000D02*
X168635600Y-93237500D01*
X166906500Y-93400000D02*
X167069000Y-93237500D01*
X166300000Y-93400000D02*
X166906500Y-93400000D01*
X179105000Y-88380000D02*
X177778100Y-88380000D01*
X167069000Y-90168500D02*
X167069000Y-93237500D01*
X167537500Y-89700000D02*
X167069000Y-90168500D01*
X177778100Y-88380000D02*
X174605000Y-88380000D01*
X168857500Y-88380000D02*
X167537500Y-89700000D01*
X174605000Y-88380000D02*
X168857500Y-88380000D01*
M02*
