G04 #@! TF.GenerationSoftware,KiCad,Pcbnew,8.0.1*
G04 #@! TF.CreationDate,2024-03-30T15:34:10-04:00*
G04 #@! TF.ProjectId,Bird3Controller,42697264-3343-46f6-9e74-726f6c6c6572,rev?*
G04 #@! TF.SameCoordinates,Original*
G04 #@! TF.FileFunction,Paste,Bot*
G04 #@! TF.FilePolarity,Positive*
%FSLAX46Y46*%
G04 Gerber Fmt 4.6, Leading zero omitted, Abs format (unit mm)*
G04 Created by KiCad (PCBNEW 8.0.1) date 2024-03-30 15:34:10*
%MOMM*%
%LPD*%
G01*
G04 APERTURE LIST*
G04 Aperture macros list*
%AMRoundRect*
0 Rectangle with rounded corners*
0 $1 Rounding radius*
0 $2 $3 $4 $5 $6 $7 $8 $9 X,Y pos of 4 corners*
0 Add a 4 corners polygon primitive as box body*
4,1,4,$2,$3,$4,$5,$6,$7,$8,$9,$2,$3,0*
0 Add four circle primitives for the rounded corners*
1,1,$1+$1,$2,$3*
1,1,$1+$1,$4,$5*
1,1,$1+$1,$6,$7*
1,1,$1+$1,$8,$9*
0 Add four rect primitives between the rounded corners*
20,1,$1+$1,$2,$3,$4,$5,0*
20,1,$1+$1,$4,$5,$6,$7,0*
20,1,$1+$1,$6,$7,$8,$9,0*
20,1,$1+$1,$8,$9,$2,$3,0*%
G04 Aperture macros list end*
%ADD10RoundRect,0.250000X0.350000X0.450000X-0.350000X0.450000X-0.350000X-0.450000X0.350000X-0.450000X0*%
%ADD11R,5.450000X1.920000*%
%ADD12RoundRect,0.250000X0.325000X0.450000X-0.325000X0.450000X-0.325000X-0.450000X0.325000X-0.450000X0*%
%ADD13R,1.000000X0.700000*%
%ADD14RoundRect,0.250000X-1.100000X0.412500X-1.100000X-0.412500X1.100000X-0.412500X1.100000X0.412500X0*%
%ADD15R,1.650000X2.600000*%
%ADD16RoundRect,0.250000X-0.450000X0.350000X-0.450000X-0.350000X0.450000X-0.350000X0.450000X0.350000X0*%
%ADD17R,0.650000X1.525000*%
%ADD18R,3.100000X2.400000*%
%ADD19RoundRect,0.250000X0.450000X-0.350000X0.450000X0.350000X-0.450000X0.350000X-0.450000X-0.350000X0*%
%ADD20R,1.000000X2.205000*%
%ADD21R,1.000000X2.750000*%
%ADD22R,0.950000X2.205000*%
%ADD23R,2.600000X1.650000*%
%ADD24R,2.900000X5.400000*%
%ADD25RoundRect,0.250000X-0.337500X-0.475000X0.337500X-0.475000X0.337500X0.475000X-0.337500X0.475000X0*%
%ADD26RoundRect,0.250000X-0.475000X0.337500X-0.475000X-0.337500X0.475000X-0.337500X0.475000X0.337500X0*%
%ADD27RoundRect,0.250000X0.475000X-0.337500X0.475000X0.337500X-0.475000X0.337500X-0.475000X-0.337500X0*%
%ADD28RoundRect,0.150000X0.825000X0.150000X-0.825000X0.150000X-0.825000X-0.150000X0.825000X-0.150000X0*%
%ADD29R,1.505000X0.802000*%
%ADD30R,1.567800X2.101200*%
%ADD31R,0.990600X2.200800*%
%ADD32R,0.997648X2.250000*%
%ADD33R,0.995300X2.201600*%
%ADD34R,1.000000X2.251598*%
%ADD35R,0.990600X2.743200*%
%ADD36R,0.995300X2.251600*%
%ADD37R,0.995302X2.201600*%
%ADD38R,0.995302X2.251600*%
%ADD39RoundRect,0.162500X0.162500X-0.447500X0.162500X0.447500X-0.162500X0.447500X-0.162500X-0.447500X0*%
%ADD40RoundRect,0.250000X0.337500X0.475000X-0.337500X0.475000X-0.337500X-0.475000X0.337500X-0.475000X0*%
%ADD41R,0.940000X1.010000*%
G04 APERTURE END LIST*
D10*
X174350000Y-140200000D03*
X172350000Y-140200000D03*
D11*
X164650000Y-133115000D03*
X164650000Y-139885000D03*
D12*
X172372500Y-95635000D03*
X170322500Y-95635000D03*
D13*
X194500000Y-56450000D03*
X200500000Y-56450000D03*
X194500000Y-52750000D03*
X200500000Y-52750000D03*
D14*
X174100000Y-144387500D03*
X174100000Y-147512500D03*
D15*
X172300000Y-133200000D03*
X172300000Y-128900000D03*
D16*
X168950000Y-104405000D03*
X168950000Y-106405000D03*
D17*
X180910000Y-142262000D03*
X179640000Y-142262000D03*
X178370000Y-142262000D03*
X177100000Y-142262000D03*
X177100000Y-136838000D03*
X178370000Y-136838000D03*
X179640000Y-136838000D03*
X180910000Y-136838000D03*
D18*
X179005000Y-139550000D03*
D19*
X179147500Y-92135000D03*
X179147500Y-90135000D03*
D20*
X172450000Y-109547500D03*
X172450000Y-114352500D03*
X174450000Y-109547500D03*
X174450000Y-114352500D03*
D21*
X176450000Y-109820000D03*
X176450000Y-114080000D03*
X178450000Y-109820000D03*
X178450000Y-114080000D03*
X180450000Y-109820000D03*
X180450000Y-114080000D03*
X182450000Y-109820000D03*
X182450000Y-114080000D03*
X184450000Y-109820000D03*
X184450000Y-114080000D03*
X186450000Y-109820000D03*
X186450000Y-114080000D03*
X188450000Y-109820000D03*
X188450000Y-114080000D03*
D20*
X190450000Y-109547500D03*
D22*
X190425000Y-114352500D03*
D20*
X192450000Y-109547500D03*
X192450000Y-114352500D03*
D23*
X162850000Y-127550000D03*
X167150000Y-127550000D03*
D24*
X186150000Y-97200000D03*
X195850000Y-97200000D03*
D25*
X179462500Y-133500000D03*
X181537500Y-133500000D03*
D26*
X180600000Y-144912500D03*
X180600000Y-146987500D03*
D27*
X191950000Y-130537500D03*
X191950000Y-128462500D03*
D16*
X196000000Y-44700000D03*
X196000000Y-46700000D03*
X168950000Y-100405000D03*
X168950000Y-102405000D03*
D26*
X165550000Y-104330000D03*
X165550000Y-106405000D03*
D27*
X176747500Y-92172500D03*
X176747500Y-90097500D03*
D13*
X194500000Y-65000000D03*
X200500000Y-65000000D03*
X194500000Y-61300000D03*
X200500000Y-61300000D03*
D10*
X174350000Y-137700000D03*
X172350000Y-137700000D03*
D16*
X169850000Y-137700000D03*
X169850000Y-139700000D03*
D27*
X193250000Y-46737500D03*
X193250000Y-44662500D03*
D24*
X185300000Y-139450000D03*
X195000000Y-139450000D03*
D19*
X165747500Y-92135000D03*
X165747500Y-90135000D03*
D28*
X177050000Y-100795000D03*
X177050000Y-102065000D03*
X177050000Y-103335000D03*
X177050000Y-104605000D03*
X172100000Y-104605000D03*
X172100000Y-103335000D03*
X172100000Y-102065000D03*
X172100000Y-100795000D03*
D29*
X173745000Y-89180000D03*
X173745000Y-90450000D03*
X173745000Y-91720000D03*
X173745000Y-92990000D03*
X168750000Y-92990000D03*
X168750000Y-91720000D03*
X168750000Y-90450000D03*
X168750000Y-89180000D03*
D30*
X171247500Y-91085000D03*
D31*
X171449999Y-119369600D03*
D32*
X171451176Y-124145000D03*
D33*
X173452350Y-119369200D03*
D34*
X173450000Y-124145799D03*
D35*
X175449999Y-119639999D03*
X175449999Y-123900001D03*
X177450000Y-119639999D03*
X177450000Y-123900001D03*
X179449998Y-119639999D03*
X179449998Y-123900001D03*
X181449999Y-119639999D03*
X181449999Y-123900001D03*
X183450001Y-119639999D03*
X183450001Y-123900001D03*
X185449999Y-119639999D03*
X185449999Y-123900001D03*
X187450000Y-119639999D03*
X187450000Y-123900001D03*
X189449999Y-119639999D03*
X189449999Y-123900001D03*
D33*
X191452350Y-119369200D03*
D36*
X191452350Y-124145800D03*
D37*
X193452349Y-119369200D03*
D38*
X193452349Y-124145800D03*
D39*
X167100000Y-114460000D03*
X165200000Y-114460000D03*
X166150000Y-111840000D03*
D40*
X177237500Y-133500000D03*
X175162500Y-133500000D03*
D14*
X177600000Y-144400000D03*
X177600000Y-147525000D03*
D41*
X165310000Y-116250000D03*
X166890000Y-116250000D03*
D27*
X194250000Y-130537500D03*
X194250000Y-128462500D03*
M02*
